<svg id="Camada_1" data-name="Camada 1" xmlns="http://www.w3.org/2000/svg" viewBox="0 0 300 300"><defs><style>.cls-1{fill:#82eb5c;}</style></defs><path class="cls-1" d="M10,57.79a23.93,23.93,0,0,1,17.65-8.65H272.27A23.3,23.3,0,0,1,293.88,65c1.44,4,1.08,8.65,1.08,13V93.81H5v-22A23.14,23.14,0,0,1,10,57.79Z"/><path class="cls-1" d="M5,129.83H295v98a24,24,0,0,1-5.76,15.13,22.73,22.73,0,0,1-13.69,7.57,58.4,58.4,0,0,1-7.93.36H27.69a22.46,22.46,0,0,1-15.49-6.49A22.64,22.64,0,0,1,5,227.8v-98m32.06,36.74a5.13,5.13,0,0,0-4.68,3.24,5.51,5.51,0,0,0,.36,5.76,6.16,6.16,0,0,0,4.68,2.53h69.52a5.75,5.75,0,0,0,5-2.89,6.05,6.05,0,0,0-.36-6.48,6.54,6.54,0,0,0-5-2.16H37.06m0,28.82a5.8,5.8,0,0,0-5.05,4,5.62,5.62,0,0,0,1.09,5.76,6.64,6.64,0,0,0,4.32,1.8h86.81a6.16,6.16,0,0,0,5.76-5,5.85,5.85,0,0,0-3.24-5.76,5.35,5.35,0,0,0-3.24-.72H37.06"/><path class="cls-1" d="M209.23,163.69a5.81,5.81,0,0,1,5.77,1.44,5,5,0,0,1,1.08,5.4,5.11,5.11,0,0,1-5.41,3.24,5.74,5.74,0,0,1-4.68-4.68A5.1,5.1,0,0,1,209.23,163.69Z"/><path class="cls-1" d="M253.54,206.91a5.29,5.29,0,0,1,5,9,4.89,4.89,0,0,1-5.76.72c-1.8-1.08-3.25-3.25-2.88-5.41C249.57,209.43,251.38,207.27,253.54,206.91Z"/></svg>