<svg xmlns="http://www.w3.org/2000/svg" xmlns:xlink="http://www.w3.org/1999/xlink" viewBox="0 0 141.5 148.28"><defs><style>.cls-1{fill:#006b3f;}.cls-10,.cls-11,.cls-2,.cls-3,.cls-4,.cls-5,.cls-6,.cls-7,.cls-8,.cls-9{fill-rule:evenodd;}.cls-2{fill:url(#linear-gradient);}.cls-3{fill:url(#linear-gradient-2);}.cls-4{fill:url(#linear-gradient-3);}.cls-5{fill:url(#linear-gradient-4);}.cls-6{fill:url(#linear-gradient-5);}.cls-7{fill:url(#linear-gradient-7);}.cls-8{fill:url(#linear-gradient-9);}.cls-9{fill:url(#linear-gradient-10);}.cls-10{fill:url(#linear-gradient-11);}.cls-11{fill:url(#linear-gradient-12);}</style><linearGradient id="linear-gradient" x1="22.97" y1="46.22" x2="116.46" y2="46.22" gradientUnits="userSpaceOnUse"><stop offset="0" stop-color="#ff8c23"/><stop offset="1" stop-color="#ffb91a"/></linearGradient><linearGradient id="linear-gradient-2" x1="22.97" y1="56.51" x2="116.46" y2="56.51" xlink:href="#linear-gradient"/><linearGradient id="linear-gradient-3" x1="22.97" y1="49.74" x2="116.46" y2="49.74" xlink:href="#linear-gradient"/><linearGradient id="linear-gradient-4" x1="22.97" y1="43.08" x2="116.46" y2="43.08" xlink:href="#linear-gradient"/><linearGradient id="linear-gradient-5" x1="22.97" y1="65.3" x2="116.46" y2="65.3" xlink:href="#linear-gradient"/><linearGradient id="linear-gradient-7" x1="22.97" y1="47.11" x2="116.46" y2="47.11" xlink:href="#linear-gradient"/><linearGradient id="linear-gradient-9" x1="22.97" y1="63.48" x2="116.46" y2="63.48" xlink:href="#linear-gradient"/><linearGradient id="linear-gradient-10" x1="22.97" y1="27.92" x2="116.46" y2="27.92" xlink:href="#linear-gradient"/><linearGradient id="linear-gradient-11" x1="22.97" y1="31.12" x2="116.46" y2="31.12" xlink:href="#linear-gradient"/><linearGradient id="linear-gradient-12" x1="22.97" y1="33.22" x2="116.46" y2="33.22" xlink:href="#linear-gradient"/></defs><g id="Camada_2" data-name="Camada 2"><g id="Layer_1" data-name="Layer 1"><path class="cls-1" d="M133.48,52.94,87.09,12.26a24.23,24.23,0,0,0-31.82,0L8.51,52.94A24.47,24.47,0,0,0,0,71.16v52.32a25.2,25.2,0,0,0,24.76,24.8h93c13.35,0,23.7-11.44,23.7-24.79V71.16A24,24,0,0,0,133.48,52.94Z"/><path class="cls-2" d="M72.72,42.74c.56,3.35,1.08,6.51,4.51,8.28h0v-9.6H72.49C72.57,41.86,72.65,42.3,72.72,42.74Z"/><path class="cls-3" d="M76,53.49c-4.67-2.4-5.4-6.78-6-10.3-.11-.62-.2-1.21-.32-1.77H65.59a14,14,0,0,0,1,7.41,13.82,13.82,0,0,1,.94,7.89,9.56,9.56,0,0,1-4.75,7.22,9.3,9.3,0,0,0-2.1,1.77,9.57,9.57,0,0,0-2,5.89h4.41a24.06,24.06,0,0,1,2.54-4.11c1.55-2.22,3.48-5,4.19-7.37,1.34-4.49,5-4,7.43-3.64V54.27a2,2,0,0,1-.74-.49Z"/><polygon class="cls-4" points="94.44 53.78 94.44 45.69 86.34 53.78 94.44 53.78"/><polygon class="cls-5" points="80.03 53.78 82.4 53.78 94.44 41.75 94.44 32.37 80.03 46.78 80.03 53.78"/><path class="cls-6" d="M72.48,60.91c-.84,2.83-2.91,5.8-4.58,8.18-.55.78-1.21,1.73-1.69,2.51h11V59.3l-.18,0C74.23,58.79,73.11,58.8,72.48,60.91Z"/><path class="cls-3" d="M54.49,49.33a13.11,13.11,0,0,0,2.62-7.91h-2.9a39,39,0,0,1-2.86,8.25c-1.65,3.93-3.52,8.38-4.29,13V71.6h3c2-6.9,1.88-10,1.76-12.51A15.4,15.4,0,0,1,52.21,54,14.34,14.34,0,0,1,54.49,49.33Z"/><path class="cls-7" d="M51.39,41.42H47.06V52.8c.57-1.45,1.16-2.86,1.73-4.21A44,44,0,0,0,51.39,41.42Z"/><path class="cls-3" d="M59.9,41.42a15.91,15.91,0,0,1-3.09,9.45,11.91,11.91,0,0,0-1.91,3.84A13.07,13.07,0,0,0,54.63,59c.13,2.62.29,5.84-1.65,12.65h2.91A12.28,12.28,0,0,1,58.5,64a11.47,11.47,0,0,1,2.69-2.32,6.87,6.87,0,0,0,3.58-5.36,11.21,11.21,0,0,0-.8-6.5,16.72,16.72,0,0,1-1.18-8.37ZM59.58,57a1.6,1.6,0,1,1,1.6-1.6A1.6,1.6,0,0,1,59.58,57Z"/><path class="cls-8" d="M70.75,0A45.15,45.15,0,0,0,25.6,45.15c0,24.94,27.29,57.63,42.79,80.54,1.35,1.68,3.71,1.68,4.72,0C89,102.78,115.9,70.09,115.9,45.15A45.16,45.16,0,0,0,70.75,0ZM97.22,56.57H80V74.38H44.28V38.63H61.47V20.82H97.22Z"/><polygon class="cls-9" points="64.25 23.6 64.25 32.23 72.88 23.6 64.25 23.6"/><polygon class="cls-10" points="85.82 23.6 76.82 23.6 64.25 36.17 64.25 38.63 70.79 38.63 85.82 23.6"/><polygon class="cls-11" points="74.73 38.63 80.03 38.63 80.03 42.84 94.44 28.44 94.44 23.6 89.51 23.6 89.63 23.73 74.73 38.63"/></g></g></svg>