<svg xmlns="http://www.w3.org/2000/svg" xmlns:xlink="http://www.w3.org/1999/xlink" viewBox="0 0 146.75 170.5"><defs><style>.cls-1{fill:#006b3f;}.cls-2{fill:url(#linear-gradient);}</style><linearGradient id="linear-gradient" y1="73.45" x2="146.75" y2="73.45" gradientUnits="userSpaceOnUse"><stop offset="0" stop-color="#ff8c23"/><stop offset="1" stop-color="#ffb91a"/></linearGradient></defs><g id="Camada_2" data-name="Camada 2"><g id="Layer_1" data-name="Layer 1"><path class="cls-1" d="M136.11,75.16,89.72,34.49a24.21,24.21,0,0,0-31.82,0L11.14,75.16A24.44,24.44,0,0,0,2.63,93.39V145.7a25.19,25.19,0,0,0,24.76,24.8h93c13.35,0,23.71-11.44,23.71-24.79V93.39A24,24,0,0,0,136.11,75.16Z"/><path class="cls-2" d="M145.24,74.16a4.84,4.84,0,0,0-3.93-1.41l-2.86.25a5,5,0,0,0-4.56,4.65,60.69,60.69,0,0,1-31,48.79c-5.15-8.28-16.84-14.1-30.52-14.28,1.16-7.8,8.7-20.7,8.7-20.7,13.24,1.62,37.88,4.64,30.2-40.92-3.88,4.75-9.91,6-23,7.7-12.17,1.6-19.6,18.64-11.1,28.64,3.95-4.82,8-8.23,15-12.72-15.59,13.94-21.51,29.13-23,33.61h0A42.27,42.27,0,0,0,53.46,88c4,1.52,8.26,3.76,11,6.76,6.28-13.15-5.42-24.61-30.42-25.25,3.77,8.83,1.16,17,3.39,21.82,3.2,6.86,13.11,10.46,24.06,9.23a28.35,28.35,0,0,1,4.57,11.91c-10.71,1.24-19.73,6-24.56,12.49A60.6,60.6,0,1,1,106.43,22.62l-.58.63L102.4,27l-7.2,7.86a3.6,3.6,0,0,0,2.45,6l35.74,2a3.6,3.6,0,0,0,3.77-4.12L132.05,3.39h0a3.61,3.61,0,0,0-6.23-1.92l-5.33,5.81L115.22,13a73.47,73.47,0,1,0,31.52,65A4.83,4.83,0,0,0,145.24,74.16Z"/></g></g></svg>