<svg xmlns="http://www.w3.org/2000/svg" xmlns:xlink="http://www.w3.org/1999/xlink" viewBox="0 0 141.5 169.65"><defs><style>.cls-1{fill:#006b3f;}.cls-2{fill:url(#linear-gradient);}.cls-3{fill:url(#linear-gradient-2);}.cls-4{fill:url(#linear-gradient-3);}.cls-5{fill:url(#linear-gradient-4);}.cls-6{fill:url(#linear-gradient-5);}.cls-7{fill:url(#linear-gradient-6);}.cls-8{fill:url(#linear-gradient-7);}.cls-9{fill:url(#linear-gradient-8);}.cls-10{fill:url(#linear-gradient-9);}.cls-11{fill:url(#linear-gradient-10);}.cls-12{fill:url(#linear-gradient-11);}.cls-13{fill:url(#linear-gradient-12);}.cls-14{fill:url(#linear-gradient-13);}.cls-15{fill:url(#linear-gradient-14);}.cls-16{fill:url(#linear-gradient-15);}.cls-17{fill:url(#linear-gradient-16);}.cls-18{fill:url(#linear-gradient-17);}.cls-19{fill:url(#linear-gradient-18);}.cls-20{fill:url(#linear-gradient-19);}.cls-21{fill:url(#linear-gradient-20);}.cls-22{fill:url(#linear-gradient-21);}</style><linearGradient id="linear-gradient" x1="17.91" y1="52.57" x2="123.05" y2="52.57" gradientUnits="userSpaceOnUse"><stop offset="0" stop-color="#ff8c23"/><stop offset="1" stop-color="#ffb91a"/></linearGradient><linearGradient id="linear-gradient-2" x1="45.85" y1="56.73" x2="64.27" y2="56.73" gradientTransform="translate(50.63 -22.2) rotate(40.93)" xlink:href="#linear-gradient"/><linearGradient id="linear-gradient-3" x1="25.54" y1="45.5" x2="29.47" y2="45.5" xlink:href="#linear-gradient"/><linearGradient id="linear-gradient-4" x1="44.78" y1="22.96" x2="62.53" y2="22.96" xlink:href="#linear-gradient"/><linearGradient id="linear-gradient-5" x1="73.4" y1="89.96" x2="107.63" y2="89.96" xlink:href="#linear-gradient"/><linearGradient id="linear-gradient-6" x1="71.41" y1="89.55" x2="109.03" y2="89.55" xlink:href="#linear-gradient"/><linearGradient id="linear-gradient-7" x1="62.18" y1="38.09" x2="99.22" y2="38.09" xlink:href="#linear-gradient"/><linearGradient id="linear-gradient-8" x1="60.55" y1="38.2" x2="100.97" y2="38.2" xlink:href="#linear-gradient"/><linearGradient id="linear-gradient-9" x1="23.63" y1="73.02" x2="52.37" y2="73.02" xlink:href="#linear-gradient"/><linearGradient id="linear-gradient-10" x1="22.11" y1="72.84" x2="54.24" y2="72.84" xlink:href="#linear-gradient"/><linearGradient id="linear-gradient-11" x1="51.67" y1="88.79" x2="73.52" y2="88.79" xlink:href="#linear-gradient"/><linearGradient id="linear-gradient-12" x1="85.55" y1="66.94" x2="92.68" y2="66.94" xlink:href="#linear-gradient"/><linearGradient id="linear-gradient-13" x1="23.86" y1="20.68" x2="48.16" y2="20.68" xlink:href="#linear-gradient"/><linearGradient id="linear-gradient-14" x1="22.58" y1="20.62" x2="49.45" y2="20.62" xlink:href="#linear-gradient"/><linearGradient id="linear-gradient-15" x1="75.62" y1="4.97" x2="95.83" y2="4.97" xlink:href="#linear-gradient"/><linearGradient id="linear-gradient-16" x1="75.27" y1="5.02" x2="96.41" y2="5.02" xlink:href="#linear-gradient"/><linearGradient id="linear-gradient-17" x1="82.99" y1="13.68" x2="88.45" y2="13.68" gradientTransform="translate(79.03 -72.87) rotate(76.51)" xlink:href="#linear-gradient"/><linearGradient id="linear-gradient-18" x1="114.41" y1="45.86" x2="121.65" y2="45.86" xlink:href="#linear-gradient"/><linearGradient id="linear-gradient-19" x1="113" y1="46.44" x2="123.05" y2="46.44" xlink:href="#linear-gradient"/><linearGradient id="linear-gradient-20" x1="106.58" y1="71.09" x2="119.9" y2="71.09" xlink:href="#linear-gradient"/><linearGradient id="linear-gradient-21" x1="98.98" y1="39.37" x2="115.11" y2="39.37" xlink:href="#linear-gradient"/></defs><g id="Camada_2" data-name="Camada 2"><g id="Layer_1" data-name="Layer 1"><path class="cls-1" d="M133.48,74.31,87.09,33.63a24.21,24.21,0,0,0-31.82,0L8.51,74.31A24.47,24.47,0,0,0,0,92.53v52.32a25.2,25.2,0,0,0,24.76,24.8h93c13.35,0,23.7-11.45,23.7-24.8V92.53A24,24,0,0,0,133.48,74.31Z"/><path class="cls-2" d="M70.48,105.15a52.58,52.58,0,1,1,52.57-52.58A52.65,52.65,0,0,1,70.48,105.15Zm0-102.23a49.65,49.65,0,1,0,49.65,49.65A49.75,49.75,0,0,0,70.48,2.92Z"/><rect class="cls-3" x="44.13" y="55.27" width="21.85" height="2.92" transform="translate(-23.71 49.94) rotate(-40.93)"/><path class="cls-4" d="M26.55,56.54c-2.22-10.51-.12-21.61,0-22.08l2.92.59c0,.12-2.1,11,0,20.91Z"/><path class="cls-5" d="M61.37,27.45c-.12,0-9-4.2-16.59-6.19l.7-2.8a112.69,112.69,0,0,1,17.05,6.42Z"/><path class="cls-6" d="M80.06,102.81c-3.51-4-6.66-10.75-6.66-10.75a107,107,0,0,0,17.87-15,63.13,63.13,0,0,0,16.36,2.45s-.93,7.71-5.61,13.2"/><path class="cls-7" d="M78.89,103.74c-3.5-4.09-6.66-10.86-6.89-11.1l-.59-1.16,1-.7A108.92,108.92,0,0,0,90,76.06l.58-.71.94.24A61.87,61.87,0,0,0,107.4,78H109v1.75a28.58,28.58,0,0,1-5.84,14l-2.34-2A25.34,25.34,0,0,0,105.76,81a64.9,64.9,0,0,1-14.14-2.22A108.33,108.33,0,0,1,75.27,92.53a49.32,49.32,0,0,0,5.84,9.34Z"/><path class="cls-8" d="M63.35,49.54l23.72,7.59A97.29,97.29,0,0,0,99.22,37.5,136.07,136.07,0,0,0,84.5,19a122.82,122.82,0,0,0-22.32,7Z"/><path class="cls-9" d="M87.54,58.76,62,50.59l-1.4-25.36.93-.35a120.82,120.82,0,0,1,22.67-7.12l.82-.12.58.59a133.32,133.32,0,0,1,15,18.69l.47.7-.35.7A108,108,0,0,1,88.35,58.18ZM64.75,48.37l21.73,7a98.4,98.4,0,0,0,11-17.76A135.1,135.1,0,0,0,83.91,20.68,131.47,131.47,0,0,0,63.59,27Z"/><path class="cls-10" d="M23.63,73A52.07,52.07,0,0,1,28,56.19s6.2,3,18.81,7.6A93.33,93.33,0,0,0,52.37,85.4a54.63,54.63,0,0,1-16.82,4.44"/><path class="cls-11" d="M35.66,91.36l-.23-2.92A49.75,49.75,0,0,0,50.5,84.7a96.48,96.48,0,0,1-5-19.74C36.6,61.8,31.11,59.35,28.65,58.3a55.62,55.62,0,0,0-3.62,15L22.11,73a50.39,50.39,0,0,1,4.56-17.41l.7-1.28,1.28.7c.12,0,6.2,3,18.7,7.47l.81.35.12.94a92.56,92.56,0,0,0,5.49,21.26l.47,1.29L53,86.8C52.6,86.92,44.43,90.78,35.66,91.36Z"/><path class="cls-12" d="M73.28,93.46c-11.1-1.17-21.14-6.54-21.61-6.77l1.4-2.57c.12,0,9.93,5.25,20.45,6.42Z"/><path class="cls-13" d="M89.76,77.22A95.87,95.87,0,0,0,85.55,57.6l2.8-.94A93.58,93.58,0,0,1,92.68,77Z"/><path class="cls-14" d="M48.16,6.54a36.71,36.71,0,0,0-2.92,13.32A79.07,79.07,0,0,0,28,34.81l-4.09-3.27,9.35-13.9Z"/><path class="cls-15" d="M27.14,35.87l-4.21-3.16-.35-2,9.35-13.91.35-.35L47.23,5.37l2.22,1.76a34.35,34.35,0,0,0-2.8,12.73l-.71,1.29a74.84,74.84,0,0,0-16.82,14.6Zm-1.29-4.68,2,1.52A80.37,80.37,0,0,1,43.84,19a42.08,42.08,0,0,1,1.4-8.41l-11,8.06Z"/><path class="cls-16" d="M95.83,8.18c-2.57-.59-8.88,0-8.88,0s-3.5-5-11.33-6.43l12.5,2.92Z"/><path class="cls-17" d="M86.25,9.7,85.78,9a16.36,16.36,0,0,0-8.53-5.38l-2-.47.58-2.8c.7.12,1.4.35,2.11.47L88.7,3.27l7.71,3.62-.93,2.69a13,13,0,0,0-3-.23c-2.45,0-5.25.23-5.25.23Zm.58-3.86.82.82c.35,0,.82-.12,1.29-.12L87.77,6Z"/><rect class="cls-18" x="80.11" y="12.22" width="11.22" height="2.92" transform="translate(52.43 93.84) rotate(-76.51)"/><path class="cls-19" d="M120.71,62H118.5c-.36-12.39-4.09-20.57-4.09-20.57s2.22-7.12,1.75-11.8l4.55,13.91L121.65,54Z"/><path class="cls-20" d="M120.71,63.55H118.5l-1.41-1.4a54.27,54.27,0,0,0-4-20L113,41.12c0-.11,2.11-6.89,1.76-11.21l2.8-.59,4.56,14.26L123.05,54v.24l-.93,8.06ZM116,41.36a59,59,0,0,1,3.74,16.24l.35-3.63-.82-10.16-2.22-6.89C116.63,38.9,116.28,40.54,116,41.36Z"/><path class="cls-21" d="M108.56,80.61l-2-2.1c6.89-6.54,10.51-16.82,10.51-16.94l2.81.93C119.78,63,116,73.6,108.56,80.61Z"/><path class="cls-22" d="M113.82,42.76A53.9,53.9,0,0,0,99,38.9L99.34,36a56.55,56.55,0,0,1,15.77,4.09Z"/></g></g></svg>