<svg id="Layer_1" data-name="Layer 1" xmlns="http://www.w3.org/2000/svg" xmlns:xlink="http://www.w3.org/1999/xlink" viewBox="0 0 150 185"><defs><style>.cls-1{fill:#006b3f;}.cls-2{fill:url(#linear-gradient);}</style><linearGradient id="linear-gradient" x1="7.22" y1="82.7" x2="142.78" y2="82.7" gradientUnits="userSpaceOnUse"><stop offset="0" stop-color="#ff8c23"/><stop offset="1" stop-color="#ffb91a"/></linearGradient></defs><path class="cls-1" d="M137.73,89.66,91.34,49a24.21,24.21,0,0,0-31.82,0L12.77,89.66a24.45,24.45,0,0,0-8.52,18.23V160.2A25.19,25.19,0,0,0,29,185h93c13.35,0,23.7-11.44,23.7-24.79V107.89A24,24,0,0,0,137.73,89.66Z"/><path class="cls-2" d="M93.37,18.59A14.66,14.66,0,1,1,78.71,3.93,14.65,14.65,0,0,1,93.37,18.59Zm45,9.21c5.47,1.81,5.48,7.22,1.84,10.82l-31,3.61c-5.46,3-10.91,7.19-16.37,9l-9.1,34.17L100.18,89c5.46,1.8,7.26,7.22,5.44,10.82l-25.48,36c-5.46,3.6-12.76,1.79-12.76-3.61l18.2-28.79-10.93-1.78-18.2,27C51,134,43.74,132.21,43.74,125l14.54-23.36C51,94.45,47.36,87.21,49.18,80l9.1-30.62L34.64,47.61,12.77,53c-5.46,0-7.3-5.36-3.66-10.76L36.41,35H63.77c3.65,3.6,9.08,5.38,14.54,5.38S91,36.79,94.68,33.19c3-1.2,7.28-3.61,9.1-3.61l34.63-1.78ZM15.69,125l75.44,22.33c3.47,1,10.11-.73,12.48-3.1a3.68,3.68,0,1,1,5.21,5.21,21,21,0,0,1-20.95,4.53c-.13,4.43-2.76,7.65-7.33,7.55a7.32,7.32,0,0,1-7.32-7.32A7.4,7.4,0,0,1,74.53,150L40.19,139.83a7.3,7.3,0,1,1-13.57-4l-13-3.84a3.77,3.77,0,0,1-2.75-3.9A3.82,3.82,0,0,1,15.69,125Z"/></svg>