<?xml version="1.0" encoding="utf-8"?>
<!-- Generator: Adobe Illustrator 25.0.1, SVG Export Plug-In . SVG Version: 6.00 Build 0)  -->
<svg version="1.1" xmlns="http://www.w3.org/2000/svg" xmlns:xlink="http://www.w3.org/1999/xlink" x="0px" y="0px"
	 viewBox="0 0 100 100" style="enable-background:new 0 0 100 100;" xml:space="preserve">
<style type="text/css">
	.st0{fill:#8C8C8C;}
</style>
<g id="Layer_2">
</g>
<g id="Layer_1">
	<g>
		<path class="st0" d="M50,0C22.4,0,0,22.4,0,50s22.4,50,50,50s50-22.4,50-50S77.6,0,50,0z M50,90.8C27.5,90.8,9.2,72.5,9.2,50
			S27.5,9.2,50,9.2S90.8,27.5,90.8,50S72.5,90.8,50,90.8z"/>
		<circle class="st0" cx="60.9" cy="32.3" r="6"/>
		<path class="st0" d="M66.3,47.7c-1.4-1.9-4.2-1.9-5.6,0l-2.3,3.2c-0.4,0.6-1.5,0.6-1.9,0l-9.9-13.8c-1.4-1.9-4.2-1.9-5.6,0
			L24.2,60.8c-1.6,2.2,0,5.4,2.7,5.4h46c2.7,0,4.4-3.2,2.7-5.4L66.3,47.7z"/>
	</g>
</g>
</svg>
