<svg xmlns="http://www.w3.org/2000/svg" xmlns:xlink="http://www.w3.org/1999/xlink" viewBox="0 0 141.5 173.15"><defs><style>.cls-1{fill:#006b3f;}.cls-2{fill:url(#linear-gradient);}.cls-3{fill:url(#linear-gradient-2);}</style><linearGradient id="linear-gradient" x1="-21.99" y1="68.84" x2="179.28" y2="68.84" gradientUnits="userSpaceOnUse"><stop offset="0" stop-color="#ff8c23"/><stop offset="1" stop-color="#ffb91a"/></linearGradient><linearGradient id="linear-gradient-2" x1="596.57" y1="196.75" x2="797.83" y2="196.75" gradientTransform="translate(377.71 97.31) rotate(180) scale(0.38)" xlink:href="#linear-gradient"/></defs><g id="Camada_2" data-name="Camada 2"><g id="Layer_1" data-name="Layer 1"><path class="cls-1" d="M133.48,77.81,87.09,37.14a24.21,24.21,0,0,0-31.82,0L8.51,77.81A24.47,24.47,0,0,0,0,96v52.32a25.19,25.19,0,0,0,24.76,24.79h93c13.35,0,23.7-11.44,23.7-24.79V96A24,24,0,0,0,133.48,77.81Z"/><path class="cls-2" d="M78.6,13.17a10.37,10.37,0,0,0-15.71.16C52.09,25.93,27,58.08,27,84.35a43.91,43.91,0,0,0,35.14,43,38.94,38.94,0,0,0,7.61.73,46.68,46.68,0,0,0,30.76-12.6C136.44,83.16,92.83,29,78.6,13.17ZM67.9,113.9l-.39,0A31.59,31.59,0,0,1,40.8,87.29,4.13,4.13,0,0,1,49,86.1a23.49,23.49,0,0,0,19.64,19.64,3.84,3.84,0,0,1,3.27,3.8l.08.25A4.09,4.09,0,0,1,67.9,113.9Z"/><path class="cls-3" d="M112.65,43.67a3.94,3.94,0,0,0,6-.06c4.11-4.79,13.66-17,13.66-27A16.7,16.7,0,0,0,118.92.28,14.75,14.75,0,0,0,116,0a17.75,17.75,0,0,0-11.7,4.79C90.66,17.06,107.24,37.65,112.65,43.67Zm4.07-38.29h.14A12,12,0,0,1,127,15.49a1.57,1.57,0,1,1-3.11.45,8.91,8.91,0,0,0-7.47-7.46A1.47,1.47,0,0,1,115.2,7l0-.09A1.55,1.55,0,0,1,116.72,5.38Z"/></g></g></svg>