<svg id="Layer_1" data-name="Layer 1" xmlns="http://www.w3.org/2000/svg" xmlns:xlink="http://www.w3.org/1999/xlink" viewBox="0 0 150 185"><defs><style>.cls-1{fill:#006b3f;}.cls-2{fill:url(#linear-gradient);}.cls-3{fill-rule:evenodd;fill:url(#linear-gradient-2);}</style><linearGradient id="linear-gradient" x1="-4.36" y1="146.95" x2="161.03" y2="146.95" gradientUnits="userSpaceOnUse"><stop offset="0" stop-color="#ff8c23"/><stop offset="1" stop-color="#ffb91a"/></linearGradient><linearGradient id="linear-gradient-2" x1="-4.36" y1="70.45" x2="161.03" y2="70.45" xlink:href="#linear-gradient"/></defs><path class="cls-1" d="M137.73,89.66,91.34,49a24.21,24.21,0,0,0-31.82,0L12.77,89.66a24.45,24.45,0,0,0-8.52,18.23V160.2A25.19,25.19,0,0,0,29,185h93c13.35,0,23.7-11.44,23.7-24.79V107.89A24,24,0,0,0,137.73,89.66Z"/><path class="cls-2" d="M36.81,144.94,5.4,156.26a1.73,1.73,0,0,0-1.19,1.63v3.28a.63.63,0,0,0,.59.59H145.2a.63.63,0,0,0,.59-.59V132.73a.64.64,0,0,0-.59-.59H109.47a214.93,214.93,0,0,0-59.85,8.63Zm6.11-5.21"/><path class="cls-3" d="M48.29,34.69l1.14-.09a14.17,14.17,0,0,1,15.25,13L66.4,69.45a36.07,36.07,0,0,1,11.06,6.81l20.23-1.6a7.1,7.1,0,0,1,7.62,6.51l3,37.31a7.09,7.09,0,1,1-14.13,1.12L91.74,89.32l-4.94.39A35.82,35.82,0,1,1,29.2,76.53l4.62,5.4a9.12,9.12,0,0,0,1.86,1.66A26.22,26.22,0,1,0,51.41,76.7c-.49,0-1,.09-1.46.16A9.14,9.14,0,0,0,47.79,70L37.05,57.41l-2.18,1.86L45.61,71.85A6.32,6.32,0,1,1,36,80.06L21.15,62.68a6.33,6.33,0,0,1,.7-8.91l17.55-15A14.07,14.07,0,0,1,48.29,34.69ZM49.76,29A13.41,13.41,0,1,0,35.34,16.69,13.41,13.41,0,0,0,49.76,29Z"/></svg>