<svg id="Layer_1" data-name="Layer 1" xmlns="http://www.w3.org/2000/svg" xmlns:xlink="http://www.w3.org/1999/xlink" viewBox="0 0 150 185"><defs><style>.cls-1{fill:#006b3f;}.cls-2,.cls-3{fill-rule:evenodd;}.cls-2{fill:url(#linear-gradient);}.cls-3{fill:url(#linear-gradient-2);}</style><linearGradient id="linear-gradient" x1="1.42" y1="79.05" x2="67.25" y2="79.05" gradientUnits="userSpaceOnUse"><stop offset="0" stop-color="#ff8c23"/><stop offset="1" stop-color="#ffb91a"/></linearGradient><linearGradient id="linear-gradient-2" x1="60.65" y1="79.06" x2="148.58" y2="79.06" xlink:href="#linear-gradient"/></defs><path class="cls-1" d="M137.73,89.66,91.34,49a24.21,24.21,0,0,0-31.82,0L12.77,89.66a24.45,24.45,0,0,0-8.52,18.23V160.2A25.19,25.19,0,0,0,29,185h93c13.35,0,23.7-11.44,23.7-24.79V107.89A24,24,0,0,0,137.73,89.66Z"/><path class="cls-2" d="M67.25,82.59a38.23,38.23,0,0,0-11.32-7.15A25.94,25.94,0,0,0,66.28,54.68a25.37,25.37,0,0,0-50.74.14,25.63,25.63,0,0,0,10.35,20.6C11.53,81.23,1.42,95.91,1.42,112.31c0,14.54,35,19.41,58.37,14.6-4.72-2.81-7.61-6.42-7.61-10.83A45,45,0,0,1,67.25,82.59Z"/><path class="cls-3" d="M87.89,75a28.4,28.4,0,0,1,16.72-51.24,28.17,28.17,0,0,1,28.25,28.14A28.87,28.87,0,0,1,121.34,75c16,6.47,27.24,22.79,27.24,41.05,0,24.35-87.93,24.35-87.93,0,0-18.25,11.25-34.6,27.24-41.07Z"/></svg>