<svg id="Layer_1" data-name="Layer 1" xmlns="http://www.w3.org/2000/svg" xmlns:xlink="http://www.w3.org/1999/xlink" viewBox="0 0 150 185"><defs><style>.cls-1{fill:#006b3f;}.cls-2{fill:url(#linear-gradient);}.cls-3{fill:url(#linear-gradient-2);}.cls-4{fill:url(#linear-gradient-3);}.cls-5{fill:url(#linear-gradient-4);}.cls-6{fill:url(#linear-gradient-5);}.cls-7{fill:url(#linear-gradient-6);}.cls-8{fill:url(#linear-gradient-7);}.cls-9{fill:url(#linear-gradient-8);}.cls-10{fill:url(#linear-gradient-9);}.cls-11{fill:url(#linear-gradient-10);}</style><linearGradient id="linear-gradient" x1="-8.07" y1="52.65" x2="150.52" y2="52.65" gradientUnits="userSpaceOnUse"><stop offset="0" stop-color="#ff8c23"/><stop offset="1" stop-color="#ffb91a"/></linearGradient><linearGradient id="linear-gradient-2" x1="-8.07" y1="32.04" x2="150.52" y2="32.04" xlink:href="#linear-gradient"/><linearGradient id="linear-gradient-3" x1="-8.07" y1="39.82" x2="150.52" y2="39.82" xlink:href="#linear-gradient"/><linearGradient id="linear-gradient-4" x1="-8.07" y1="25.65" x2="150.52" y2="25.65" xlink:href="#linear-gradient"/><linearGradient id="linear-gradient-5" x1="-8.07" y1="67.03" x2="150.52" y2="67.03" xlink:href="#linear-gradient"/><linearGradient id="linear-gradient-6" x1="-8.07" y1="102.58" x2="150.52" y2="102.58" xlink:href="#linear-gradient"/><linearGradient id="linear-gradient-7" x1="-8.07" y1="89.61" x2="150.52" y2="89.61" xlink:href="#linear-gradient"/><linearGradient id="linear-gradient-8" x1="-8.07" y1="115.87" x2="150.52" y2="115.87" xlink:href="#linear-gradient"/><linearGradient id="linear-gradient-9" x1="-8.07" y1="94.06" x2="150.52" y2="94.06" xlink:href="#linear-gradient"/><linearGradient id="linear-gradient-10" x1="-8.07" y1="130.19" x2="150.52" y2="130.19" xlink:href="#linear-gradient"/></defs><path class="cls-1" d="M137.78,89.66,91.39,49a24.21,24.21,0,0,0-31.82,0L12.82,89.66A24.45,24.45,0,0,0,4.3,107.89V160.2A25.19,25.19,0,0,0,29.06,185h93c13.35,0,23.7-11.44,23.7-24.79V107.89A24,24,0,0,0,137.78,89.66Z"/><path class="cls-2" d="M19.47,46.17a16.93,16.93,0,0,0-7.26-4.9c-3.63-1.26-7-.94-9.16.79s-3.31,4.9-3,8.68A17.27,17.27,0,0,0,3.21,59a18.22,18.22,0,0,0,7.42,5,14.19,14.19,0,0,0,4.26.79,8,8,0,0,0,5.05-1.58C25,59.27,22.94,50.43,19.47,46.17Z"/><path class="cls-3" d="M22.78,44a15.45,15.45,0,0,0,5.06,1.1,8.84,8.84,0,0,0,4.89-1.42C38.41,40,37.46,30.7,34.31,25.8a15.57,15.57,0,0,0-7.26-5.68c-3.63-1.58-7.11-1.42-9.79.32S13.15,25.17,13,29.28a16.86,16.86,0,0,0,1.1,6.94A12.22,12.22,0,0,0,16.63,40,22.7,22.7,0,0,0,22.78,44Z"/><path class="cls-4" d="M67.46,53.43a7.55,7.55,0,0,0,1.89.16c5.84,0,10.89-6.16,12.16-11.21,1.26-5.37-1.11-14.52-7.58-16.1C67.3,24.7,61,31.64,59.56,37,58.3,42.54,61,51.85,67.46,53.43Z"/><path class="cls-5" d="M49.93,41h0c6.79,0,11.84-8.53,11.84-15.79a17.28,17.28,0,0,0-5.21-11.68,10.35,10.35,0,0,0-6.94-3.16,11,11,0,0,0-7.74,3.79,16.25,16.25,0,0,0-4.57,11.53C37.62,32.59,43.46,41,49.93,41Z"/><path class="cls-6" d="M75.51,70.79C76,64,70.14,58.48,66,56.27a31.63,31.63,0,0,1-10-7.74c-4.26-5.05-11.05-7.1-14.21-6.47-4.26.79-9.62,4.42-12.47,11.21-1.73,4.26-5.84,11.21-7.89,14.52a15.25,15.25,0,0,0-1.58,3.63,21,21,0,0,0-.63,5c-.16,6.32,2.05,11.21,6.16,13.74A16.05,16.05,0,0,0,33.2,92.1a12.45,12.45,0,0,0,6.32-1.42l.31-.16c9-5.21,11.37-5.68,11.84-5.68.79,0,2,.16,3.47.16,7.11.47,10.42.47,12.32-.48C73.93,81.21,75.19,75.37,75.51,70.79Z"/><path class="cls-7" d="M82.29,115.78c2.85-.63,5.06-3.16,6.16-7a18.71,18.71,0,0,0,.32-8.84c-1.27-5.2-7.26-12-13.26-10.57s-8.05,10.26-6.79,15.47a15,15,0,0,0,4.74,7.57c2.36,2.21,4.57,3.48,6.94,3.48A5.35,5.35,0,0,0,82.29,115.78Z"/><path class="cls-8" d="M100.76,103.47h1.11c6.94-.79,9.63-10,8.84-15.63a16.51,16.51,0,0,0-4.26-8.21c-2.69-2.84-5.84-4.26-9-3.79-6.63,1-9.79,10-9,15.31C89.24,96.36,94.45,103,100.76,103.47Z"/><path class="cls-9" d="M146.54,104.89c-5.37-4.26-14-.48-17.52,3.79a16.18,16.18,0,0,0-3.16,9c-.16,4.11,1,7.42,3.48,9.32a7.85,7.85,0,0,0,5.36,1.73,13.34,13.34,0,0,0,4.26-.79,16.27,16.27,0,0,0,7.58-5.2C150.33,118.31,151.91,109,146.54,104.89Z"/><path class="cls-10" d="M118.76,108.2a8.37,8.37,0,0,0,3.47.63c5.37,0,11.37-4.73,13.89-10.1A17,17,0,0,0,136.28,86a10.41,10.41,0,0,0-5.05-5.85,11.11,11.11,0,0,0-8.68.16,16.73,16.73,0,0,0-9,8.68C111,95.42,112.76,105.52,118.76,108.2Z"/><path class="cls-11" d="M121.13,117.52c-1.74-6.32-7.11-11-10.26-11.84-4.11-1.11-10.74,0-16,4.89-3.15,3-9.31,7.1-12.63,9.47a20.14,20.14,0,0,0-6.15,7.42c-2.84,5.68-2.84,11,0,15.15s8.84,6.63,12.47,6.32h.47c10.26-1.11,12.63-.47,13.1-.16l3.16,1.58c6.16,3.31,9.16,4.74,11.21,4.74h.16c7.26-.32,10.73-5.06,12.94-9.16,3.16-6,.16-13.42-2.52-17.05A27.51,27.51,0,0,1,121.13,117.52Z"/></svg>