<svg id="Layer_1" data-name="Layer 1" xmlns="http://www.w3.org/2000/svg" xmlns:xlink="http://www.w3.org/1999/xlink" viewBox="0 0 150 185"><defs><style>.cls-1{fill:#006b3f;}.cls-2{fill:url(#linear-gradient);}.cls-3{fill:url(#linear-gradient-2);}</style><linearGradient id="linear-gradient" x1="9.13" y1="70.68" x2="132.63" y2="70.68" gradientUnits="userSpaceOnUse"><stop offset="0" stop-color="#ff8c23"/><stop offset="1" stop-color="#ffb91a"/></linearGradient><linearGradient id="linear-gradient-2" x1="9.13" y1="114.3" x2="132.63" y2="114.3" xlink:href="#linear-gradient"/></defs><path class="cls-1" d="M137.73,89.66,91.34,49a24.21,24.21,0,0,0-31.82,0L12.77,89.66a24.45,24.45,0,0,0-8.52,18.23V160.2A25.19,25.19,0,0,0,29,185h93c13.35,0,23.7-11.44,23.7-24.79V107.89A24,24,0,0,0,137.73,89.66Z"/><path class="cls-2" d="M38,117.73a10,10,0,0,1,3.24-8.52,9.67,9.67,0,0,1,6.47-2.46c3.22,0,6.53,1.49,9.57,4.31l2.24,2.1c2.35,2.19,4.38,4.09,8,7.12l.2.16c0-2.65-.29-5.81-2.86-36.31L63.88,73l0-.16v-.17c0-5.43,3.84-9.53,9-9.54h0A8.43,8.43,0,0,1,79.32,66a15,15,0,0,1,2.83,5.36c.83,2.49,5.78,17.94,8.15,25.34a16.86,16.86,0,0,1,3.48-.38,14,14,0,0,1,9.36,3.48V18.41a15.05,15.05,0,0,0-15-15.08H40A15.08,15.08,0,0,0,24.89,18.39V123A15.08,15.08,0,0,0,40,138h11L41.2,125.44A13.77,13.77,0,0,1,38,117.73ZM49.64,8.13H78.42v2.1a2.85,2.85,0,0,1-2.83,2.83H52.47a2.85,2.85,0,0,1-2.83-2.83Z"/><path class="cls-3" d="M117.13,113c-2-6.51-7.46-7.63-11-7.63a16.91,16.91,0,0,0-3,.28H103c-2.8-4.22-6.28-5.35-9.21-5.35a13.39,13.39,0,0,0-6,1.51s-8.31-26-9.39-29.21-2.48-5.51-5.52-5.51h0c-3,0-5,2.48-5,5.54,3.8,45.18,3.82,45,3.82,48.65,0,2.6-.73,4.3-2.41,4.3-1.07,0-2.51-.68-4.36-2.25-4.75-4-6.83-6.08-10.34-9.33-2.22-2-4.63-3.25-6.86-3.25a5.68,5.68,0,0,0-3.83,1.46c-3,2.61-2.19,7.71.42,10.7L69.05,155s.92-.33,8.2-.33c14.36,0,24.28,4.72,26,6.05a3.27,3.27,0,0,0,2,.82c1.06,0,2.13-.8,3.15-2.86,2.82-5.68,13.08-25.68,16.28-32.29C127.45,116.42,117.13,113,117.13,113Z"/></svg>