<svg xmlns="http://www.w3.org/2000/svg" xmlns:xlink="http://www.w3.org/1999/xlink" viewBox="0 0 141.5 169.39"><defs><style>.cls-1{fill:#006b3f;}.cls-2{fill:url(#linear-gradient);}</style><linearGradient id="linear-gradient" x1="9.16" y1="54.61" x2="130.05" y2="54.61" gradientUnits="userSpaceOnUse"><stop offset="0" stop-color="#ff8c23"/><stop offset="1" stop-color="#ffb91a"/></linearGradient></defs><g id="Camada_2" data-name="Camada 2"><g id="Layer_1" data-name="Layer 1"><path class="cls-1" d="M133.48,74.05,87.09,33.37a24.21,24.21,0,0,0-31.82,0L8.51,74.05A24.47,24.47,0,0,0,0,92.27v52.32a25.2,25.2,0,0,0,24.76,24.8h93c13.35,0,23.7-11.45,23.7-24.8V92.27A24,24,0,0,0,133.48,74.05Z"/><path class="cls-2" d="M97.18,0A32.22,32.22,0,0,0,69.53,16,31.87,31.87,0,0,0,41.88,0C24.06,0,9.16,16,9.16,35c0,8.3,1.08,11.68,5.84,19.51s54.68,54.68,54.68,54.68,49.77-46.85,54.53-54.68,5.84-11.37,5.84-19.51C130.05,16.13,115.31,0,97.18,0Z"/></g></g></svg>