<svg id="Layer_1" data-name="Layer 1" xmlns="http://www.w3.org/2000/svg" xmlns:xlink="http://www.w3.org/1999/xlink" viewBox="0 0 50 50"><defs><style>.cls-1{fill:url(#linear-gradient);}.cls-2,.cls-3{fill:#fff;}.cls-3{fill-rule:evenodd;}</style><linearGradient id="linear-gradient" x1="0.08" y1="25" x2="49.92" y2="25" gradientUnits="userSpaceOnUse"><stop offset="0" stop-color="#ff8b22"/><stop offset="1" stop-color="#ffb719"/></linearGradient></defs><path class="cls-1" d="M47.09,16.42,30.76,2.1a8.53,8.53,0,0,0-11.21,0L3.08,16.42a8.62,8.62,0,0,0-3,6.42V41.27A8.87,8.87,0,0,0,8.8,50H41.57a8.57,8.57,0,0,0,8.35-8.73V22.84A8.46,8.46,0,0,0,47.09,16.42Z"/><path class="cls-2" d="M18,29v4H14V29Z"/><path class="cls-2" d="M14,35v4h4V35Z"/><path class="cls-2" d="M24,33H20V29h4Z"/><path class="cls-2" d="M20,39h4V35H20Z"/><path class="cls-2" d="M30,33H26V29h4Z"/><path class="cls-2" d="M26,39h4V35H26Z"/><path class="cls-2" d="M32,33V29h4v4Z"/><path class="cls-3" d="M36,15v1h2a3,3,0,0,1,3,3V41a3,3,0,0,1-3,3H12a3,3,0,0,1-3-3V19a3,3,0,0,1,3-3h2V15a1,1,0,0,1,2,0v1H34V15a1,1,0,0,1,2,0ZM12,18a1,1,0,0,0-1,1v5H39V19a1,1,0,0,0-1-1Zm27,8H11V41a1,1,0,0,0,1,1H38a1,1,0,0,0,1-1Z"/></svg>