<svg id="Layer_1" data-name="Layer 1" xmlns="http://www.w3.org/2000/svg" xmlns:xlink="http://www.w3.org/1999/xlink" viewBox="0 0 150 185"><defs><style>.cls-1{fill:#006b3f;}.cls-2{fill-rule:evenodd;fill:url(#linear-gradient);}</style><linearGradient id="linear-gradient" x1="13.71" y1="84.98" x2="136.39" y2="84.98" gradientUnits="userSpaceOnUse"><stop offset="0" stop-color="#ff8c23"/><stop offset="1" stop-color="#ffb91a"/></linearGradient></defs><path class="cls-1" d="M137.78,89.66,91.39,49a24.21,24.21,0,0,0-31.82,0L12.82,89.66A24.45,24.45,0,0,0,4.3,107.89V160.2A25.19,25.19,0,0,0,29.06,185h93c13.35,0,23.7-11.44,23.7-24.79V107.89A24,24,0,0,0,137.78,89.66Z"/><path class="cls-2" d="M111.35,25.45H81l.65,38.22H69l.59-38.22H38.74c-2.46,0-4.8,1.46-5.19,3.27L13.89,137.1c-.88,4,1.5,7.4,5.29,7.4H66.64l1.14-39.31H83l1.24,39.31h46.73c3.79,0,6.17-3.38,5.29-7.4L116.55,28.72c-.39-1.81-2.73-3.27-5.2-3.27ZM82.73,98.36H68L68.8,70h13l.89,28.39Z"/></svg>