<svg id="Layer_1" data-name="Layer 1" xmlns="http://www.w3.org/2000/svg" xmlns:xlink="http://www.w3.org/1999/xlink" viewBox="0 0 50 50"><defs><style>.cls-1{fill:url(#linear-gradient);}.cls-2{fill:#fff;}</style><linearGradient id="linear-gradient" x1="0.08" y1="25" x2="49.92" y2="25" gradientUnits="userSpaceOnUse"><stop offset="0" stop-color="#793f98"/><stop offset="1" stop-color="#ac41d8"/></linearGradient></defs><path class="cls-1" d="M47.09,16.42,30.76,2.1a8.53,8.53,0,0,0-11.21,0L3.08,16.42a8.62,8.62,0,0,0-3,6.42V41.27A8.87,8.87,0,0,0,8.8,50H41.57a8.57,8.57,0,0,0,8.35-8.73V22.84A8.46,8.46,0,0,0,47.09,16.42Z"/><path class="cls-2" d="M21.46,28.83a3.28,3.28,0,0,1,2.65-3.22v-.7a.9.9,0,0,1,1.79,0v.72a3.5,3.5,0,0,1,2.37,2.05.89.89,0,0,1-1.65.69A1.75,1.75,0,0,0,25,27.3a1.59,1.59,0,0,0-1.75,1.53c0,.27,0,1.11,2,1.55h0c2.87.67,3.32,2.35,3.32,3.29A3.29,3.29,0,0,1,25.9,36.9v.71a.9.9,0,1,1-1.79,0V36.9a3.53,3.53,0,0,1-2.37-2,.89.89,0,0,1,.44-1.19.9.9,0,0,1,1.19.44.08.08,0,0,0,0,0A1.74,1.74,0,0,0,25,35.23a1.6,1.6,0,0,0,1.76-1.53c0-.28,0-1.11-2-1.56h0C21.89,31.45,21.46,29.77,21.46,28.83Zm6.45-12.29a.88.88,0,0,0,1.23-.22l3.08-4.39a.9.9,0,0,0-.16-1.21,11.32,11.32,0,0,0-14.12,0,.89.89,0,0,0-.16,1.2l3.08,4.39a.9.9,0,0,0,1.47-1l-2.59-3.68a9.57,9.57,0,0,1,10.52,0L27.68,15.3a.88.88,0,0,0,.22,1.24ZM12.94,34a20.42,20.42,0,0,1,7.24-15.52.94.94,0,0,1,.58-.21h8.48a.94.94,0,0,1,.58.21A20.37,20.37,0,0,1,37.06,34v2.55l.28.13A3.33,3.33,0,0,1,35.9,43H14.1a3.33,3.33,0,0,1-1.44-6.34l.28-.13Zm-.35,6a1.53,1.53,0,0,0,1.5,1.2H35.9a1.54,1.54,0,0,0,.67-2.93l-.79-.36a.89.89,0,0,1-.5-.83V34A18.59,18.59,0,0,0,28.91,20H21.09A18.6,18.6,0,0,0,14.73,34v3.11a.9.9,0,0,1-.5.81l-.79.35A1.55,1.55,0,0,0,12.59,40Z"/></svg>