<svg id="Layer_1" data-name="Layer 1" xmlns="http://www.w3.org/2000/svg" xmlns:xlink="http://www.w3.org/1999/xlink" viewBox="0 0 150 185"><defs><style>.cls-1{fill:#006b3f;}.cls-2{fill:url(#linear-gradient);}.cls-3{fill:url(#linear-gradient-2);}</style><linearGradient id="linear-gradient" x1="0.93" y1="103.04" x2="161.74" y2="103.04" gradientUnits="userSpaceOnUse"><stop offset="0" stop-color="#ff8c23"/><stop offset="1" stop-color="#ffb91a"/></linearGradient><linearGradient id="linear-gradient-2" x1="0.93" y1="115.82" x2="161.74" y2="115.82" xlink:href="#linear-gradient"/></defs><path class="cls-1" d="M137.63,89.66,91.24,49a24.21,24.21,0,0,0-31.82,0L12.66,89.66a24.44,24.44,0,0,0-8.51,18.23V160.2A25.19,25.19,0,0,0,28.91,185h93c13.35,0,23.71-11.44,23.71-24.79V107.89A24,24,0,0,0,137.63,89.66Z"/><path class="cls-2" d="M50.52,146.69a150.08,150.08,0,0,1-3.3-16.2c-.94-9.28-.16-15.26.63-18.4,1.89-3,6.76-8.18,9.91-9.91a11,11,0,0,0,6.61,2.36A10.54,10.54,0,0,0,74.91,94,11.76,11.76,0,0,0,73,87.86a15.82,15.82,0,0,0-2.36-28,5.79,5.79,0,0,0,.16-1.73A12.12,12.12,0,0,0,58.7,46a13,13,0,0,0-6,1.57,15.5,15.5,0,0,0-11.8-5.35A15.92,15.92,0,0,0,27.4,49.79,12,12,0,0,0,8.68,59.86a11.25,11.25,0,0,0,.94,4.56A15.93,15.93,0,0,0,.5,78.74a15.66,15.66,0,0,0,6.76,12.9A18,18,0,0,0,7,94.47a12.12,12.12,0,0,0,12.11,12.11,12.34,12.34,0,0,0,6.77-2,71.56,71.56,0,0,1,7.7,7.7c1.26,3.46,3.78,12.59,1.11,25.8-3.62,17.15-6.77,25.8-2.52,25.8H44.7A11.62,11.62,0,0,1,43,157.71C42.66,152.83,46,148.42,50.52,146.69Zm-12.9-38.38a16.07,16.07,0,0,1-1.57.47,45,45,0,0,1-7.55-7.08,10.05,10.05,0,0,0,1.73-3.46,13.58,13.58,0,0,0,2.36-.78,19.45,19.45,0,0,0,4.09,1.88C37.47,103,38.1,107.05,37.62,108.31Zm5.51-.47a65.9,65.9,0,0,1-1.89-7.55c.63,0,1.1.16,1.73.16A19.65,19.65,0,0,0,53,97.77l1.42,1.42c-3,2.83-7.71,7.08-11,8.81C43.44,107.84,43.29,107.84,43.13,107.84Z"/><path class="cls-3" d="M148.21,81.88,130.75,68.51a3.79,3.79,0,0,0-4.4,0L109,81.88a3.37,3.37,0,0,0-1.41,2.83v27.53h-4.09a14.93,14.93,0,0,0-12.43,6.45l-23,31.94a3.38,3.38,0,0,1-2.67,1.26H54.77a6,6,0,1,0,0,12h10.7a15.17,15.17,0,0,0,12.43-6.45l22.8-31.78a3.39,3.39,0,0,1,2.68-1.25h4.09v35.71a3.62,3.62,0,0,0,7.24,0v-4.41h27.52v4.41a3.66,3.66,0,0,0,3.62,3.61,3.55,3.55,0,0,0,3.62-3.61V84.87A3.14,3.14,0,0,0,148.21,81.88ZM118.8,92.42a4.16,4.16,0,0,1,4.09-4.09h11.64a4.17,4.17,0,0,1,4.09,4.09v12.12a4.17,4.17,0,0,1-4.09,4.09H122.89a4.16,4.16,0,0,1-4.09-4.09Zm23.59,56H114.86v-8.18h27.53Zm0-15.41H114.86v-8.18h27.53Z"/></svg>