<svg id="Layer_1" data-name="Layer 1" xmlns="http://www.w3.org/2000/svg" xmlns:xlink="http://www.w3.org/1999/xlink" viewBox="0 0 150 185"><defs><style>.cls-1{fill:#006b3f;}.cls-2{fill:url(#linear-gradient);}.cls-3{fill:url(#linear-gradient-2);}.cls-4{fill:url(#linear-gradient-3);}</style><linearGradient id="linear-gradient" x1="-3.38" y1="116.88" x2="152.95" y2="116.88" gradientUnits="userSpaceOnUse"><stop offset="0" stop-color="#ff8c23"/><stop offset="1" stop-color="#ffb91a"/></linearGradient><linearGradient id="linear-gradient-2" x1="-3.38" y1="90.12" x2="152.95" y2="90.12" xlink:href="#linear-gradient"/><linearGradient id="linear-gradient-3" x1="-3.38" y1="126.53" x2="152.95" y2="126.53" xlink:href="#linear-gradient"/></defs><path class="cls-1" d="M137.67,89.88,91.28,49.2a24.23,24.23,0,0,0-31.82,0L12.7,89.88A24.43,24.43,0,0,0,4.19,108.1v52.32A25.19,25.19,0,0,0,29,185.22h93c13.35,0,23.71-11.44,23.71-24.79V108.1A24,24,0,0,0,137.67,89.88Z"/><path class="cls-2" d="M139.31,119.43H82.77a1.62,1.62,0,0,1-1.62-1.63V116a1.62,1.62,0,0,1,1.62-1.63h54.92a1.63,1.63,0,0,1,1.63,1.63v3.47Z"/><path class="cls-3" d="M144.41,125.45v6.73a1.47,1.47,0,0,1-1.46,1.46H78a1.46,1.46,0,0,1-1.46-1.46v-6.73A1.46,1.46,0,0,0,75.12,124H73a1.46,1.46,0,0,0-1.46,1.46V146.2A1.46,1.46,0,0,1,70,147.66H63.26a1.44,1.44,0,0,1-1.37-.92,21.08,21.08,0,0,1-1.08-7c0-5.16-.54-26.19-.8-36,.18,0,.36,0,.55,0,15.76,0,28.53-12,28.53-26.84a25.07,25.07,0,0,0-1.37-8.15A1.45,1.45,0,0,1,88,67.47a17.74,17.74,0,0,0,3.7-10.83C91.65,46.35,82.78,38,71.84,38h-.1C69.39,29.83,61.46,23.81,52,23.81c-9.21,0-17,5.74-19.54,13.62a1.44,1.44,0,0,1-1.64,1A24.5,24.5,0,0,0,26.35,38C13.18,38,2.5,48.05,2.5,60.44a21.51,21.51,0,0,0,5,13.73,1.42,1.42,0,0,1,.27,1.34,25.24,25.24,0,0,0-1.09,7.35c0,14.83,12.77,26.85,28.53,26.85.28,0,.54,0,.81,0l14.14,16.1a1.43,1.43,0,0,1,.37,1c-.16,5.94-.29,11-.29,13a22.81,22.81,0,0,1-1.1,6.93,1.44,1.44,0,0,1-1.38,1H2A1.46,1.46,0,0,0,.5,149.12V155A1.46,1.46,0,0,0,2,156.42H148A1.46,1.46,0,0,0,149.5,155V125.45A1.46,1.46,0,0,0,148,124h-2.17A1.46,1.46,0,0,0,144.41,125.45Zm-96-10.36-4.46-4.47a1.45,1.45,0,0,1,.59-2.41A28.37,28.37,0,0,0,49,106.38a1.45,1.45,0,0,1,2.12,1.33c-.06,1.91-.12,4.08-.19,6.39A1.47,1.47,0,0,1,48.4,115.09Zm32.75,32.57H76.59v-8.93h4.56Zm53.08,0h-48v-8.93h48Zm10.18,0h-5.09v-8.93h5.09Z"/><rect class="cls-4" x="81.15" y="123.99" width="58.17" height="5.09" rx="1.63"/></svg>