<svg xmlns="http://www.w3.org/2000/svg" viewBox="0 0 67.72 87"><defs><style>.cls-1{fill:#f68a28;}</style></defs><g id="Camada_2" data-name="Camada 2"><g id="Camada_1-2" data-name="Camada 1"><path class="cls-1" d="M12.12,0A12.22,12.22,0,0,0,0,12.31V74.72A12.2,12.2,0,0,0,12.12,87H55.59A12.2,12.2,0,0,0,67.72,74.72V21.56l0-.15v-.07l0-.06v0l0-.06v0a.25.25,0,0,0,0-.07l0,0v0l0-.06-.06-.06,0,0v0L49.09.38,49,.31A1.09,1.09,0,0,0,48.44,0l-.13,0H12.12Zm0,2.19h35v8.19A12.19,12.19,0,0,0,59.28,22.66h6.25V74.72a10,10,0,0,1-9.94,10.09H12.12a9.94,9.94,0,0,1-9.9-10.09V12.31a10,10,0,0,1,9.9-10.12ZM49.37,4,64.16,20.47H59.28a10,10,0,0,1-9.91-10.09V4ZM28.12,9.59A17.57,17.57,0,0,0,19.75,12a18.07,18.07,0,0,0-6.44,24.47,17.64,17.64,0,0,0,14.88,8.94,1.2,1.2,0,0,0,.75,0,17.39,17.39,0,0,0,8.12-2.22,1.08,1.08,0,0,0,.72-.41,18,18,0,0,0,8.44-14.9,1.08,1.08,0,0,0,0-.75,18,18,0,0,0-2.38-8.6A17.57,17.57,0,0,0,28.12,9.59Zm1.57,2.22A15.4,15.4,0,0,1,42,19.63a15.76,15.76,0,0,1,2,6.75H29.69V11.81Zm-2.19,0V43.16a15.42,15.42,0,0,1-12.31-7.82,15.79,15.79,0,0,1,5.69-21.43,15.16,15.16,0,0,1,6.62-2.07Zm3,16.72H44a15.72,15.72,0,0,1-6.78,11.91L30.47,28.56Zm-.78,3,5.69,10a15.11,15.11,0,0,1-5.69,1.57V31.6ZM12.81,54.38a1.11,1.11,0,1,0,0,2.21H37.69a1.11,1.11,0,1,0,0-2.21Zm-.12,6.25a1.11,1.11,0,0,0,.1,2.22H50.56a1.11,1.11,0,1,0,0-2.21H12.81A.24.24,0,0,0,12.69,60.63Zm0,6.25a1.1,1.1,0,0,0-.93,1.25,1.09,1.09,0,0,0,1.05.93H50.56a1.1,1.1,0,0,0,.24-2.18H12.69Zm-.1,6.25a1.1,1.1,0,0,0,.22,2.18H32.19a1.1,1.1,0,1,0,.23-2.18H12.59Z"/></g></g></svg>