<svg xmlns="http://www.w3.org/2000/svg" viewBox="0 0 688 862.26"><defs><style>.cls-1{fill:#f68a28;}</style></defs><g id="Camada_2" data-name="Camada 2"><g id="Camada_1-2" data-name="Camada 1"><path class="cls-1" d="M667.5,214.43H504c-1.2,0-3-.6-4.2-.3.1,0,4.1.7,1.9.2-.9-.2-1.8-.3-2.7-.5-1.5-.4-3-.8-4.5-1.3-.6-.2-1.3-.5-1.9-.7-2.2-.7,1.9.7,1.7.8-1.1.6-7.1-3.9-8.1-4.5-3.1-1.9,2.6,2.4-.1,0-1.1-1-2.3-2-3.4-3.1-.9-.9-1.8-1.9-2.7-2.9a8.7,8.7,0,0,1-1.3-1.5c0,.3,2.4,3.5.8.9s-2.8-5-4.2-7.4c-1-1.8.7,1.6.7,1.7a7.31,7.31,0,0,0-.7-1.9,44.44,44.44,0,0,1-1.5-5.2c-.2-.8-.9-5.2-.5-2s-.1-2.2-.1-2.9V98.43c0-25.5.7-51.2,0-76.7v-1.3c-11.4,4.7-22.8,9.4-34.1,14.1l72.2,72.2,115.2,115.2,26.6,26.6c7.4,7.4,21,8,28.3,0s7.9-20.4,0-28.3L609.2,148,494,32.83,467.4,6.23C455.2-6,433.3,3,433.3,20.33v156.3c0,16.7,3,33.4,13.2,47.1,14.5,19.5,35.9,30.5,60.3,30.6h79.5c26.5,0,53.1.5,79.6,0h1.4c10.5,0,20.5-9.2,20-20C687,223.63,678.7,214.43,667.5,214.43Z"/><path class="cls-1" d="M647.5,234.43v539.9c0,1.9-.1,3.8-.2,5.7,0,.5-.1.9-.1,1.4-.2,1.8-.2,1.8,0,.1.1-.4.1-.9.2-1.3a25.58,25.58,0,0,1-.5,2.7,56.38,56.38,0,0,1-2.1,7.8c-.3.8-.6,1.7-.9,2.5-1.5,4.4,2.1-4,0,.1-1,2-2,3.9-3.1,5.8-.5.8-2.9,5.5-3.6,5.5,0,0,3.2-3.8.7-1-1,1.2-2,2.3-3,3.4a54.39,54.39,0,0,1-4.2,4.1c-.5.4-2.4,2.5-3,2.5.7,0,3.3-2.3.9-.8-1.8,1.2-3.6,2.4-5.5,3.5a39,39,0,0,1-3.5,1.9l-1.2.6c-2,.9-1.6.7,1.1-.4-.3.8-5.5,1.9-6.3,2.2-2.2.6-4.4,1-6.6,1.5-4.4,1,3.5-.3.6,0l-3.4.3c-1.4.1-2.8.1-4.2.1H150.1c-20.8,0-41.6.2-62.4,0a26.2,26.2,0,0,1-2.8-.1l-4.1-.3c-3.2-.2,1.2.2,1.2.2-.4.6-13.8-2.8-14.2-3.9.4.9,3.8,1.9.5.1-1-.5-2-1-2.9-1.5a64.24,64.24,0,0,1-5.6-3.4,13.66,13.66,0,0,1-2.1-1.5c.7.5,1.3,1,2,1.5a16.32,16.32,0,0,1-2-1.7c-1.8-1.6-3.5-3.2-5.2-5-.7-.8-1.5-1.6-2.2-2.4s-1.9-3.6-.9-1c1.1,2.8-.3-.5-.7-1.2-.6-.9-1.2-1.8-1.8-2.8-1-1.7-2-3.4-2.9-5.2l-.6-1.2c-.9-2-.7-1.6.4,1.1-.3-.1-1.3-3.4-1.4-3.7-.7-2.1-1.3-4.3-1.8-6.5-.1-.3-1-3.9-.8-4s.5,5.3.2,1.2c-.2-2.3-.3-4.7-.4-7V88.33a26.2,26.2,0,0,1,.1-2.8,26.35,26.35,0,0,1,.2-2.8l.3-2.7c-.4,2.8-.5,3.5-.2,1.9,1-4.2,2-8.2,3.4-12.3,1.5-4.4-2.1,4,0-.1l1.2-2.4c1.2-2.3,2.6-4.6,4-6.8.4-.6,1.9-3.9.7-1.2s.3-.3.9-1a50,50,0,0,1,4.5-4.7c1-.9,3.7-4.3,4.9-4.3-.7,0-3.3,2.3-.9.8,1.5-.9,2.9-2,4.4-2.8C65,46,67,45,68.9,44c2.7-1.4-1,.1-1.1.4.2-.4,2.6-1,3.1-1.2,2.1-.7,4.3-1.3,6.4-1.9,1.1-.3,2.2-.4,3.3-.7,4.3-1-4,.2.1-.1,2.6-.2,5.2-.3,7.9-.4H453.8c-4.7-2-9.4-3.9-14.1-5.9l72.2,72.2,115.2,115.2,26.6,26.6c7.4,7.4,21,8,28.3,0s7.9-20.4,0-28.3l-80.4-80.4L484,21.93,470.4,8.33c-4.8-4.8-10.2-8-17.4-8.2-12.4-.3-24.9,0-37.3,0H88.6c-18,.1-36.3,5.3-50.9,15.8C12.9,33.83,0,61,0,91.43v679.5c0,30.8,13.4,58.4,38.8,76.2,17.4,12.3,37.7,15.1,58.4,15.1H594.7c2.7,0,5.4.1,8.1-.1,24.7-1,49-12.2,64.6-31.6,13.1-16.3,20.4-35.6,20.6-56.6V234.13c0-10.5-9.2-20.5-20-20C656.6,214.93,647.5,223.23,647.5,234.43Z"/><path class="cls-1" d="M154.1,435.83H486c15.4,0,30.8.4,46.1,0h.7c10.5,0,20.5-9.2,20-20s-8.8-20-20-20H200.9c-15.4,0-30.8-.4-46.1,0h-.7c-10.5,0-20.5,9.2-20,20s8.8,20,20,20Z"/><path class="cls-1" d="M154.1,563.93H486c15.4,0,30.8.4,46.1,0h.7c10.5,0,20.5-9.2,20-20s-8.8-20-20-20H200.9c-15.4,0-30.8-.4-46.1,0h-.7c-10.5,0-20.5,9.2-20,20s8.8,20,20,20Z"/><path class="cls-1" d="M154.1,692.13H383.3c10.5,0,20.5-9.2,20-20s-8.8-20-20-20H154.1c-10.5,0-20.5,9.2-20,20s8.8,20,20,20Z"/></g></g></svg>