<?xml version="1.0" encoding="utf-8"?>
<!-- Generator: Adobe Illustrator 27.0.0, SVG Export Plug-In . SVG Version: 6.00 Build 0)  -->
<svg version="1.1" id="Camada_1" xmlns="http://www.w3.org/2000/svg" xmlns:xlink="http://www.w3.org/1999/xlink" x="0px" y="0px"
	 viewBox="0 0 250 250" style="enable-background:new 0 0 250 250;" xml:space="preserve">
<style type="text/css">
	.st0{fill:#079D56;}
	.st1{clip-path:url(#SVGID_00000152251173962378412000000014898975405021987988_);}
</style>
<path class="st0" d="M212.5,210.1H37.8c-1.8,0-3.2-1.4-3.2-3.2V59.8c0-1.8,1.4-3.2,3.2-3.2h89.1c1.8,0,3.2,1.4,3.2,3.2
	s-1.4,3.2-3.2,3.2H41v140.8h168.3V63h-24c-1.8,0-3.2-1.4-3.2-3.2s1.4-3.2,3.2-3.2h27.2c1.8,0,3.2,1.4,3.2,3.2V207
	C215.7,208.8,214.3,210.1,212.5,210.1"/>
<rect id="SVGID" x="34.3" y="56.5" class="st0" width="6.6" height="153.7"/>
<path class="st0" d="M212.5,112.2H178c-1.8,0-3.2-1.4-3.2-3.2s1.4-3.2,3.2-3.2h34.5c1.8,0,3.2,1.4,3.2,3.2S214.3,112.2,212.5,112.2"
	/>
<path class="st0" d="M133,112.2H92.2c-1.8,0-3.2-1.4-3.2-3.2s1.4-3.2,3.2-3.2H133c1.8,0,3.2,1.4,3.2,3.2S134.8,112.2,133,112.2"/>
<path class="st0" d="M92.2,210.1c-1.8,0-3.2-1.4-3.2-3.2v-90.8l-49.3,43.8c-0.6,0.5-1.3,0.8-2.1,0.8l-1.2-6.4l53.7-47.7
	c0.9-0.8,2.3-1,3.4-0.5c1.2,0.5,1.9,1.7,1.9,2.9v98C95.4,208.8,94,210.2,92.2,210.1"/>
<path class="st0" d="M212.5,177.6h-56.4c-0.4,0-0.8-0.1-1.1-0.2L91,153c-1.7-0.6-2.5-2.5-1.9-4.1c0.6-1.7,2.5-2.5,4.1-1.9l63.3,24.1
	h55.8c1.8,0,3.2,1.4,3.2,3.2C215.7,176.1,214.3,177.6,212.5,177.6"/>
<path class="st0" d="M156.1,46.2c-16.9,0-30.6,13.7-30.6,30.6c0,14.1,8.8,27.9,16.1,37c5.7,7.1,11.5,12.5,14.5,15.2
	c3-2.6,8.8-8.1,14.5-15.2c7.3-9.1,16.1-22.9,16.1-37C186.7,59.8,172.9,46.2,156.1,46.2z M156.1,136.2c-0.7,0-1.4-0.2-2-0.7
	c-0.4-0.3-8.8-7.1-17.4-17.7c-5.1-6.3-9.1-12.5-12-18.6c-3.7-7.8-5.6-15.3-5.6-22.5c0-9.9,3.8-19.2,10.8-26.2
	c7-7,16.3-10.8,26.1-10.8s19.2,3.9,26.2,10.8c7,7,10.8,16.3,10.8,26.2c0,7.1-1.9,14.7-5.6,22.5c-2.9,6.1-7,12.4-12,18.6
	c-8.6,10.6-17,17.5-17.4,17.7C157.5,136.1,156.8,136.2,156.1,136.2"/>
<path class="st0" d="M156.1,64.6c-6.8,0-12.3,5.5-12.3,12.3s5.5,12.3,12.3,12.3s12.3-5.5,12.3-12.3S162.8,64.6,156.1,64.6z
	 M156.1,95.6c-10.3,0-18.7-8.4-18.7-18.7s8.4-18.7,18.7-18.7s18.7,8.4,18.7,18.7S166.4,95.6,156.1,95.6"/>
<g>
	<rect id="SVGID-2" x="152.8" y="129.9" class="st0" width="6.6" height="80.3"/>
	<g>
		<rect x="152.8" y="129.9" class="st0" width="6.6" height="80.3"/>
		<g>
			<g>
				<rect id="SVGID_1_" x="152.8" y="129.9" class="st0" width="6.6" height="80.3"/>
			</g>
			<g>
				<defs>
					<rect id="SVGID_00000044139471499895286180000009309674548335592340_" x="152.8" y="129.9" width="6.6" height="80.3"/>
				</defs>
				<use xlink:href="#SVGID_00000044139471499895286180000009309674548335592340_"  style="overflow:visible;fill:#079D56;"/>
				<clipPath id="SVGID_00000150794666489885051310000018227744515753572248_">
					<use xlink:href="#SVGID_00000044139471499895286180000009309674548335592340_"  style="overflow:visible;"/>
				</clipPath>
				<g style="clip-path:url(#SVGID_00000150794666489885051310000018227744515753572248_);">
					<path class="st0" d="M156.1,129.9c-1.8,0-3.2,1.4-3.2,3.2V207c0,1.8,1.4,3.2,3.2,3.2s3.2-1.4,3.2-3.2v-73.9
						C159.3,131.4,157.9,129.9,156.1,129.9"/>
				</g>
			</g>
		</g>
	</g>
</g>
</svg>
