<?xml version="1.0" encoding="utf-8"?>
<!-- Generator: Adobe Illustrator 27.0.0, SVG Export Plug-In . SVG Version: 6.00 Build 0)  -->
<svg version="1.1" id="Camada_1" xmlns="http://www.w3.org/2000/svg" xmlns:xlink="http://www.w3.org/1999/xlink" x="0px" y="0px"
	 viewBox="0 0 250 250" style="enable-background:new 0 0 250 250;" xml:space="preserve">
<style type="text/css">
	.st0{fill:#079D56;}
</style>
<g>
	<path class="st0" d="M202.6,57.1H82.3v-5.7c0-6.5-8-11.3-18.7-11.3S44.8,45,44.8,51.5v146.9c0,6.5,8,11.3,18.7,11.3
		s18.7-4.8,18.7-11.3h120.3c1.4,0,2.7-1.2,2.7-2.8V60C205.3,58.5,204,57.1,202.6,57.1z M63.6,45.8c8.1,0,13.4,3.4,13.4,5.7
		s-5.2,5.7-13.4,5.7s-13.4-3.4-13.4-5.7C50.2,49.2,55.4,45.8,63.6,45.8z M76.9,198.5c0,2.3-5.2,5.7-13.4,5.7s-13.4-3.4-13.4-5.7
		V59.6l0,0c0.8,0.5,1.8,0.9,2.7,1.3l0,0c1,0.4,2.1,0.7,3.2,1l0,0c1.1,0.3,2.4,0.5,3.5,0.6c1.2,0.1,2.6,0.2,3.9,0.2s2.6-0.1,3.9-0.2
		c1.2-0.1,2.4-0.3,3.6-0.6l0,0c1-0.3,2.2-0.6,3.2-1l0,0c0.9-0.4,1.8-0.8,2.7-1.3l0,0L76.9,198.5L76.9,198.5z M199.9,192.9H82.3V62.8
		h117.6V192.9L199.9,192.9z"/>
	<path class="st0" d="M63.6,210.2c-10.9,0-19.1-5-19.1-11.7v-147c0-6.7,8.2-11.7,19.1-11.7s19.1,5,19.1,11.7v5.2h119.8
		c1.8,0,3.1,1.4,3.1,3.3v135.6c0,1.8-1.4,3.3-3.1,3.3H82.7C82.4,205.4,74.2,210.2,63.6,210.2L63.6,210.2z M63.6,40.7
		c-10.4,0-18.3,4.6-18.3,10.9v147c0,6.2,7.8,10.9,18.3,10.9s18.3-4.7,18.3-10.9V198h120.7c1.2,0,2.3-1,2.3-2.4V60
		c0-1.3-1-2.4-2.3-2.4H81.9v-6.1C81.9,45.3,74,40.7,63.6,40.7L63.6,40.7z M63.6,204.6c-8.5,0-13.8-3.5-13.8-6.1V59.2h0.5l0.1,0.1
		c0.8,0.5,1.8,0.9,2.7,1.3c1,0.4,2.1,0.7,3.2,1s2.4,0.5,3.5,0.6c1.2,0.1,2.6,0.2,3.8,0.2c1.2,0,2.6-0.1,3.8-0.2
		c1.1-0.1,2.4-0.3,3.5-0.6H71c0.9-0.2,1.9-0.6,3-1c0.9-0.4,1.8-0.8,2.7-1.3l0.1-0.1h0.5v139.3C77.3,201,72.1,204.6,63.6,204.6
		L63.6,204.6z M50.6,60.3v138.2c0,1.8,4.5,5.2,13,5.2s13-3.5,13-5.2V60.3c-0.7,0.4-1.4,0.7-2.2,1c-1,0.4-2.2,0.8-3.3,1H71
		c-1.1,0.3-2.3,0.5-3.5,0.6s-2.6,0.2-3.9,0.2s-2.6,0-4-0.1c-1.2-0.1-2.5-0.3-3.6-0.6s-2.2-0.6-3.2-1C52,61,51.3,60.7,50.6,60.3z
		 M200.3,193.3H81.9V62.4h118.5L200.3,193.3L200.3,193.3z M82.7,192.5h116.7V63.2H82.7V192.5L82.7,192.5z M63.6,57.5
		c-8.5,0-13.8-3.5-13.8-6.1s5.2-6.1,13.8-6.1s13.8,3.5,13.8,6.1S72.1,57.5,63.6,57.5z M63.6,46.3c-8.3,0-13,3.5-13,5.2
		s4.5,5.2,13,5.2s13-3.5,13-5.2C76.5,49.7,72,46.3,63.6,46.3z"/>
</g>
<g>
	<path class="st0" d="M95.6,173.4h90.9c1.4,0,2.7-1.2,2.7-2.7v-96c0-1.4-1.2-2.7-2.7-2.7H95.6c-1.4,0-2.7,1.2-2.7,2.7v95.9
		C93,172.3,94.2,173.4,95.6,173.4L95.6,173.4z M122.4,77.5v24c0,1.4,1.2,2.7,2.7,2.7s2.7-1.2,2.7-2.7v-5.2h37.4
		c1.4,0,2.7-1.2,2.7-2.7s-1.2-2.7-2.7-2.7h-37.4V77.5H184v56l-45.4-0.1c-1.4,0-2.7,1.2-2.7,2.7v21.3c0,1.4,1.2,2.7,2.7,2.7
		s2.7-1.2,2.7-2.7v-18.6l42.8,0.1v29.2h-66.7v-18.6c0-1.4-1.2-2.7-2.7-2.7s-2.7,1.2-2.7,2.7v18.6H98.3v-45.3h29.4
		c1.4,0,2.7-1.2,2.7-2.7s-1.2-2.7-2.7-2.7H98.3V77.5H122.4L122.4,77.5z"/>
	<path class="st0" d="M186.6,173.9h-91c-1.8,0-3.1-1.3-3.1-3.1v-96c0-1.8,1.4-3.1,3.1-3.1h90.9c1.8,0,3.1,1.3,3.1,3.1v95.9
		C189.6,172.5,188.2,173.9,186.6,173.9z M95.6,72.7c-1.2,0-2.3,1-2.3,2.3v95.9c0,1.2,1,2.3,2.3,2.3h90.9c1.2,0,2.3-1,2.3-2.3v-96
		c0-1.2-1-2.3-2.3-2.3H95.6C95.6,72.6,95.6,72.7,95.6,72.7z M184.3,168.6h-67.7v-19.1c0-1.2-1-2.3-2.3-2.3s-2.3,1-2.3,2.3v19.1H97.9
		v-46.2h29.8c1.2,0,2.3-1,2.3-2.3s-1-2.3-2.3-2.3H97.9V77.1h24.9v24.4c0,1.2,1,2.3,2.3,2.3s2.3-1,2.3-2.3v-5.8h37.8
		c1.2,0,2.3-1,2.3-2.3s-1-2.3-2.3-2.3h-37.8v-14h57V134H184l-45.4-0.1c-1.2,0-2.3,1-2.3,2.3v21.3c0,1.2,1,2.3,2.3,2.3s2.3-1,2.3-2.3
		v-19h0.4l43.2,0.1L184.3,168.6L184.3,168.6z M117.4,167.7h65.9v-28.4l-42-0.1v18.2c0,1.8-1.4,3.1-3.1,3.1c-1.8,0-3.1-1.3-3.1-3.1
		v-21.3c0-1.8,1.4-3.1,3.1-3.1l45,0.1V77.9H128v12.4h37c1.8,0,3.1,1.3,3.1,3.1s-1.4,3.1-3.1,3.1h-37v4.9c0,1.8-1.4,3.1-3.1,3.1
		c-1.8,0-3.1-1.3-3.1-3.1V77.9H98.7V117h29c1.8,0,3.1,1.3,3.1,3.1s-1.4,3.1-3.1,3.1h-29v44.4h12.6v-18.2c0-1.8,1.4-3.1,3.1-3.1
		c1.8,0,3.1,1.3,3.1,3.1L117.4,167.7L117.4,167.7z"/>
</g>
</svg>
