<?xml version="1.0" encoding="utf-8"?>
<!-- Generator: Adobe Illustrator 27.0.0, SVG Export Plug-In . SVG Version: 6.00 Build 0)  -->
<svg version="1.1" id="Camada_1" xmlns="http://www.w3.org/2000/svg" xmlns:xlink="http://www.w3.org/1999/xlink" x="0px" y="0px"
	 viewBox="0 0 250 250" style="enable-background:new 0 0 250 250;" xml:space="preserve">
<style type="text/css">
	.st0{fill:#079D56;}
</style>
<path class="st0" d="M206.6,203.9h-19.7V180c22.8-3.7,22.5-23.9,22.4-26.2c0.3-10.5-1.7-21.7-5.8-33.3L203,119c-2.8-8-8-23-18.6-23
	h-0.1c-10.5,0-15.8,15-18.6,23l-0.5,1.6c-4.1,11.6-6.1,22.6-5.8,33.3c-0.1,2.2-0.5,22.5,22.4,26.2V204h-33v-10.5h5.3
	c2.9,0,5.3-2.4,5.3-5.3v-7.9c0-2.9-2.4-5.3-5.3-5.3h-5.3v-23.7c0-4.3-3.6-7.9-7.9-7.9H59.2c-4.3,0-7.9,3.6-7.9,7.9V175H46
	c-2.9,0-5.3,2.4-5.3,5.3v7.9c0,2.9,2.4,5.3,5.3,5.3h5.3V204h-7.9c-1.4,0-2.6,1.2-2.6,2.6s1.2,2.6,2.6,2.6h163.2
	c1.4,0,2.6-1.2,2.6-2.6S208,203.9,206.6,203.9z M56.6,151.4c0-1.4,1.2-2.6,2.6-2.6h81.6c1.4,0,2.6,1.2,2.6,2.6v2.6H56.6V151.4z
	 M56.6,159.2h86.8v5.3H56.6V159.2z M56.6,169.8h86.8v5.3H56.6V169.8z M143.4,203.9H56.6v-10.5h86.8V203.9L143.4,203.9z M46.1,188.1
	v-7.9H154v7.9H46.1z M184.2,146c-1.4,0-2.6,1.2-2.6,2.6v13.5l-3.4-3.4c-1.1-1.1-2.6-1.1-3.7,0c-1.1,1.1-1.1,2.6,0,3.7l7.1,7.1v5.1
	c-18.3-3.4-17.1-19.9-17.1-20.5v-0.3c-0.3-9.9,1.6-20.5,5.4-31.4l0.5-1.6c2.4-6.3,7-19.5,13.8-19.5h0.1c6.8,0,11.4,13.2,13.7,19.5
	l0.5,1.6c3.9,10.9,5.8,21.6,5.4,31.4v0.3c0,0.8,1.2,17.1-17.1,20.5v-13l7.1-7.1c1.1-1.1,1.1-2.6,0-3.7s-2.6-1.1-3.7,0l-3.4,3.4v-5.5
	C186.8,147.2,185.7,146.1,184.2,146L184.2,146z"/>
<path class="st0" d="M138.2,51.5v-8c0-1.4-1.2-2.6-2.6-2.6s-2.6,1.2-2.6,2.6v8c0.9,0,1.7-0.1,2.6-0.1
	C136.4,51.4,137.2,51.5,138.2,51.5z"/>
<path class="st0" d="M132.9,93.3v8c0,1.4,1.2,2.6,2.6,2.6s2.6-1.2,2.6-2.6v-8c-0.9,0.1-1.7,0.1-2.6,0.1
	C134.6,93.4,133.8,93.3,132.9,93.3z"/>
<path class="st0" d="M148.4,88.9l5.7,5.7c0.5,0.5,1.2,0.8,1.8,0.8c0.7,0,1.3-0.3,1.8-0.8c1.1-1.1,1.1-2.6,0-3.7l-5.7-5.7
	C151.1,86.8,149.9,87.9,148.4,88.9z"/>
<path class="st0" d="M118.9,59.5c1.1-1.4,2.4-2.6,3.7-3.7l-5.7-5.8c-1.1-1.1-2.6-1.1-3.7,0s-1.1,2.6,0,3.7L118.9,59.5z"/>
<path class="st0" d="M106.6,75.1h8c-0.1-0.9-0.1-1.7-0.1-2.6s0.1-1.7,0.1-2.6h-8c-1.4,0-2.6,1.2-2.6,2.6
	C103.9,73.9,105.1,75.1,106.6,75.1z"/>
<path class="st0" d="M153.5,72.4c0,0.9-0.1,1.7-0.1,2.6h8c1.4,0,2.6-1.2,2.6-2.6s-1.2-2.6-2.6-2.6h-8
	C153.3,70.7,153.5,71.4,153.5,72.4z"/>
<path class="st0" d="M113.2,90.9c-1.1,1.1-1.1,2.6,0,3.7c0.5,0.5,1.2,0.8,1.8,0.8c0.7,0,1.3-0.3,1.8-0.8l5.7-5.7
	c-1.4-1.1-2.6-2.4-3.7-3.7C118.8,85.2,113.2,90.9,113.2,90.9z"/>
<path class="st0" d="M152.1,59.5l5.8-5.7c1.1-1.1,1.1-2.6,0-3.7s-2.6-1.1-3.7,0l-5.7,5.7C149.9,56.8,151.1,58,152.1,59.5L152.1,59.5
	z"/>
<path class="st0" d="M135.5,88.2c8.7,0,15.8-7.1,15.8-15.8s-7.1-15.8-15.8-15.8s-15.8,7.1-15.8,15.8S126.8,88.2,135.5,88.2z
	 M135.5,61.9c5.8,0,10.5,4.7,10.5,10.5s-4.7,10.5-10.5,10.5S125,78.2,125,72.4S129.7,61.9,135.5,61.9z"/>
</svg>
