<?xml version="1.0" encoding="UTF-8"?>
<svg id="Camada_1" data-name="Camada 1" xmlns="http://www.w3.org/2000/svg" viewBox="0 0 443.33 464.26">
  <defs>
    <style>
      .cls-1 {
        fill: #009e5b;
      }
    </style>
  </defs>
  <path class="cls-1" d="M35.01,229.78c4.13-3.62,4.54-9.91,.91-14.03-10.34-11.78-16.04-26.92-16.04-42.62,0-35.62,28.98-64.6,64.61-64.6,1.95,0,3.91,.09,6.05,.29,2.81,.26,5.61-.7,7.69-2.62,1.16-1.08,2.25-2.05,3.33-2.97,2.81-2.37,4.07-6.1,3.3-9.69-.52-2.38-.79-4.78-.79-7.17,0-18.52,15.08-33.59,33.61-33.59,6.73,0,13.21,1.98,18.77,5.73,2.48,1.69,5.6,2.14,8.47,1.27,2.88-.88,5.2-3.01,6.31-5.8,8.33-20.72,28.13-34.1,50.44-34.1s42.11,13.38,50.45,34.1c1.11,2.79,3.43,4.92,6.3,5.8,2.88,.88,5.99,.42,8.49-1.27,5.54-3.75,12.04-5.73,18.76-5.73,18.53,0,33.6,15.07,33.6,33.59,0,2.4-.26,4.8-.77,7.16-.79,3.59,.48,7.32,3.28,9.69,1.08,.92,2.21,1.92,3.35,2.97,2.07,1.93,4.86,2.88,7.68,2.62,2.12-.2,4.1-.29,6.05-.29,35.62,0,64.61,28.97,64.61,64.6s-28.98,64.61-64.61,64.61c-.94,0-1.94-.03-3.07-.07-2.81-.13-5.58,.94-7.57,2.97-2.16,2.21-4.39,4.29-6.66,6.18-2.89,2.44-4.16,6.3-3.26,9.97,.64,2.64,.97,5.34,.97,8.04,0,18.53-15.07,33.61-33.6,33.61-10.04,0-19.49-4.45-25.9-12.21-1.88-2.29-4.7-3.61-7.67-3.61h-.1c-3,.03-5.82,1.42-7.69,3.77-10.4,13.14-25.94,20.68-42.64,20.68s-32.25-7.54-42.63-20.67c-1.86-2.35-4.68-3.74-7.69-3.77h-.11c-2.96,0-5.76,1.32-7.66,3.61-6.41,7.76-15.85,12.21-25.9,12.21-18.53,0-33.61-15.07-33.61-33.61,0-2.69,.34-5.39,.98-8.03,.89-3.67-.36-7.54-3.26-9.98-2.26-1.9-4.52-3.98-6.66-6.18-1.99-2.03-4.76-3.11-7.58-2.97-1.11,.04-2.13,.07-3.06,.07-7.26,0-14.37-1.19-21.16-3.54-5.19-1.8-10.86,.94-12.66,6.14-1.8,5.19,.95,10.85,6.14,12.65,8.74,3.04,17.9,4.59,27.24,4.64,.18,.18,.37,.35,.56,.54-.27,2.21-.41,4.45-.41,6.66,0,29.5,24,53.47,53.48,53.47,12.18,0,23.8-4.09,33.16-11.51,.33,.32,.68,.62,1.03,.93,1.63,13.55,9.69,93.9-21.53,141.11-2.03,3.05-2.2,6.96-.46,10.19,1.73,3.22,5.09,5.23,8.75,5.23h126.08c3.65,0,7.01-2.01,8.75-5.23,1.73-3.23,1.55-7.14-.46-10.19-31.16-47.11-23.16-127.56-21.53-141.11,.34-.31,.69-.61,1.02-.93,9.35,7.41,20.98,11.51,33.16,11.51,29.49,0,53.48-23.98,53.48-53.47,0-2.22-.15-4.46-.43-6.66,.2-.18,.38-.35,.58-.54,46.38-.24,84.04-38.05,84.04-84.49s-37.77-84.35-84.24-84.48c.04-.76,.05-1.52,.05-2.28,0-29.48-24-53.47-53.48-53.47-6.89,0-13.63,1.31-19.91,3.83C272.56,14.11,248.43,0,221.66,0s-50.91,14.12-64.08,36.73c-6.29-2.52-13.03-3.83-19.91-3.83-29.49,0-53.48,23.98-53.48,53.47,0,.77,.01,1.52,.04,2.28C37.76,88.77,0,126.63,0,173.13c0,20.54,7.45,40.34,20.99,55.74,3.62,4.12,9.91,4.54,14.02,.91h0Zm232.75,214.59h-92.21c19.83-41.88,19.46-95.45,17.54-123.14,8.91,3.71,18.58,5.7,28.57,5.7s19.66-1.98,28.56-5.7c-1.92,27.7-2.29,81.27,17.54,123.14Z"/>
  <path class="cls-1" d="M142.2,166.24c2.36-1.99,5.37-2.93,8.47-2.66,3.09,.28,5.88,1.73,7.85,4.11,3.52,4.21,9.8,4.78,14.01,1.25,4.21-3.52,4.77-9.78,1.25-14-5.38-6.46-12.97-10.41-21.35-11.17-8.39-.76-16.54,1.81-22.99,7.2-6.45,5.39-10.41,12.98-11.16,21.35-.76,8.38,1.8,16.55,7.2,22.99,1.97,2.35,4.79,3.57,7.63,3.57,2.25,0,4.51-.76,6.37-2.31,4.22-3.53,4.78-9.79,1.26-14-1.99-2.37-2.93-5.39-2.66-8.47,.26-3.09,1.73-5.88,4.12-7.86h0Z"/>
  <path class="cls-1" d="M229.02,67.14c-8.38-.75-16.54,1.81-22.98,7.21-6.45,5.39-10.42,12.98-11.17,21.35-.48,5.47,3.54,10.29,9.01,10.78,5.47,.5,10.3-3.54,10.79-9.01,.29-3.09,1.74-5.88,4.12-7.87,2.36-1.98,5.38-2.92,8.47-2.66,6.37,.58,11.08,6.21,10.52,12.59-.49,5.46,3.54,10.3,9.01,10.78,.3,.03,.6,.04,.89,.04,5.09,0,9.43-3.89,9.89-9.05,1.54-17.29-11.27-32.62-28.56-34.16h0Z"/>
  <path class="cls-1" d="M305.22,175.24c.3,.02,.6,.04,.89,.04,5.09,0,9.43-3.88,9.89-9.05,.75-8.37-1.8-16.53-7.2-22.99-5.39-6.44-12.98-10.41-21.36-11.16-17.28-1.54-32.6,11.26-34.15,28.55-.49,5.46,3.54,10.29,9.01,10.79,5.49,.49,10.29-3.55,10.8-9.02,.56-6.37,6.21-11.08,12.58-10.52,3.09,.27,5.89,1.74,7.85,4.11,2,2.38,2.93,5.39,2.66,8.47-.48,5.46,3.55,10.29,9.02,10.78h0Z"/>
</svg>