<?xml version="1.0" encoding="UTF-8"?>
<svg id="Camada_1" data-name="Camada 1" xmlns="http://www.w3.org/2000/svg" viewBox="0 0 300 300">
  <defs>
    <style>
      .cls-1 {
        fill: #009e5b;
      }
    </style>
  </defs>
  <path class="cls-1" d="M130.92,129.24c-1.32,0-2.4,1.07-2.4,2.4s1.07,2.4,2.4,2.4h38.19c1.32,0,2.4-1.07,2.4-2.4s-1.07-2.4-2.4-2.4h-16.7v-12.58h16.7c1.32,0,2.4-1.07,2.4-2.4s-1.07-2.4-2.4-2.4h-38.19c-1.32,0-2.4,1.07-2.4,2.4s1.07,2.4,2.4,2.4h16.7v12.58h-16.7Z"/>
  <path class="cls-1" d="M56.5,222.33c-1.32,0-2.4,1.07-2.4,2.4v21.97c0,1.32,1.07,2.4,2.4,2.4H243.48c1.32,0,2.4-1.07,2.4-2.4v-21.97c0-1.32-1.07-2.4-2.4-2.4h-9.24v-88.95l8.05,4.71c.37,.22,.79,.33,1.21,.33s.82-.11,1.19-.32c.75-.43,1.2-1.22,1.2-2.08v-19.77c0-.84-.44-1.62-1.16-2.05l-20.41-12.34V59.92c0-1.32-1.07-2.4-2.4-2.4h-26.4c-1.32,0-2.4,1.07-2.4,2.4v23.07l-41.87-25.32c-.24-.15-.5-.24-.78-.28-.61-.14-1.25-.04-1.79,.28L55.29,114.19c-.72,.43-1.16,1.21-1.16,2.05v19.77c0,.86,.46,1.65,1.2,2.08,.75,.43,1.66,.43,2.4-.01l8.05-4.71v88.95h-9.29Zm184.58,21.97H58.9v-17.18H241.08v17.18Zm-69.49-21.97h-43.15v-66.47h43.15v66.47Zm57.86-37.16v13.78h-18.82v-13.78h18.82Zm-31.52-122.86h21.6v36.64l-21.6-13.06v-23.58ZM58.92,117.59l91.06-55.09,91.12,55.09v14.25l-89.92-52.53c-.37-.22-.79-.33-1.21-.33s-.84,.11-1.21,.33l-89.84,52.53v-14.24Zm11.66,81.36v-13.78h18.82v13.78h-18.82Zm0,4.79h40.01c1.32,0,2.4-1.07,2.4-2.4s-1.07-2.4-2.4-2.4h-16.4v-13.78h8.38c1.32,0,2.4-1.07,2.4-2.4s-1.07-2.4-2.4-2.4h-32s0-49.8,0-49.8l79.4-46.42,79.46,46.43v49.8h-32c-1.32,0-2.4,1.08-2.4,2.4s1.07,2.4,2.4,2.4h8.38v13.78h-16.4c-1.32,0-2.4,1.07-2.4,2.4s1.07,2.4,2.4,2.4h40.01v18.58h-53.06v-68.87c0-1.32-1.07-2.4-2.4-2.4h-47.94c-1.32,0-2.4,1.07-2.4,2.4v68.87h-53.06v-18.58Z"/>
</svg>