<?xml version="1.0" encoding="UTF-8"?>
<svg id="Camada_2" data-name="Camada 2" xmlns="http://www.w3.org/2000/svg" viewBox="0 0 498.4 498.4">
  <defs>
    <style>
      .cls-1 {
        fill: #00d38d;
      }
    </style>
  </defs>
  <g id="Camada_1-2" data-name="Camada 1">
    <path class="cls-1" d="M398.27,176.06h-75.93V100.13c0-2.97-1.18-5.82-3.28-7.92-2.1-2.1-4.95-3.28-7.92-3.28h-123.88c-6.18,0-11.2,5.02-11.2,11.2v75.93H100.12c-6.19,0-11.2,5.02-11.2,11.2v123.88c0,2.97,1.18,5.82,3.28,7.92,2.1,2.1,4.95,3.28,7.92,3.28h75.93v75.93c0,2.97,1.18,5.82,3.28,7.92,2.1,2.1,4.95,3.28,7.92,3.28h123.88c2.97,0,5.82-1.18,7.92-3.28,2.1-2.1,3.28-4.95,3.28-7.92v-75.93h75.93c2.97,0,5.82-1.18,7.92-3.28,2.1-2.1,3.28-4.95,3.28-7.92v-123.88c0-2.97-1.18-5.82-3.28-7.92-2.1-2.1-4.95-3.28-7.92-3.28h0Zm-11.2,123.87h-75.93c-6.19,0-11.2,5.02-11.2,11.2v75.93h-101.47v-75.93c0-2.97-1.18-5.82-3.28-7.92s-4.95-3.28-7.92-3.28H111.32v-101.47h75.93c2.97,0,5.82-1.18,7.92-3.28s3.28-4.95,3.28-7.92V111.32h101.47v75.93c0,2.97,1.18,5.82,3.28,7.92s4.95,3.28,7.92,3.28h75.93v101.47Z"/>
    <path class="cls-1" d="M249.2,0C183.1,0,119.72,26.26,72.99,72.99,26.25,119.72,0,183.11,0,249.2s26.25,129.48,72.99,176.21c46.73,46.73,110.12,72.99,176.21,72.99s129.48-26.25,176.21-72.99c46.73-46.73,72.99-110.12,72.99-176.21-.07-66.07-26.35-129.41-73.07-176.13S315.27,.07,249.2,0h0Zm0,476c-60.15,0-117.84-23.89-160.37-66.43-42.54-42.53-66.43-100.22-66.43-160.37s23.89-117.84,66.43-160.37C131.36,46.3,189.05,22.4,249.2,22.4s117.84,23.89,160.37,66.43c42.53,42.53,66.43,100.22,66.43,160.37-.07,60.13-23.99,117.77-66.51,160.29-42.52,42.52-100.16,66.44-160.29,66.51h0Z"/>
  </g>
</svg>