<?xml version="1.0" encoding="UTF-8"?>
<svg id="Camada_1" data-name="Camada 1" xmlns="http://www.w3.org/2000/svg" viewBox="0 0 300 300">
  <defs>
    <style>
      .cls-1 {
        fill: #009e5b;
      }
    </style>
  </defs>
  <path class="cls-1" d="M254.25,209.57h-29.79c-4.11,0-7.44,3.34-7.45,7.45v7.45c0,4.11,3.34,7.44,7.45,7.45h3.72v22.34h-16.51l-31.27-52.12h47.78c4.11,0,7.44-3.34,7.45-7.45v-7.45c0-4.11-3.34-7.44-7.45-7.45h-67.02v-37.23h85.64c.99,0,1.93-.39,2.63-1.09s1.09-1.65,1.09-2.63c0-55.52-45.01-100.53-100.53-100.53S49.47,83.31,49.47,138.83c0,.99,.39,1.94,1.09,2.63s1.65,1.09,2.63,1.09h85.64v37.23H71.81c-4.11,0-7.44,3.33-7.45,7.45v7.45c0,4.11,3.34,7.44,7.45,7.45h47.78l-31.27,52.12h-16.51v-22.34h3.72c4.11,0,7.44-3.33,7.45-7.45v-7.45c0-4.11-3.34-7.44-7.45-7.45h-29.79c-4.11,0-7.44,3.34-7.45,7.45v7.45c0,4.11,3.34,7.44,7.45,7.45h3.72v22.34h-7.45c-2.06,0-3.72,1.67-3.72,3.72s1.67,3.72,3.72,3.72h215.96c2.06,0,3.72-1.67,3.72-3.72s-1.67-3.72-3.72-3.72h-7.45v-22.34h3.72c4.11,0,7.44-3.33,7.45-7.45v-7.45c0-4.11-3.34-7.44-7.45-7.45h0Zm-100.53-74.46V46.11c21.97,3.99,39.99,42.78,40.92,89h-40.92Zm89.29,0h-40.93c-.69-38.32-12-70.53-28.57-86.34,39.61,10.4,67.8,45.42,69.5,86.34h0ZM126.48,48.77c-16.57,15.8-27.88,48.02-28.57,86.34H56.98c1.7-40.91,29.89-75.94,69.5-86.34h0Zm19.79-2.66v89h-40.92c.93-46.22,18.95-85.01,40.92-89Zm0,96.45h7.45v37.23h-7.45v-37.23Zm-74.47,44.68H228.19v7.45H71.81v-7.45Zm52.74,52.13h50.89l8.94,14.89H115.61l8.94-14.89Zm4.47-7.45l4.47-7.45h33.02l4.47,7.45h-41.95Zm8.94-14.89l8.94-14.89h6.21l8.94,14.89h-24.08Zm-92.21,0h29.79v7.45s-29.79,0-29.79,0v-7.45Zm11.17,37.23v-22.34h7.45v22.34h-7.45Zm40.09,0l31.27-52.12h9.93l-31.28,52.12h-9.93Zm96.06,0l-31.28-52.12h9.93l31.27,52.12h-9.93Zm50.02,0h-7.45v-22.34h7.45v22.34Zm3.72-29.79h-22.34v-7.45h29.79v7.45s-7.45,0-7.45,0Z"/>
</svg>