<?xml version="1.0" encoding="utf-8"?>
<!-- Generator: Adobe Illustrator 25.3.1, SVG Export Plug-In . SVG Version: 6.00 Build 0)  -->
<svg version="1.1" id="Layer_1" xmlns="http://www.w3.org/2000/svg" xmlns:xlink="http://www.w3.org/1999/xlink" x="0px" y="0px"
	 viewBox="0 0 695.7 152.4" style="enable-background:new 0 0 695.7 152.4;" xml:space="preserve">
<style type="text/css">
	.st0{fill:url(#SVGID_1_);}
	.st1{fill:#009C73;}
</style>
<linearGradient id="SVGID_1_" gradientUnits="userSpaceOnUse" x1="81.1514" y1="120.3234" x2="169.2903" y2="32.1845">
	<stop  offset="0" style="stop-color:#F68B28"/>
	<stop  offset="1" style="stop-color:#FDB913"/>
</linearGradient>
<path class="st0" d="M114.7,3.9l-42,36.7c-3.5,3-5.5,7.4-5.5,12v47.2c0,8.8,7.2,16,16,16h83.9c8.8,0,16-7.2,16-16V52.7
	c0-4.6-2-9-5.5-12l-42-36.7c-3-2.6-6.8-3.9-10.5-3.9C121.5,0,117.7,1.3,114.7,3.9"/>
<path class="st1" d="M287.6,152.4c-40.4,0-67.2-25-67.2-61v-74c0-2,1.6-3.6,3.6-3.6h30.4c2,0,3.6,1.6,3.6,3.6v70.2
	c0,21.5,11.5,34,29.6,34s29.6-12.5,29.6-34V17.4c0-2,1.6-3.6,3.6-3.6h30.4c2,0,3.6,1.6,3.6,3.6v74
	C354.8,127.4,328,152.4,287.6,152.4z M440.4,42.2c0-2.2-1.9-3.8-4-3.6c-10.9,1.1-22.8,6.8-30.2,16.6h-0.4V44.1c0-2-1.6-3.6-3.6-3.6
	h-28c-2,0-3.6,1.6-3.6,3.6v102.6c0,2,1.6,3.6,3.6,3.6h28c2,0,3.6-1.6,3.6-3.6V101c0-14.4,9.8-24.9,26.5-24.9c1.2,0,3.2,0,5.4,0.1
	c1.6,0.1,2.9-1.2,2.9-2.8V42.2z M520.5,38.4c-12.3,0-23.1,4.6-31.1,13.7h-0.5V10.4c0-2-1.6-3.6-3.6-3.6h-28c-2,0-3.6,1.6-3.6,3.6
	v136.3c0,2,1.6,3.6,3.6,3.6h26.1c2,0,3.6-1.6,3.6-3.6v-8.2h0.5c7.2,9.2,17.8,13.9,31.4,13.9c30.1,0,51.7-22.9,51.7-56.9
	C570.6,62,548.9,38.4,520.5,38.4L520.5,38.4z M511.6,121.5c-13.8,0-24.2-10.2-24.2-25.9c0-15.1,10.1-26.1,24.1-26.1
	c13.4,0,23.6,10.4,23.6,26.1C535.1,111.1,525.3,121.5,511.6,121.5L511.6,121.5z M692.1,40.5l-28,0c-2,0-3.6,1.6-3.6,3.6v8h-0.4
	c-7.8-9.1-18.4-13.7-30.3-13.7c-28.4,0-50.1,23.6-50.1,57.1c0,34,21.5,56.9,51.7,56.9c13.2,0,23.5-4.7,30.5-13.9h0.4v8.2
	c0,2,1.6,3.6,3.6,3.6h26.1c2,0,3.6-1.6,3.6-3.6V44.1C695.7,42.1,694.1,40.5,692.1,40.5z M615.2,95.6c0-15.7,10.2-26.1,23.6-26.1
	c13.2,0,23.1,11,23.1,26.1c0,15.7-10.4,25.9-23.2,25.9C625,121.5,615.2,111.1,615.2,95.6z M124.7,150.3c14.2,0,25.7-11.5,25.7-25.7
	V69c0-7.4-3.2-14.5-8.8-19.4L92.2,6.3c-9.7-8.4-24.2-8.4-33.9,0L8.8,49.6C3.2,54.5,0,61.5,0,69v55.6c0,14.2,11.5,25.7,25.7,25.7
	H124.7 M75.2,13.8c2.8,0,5.6,1,7.8,2.9L132.5,60c2.6,2.3,4.1,5.5,4.1,9v55.6c0,6.6-5.3,11.9-11.9,11.9H25.7
	c-6.6,0-11.9-5.3-11.9-11.9V69c0-3.4,1.5-6.7,4.1-9l49.5-43.2C69.6,14.8,72.4,13.8,75.2,13.8"/>
</svg>
