<?xml version="1.0" encoding="UTF-8"?>
<svg id="Camada_1" data-name="Camada 1" xmlns="http://www.w3.org/2000/svg" viewBox="0 0 300 300">
  <defs>
    <style>
      .cls-1 {
        fill: #009e5b;
      }
    </style>
  </defs>
  <path class="cls-1" d="M218.28,224.34c0-5.55-2.2-10.88-6.13-14.8-3.93-3.93-9.25-6.13-14.8-6.13s-10.88,2.21-14.8,6.13c-3.93,3.93-6.13,9.25-6.13,14.8s2.21,10.88,6.13,14.8c3.93,3.93,9.25,6.13,14.8,6.13s10.88-2.21,14.8-6.13c3.93-3.93,6.13-9.25,6.13-14.8Zm-33.54,0c0-3.4,1.35-6.65,3.75-9.05,2.4-2.4,5.66-3.75,9.06-3.75s6.65,1.35,9.05,3.75c2.4,2.4,3.75,5.66,3.75,9.05s-1.35,6.65-3.75,9.05c-2.4,2.4-5.66,3.75-9.05,3.75s-6.65-1.35-9.06-3.75c-2.4-2.4-3.75-5.66-3.75-9.05Z"/>
  <path class="cls-1" d="M230.47,98.72H85.75l-1.22-6.51h0c-1.09-5.56-4.07-10.57-8.45-14.17-4.38-3.6-9.87-5.56-15.53-5.55h-10.57c-2.24,0-4.06,1.82-4.06,4.06s1.82,4.06,4.06,4.06h10.57c3.73,.02,7.35,1.32,10.24,3.69,2.89,2.37,4.87,5.66,5.62,9.32l19.51,98.18c.39,1.92,2.1,3.29,4.06,3.25h112.81c1.96,.04,3.67-1.33,4.06-3.25l17.68-88.42h0c.25-1.21-.07-2.47-.86-3.42-.79-.95-1.97-1.49-3.21-1.46v.2Zm-7.93,22.77h-23.78l1.83-14.84h25s-3.05,14.84-3.05,14.84Zm-130.5,8.13h25l1.63,13.62h-23.99l-2.64-13.62Zm33.34,0h28.05v13.62h-26.43l-1.62-13.62Zm36.18-8.13v-14.64h30.9l-1.83,14.84-29.07-.2Zm28.05,8.13l-1.63,13.62h-26.43v-13.62h28.05Zm-36.18-8.13h-29.07l-1.83-14.84h30.9s0,14.84,0,14.84Zm0,29.88v13.62h-23.78l-1.63-13.42,25.41-.2Zm0,21.75v13.82h-21.14l-1.63-13.82h22.77Zm8.13,0h22.56s-1.63,13.82-1.63,13.82h-20.94s0-13.82,0-13.82Zm0-8.13v-13.42h25.41l-1.63,13.62-23.78-.2Zm33.54-13.42h21.55l-2.64,13.62h-20.53l1.63-13.62Zm1.02-8.13l1.63-13.62h23.17l-2.64,13.62h-22.16Zm-81.71-36.59l1.83,14.84h-25.81l-3.05-14.84h27.03Zm-17.89,44.72h23.17l1.63,13.62h-22.36l-2.44-13.62Zm4.27,21.75h21.75l1.63,13.82h-20.73l-2.64-13.82Zm90.05,13.82l1.63-13.82h19.92l-2.85,13.82h-18.7Z"/>
  <path class="cls-1" d="M136.97,224.34c0-5.55-2.2-10.88-6.13-14.8-3.93-3.93-9.25-6.13-14.8-6.13s-10.88,2.21-14.8,6.13c-3.93,3.93-6.13,9.25-6.13,14.8s2.21,10.88,6.13,14.8c3.93,3.93,9.25,6.13,14.8,6.13s10.88-2.21,14.8-6.13c3.93-3.93,6.13-9.25,6.13-14.8Zm-33.54,0c0-3.4,1.35-6.65,3.75-9.05,2.4-2.4,5.66-3.75,9.06-3.75s6.65,1.35,9.05,3.75c2.4,2.4,3.75,5.66,3.75,9.05s-1.35,6.65-3.75,9.05c-2.4,2.4-5.66,3.75-9.05,3.75-3.43,.05-6.74-1.27-9.19-3.68-2.45-2.41-3.82-5.7-3.82-9.13h.2Z"/>
</svg>