<?xml version="1.0" encoding="utf-8"?>
<!-- Generator: Adobe Illustrator 26.4.1, SVG Export Plug-In . SVG Version: 6.00 Build 0)  -->
<svg version="1.1" id="Camada_1" xmlns="http://www.w3.org/2000/svg" xmlns:xlink="http://www.w3.org/1999/xlink" x="0px" y="0px"
	 viewBox="0 0 700 700" style="enable-background:new 0 0 700 700;" xml:space="preserve">
<style type="text/css">
	.st0{fill-rule:evenodd;clip-rule:evenodd;fill:#079D56;}
</style>
<path class="st0" d="M140,288.8v183.8h-35c-4.8,0-8.8,3.9-8.8,8.8s3.9,8.8,8.8,8.8h490c4.8,0,8.8-3.9,8.8-8.8s-3.9-8.8-8.8-8.8h-35
	V288.8c24.2,0,43.8-19.6,43.8-43.8v-26.2c0-1.3-0.3-2.7-0.9-3.9l-70-140c-1.5-3-4.5-4.8-7.8-4.8H175c-3.3,0-6.4,1.9-7.8,4.8l-70,140
	c-0.6,1.2-0.9,2.6-0.9,3.9V245C96.3,269.2,115.8,288.8,140,288.8L140,288.8z M490.5,288.8H490c-14.3,0-27-6.9-35-17.5
	c-8,10.6-20.7,17.5-35,17.5s-27-6.9-35-17.5c-8,10.6-20.7,17.5-35,17.5s-27-6.9-35-17.5c-8,10.6-20.7,17.5-35,17.5h0
	c-14.3,0-27-6.9-35-17.5c-8,10.6-20.7,17.5-35,17.5h-0.8l-0.8,0l-0.8,0l-0.8-0.1l-0.8-0.1l-0.7-0.1l-0.6-0.1l-0.6-0.1l-0.6-0.1
	l-0.6-0.1L202,288l-0.6-0.1c-10.7-2.2-20-8.2-26.3-16.6c-4.5,6-10.5,10.8-17.5,13.9v187.4H350h37.2v-140c0-4.8,3.9-8.8,8.8-8.8
	h113.8c4.8,0,8.8,3.9,8.8,8.8v140h24.1V285.1c-7-3-13-7.9-17.5-13.9c-6.3,8.4-15.5,14.4-26.2,16.6l-0.6,0.1l-1.9,0.3l-1.6,0.2
	l-1.6,0.1l-0.8,0l-0.8,0L490.5,288.8L490.5,288.8z M404.7,472.5V341.2h96.2v131.2H404.7z M356.6,433.1c4.8,0,8.8-3.9,8.8-8.8V323.8
	c0-4.8-3.9-8.8-8.8-8.8h-70c-4.8,0-8.8,3.9-8.8,8.8v100.6c0,4.8,3.9,8.8,8.8,8.8H356.6z M260.3,433.1c4.8,0,8.8-3.9,8.8-8.8V323.8
	c0-4.8-3.9-8.8-8.8-8.8h-70c-4.8,0-8.8,3.9-8.8,8.8v100.6c0,4.8,3.9,8.8,8.8,8.8H260.3z M347.8,415.6h-52.5v-83.1h52.5V415.6z
	 M251.6,415.6h-52.5v-83.1h52.5V415.6z M556.1,271c1.3,0.2,2.5,0.3,3.9,0.3h0c14.5,0,26.2-11.8,26.2-26.2v-24.2L519.6,87.5H180.4
	l-66.7,133.3V245c0,14.5,11.7,26.2,26.2,26.2h0c1.3,0,2.6-0.1,3.9-0.3c0.9-0.6,1.9-1.1,3-1.3c11-2.4,19.1-12.2,19.4-24l0-0.6v-9.8
	v-0.7l0-0.4c0-0.2,0-0.3,0-0.5c0.1-4.2,0.9-7.1,2-8.9l0-0.1c1.6-2.5,3.9-3.1,6.2-2.4c0.1,0,0.3,0.1,0.5,0.2c3.5-1.3,7,0.1,8.3,6.8
	c0.3,1.5,0.4,3.3,0.5,5.3V245c0,14.5,11.8,26.2,26.2,26.2s26.2-11.8,26.2-26.2v-9.6c0-1.4,0.1-2.7,0.2-3.8c0-0.2,0.1-0.5,0.1-0.7
	l0-0.2c0-0.2,0.1-0.5,0.1-0.7l0-0.1c1.2-7.1,4.8-8.6,8.3-7.2c4.1-1.6,8.2,0.7,8.7,10.8c0,0,0,0.1,0,0.1c0,0.3,0,0.6,0,0.8
	c0,0.2,0,0.5,0,0.8v0.3v9.7c0,14.5,11.7,26.2,26.2,26.2h0c14.5,0,26.2-11.8,26.2-26.2v-9.9c0-5.7,1.1-9.2,2.7-11.1l0.1-0.1
	c0.6-0.7,1.3-1.1,2-1.4c1.2-0.4,2.6-0.3,3.9,0.2c2.3-0.9,4.7-0.6,6.3,1.7l0.3,0.4l0.1,0.2c1.1,1.9,1.9,4.8,2,9.2v0.4l0,1v9.6
	c0,14.5,11.8,26.2,26.2,26.2s26.2-11.8,26.2-26.2v-9.9c0-4.4,0.7-7.4,1.7-9.5l0.1-0.1c0.2-0.4,0.4-0.7,0.6-1l0.1-0.1
	c0.1-0.1,0.2-0.2,0.2-0.3l0.1-0.2c0.1-0.1,0.2-0.2,0.3-0.3c0.1-0.1,0.2-0.1,0.2-0.2l0.1-0.1c0.1-0.1,0.1-0.1,0.2-0.2l0.2-0.2
	c0,0,0,0,0.1-0.1c1.5-1,3.2-1,4.9-0.3c2.3-0.9,4.7-0.6,6.3,1.7l0.3,0.5l0.2,0.4l0.2,0.3c0.9,1.7,1.5,4.1,1.6,7.4l0,0.8v0.2
	c0,0.4,0,0.7,0,1.1v10c0,14.5,11.8,26.2,26.2,26.2s26.2-11.8,26.2-26.2v-10.3l0-0.2c0-0.2,0-0.5,0-0.7c0-0.3,0-0.6,0.1-0.9
	c0-0.1,0-0.2,0-0.3c0.7-8.6,4.7-10.3,8.6-8.8c4.1-1.5,8.2,0.3,8.7,9.7v0.3c0,0.2,0,0.3,0,0.5l0,0.6v10c0,14.5,11.7,26.2,26.2,26.2
	l0.9,0l0.9,0l0.9-0.1l0.6-0.1l0.6-0.1l0.6-0.1l1.3-0.2l1.3-0.3l1.2-0.4l0.9-0.3l0.5-0.2l0.4-0.2l0.5-0.2l0.4-0.2l0.4-0.2l0.4-0.2
	l0.4-0.2l0.4-0.2l0.4-0.2l0.4-0.2l0.4-0.3l0.4-0.2l0.4-0.3l0.4-0.3l0.4-0.3l0.2-0.2c5.2-3.9,8.9-9.7,10.1-16.4l0.2-1.5l0.1-0.5
	l0.1-0.7l0-0.7l0-0.8v-10.8l0-0.2c0-0.2,0-0.5,0-0.7c0.4-9.6,4.6-11.5,8.7-9.9c4.2-1.6,8.4,0.4,8.7,10.2l0,0.6v10.8l0,0.1
	c0.3,11.7,8.3,21.6,19.3,24C554.2,270,555.2,270.4,556.1,271L556.1,271z"/>
</svg>
