<?xml version="1.0" encoding="UTF-8"?><svg id="Camada_1" xmlns="http://www.w3.org/2000/svg" viewBox="0 0 250 250"><defs><style>.cls-1{fill:#e61d72;}</style></defs><path class="cls-1" d="M206.59,203.95h-19.7v-23.9c22.8-3.7,22.5-23.9,22.4-26.2,.3-10.5-1.7-21.7-5.8-33.3l-.5-1.6c-2.8-8-8-23-18.6-23h-.1c-10.5,0-15.8,15-18.6,23l-.5,1.6c-4.1,11.6-6.1,22.6-5.8,33.3-.1,2.2-.5,22.5,22.4,26.2v23.9h-33v-10.5h5.3c2.9,0,5.3-2.4,5.3-5.3v-7.9c0-2.9-2.4-5.3-5.3-5.3h-5.3v-23.7c0-4.3-3.6-7.9-7.9-7.9H59.19c-4.3,0-7.9,3.6-7.9,7.9v23.7h-5.3c-2.9,0-5.3,2.4-5.3,5.3v7.9c0,2.9,2.4,5.3,5.3,5.3h5.3v10.5h-7.9c-1.4,0-2.6,1.2-2.6,2.6s1.2,2.6,2.6,2.6H206.59c1.4,0,2.6-1.2,2.6-2.6s-1.2-2.6-2.6-2.6ZM56.59,151.35c0-1.4,1.2-2.6,2.6-2.6h81.6c1.4,0,2.6,1.2,2.6,2.6v2.6H56.59v-2.6Zm0,7.9h86.8v5.3H56.59v-5.3Zm0,10.5h86.8v5.3H56.59v-5.3Zm86.8,34.2H56.59v-10.5h86.8v10.5h0Zm-97.3-15.8v-7.9h107.9v7.9H46.09Zm138.1-42.1c-1.4,0-2.6,1.2-2.6,2.6v13.5l-3.4-3.4c-1.1-1.1-2.6-1.1-3.7,0-1.1,1.1-1.1,2.6,0,3.7l7.1,7.1v5.1c-18.3-3.4-17.1-19.9-17.1-20.5v-.3c-.3-9.9,1.6-20.5,5.4-31.4l.5-1.6c2.4-6.3,7-19.5,13.8-19.5h.1c6.8,0,11.4,13.2,13.7,19.5l.5,1.6c3.9,10.9,5.8,21.6,5.4,31.4v.3c0,.8,1.2,17.1-17.1,20.5v-13l7.1-7.1c1.1-1.1,1.1-2.6,0-3.7s-2.6-1.1-3.7,0l-3.4,3.4v-5.5c0-1.5-1.1-2.7-2.6-2.7Z"/><path class="cls-1" d="M138.19,51.45v-8c0-1.4-1.2-2.6-2.6-2.6s-2.6,1.2-2.6,2.6v8c.9,0,1.7-.1,2.6-.1,.8,0,1.6,.1,2.6,.1Z"/><path class="cls-1" d="M132.89,93.35v8c0,1.4,1.2,2.6,2.6,2.6s2.6-1.2,2.6-2.6v-8c-.9,.1-1.7,.1-2.6,.1-.9,0-1.7-.1-2.6-.1Z"/><path class="cls-1" d="M148.39,88.95l5.7,5.7c.5,.5,1.2,.8,1.8,.8,.7,0,1.3-.3,1.8-.8,1.1-1.1,1.1-2.6,0-3.7l-5.7-5.7c-.9,1.5-2.1,2.7-3.6,3.7Z"/><path class="cls-1" d="M118.89,59.55c1.1-1.4,2.4-2.6,3.7-3.7l-5.7-5.8c-1.1-1.1-2.6-1.1-3.7,0s-1.1,2.6,0,3.7l5.7,5.8Z"/><path class="cls-1" d="M106.59,75.05h8c-.1-.9-.1-1.7-.1-2.6s.1-1.7,.1-2.6h-8c-1.4,0-2.6,1.2-2.6,2.6-.1,1.4,1.1,2.6,2.6,2.6Z"/><path class="cls-1" d="M153.52,72.45c0,.9-.1,1.7-.1,2.6h8c1.4,0,2.6-1.2,2.6-2.6s-1.2-2.6-2.6-2.6h-8c-.1,.8,.1,1.6,.1,2.6Z"/><path class="cls-1" d="M113.19,90.95c-1.1,1.1-1.1,2.6,0,3.7,.5,.5,1.2,.8,1.8,.8,.7,0,1.3-.3,1.8-.8l5.7-5.7c-1.4-1.1-2.6-2.4-3.7-3.7l-5.6,5.7Z"/><path class="cls-1" d="M152.09,59.55l5.8-5.7c1.1-1.1,1.1-2.6,0-3.7s-2.6-1.1-3.7,0l-5.7,5.7c1.4,1,2.6,2.2,3.6,3.7Z"/><path class="cls-1" d="M135.49,88.15c8.7,0,15.8-7.1,15.8-15.8s-7.1-15.8-15.8-15.8-15.8,7.1-15.8,15.8,7.1,15.8,15.8,15.8Zm0-26.3c5.8,0,10.5,4.7,10.5,10.5s-4.7,10.5-10.5,10.5-10.5-4.7-10.5-10.5,4.7-10.5,10.5-10.5Z"/></svg>