<?xml version="1.0" encoding="UTF-8"?>
<svg id="Camada_2" data-name="Camada 2" xmlns="http://www.w3.org/2000/svg" viewBox="0 0 403.2 537.25">
  <defs>
    <style>
      .cls-1 {
        fill: #fff;
      }
    </style>
  </defs>
  <g id="Camada_1-2" data-name="Camada 1">
    <path class="cls-1" d="M32.17,310.76l1.01,1.46c1.23,1.85,2.52,3.64,3.81,5.6l145.94,209.66c4.26,6.12,11.25,9.77,18.7,9.77s14.44-3.65,18.7-9.77l145.6-209.5c1.4-1.96,2.74-3.86,4.09-5.6l.89-1.34h0c26.35-40.78,37.11-89.7,30.28-137.78-6.83-48.07-30.78-92.07-67.45-123.9C297.08,17.53,250.15,0,201.6,0S106.12,17.53,69.45,49.35C32.78,81.18,8.83,125.18,2,173.26s3.93,97,30.28,137.78l-.11-.28ZM201.63,117.73c22.28,0,43.64,8.85,59.4,24.6,15.75,15.75,24.6,37.12,24.6,59.4s-8.85,43.64-24.6,59.39c-15.75,15.75-37.12,24.61-59.4,24.61s-43.64-8.85-59.4-24.61c-15.75-15.75-24.6-37.12-24.6-59.4s8.85-43.65,24.6-59.4c15.75-15.75,37.12-24.6,59.4-24.6h0Z"/>
  </g>
</svg>