<?xml version="1.0" encoding="utf-8"?>
<!-- Generator: Adobe Illustrator 25.3.1, SVG Export Plug-In . SVG Version: 6.00 Build 0)  -->
<svg version="1.1" id="Camada_1" xmlns="http://www.w3.org/2000/svg" xmlns:xlink="http://www.w3.org/1999/xlink" x="0px" y="0px"
	 viewBox="0 0 250 250" style="enable-background:new 0 0 250 250;" xml:space="preserve">
<style type="text/css">
	.st0{fill:#8A3D9C;}
</style>
<g>
	<g>
		<path class="st0" d="M200.4,59h-117v-5.5c0-6.3-7.8-11-18.2-11c-10.4,0-18.2,4.7-18.2,11v142.9c0,6.3,7.8,11,18.2,11
			c10.4,0,18.2-4.7,18.2-11h117c1.4,0,2.6-1.2,2.6-2.7V61.8C203,60.3,201.8,59,200.4,59z M65.2,48c7.9,0,13,3.3,13,5.5
			c0,2.2-5.1,5.5-13,5.5c-7.9,0-13-3.3-13-5.5C52.2,51.3,57.3,48,65.2,48z M78.2,196.5c0,2.2-5.1,5.5-13,5.5c-7.9,0-13-3.3-13-5.5
			V61.4h0c0.8,0.5,1.7,0.9,2.6,1.3l0,0c1,0.4,2,0.7,3.1,1h0c1.1,0.3,2.3,0.5,3.4,0.6c1.2,0.1,2.5,0.2,3.8,0.2c1.3,0,2.5-0.1,3.8-0.2
			c1.2-0.1,2.3-0.3,3.5-0.6h0c1-0.3,2.1-0.6,3.1-1l0,0c0.9-0.4,1.8-0.8,2.6-1.3h0V196.5z M197.8,191H83.4V64.5h114.4V191z"/>
		<path class="st0" d="M65.2,207.9c-10.6,0-18.6-4.9-18.6-11.4V53.5c0-6.5,8-11.4,18.6-11.4S83.8,47,83.8,53.5v5.1h116.5
			c1.7,0,3,1.4,3,3.2v131.9c0,1.7-1.4,3.2-3,3.2H83.8C83.5,203.2,75.6,207.9,65.2,207.9z M65.2,43c-10.1,0-17.8,4.5-17.8,10.6v142.9
			c0,6,7.6,10.6,17.8,10.6S83,202.5,83,196.5V196h117.4c1.2,0,2.2-1,2.2-2.3V61.8c0-1.3-1-2.3-2.2-2.3H83v-5.9
			C83,47.5,75.4,43,65.2,43z M65.2,202.4c-8.3,0-13.4-3.4-13.4-5.9V61h0.5l0.1,0.1c0.8,0.5,1.7,0.9,2.6,1.3c1,0.4,2,0.7,3.1,1
			c1.1,0.3,2.3,0.5,3.4,0.6c1.2,0.1,2.5,0.2,3.7,0.2c1.2,0,2.5-0.1,3.7-0.2c1.1-0.1,2.3-0.3,3.4-0.6l0.1,0c0.9-0.2,1.9-0.6,2.9-1
			c0.9-0.4,1.8-0.8,2.6-1.3l0.1-0.1h0.5l0,0.4v135.1C78.6,198.9,73.5,202.4,65.2,202.4z M52.6,62.1v134.4c0,1.7,4.4,5.1,12.6,5.1
			s12.6-3.4,12.6-5.1V62.1c-0.7,0.4-1.4,0.7-2.1,1c-1,0.4-2.1,0.8-3.2,1l-0.1,0c-1.1,0.3-2.2,0.5-3.4,0.6c-1.2,0.1-2.5,0.2-3.8,0.2
			c-1.3,0-2.5-0.1-3.8-0.2c-1.2-0.1-2.4-0.3-3.5-0.6c-1.1-0.3-2.1-0.6-3.1-1C54,62.8,53.3,62.5,52.6,62.1z M198.2,191.4H83V64.1
			h115.2V191.4z M83.8,190.6h113.5V64.9H83.8V190.6z M65.2,59.4c-8.3,0-13.4-3.4-13.4-5.9s5.1-5.9,13.4-5.9c8.3,0,13.4,3.4,13.4,5.9
			S73.5,59.4,65.2,59.4z M65.2,48.5c-8.1,0-12.6,3.4-12.6,5.1c0,1.7,4.4,5.1,12.6,5.1s12.6-3.4,12.6-5.1
			C77.8,51.8,73.4,48.5,65.2,48.5z"/>
	</g>
	<g>
		<path class="st0" d="M96.4,172.1h88.4c1.4,0,2.6-1.2,2.6-2.6V76.2c0-1.4-1.2-2.6-2.6-2.6H96.4c-1.4,0-2.6,1.2-2.6,2.6v93.3
			C93.8,171,95,172.1,96.4,172.1z M122.4,78.8v23.3c0,1.4,1.2,2.6,2.6,2.6c1.4,0,2.6-1.2,2.6-2.6V97H164c1.4,0,2.6-1.2,2.6-2.6
			c0-1.4-1.2-2.6-2.6-2.6h-36.4v-13h54.6v54.5l-44.2-0.1c-1.4,0-2.6,1.2-2.6,2.6v20.7c0,1.4,1.2,2.6,2.6,2.6c1.4,0,2.6-1.2,2.6-2.6
			v-18.1l41.6,0.1v28.4h-64.9l0-18.1c0-1.4-1.2-2.6-2.6-2.6s-2.6,1.2-2.6,2.6l0,18.1H99v-44.1h28.6c1.4,0,2.6-1.2,2.6-2.6
			c0-1.4-1.2-2.6-2.6-2.6H99V78.8H122.4z"/>
		<path class="st0" d="M184.8,172.5H96.4c-1.7,0-3-1.3-3-3V76.2c0-1.7,1.4-3,3-3h88.4c1.7,0,3,1.3,3,3v93.3
			C187.8,171.2,186.4,172.5,184.8,172.5z M96.4,74.1c-1.2,0-2.2,1-2.2,2.2v93.3c0,1.2,1,2.2,2.2,2.2h88.4c1.2,0,2.2-1,2.2-2.2V76.2
			c0-1.2-1-2.2-2.2-2.2H96.4z M182.6,167.4h-65.8l0-18.6c0-1.2-1-2.2-2.2-2.2c-1.2,0-2.2,1-2.2,2.2l0,18.6H98.6v-44.9h29
			c1.2,0,2.2-1,2.2-2.2c0-1.2-1-2.2-2.2-2.2h-29V78.4h24.2v23.7c0,1.2,1,2.2,2.2,2.2c1.2,0,2.2-1,2.2-2.2v-5.6H164
			c1.2,0,2.2-1,2.2-2.2c0-1.2-1-2.2-2.2-2.2h-36.8V78.4h55.4v55.3l-0.4,0l-44.2-0.1c-1.2,0-2.2,1-2.2,2.2v20.7c0,1.2,1,2.2,2.2,2.2
			s2.2-1,2.2-2.2V138l0.4,0l42,0.1V167.4z M117.6,166.5h64.1v-27.6l-40.8-0.1v17.7c0,1.7-1.4,3-3,3c-1.7,0-3-1.3-3-3v-20.7
			c0-1.7,1.4-3,3-3l43.8,0.1V79.2H128v12.1h36c1.7,0,3,1.3,3,3s-1.4,3-3,3h-36v4.8c0,1.7-1.4,3-3,3c-1.7,0-3-1.3-3-3V79.2H99.4v38
			h28.2c1.7,0,3,1.3,3,3s-1.4,3-3,3H99.4v43.2h12.2l0-17.7c0-1.7,1.4-3,3-3c1.7,0,3,1.3,3,3L117.6,166.5z"/>
	</g>
</g>
</svg>
