<?xml version="1.0" encoding="UTF-8"?>
<svg id="Camada_2" data-name="Camada 2" xmlns="http://www.w3.org/2000/svg" viewBox="0 0 468.49 454.44">
  <defs>
    <style>
      .cls-1 {
        fill: #00d38d;
      }
    </style>
  </defs>
  <g id="Camada_1-2" data-name="Camada 1">
    <path class="cls-1" d="M240.97,68.85h40.07v33.6h-40.07v-33.6Zm0,53.2h40.07v33.6h-40.07v-33.6ZM105.17,240.38h39.76v33.6h-39.76v-33.6Zm0,52.64h39.76v33.6h-39.76s0-33.6,0-33.6Zm0,52.81h39.76v33.6h-39.76s0-33.6,0-33.6Zm78.4-105.45h39.76v33.6h-39.68l-.08-33.6Zm0,52.64h39.76v33.6h-39.68s-.08-33.6-.08-33.6Zm0,52.81h39.76v33.6h-39.68s-.08-33.6-.08-33.6Z"/>
    <path class="cls-1" d="M436.05,420.81V60.34c-.02-16-6.38-31.34-17.69-42.65S391.7,.01,375.71,0H221.26c-16,.02-31.33,6.39-42.64,17.69-11.31,11.31-17.68,26.65-17.7,42.65v83.83h33.6V60.34c0-7.09,2.82-13.89,7.84-18.9,5.01-5.01,11.81-7.83,18.9-7.84h154.42c7.09,0,13.89,2.83,18.9,7.84,5.01,5.02,7.83,11.81,7.84,18.9V420.84h-102.26V236.04c-.02-16.96-6.77-33.22-18.76-45.21-11.99-12-28.25-18.74-45.21-18.77H91.28c-16.96,.02-33.22,6.77-45.21,18.77-12,11.99-18.74,28.25-18.77,45.21v184.8H0v33.6H468.49v-33.61h-32.45s0-.03,0-.03ZM60.85,236.01c.03-8.05,3.25-15.77,8.95-21.45,5.7-5.68,13.43-8.88,21.48-8.88H236.21c8.05,.02,15.77,3.22,21.46,8.91,5.7,5.7,8.9,13.41,8.91,21.46v183.9H60.9s0-183.91,0-183.91l-.05-.05Z"/>
    <path class="cls-1" d="M317.63,68.85h40.07v33.6h-40.07v-33.6Zm0,53.2h40.07v33.6h-40.07v-33.6Z"/>
  </g>
</svg>