<?xml version="1.0" encoding="UTF-8"?>
<svg id="Camada_2" data-name="Camada 2" xmlns="http://www.w3.org/2000/svg" viewBox="0 0 347.83 300.42">
  <defs>
    <style>
      .cls-1 {
        fill: #00d38d;
      }
    </style>
  </defs>
  <g id="Camada_1-2" data-name="Camada 1">
    <path class="cls-1" d="M69.8,213.25v60.35h76.96v-60.35H69.8ZM130.45,0V102.38H36.82v186.38H0v11.66H347.83v-11.66h-36.82V102.38h-37.63V0H130.45Zm11.66,11.66h119.58V102.38h-119.58V11.66Zm32.98,26.86h20.98v37.01h-20.98V38.52Zm-11.66-11.66v60.35h76.96V26.86h-76.96Zm44.32,11.66h20.98v37.01h-20.98V38.52Zm-6.69,174.72v60.35h76.96v-60.35h-76.96Zm-21.32-99.19h119.58v174.72h-119.58V114.06Zm32.98,26.86h20.98v37.01h-20.98v-37.01Zm-11.66-11.66v60.35h76.96v-60.35h-76.96Zm44.32,11.66h20.98v37.01h-20.98v-37.01Zm-11.66,84v37.01h-20.98v-37.01h20.98Zm11.66,0h20.98v37.01h-20.98v-37.01ZM48.51,114.06h119.58v174.72H48.51V114.06Zm32.98,26.86h20.98v37.01h-20.98v-37.01Zm-11.66-11.66v60.35h76.96v-60.35H69.83Zm44.32,11.66h20.98v37.01h-20.98v-37.01Zm-11.66,84v37.01h-20.98v-37.01h20.98Zm11.66,0h20.98v37.01h-20.98v-37.01Z"/>
  </g>
</svg>