<?xml version="1.0" encoding="UTF-8"?><svg id="Camada_1" xmlns="http://www.w3.org/2000/svg" xmlns:xlink="http://www.w3.org/1999/xlink" viewBox="0 0 250 250"><defs><style>.cls-1{fill:#e61d72;}.cls-2{clip-path:url(#clippath);}</style><clipPath id="clippath"><rect class="cls-1" x="152.8" y="129.85" width="6.6" height="80.3"/></clipPath></defs><path class="cls-1" d="M212.5,210.15H37.8c-1.8,0-3.2-1.4-3.2-3.2V59.75c0-1.8,1.4-3.2,3.2-3.2H126.9c1.8,0,3.2,1.4,3.2,3.2s-1.4,3.2-3.2,3.2H41V203.75H209.3V62.95h-24c-1.8,0-3.2-1.4-3.2-3.2s1.4-3.2,3.2-3.2h27.2c1.8,0,3.2,1.4,3.2,3.2V206.95c0,1.8-1.4,3.2-3.2,3.2"/><rect id="SVGID" class="cls-1" x="34.3" y="56.55" width="6.6" height="153.7"/><path class="cls-1" d="M212.5,112.25h-34.5c-1.8,0-3.2-1.4-3.2-3.2s1.4-3.2,3.2-3.2h34.5c1.8,0,3.2,1.4,3.2,3.2s-1.4,3.2-3.2,3.2"/><path class="cls-1" d="M133,112.25h-40.8c-1.8,0-3.2-1.4-3.2-3.2s1.4-3.2,3.2-3.2h40.8c1.8,0,3.2,1.4,3.2,3.2s-1.4,3.2-3.2,3.2"/><path class="cls-1" d="M92.2,210.15c-1.8,0-3.2-1.4-3.2-3.2V116.15l-49.3,43.8c-.6,.5-1.3,.8-2.1,.8l-1.2-6.4,53.7-47.7c.9-.8,2.3-1,3.4-.5,1.2,.5,1.9,1.7,1.9,2.9v97.9c0,1.8-1.4,3.2-3.2,3.2"/><path class="cls-1" d="M212.5,177.55h-56.4c-.4,0-.8-.1-1.1-.2l-64-24.4c-1.7-.6-2.5-2.5-1.9-4.1,.6-1.7,2.5-2.5,4.1-1.9l63.3,24.1h55.8c1.8,0,3.2,1.4,3.2,3.2,.2,1.8-1.2,3.3-3,3.3"/><path class="cls-1" d="M156.1,46.15c-16.9,0-30.6,13.7-30.6,30.6,0,14.1,8.8,27.9,16.1,37,5.7,7.1,11.5,12.5,14.5,15.2,3-2.6,8.8-8.1,14.5-15.2,7.3-9.1,16.1-22.9,16.1-37,0-16.9-13.8-30.6-30.6-30.6Zm0,90.1c-.7,0-1.4-.2-2-.7-.4-.3-8.8-7.1-17.4-17.7-5.1-6.3-9.1-12.5-12-18.6-3.7-7.8-5.6-15.3-5.6-22.5,0-9.9,3.8-19.2,10.8-26.2,7-7,16.3-10.8,26.1-10.8s19.2,3.9,26.2,10.8c7,7,10.8,16.3,10.8,26.2,0,7.1-1.9,14.7-5.6,22.5-2.9,6.1-7,12.4-12,18.6-8.6,10.6-17,17.5-17.4,17.7-.5,.5-1.2,.7-1.9,.7"/><path class="cls-1" d="M156.1,64.55c-6.8,0-12.3,5.5-12.3,12.3s5.5,12.3,12.3,12.3,12.3-5.5,12.3-12.3c0-6.8-5.6-12.3-12.3-12.3Zm0,31c-10.3,0-18.7-8.4-18.7-18.7s8.4-18.7,18.7-18.7,18.7,8.4,18.7,18.7-8.4,18.7-18.7,18.7"/><g><rect id="SVGID-2" class="cls-1" x="152.8" y="129.85" width="6.6" height="80.3"/><g><rect class="cls-1" x="152.8" y="129.85" width="6.6" height="80.3"/><g class="cls-2"><path class="cls-1" d="M156.1,129.85c-1.8,0-3.2,1.4-3.2,3.2v73.9c0,1.8,1.4,3.2,3.2,3.2s3.2-1.4,3.2-3.2v-73.9c0-1.7-1.4-3.2-3.2-3.2"/></g></g></g></svg>