<svg id="Layer_1" data-name="Layer 1" xmlns="http://www.w3.org/2000/svg" xmlns:xlink="http://www.w3.org/1999/xlink" viewBox="0 0 150 185"><defs><style>.cls-1{fill:#006b3f;}.cls-2{fill:url(#linear-gradient);}.cls-3{fill:url(#linear-gradient-2);}.cls-4{fill:url(#linear-gradient-4);}</style><linearGradient id="linear-gradient" x1="-4.11" y1="30.87" x2="157.23" y2="30.87" gradientUnits="userSpaceOnUse"><stop offset="0" stop-color="#ff8c23"/><stop offset="1" stop-color="#ffb91a"/></linearGradient><linearGradient id="linear-gradient-2" x1="-4.11" y1="117.1" x2="157.23" y2="117.1" xlink:href="#linear-gradient"/><linearGradient id="linear-gradient-4" x1="-4.11" y1="88.85" x2="157.23" y2="88.85" xlink:href="#linear-gradient"/></defs><path class="cls-1" d="M137.73,89.66,91.34,49a24.21,24.21,0,0,0-31.82,0L12.77,89.66a24.45,24.45,0,0,0-8.52,18.23V160.2A25.19,25.19,0,0,0,29,185h93c13.35,0,23.7-11.44,23.7-24.79V107.89A24,24,0,0,0,137.73,89.66Z"/><circle class="cls-2" cx="89.87" cy="30.87" r="14.12"/><path class="cls-3" d="M30.4,87.2a29.9,29.9,0,1,0,29.9,29.9A29.93,29.93,0,0,0,30.4,87.2Zm0,53.52A23.63,23.63,0,1,1,54,117.1,23.65,23.65,0,0,1,30.4,140.72Z"/><path class="cls-3" d="M119.6,87.2a29.9,29.9,0,1,0,29.9,29.9A29.93,29.93,0,0,0,119.6,87.2Zm0,53.52a23.63,23.63,0,1,1,23.62-23.62A23.65,23.65,0,0,1,119.6,140.72Z"/><path class="cls-4" d="M68.51,77.86a1.48,1.48,0,0,1-.13-2.09L75.17,68a1.48,1.48,0,0,1,1.92-.28,49.15,49.15,0,0,0,26.62,7.75h4a8.92,8.92,0,0,0,0-17.84h-4A31.94,31.94,0,0,1,81.3,48.35a8.36,8.36,0,0,0-6.6-2.6,8.89,8.89,0,0,0-6.41,3L47.47,72.57a9,9,0,0,0-2.13,7.05c.64,4.76,3.95,6.29,7.85,8.88A31.31,31.31,0,0,1,66.3,121.11,8.92,8.92,0,1,0,83.71,125,49.31,49.31,0,0,0,68.51,77.86Z"/></svg>