<svg id="Layer_1" data-name="Layer 1" xmlns="http://www.w3.org/2000/svg" xmlns:xlink="http://www.w3.org/1999/xlink" viewBox="0 0 150 185"><defs><style>.cls-1{fill:#006b3f;}.cls-2{fill:url(#linear-gradient);}</style><linearGradient id="linear-gradient" x1="11.15" y1="95.37" x2="138.85" y2="95.37" gradientUnits="userSpaceOnUse"><stop offset="0" stop-color="#ff8c23"/><stop offset="1" stop-color="#ffb91a"/></linearGradient></defs><path class="cls-1" d="M137.73,89.66,91.34,49a24.21,24.21,0,0,0-31.82,0L12.77,89.66a24.45,24.45,0,0,0-8.52,18.23V160.2A25.19,25.19,0,0,0,29,185h93c13.35,0,23.7-11.44,23.7-24.79V107.89A24,24,0,0,0,137.73,89.66Z"/><path class="cls-2" d="M135,76.19h1.28a2.57,2.57,0,0,0,2.56-2.57V34.06a2.57,2.57,0,0,0-2.59-2.56H13.71a2.54,2.54,0,0,0-2.56,2.56V73.65a2.55,2.55,0,0,0,2.56,2.56H15a2.56,2.56,0,0,1,2.57,2.57v67.66H13.71A2.55,2.55,0,0,0,11.15,149v7.67a2.55,2.55,0,0,0,2.56,2.56H136.29a2.55,2.55,0,0,0,2.56-2.56V149a2.56,2.56,0,0,0-2.56-2.56h-3.82V78.73A2.5,2.5,0,0,1,135,76.19ZM94.14,44.27h12.77V63.42a6.39,6.39,0,0,1-12.77,0Zm-51.07,0H55.84V63.42a6.39,6.39,0,0,1-12.77,0V44.27ZM23.91,69.8a6.39,6.39,0,0,1-6.38-6.38V44.27H30.3V63.42A6.39,6.39,0,0,1,23.91,69.8ZM68.6,146.41H30.3v-38.3a19.15,19.15,0,1,1,38.3,0v38.3ZM75,69.8a6.39,6.39,0,0,1-6.39-6.38V44.27H81.37V63.42A6.38,6.38,0,0,1,75,69.8Zm44.69,61.28a2.58,2.58,0,0,1-2.57,2.57H83.94a2.57,2.57,0,0,1-2.57-2.57V104.29a2.55,2.55,0,0,1,2.57-2.56h33.2a2.56,2.56,0,0,1,2.56,2.56v26.79Zm6.38-61.28a6.38,6.38,0,0,1-6.38-6.38V44.27h12.76V63.42A6.38,6.38,0,0,1,126.06,69.8Z"/></svg>