<svg id="Layer_1" data-name="Layer 1" xmlns="http://www.w3.org/2000/svg" xmlns:xlink="http://www.w3.org/1999/xlink" viewBox="0 0 150 185"><defs><style>.cls-1{fill:#006b3f;}.cls-2,.cls-3,.cls-4,.cls-5{fill-rule:evenodd;}.cls-2{fill:url(#linear-gradient);}.cls-3{fill:url(#linear-gradient-2);}.cls-4{fill:url(#linear-gradient-3);}.cls-5{fill:url(#linear-gradient-4);}.cls-6{fill:url(#linear-gradient-5);}.cls-7{fill:url(#linear-gradient-7);}.cls-8{fill:url(#linear-gradient-8);}</style><linearGradient id="linear-gradient" x1="-7.06" y1="33.48" x2="187.16" y2="33.48" gradientUnits="userSpaceOnUse"><stop offset="0" stop-color="#ff8c23"/><stop offset="1" stop-color="#ffb91a"/></linearGradient><linearGradient id="linear-gradient-2" x1="-7.06" y1="77.31" x2="187.16" y2="77.31" xlink:href="#linear-gradient"/><linearGradient id="linear-gradient-3" x1="-7.06" y1="55.55" x2="187.16" y2="55.55" xlink:href="#linear-gradient"/><linearGradient id="linear-gradient-4" x1="-7.06" y1="9.62" x2="187.16" y2="9.62" xlink:href="#linear-gradient"/><linearGradient id="linear-gradient-5" x1="-7.06" y1="158.38" x2="187.16" y2="158.38" xlink:href="#linear-gradient"/><linearGradient id="linear-gradient-7" x1="-7.06" y1="153.94" x2="187.16" y2="153.94" xlink:href="#linear-gradient"/><linearGradient id="linear-gradient-8" x1="-7.06" y1="138.3" x2="187.16" y2="138.3" xlink:href="#linear-gradient"/></defs><path class="cls-1" d="M137.73,89.66,91.34,49a24.21,24.21,0,0,0-31.82,0L12.77,89.66a24.45,24.45,0,0,0-8.52,18.23V160.2A25.19,25.19,0,0,0,29,185h93c13.35,0,23.7-11.44,23.7-24.79V107.89A24,24,0,0,0,137.73,89.66Z"/><path class="cls-2" d="M42.64,20.47c0,6.78-6.31,11.84-11.73,14.73a50.1,50.1,0,0,1-10,3.92.58.58,0,0,0-.42.56v2.39a.59.59,0,0,0,.74.57,54.83,54.83,0,0,0,11.26-4.38C36.73,36,41,32.8,43.63,28.67a.56.56,0,0,1,1,0,29.25,29.25,0,0,0,6.48,8.39,59.9,59.9,0,0,0,14,9.32A.59.59,0,0,0,66,45.9V43.32a.57.57,0,0,0-.32-.51,54.87,54.87,0,0,1-12.19-8.25C49.61,31,46.32,26.42,46.1,21a.57.57,0,0,0-.56-.56Z"/><path class="cls-3" d="M20.53,57.7c7.56-.49,15.1-1.33,22.55-2.56A168.91,168.91,0,0,0,69,48.85a.59.59,0,0,0,.4-.56v-18a.58.58,0,0,0-.24-.47L57.88,21.52a.58.58,0,0,1,.34-1.05H91a.58.58,0,0,1,.35,1.05L80,29.84a.58.58,0,0,0-.24.47V43.72a.58.58,0,0,0,.83.53,59.15,59.15,0,0,0,15.14-9.69c3.83-3.55,7.13-8.14,7.34-13.53a.57.57,0,0,1,.57-.56H106a.57.57,0,0,1,.57.55c.33,6.51,6.45,11.37,11.72,14.18a49.85,49.85,0,0,0,8.93,3.63.57.57,0,0,1,.41.54v2.41a.59.59,0,0,1-.75.56,53.07,53.07,0,0,1-10.21-4.08c-4.2-2.24-8.5-5.46-11.1-9.59a.56.56,0,0,0-1,0,28.9,28.9,0,0,1-6.48,8.39c-5,4.68-11.53,8.34-18,11.17a.58.58,0,0,0-.35.53v84.75a.58.58,0,0,1-.58.59H70a.58.58,0,0,1-.58-.59V53.16a.57.57,0,0,0-.75-.54,174.08,174.08,0,0,1-25,5.94c-7.44,1.24-15,2.08-22.5,2.58a.59.59,0,0,1-.62-.59V57.7Z"/><path class="cls-4" d="M127.62,58.17a.57.57,0,0,0-.54-.58c-7-.5-14-1.3-21-2.45A174.78,174.78,0,0,1,84,50.06a.57.57,0,0,0-.74.55V53a.6.6,0,0,0,.42.57,177.41,177.41,0,0,0,21.89,5c7.09,1.18,14.26,2,21.45,2.51a.59.59,0,0,0,.63-.59Z"/><path class="cls-5" d="M35.45,2.25h5.74a.58.58,0,0,1,.58.58V8.61a.58.58,0,0,0,.59.58h4A.58.58,0,0,0,47,8.61V2.83a.58.58,0,0,1,.58-.58h5.74a.58.58,0,0,1,.59.58V8.61a.58.58,0,0,0,.58.58H94.74a.58.58,0,0,0,.58-.58V2.83a.58.58,0,0,1,.58-.58h5.75a.58.58,0,0,1,.58.58V8.61a.58.58,0,0,0,.58.58h4a.58.58,0,0,0,.58-.58V2.83a.58.58,0,0,1,.58-.58h5.75a.58.58,0,0,1,.58.58V8.61a.58.58,0,0,0,.58.58h2.29a.58.58,0,0,1,.58.58v6.65a.58.58,0,0,1-.58.58L32,16.93a.58.58,0,0,1-.58-.58V9.77A.58.58,0,0,1,32,9.19h2.29a.58.58,0,0,0,.59-.58V2.83A.58.58,0,0,1,35.45,2.25Z"/><path class="cls-6" d="M4.09,154.93v6.91a.49.49,0,0,0,.49.49H62.73v-7.9H4.58A.5.5,0,0,0,4.09,154.93Z"/><path class="cls-6" d="M145.15,154.43H85.43v7.9h59.72a.5.5,0,0,0,.5-.49v-6.91A.51.51,0,0,0,145.15,154.43Z"/><path class="cls-7" d="M84,153H83A1,1,0,0,0,82,154v.43h-.5a3.44,3.44,0,0,1-3.41-3h.45a1,1,0,0,0,1-1v-1a1,1,0,0,0-1-1H76.59L77.77,147H80.5a1.48,1.48,0,0,0,0-3H67.67a1.48,1.48,0,0,0,0,3h2.72l1.18,1.48H69.64a1,1,0,0,0-1,1v1a1,1,0,0,0,1,1h.45a3.43,3.43,0,0,1-3.41,3h-.49V154a1,1,0,0,0-1-1.05h-1a1,1,0,0,0-1,1.05v8.77a1,1,0,0,0,1,1h1a1,1,0,0,0,1-1v-.44H82v.44a1,1,0,0,0,1,1h1a1,1,0,0,0,1-1V154A1,1,0,0,0,84,153ZM71.65,147h4.86l-1.19,1.48H72.84Z"/><rect class="cls-8" x="4.14" y="137.16" width="141.77" height="2.29"/></svg>