<svg id="Layer_1" data-name="Layer 1" xmlns="http://www.w3.org/2000/svg" xmlns:xlink="http://www.w3.org/1999/xlink" viewBox="0 0 150 185"><defs><style>.cls-1{fill:#006b3f;}.cls-2{fill:url(#linear-gradient);}</style><linearGradient id="linear-gradient" x1="12.98" y1="82.33" x2="137.02" y2="82.33" gradientUnits="userSpaceOnUse"><stop offset="0" stop-color="#ff8c23"/><stop offset="1" stop-color="#ffb91a"/></linearGradient></defs><path class="cls-1" d="M137.73,89.66,91.34,49a24.21,24.21,0,0,0-31.82,0L12.77,89.66a24.45,24.45,0,0,0-8.52,18.23V160.2A25.19,25.19,0,0,0,29,185h93c13.35,0,23.7-11.44,23.7-24.79V107.89A24,24,0,0,0,137.73,89.66Z"/><path class="cls-2" d="M128.08,2.24H21.92a9,9,0,0,0-8.94,9v130.3a9,9,0,0,0,8.94,8.95H29v6a5.93,5.93,0,0,0,5.94,5.94H45.78a5.94,5.94,0,0,0,5.94-5.94v-6H98.28v6a5.94,5.94,0,0,0,5.94,5.94h10.85a5.93,5.93,0,0,0,5.94-5.94v-6h7.07a9,9,0,0,0,8.94-8.95V11.19A9,9,0,0,0,128.08,2.24ZM49.09,14a1.6,1.6,0,0,1,1.6-1.6H99.31a1.6,1.6,0,0,1,1.6,1.6v7.56a1.6,1.6,0,0,1-1.6,1.6H50.69a1.6,1.6,0,0,1-1.6-1.6ZM40.15,131.59a8.94,8.94,0,1,1,8.94-8.94A8.94,8.94,0,0,1,40.15,131.59Zm69.7,0a8.94,8.94,0,1,1,8.94-8.94A8.94,8.94,0,0,1,109.85,131.59Zm8.94-36.15a1.5,1.5,0,0,1-1.5,1.49H32.71a1.5,1.5,0,0,1-1.5-1.49V36.33A3.33,3.33,0,0,1,34.54,33h80.92a3.33,3.33,0,0,1,3.33,3.33Z"/></svg>