<svg id="Layer_1" data-name="Layer 1" xmlns="http://www.w3.org/2000/svg" xmlns:xlink="http://www.w3.org/1999/xlink" viewBox="0 0 150 185"><defs><style>.cls-1{fill:#006b3f;}.cls-2{fill:url(#linear-gradient);}.cls-3{fill:url(#linear-gradient-2);}.cls-4{fill:url(#linear-gradient-3);}</style><linearGradient id="linear-gradient" x1="-5.45" y1="80.28" x2="154.57" y2="80.28" gradientUnits="userSpaceOnUse"><stop offset="0" stop-color="#ff8c23"/><stop offset="1" stop-color="#ffb91a"/></linearGradient><linearGradient id="linear-gradient-2" x1="-5.45" y1="36.73" x2="154.57" y2="36.73" xlink:href="#linear-gradient"/><linearGradient id="linear-gradient-3" x1="-5.45" y1="126.65" x2="154.57" y2="126.65" xlink:href="#linear-gradient"/></defs><path class="cls-1" d="M137.73,89.66,91.34,49a24.21,24.21,0,0,0-31.82,0L12.77,89.66a24.45,24.45,0,0,0-8.52,18.23V160.2A25.19,25.19,0,0,0,29,185h93c13.35,0,23.7-11.44,23.7-24.79V107.89A24,24,0,0,0,137.73,89.66Z"/><path class="cls-2" d="M82.32,9.62A9.79,9.79,0,0,0,68.47,23.46L92.7,47.69,41.94,98.45,17.71,74.22A9.79,9.79,0,0,0,3.87,88.06l62.87,62.88A9.79,9.79,0,0,0,80.59,137.1L59.24,115.75,110,65l21.35,21.34a9.79,9.79,0,0,0,13.84-13.84Z"/><path class="cls-3" d="M138.56,63a6.12,6.12,0,0,0,8.65-8.65l-7.14-7.14a6,6,0,0,0,2.52-1.51,6.13,6.13,0,0,0,0-8.66L120.67,15.09a6.12,6.12,0,0,0-10.17,2.52l-7.13-7.13a6.12,6.12,0,0,0-8.65,8.65Z"/><path class="cls-4" d="M13.44,100.41a6.12,6.12,0,0,0-8.65,8.65l7.5,7.51a6.1,6.1,0,0,0-3.46,10.37l21.92,21.92a6.12,6.12,0,0,0,10.38-3.46l7.5,7.5a6.12,6.12,0,0,0,8.65-8.65Z"/></svg>