<svg id="Layer_1" data-name="Layer 1" xmlns="http://www.w3.org/2000/svg" xmlns:xlink="http://www.w3.org/1999/xlink" viewBox="0 0 150 185"><defs><style>.cls-1{fill:#006b3f;}.cls-2{fill:url(#linear-gradient);}</style><linearGradient id="linear-gradient" x1="3.18" y1="81.4" x2="146.82" y2="81.4" gradientUnits="userSpaceOnUse"><stop offset="0" stop-color="#ff8c23"/><stop offset="1" stop-color="#ffb91a"/></linearGradient></defs><path class="cls-1" d="M137.73,89.66,91.34,49a24.21,24.21,0,0,0-31.82,0L12.77,89.66a24.45,24.45,0,0,0-8.52,18.23V160.2A25.19,25.19,0,0,0,29,185h93c13.35,0,23.7-11.44,23.7-24.79V107.89A24,24,0,0,0,137.73,89.66Z"/><path class="cls-2" d="M146.82,60a18.18,18.18,0,0,0-16.36-18.15,18.1,18.1,0,0,0-16.72-25.17,18.48,18.48,0,0,0-6.29,1.08A18.18,18.18,0,0,0,73.83,9.13a18.16,18.16,0,0,0-33.62,9.53,6.68,6.68,0,0,0,.18,2,18.74,18.74,0,0,0-8.26-2A18.11,18.11,0,0,0,14,36.81,17.74,17.74,0,0,0,17.56,47.6a18.12,18.12,0,0,0-7.19,32.18A18.12,18.12,0,0,0,26,107.1a15.34,15.34,0,0,0,4.14-.54,18.27,18.27,0,0,0,28.22,3.78,18.94,18.94,0,0,0,7.37,8.09v28.76l-7.55,6.65a4.72,4.72,0,0,0,2.88,8.45,4.89,4.89,0,0,0,3.41-1.44l5-5v1.8a4.64,4.64,0,0,0,4.67,4.67h1.44a4.64,4.64,0,0,0,4.67-4.67v-1.8l5,5a4.89,4.89,0,0,0,3.41,1.44A4.69,4.69,0,0,0,91.81,154l-7.55-6.65-.18-29.12a17.93,17.93,0,0,0,7.19-8.63,18.46,18.46,0,0,0,13.48,5.93A18.15,18.15,0,0,0,122.55,101a19.54,19.54,0,0,0,4.67.54A18.06,18.06,0,0,0,141.6,72.41,16.41,16.41,0,0,0,146.82,60ZM34.51,68.68a5.58,5.58,0,1,1,5.58-5.58A5.58,5.58,0,0,1,34.51,68.68ZM55.14,93.31a5.58,5.58,0,1,1,5.57-5.58A5.58,5.58,0,0,1,55.14,93.31Zm0-48.72A5.58,5.58,0,1,1,60.71,39,5.58,5.58,0,0,1,55.14,44.59ZM75,68.68a5.58,5.58,0,1,1,5.57-5.58A5.57,5.57,0,0,1,75,68.68ZM94.92,93.31a5.58,5.58,0,1,1,5.57-5.58A5.58,5.58,0,0,1,94.92,93.31Zm0-48.72A5.58,5.58,0,1,1,100.49,39,5.58,5.58,0,0,1,94.92,44.59Zm20.31,25.35a5.58,5.58,0,1,1,5.57-5.58A5.57,5.57,0,0,1,115.23,69.94Z"/></svg>