<svg id="Layer_1" data-name="Layer 1" xmlns="http://www.w3.org/2000/svg" xmlns:xlink="http://www.w3.org/1999/xlink" viewBox="0 0 150 185"><defs><style>.cls-1{fill:#006b3f;}.cls-2{fill:url(#linear-gradient);}.cls-3{fill:url(#linear-gradient-2);}.cls-4{fill:url(#linear-gradient-3);}.cls-5{fill:url(#linear-gradient-4);}.cls-6{fill:url(#linear-gradient-5);}.cls-7{fill:url(#linear-gradient-6);}.cls-8{fill:url(#linear-gradient-7);}.cls-9{fill:url(#linear-gradient-8);}.cls-10{fill:url(#linear-gradient-9);}.cls-11{fill:url(#linear-gradient-11);}.cls-12{fill:url(#linear-gradient-12);}.cls-13{fill:url(#linear-gradient-13);}</style><linearGradient id="linear-gradient" x1="-6.04" y1="120.58" x2="150.25" y2="120.58" gradientUnits="userSpaceOnUse"><stop offset="0" stop-color="#ff8c23"/><stop offset="1" stop-color="#ffb91a"/></linearGradient><linearGradient id="linear-gradient-2" x1="-6.04" y1="56.68" x2="150.25" y2="56.68" xlink:href="#linear-gradient"/><linearGradient id="linear-gradient-3" x1="-6.04" y1="13.53" x2="150.25" y2="13.53" xlink:href="#linear-gradient"/><linearGradient id="linear-gradient-4" x1="-6.04" y1="17.97" x2="150.25" y2="17.97" xlink:href="#linear-gradient"/><linearGradient id="linear-gradient-5" x1="-6.04" y1="30.59" x2="150.25" y2="30.59" xlink:href="#linear-gradient"/><linearGradient id="linear-gradient-6" x1="-6.04" y1="49.42" x2="150.25" y2="49.42" xlink:href="#linear-gradient"/><linearGradient id="linear-gradient-7" x1="-6.04" y1="71.84" x2="150.25" y2="71.84" xlink:href="#linear-gradient"/><linearGradient id="linear-gradient-8" x1="-6.04" y1="94.11" x2="150.25" y2="94.11" xlink:href="#linear-gradient"/><linearGradient id="linear-gradient-9" x1="-6.04" y1="94.24" x2="150.25" y2="94.24" xlink:href="#linear-gradient"/><linearGradient id="linear-gradient-11" x1="-6.04" y1="49.62" x2="150.25" y2="49.62" xlink:href="#linear-gradient"/><linearGradient id="linear-gradient-12" x1="-6.04" y1="30.59" x2="150.25" y2="30.59" xlink:href="#linear-gradient"/><linearGradient id="linear-gradient-13" x1="-6.04" y1="17.93" x2="150.25" y2="17.93" xlink:href="#linear-gradient"/></defs><path class="cls-1" d="M137.73,89.66,91.34,49a24.21,24.21,0,0,0-31.82,0L12.77,89.66a24.45,24.45,0,0,0-8.52,18.23V160.2A25.19,25.19,0,0,0,29,185h93c13.35,0,23.7-11.44,23.7-24.79V107.89A24,24,0,0,0,137.73,89.66Z"/><path class="cls-2" d="M129.32,113.83,112.49,105a15,15,0,0,1-5.17-4.5l-10-14a17,17,0,0,0-14-7.17H66.67a17.46,17.46,0,0,0-14,7.17l-10,14a15,15,0,0,1-5.17,4.5l-16.83,8.66A8.4,8.4,0,0,0,16.52,124a8.16,8.16,0,0,0,11.33,4.17L45,119.49A29.58,29.58,0,0,0,55.84,110l.33-.34v19.5L29.52,142.82a10.16,10.16,0,0,0-5,12.16A10,10,0,0,0,34,161.81a7.16,7.16,0,0,0,1.84-.16L72,155.32a16.78,16.78,0,0,1,5.83,0L114,161.65a7,7,0,0,0,1.83.16,10,10,0,0,0,4.5-19L93.66,129.16V109.5l.33.33a31.33,31.33,0,0,0,10.83,9.5L122,128.16a7.45,7.45,0,0,0,3.67.83,8.37,8.37,0,0,0,7.66-5.33A7.88,7.88,0,0,0,129.32,113.83Z"/><circle class="cls-3" cx="75" cy="56.68" r="17.99"/><path class="cls-4" d="M75.8,23.46a4.62,4.62,0,0,0,3.7-4.63V8.23A4.62,4.62,0,0,0,75.8,3.6,4.49,4.49,0,0,0,70.5,8V19A4.49,4.49,0,0,0,75.8,23.46Z"/><path class="cls-5" d="M50.67,24.69a4.55,4.55,0,0,0,4.17,2.84,5.84,5.84,0,0,0,1.67-.34A4.56,4.56,0,0,0,59,21.36L54.84,11.2a4.49,4.49,0,0,0-8.33,3.33Z"/><path class="cls-6" d="M34.51,37.69a4.43,4.43,0,0,0,6.33,0,4.32,4.32,0,0,0,0-6.33L33,23.53a4.48,4.48,0,0,0-6.33,6.33Z"/><path class="cls-7" d="M14.35,51.52l10.17,4.16a5.78,5.78,0,0,0,1.66.34,4.3,4.3,0,0,0,4.17-2.84,4.36,4.36,0,0,0-2.5-5.83L17.69,43.19a4.49,4.49,0,1,0-3.34,8.33Z"/><path class="cls-8" d="M26.62,71.05A4.63,4.63,0,0,0,22,67.35H11.39a4.62,4.62,0,0,0-4.63,3.7,4.49,4.49,0,0,0,4.43,5.29h11A4.49,4.49,0,0,0,26.62,71.05Z"/><path class="cls-9" d="M27.85,96.17a4.49,4.49,0,0,0-3.33-8.33L14.35,92A4.5,4.5,0,0,0,16,100.67a5.84,5.84,0,0,0,1.67-.34Z"/><path class="cls-10" d="M135.65,92.17,125.48,88a4.49,4.49,0,1,0-3.33,8.33l10.16,4.16a5.82,5.82,0,0,0,1.67.33,4.49,4.49,0,0,0,1.67-8.66Z"/><path class="cls-8" d="M138.81,67.35H128a4.63,4.63,0,0,0-4.63,3.7,4.49,4.49,0,0,0,4.44,5.29h10.79a4.62,4.62,0,0,0,4.63-3.7A4.48,4.48,0,0,0,138.81,67.35Z"/><path class="cls-11" d="M119.65,53.35a4.53,4.53,0,0,0,4.17,2.83,5.76,5.76,0,0,0,1.66-.33l10.17-4.17a4.55,4.55,0,0,0,2.5-5.83,4.63,4.63,0,0,0-5.84-2.5l-10.16,4.17A4.36,4.36,0,0,0,119.65,53.35Z"/><path class="cls-12" d="M113.39,38.89a4.84,4.84,0,0,0,2.22-1.33l7.71-7.7A4.48,4.48,0,1,0,117,23.53l-7.83,7.83a4.32,4.32,0,0,0,0,6.33A4.52,4.52,0,0,0,113.39,38.89Z"/><path class="cls-13" d="M93.49,27.19a5.84,5.84,0,0,0,1.67.34,4.31,4.31,0,0,0,4.17-2.84l4.16-10.16a4.49,4.49,0,0,0-8.33-3.33L91,21.36A4.62,4.62,0,0,0,93.49,27.19Z"/></svg>