<svg id="Layer_1" data-name="Layer 1" xmlns="http://www.w3.org/2000/svg" xmlns:xlink="http://www.w3.org/1999/xlink" viewBox="0 0 150 185"><defs><style>.cls-1{fill:#006b3f;}.cls-2,.cls-3{fill:url(#linear-gradient);}.cls-3{fill-rule:evenodd;}</style><linearGradient id="linear-gradient" x1="4.18" y1="93.69" x2="137.62" y2="93.69" gradientUnits="userSpaceOnUse"><stop offset="0" stop-color="#ff8c23"/><stop offset="1" stop-color="#ffb91a"/></linearGradient></defs><path class="cls-1" d="M137.43,89.66,91,49a24.21,24.21,0,0,0-31.82,0L12.46,89.66A24.44,24.44,0,0,0,4,107.89V160.2A25.19,25.19,0,0,0,28.71,185h93c13.35,0,23.71-11.44,23.71-24.79V107.89A24,24,0,0,0,137.43,89.66Z"/><path class="cls-2" d="M70.88,56.78a7,7,0,0,0-5.21-2.33,6.92,6.92,0,0,0-5.21,2.44C53.3,65.24,36.65,86.56,36.65,104A29.1,29.1,0,0,0,60,132.45a25.86,25.86,0,0,0,5,.49,31,31,0,0,0,20.39-8.36C109.22,103.18,80.31,67.28,70.88,56.78Zm-7.1,66.78h-.25a20.93,20.93,0,0,1-17.71-17.63,2.74,2.74,0,1,1,5.42-.78,15.55,15.55,0,0,0,13,13,2.55,2.55,0,0,1,2.17,2.53l0,.16A2.7,2.7,0,0,1,63.78,123.56Z"/><path class="cls-3" d="M147.36,86.6l-18.78,25.11a3.15,3.15,0,0,1-4.89.21l-20.87-23.4a3.09,3.09,0,0,1-.56-3.33A3.12,3.12,0,0,1,105,83.26l9.33-.4,4.46-.19.75,0a53.08,53.08,0,1,0-17.08,51.09,4.37,4.37,0,0,1,5.71,0l1.92,1.61a4.39,4.39,0,0,1,.08,6.66A64.32,64.32,0,1,1,131,82.14l6.83-.29,6.89-.3a3.16,3.16,0,0,1,2.67,5Z"/></svg>