<svg id="Layer_1" data-name="Layer 1" xmlns="http://www.w3.org/2000/svg" xmlns:xlink="http://www.w3.org/1999/xlink" viewBox="0 0 150 185"><defs><style>.cls-1{fill:#006b3f;}.cls-2{fill:url(#linear-gradient);}.cls-3{fill:url(#linear-gradient-2);}.cls-4{fill:url(#linear-gradient-3);}.cls-5{fill:url(#linear-gradient-4);}.cls-6{fill:url(#linear-gradient-5);}.cls-7{fill:url(#linear-gradient-6);}.cls-8{fill:url(#linear-gradient-7);}.cls-9{fill:url(#linear-gradient-8);}.cls-10{fill:url(#linear-gradient-9);}.cls-11{fill:url(#linear-gradient-10);}.cls-12{fill:url(#linear-gradient-11);}.cls-13{fill:url(#linear-gradient-12);}.cls-14{fill:url(#linear-gradient-14);}</style><linearGradient id="linear-gradient" x1="1.56" y1="110.19" x2="150.64" y2="110.19" gradientUnits="userSpaceOnUse"><stop offset="0" stop-color="#ff8c23"/><stop offset="1" stop-color="#ffb91a"/></linearGradient><linearGradient id="linear-gradient-2" x1="1.56" y1="103.24" x2="150.64" y2="103.24" xlink:href="#linear-gradient"/><linearGradient id="linear-gradient-3" x1="1.56" y1="139.88" x2="150.64" y2="139.88" xlink:href="#linear-gradient"/><linearGradient id="linear-gradient-4" x1="1.56" y1="115" x2="150.64" y2="115" xlink:href="#linear-gradient"/><linearGradient id="linear-gradient-5" x1="1.56" y1="130.07" x2="150.64" y2="130.07" xlink:href="#linear-gradient"/><linearGradient id="linear-gradient-6" x1="1.56" y1="108.04" x2="150.64" y2="108.04" xlink:href="#linear-gradient"/><linearGradient id="linear-gradient-7" x1="1.56" y1="103.88" x2="150.64" y2="103.88" xlink:href="#linear-gradient"/><linearGradient id="linear-gradient-8" x1="1.56" y1="131.86" x2="150.64" y2="131.86" xlink:href="#linear-gradient"/><linearGradient id="linear-gradient-9" x1="1.56" y1="143.44" x2="150.64" y2="143.44" xlink:href="#linear-gradient"/><linearGradient id="linear-gradient-10" x1="1.56" y1="102.81" x2="150.64" y2="102.81" xlink:href="#linear-gradient"/><linearGradient id="linear-gradient-11" x1="1.56" y1="102.84" x2="150.64" y2="102.84" xlink:href="#linear-gradient"/><linearGradient id="linear-gradient-12" x1="1.56" y1="118.11" x2="150.64" y2="118.11" xlink:href="#linear-gradient"/><linearGradient id="linear-gradient-14" x1="1.56" y1="116.63" x2="150.64" y2="116.63" xlink:href="#linear-gradient"/></defs><path class="cls-1" d="M137.81,89.66,91.42,49A24.21,24.21,0,0,0,59.6,49L12.84,89.66a24.44,24.44,0,0,0-8.51,18.23V160.2A25.18,25.18,0,0,0,29.09,185h93c13.35,0,23.7-11.44,23.7-24.79V107.89A24,24,0,0,0,137.81,89.66Z"/><path class="cls-2" d="M3.35,127.52l1.05.56A1.12,1.12,0,0,0,5.53,128c6.55-4.15,11.2-6.44,23.23-9.92,10.45-3,26.61-12,35.59-24.14a1.12,1.12,0,0,0-1.44-1.65L3.33,125.56A1.12,1.12,0,0,0,3.35,127.52Z"/><path class="cls-3" d="M29.19,119.59c-11.06,3.2-15.87,5.45-21,8.6a1.12,1.12,0,0,0,.05,1.94l6.61,3.51a1.09,1.09,0,0,0,1.21-.1,20.94,20.94,0,0,0,3.44-4c1.92-2.7,10.74-5.93,20.94-9.68C53,115.28,68.41,109.5,69.17,105c.93-5.48,8.59-13.15,23.11-19.24,1.51-.64,2.89-1.19,4.15-1.71,4.44-1.8,7.49-3,10.42-5.12a1.12,1.12,0,0,0-.11-1.9l-7.83-4.23a1.15,1.15,0,0,0-1.08,0L69.67,88.55a1.06,1.06,0,0,0-.44.45C61.5,104.31,41.48,116,29.19,119.59Z"/><path class="cls-4" d="M68.24,132.13c-3.72-.94-8.18-1.32-9.93.87-2.72,3.41-13.51,8.48-19.77,11.23a1.11,1.11,0,0,0-.07,2l3.78,2a1.1,1.1,0,0,0,1.07,0l25.17-14A1.11,1.11,0,0,0,68.24,132.13Z"/><path class="cls-5" d="M103.74,99.78a1.15,1.15,0,0,0-.73,1c-.39,3.45-3.87,8.12-8.07,10.62-3.43,2-6.75,2.32-9.34.78A2.82,2.82,0,0,1,84,109.31c.38-3.24,7.21-8.13,9.43-8.84-1.85.59-7.62,6.61-7.89,9,0,.39,0,.89.83,1.38,2.81,1.67,6.07.23,7.76-.78,4-2.41,7.47-7.1,7.35-10a2.06,2.06,0,0,0-1.19-1.91C94.46,95.26,84.84,99,82,101c-4.15,2.89-3.54,4.87-2.94,6.79.45,1.45,1,3.24-1.56,4.49-.4.19-35.85,19-46.56,21.52A15.49,15.49,0,0,0,24.44,137a1.1,1.1,0,0,0,.2,1.83L34.23,144a1.07,1.07,0,0,0,.94.05c5.16-2.1,20.27-8.47,23.22-12.15,3.15-3.93,10.37-1.57,13.71-.18a1.14,1.14,0,0,0,1-.05l3.77-2.11a1.12,1.12,0,0,0,.16-1.84L73.62,125l7.25,1.94a1.14,1.14,0,0,0,.83-.11L107,112.68a1.11,1.11,0,0,0,.33-1.66c-1.23-1.61-2.29-3.67-1.15-5,4-4.85,10.3-7.36,15.88-9.58l1.22-.49a5.13,5.13,0,0,1,.52-1.86l.12-.23.18-.18a5.19,5.19,0,0,1,3.7-1.53h.24a2.12,2.12,0,0,0,.44,0,1.85,1.85,0,0,0,.21-.45l0-.09,0-.07a8.11,8.11,0,0,1,1.05-1.9L123.34,86a1.1,1.1,0,0,0-1.42.33A39.09,39.09,0,0,1,103.74,99.78Z"/><path class="cls-6" d="M80.74,128.12,77,126.58l2,1.85a.1.1,0,0,1,0,0l1,1,.33,4.13,1-4.17A1.12,1.12,0,0,0,80.74,128.12Z"/><path class="cls-7" d="M92.87,87.21c-14,5.86-21.43,11.92-22.17,18-.66,5.45-16.68,10.86-31,16.11-9.13,3.36-17.32,6.84-19,9.14a27.52,27.52,0,0,1-2.69,3.3,1.11,1.11,0,0,0,.28,1.75L21.21,137a1.1,1.1,0,0,0,1.27-.15,21,21,0,0,1,8-4.57c6.31-2,46-21.25,46.34-21.44,1.38-.67,1.21-1.21.77-2.65-.62-2-1.55-5,3.53-8.51,3.15-2.19,13.35-6.16,19.86-3a3.45,3.45,0,0,1,1.67,1.7A43.48,43.48,0,0,0,118.9,85.08a1.13,1.13,0,0,0-.38-1.65l-8.09-4.38a1.12,1.12,0,0,0-1.27.15c-2.8,2.5-2.45,2.32-7.66,4.44Z"/><path class="cls-8" d="M123.4,99a2.68,2.68,0,0,0,.3-.28,2.44,2.44,0,0,0-.09-.47,5.35,5.35,0,0,1-.29-1.42l-.57.22c-5.41,2.15-11.62,5.39-15.34,9.92-.49.61.38,2.15,1.56,3.59a1.14,1.14,0,0,0,1.42.28l11.19-6.24a5.36,5.36,0,0,1-.5-1.51l0-.25,0-.24A5.21,5.21,0,0,1,123.4,99Z"/><path class="cls-9" d="M124.12,112l-.17-.18-.11-.22a5.18,5.18,0,0,1-.23-4.17,2.7,2.7,0,0,0,.09-.48l0,0L83.14,129.46a1.18,1.18,0,0,0-.51.59l-2.2,6-.85-3a1.11,1.11,0,0,0-1.61-.67L44.74,151a1.11,1.11,0,0,0-.57,1v3.74a1.11,1.11,0,0,0,1.65,1l79.05-44.11A5.19,5.19,0,0,1,124.12,112Z"/><path class="cls-10" d="M40.49,150.8,1.64,130.1a1.12,1.12,0,0,0-1.64,1v4a1.11,1.11,0,0,0,.59,1l38.85,20.7a1.12,1.12,0,0,0,1.64-1v-4A1.11,1.11,0,0,0,40.49,150.8Z"/><path class="cls-11" d="M137.62,95.59a6.67,6.67,0,0,0-1.27-.13,7.34,7.34,0,0,0-6.84,4.68,7.21,7.21,0,0,0-.52,2.67,7.75,7.75,0,0,0,.11,1.08,7.34,7.34,0,0,0,14.61-1.08A7.36,7.36,0,0,0,137.62,95.59Zm-1.84,11.18a.89.89,0,0,1-.66.33h0a1,1,0,0,1-.29-.08.8.8,0,0,1-.36-.27l-1.76-2.42a.82.82,0,0,1,.66-1.3h0a.82.82,0,0,1,.66.34l1.13,1.54,3.56-4.71a.81.81,0,0,1,.65-.32.86.86,0,0,1,.5.17.81.81,0,0,1,.14,1.14l-3.83,5.08Z"/><path class="cls-12" d="M140,115.89h0a1.9,1.9,0,0,0,.58-.09c1-.33,1.45-1.38,1.84-2.29a5.08,5.08,0,0,1,.61-1.18.54.54,0,0,1,.15-.15,3.75,3.75,0,0,1,1.45-.29h.29a2.63,2.63,0,0,0,2.62-4,4.22,4.22,0,0,1-.16-1.54,4.08,4.08,0,0,1,1-1.08,3.57,3.57,0,0,0,1.64-2.5,3.6,3.6,0,0,0-1.64-2.5,3.93,3.93,0,0,1-1-1.08,4.14,4.14,0,0,1,.16-1.53,3.54,3.54,0,0,0-.13-2.92,3.62,3.62,0,0,0-2.54-1h-.24a3.59,3.59,0,0,1-1.45-.3,3.71,3.71,0,0,1-.76-1.32c-.39-.92-.83-2-1.84-2.29a3.66,3.66,0,0,0-.57,0,3.45,3.45,0,0,0-2.21.8,3.89,3.89,0,0,1-1.44.64,3.82,3.82,0,0,1-1.44-.64,3.47,3.47,0,0,0-2.21-.8,3.66,3.66,0,0,0-.57,0,2,2,0,0,0-.92.66,5.84,5.84,0,0,0-.93,1.63,3.06,3.06,0,0,1-.22.49,3.44,3.44,0,0,1-.53.83,3.46,3.46,0,0,1-1.31.28l-.14,0h-.24a3.64,3.64,0,0,0-2.55,1c-.05.12-.09.25-.13.37a3.35,3.35,0,0,0-.24,1,3.58,3.58,0,0,0,.24,1.51,4.15,4.15,0,0,1,.17,1.53,3.82,3.82,0,0,1-1,1.08,3.63,3.63,0,0,0-1.64,2.5,3.85,3.85,0,0,0,.31,1,3.55,3.55,0,0,0,1.33,1.54,4.22,4.22,0,0,1,.78.8c.07.09.15.18.22.28a4.22,4.22,0,0,1-.17,1.54,3.56,3.56,0,0,0,.13,2.91,3.31,3.31,0,0,0,1.23.8,3.41,3.41,0,0,0,1.26.25h.3a3.79,3.79,0,0,1,1.45.29.54.54,0,0,1,.15.15,5,5,0,0,1,.6,1.18c.39.91.84,2,1.85,2.29a2.1,2.1,0,0,0,.61.09,2,2,0,0,0,.42,0,5.45,5.45,0,0,0,1.75-.8,4.15,4.15,0,0,1,1.39-.62l0-.06.05.06a4.24,4.24,0,0,1,1.39.62,5.8,5.8,0,0,0,1.75.8A1.61,1.61,0,0,0,140,115.89Zm-3.63-4.08a9,9,0,0,1-8.78-7.07,8.78,8.78,0,0,1-.22-1.93,8.65,8.65,0,0,1,.15-1.54,9,9,0,0,1,8.85-7.45,8.36,8.36,0,0,1,1.43.13,9,9,0,0,1-1.43,17.86Z"/><path class="cls-13" d="M132.72,117.53a3.49,3.49,0,0,1-1.11-.18,5,5,0,0,1-2.82-3.17c-.11-.28-.21-.48-.26-.61l-.57,0c-.36,0-.75-.06-1.14-.13l-3.19,4.15a.82.82,0,0,0,.66,1.32h.11l3.76-.5.5,3.77a.81.81,0,0,0,.61.67l.21,0a.85.85,0,0,0,.65-.33l4-5.23a3.69,3.69,0,0,1-.65.18A3.82,3.82,0,0,1,132.72,117.53Z"/><path class="cls-13" d="M145.9,113.39c-.36.07-.71.1-1,.13h-.25l-.49,0c0,.13-.13.3-.23.56a5,5,0,0,1-2.86,3.22,3.94,3.94,0,0,1-1.08.18,4.45,4.45,0,0,1-.81-.08,6.13,6.13,0,0,1-.61-.18l4,5.23a.88.88,0,0,0,.65.33l.22,0a.8.8,0,0,0,.6-.67l.51-3.77,3.76.5h.1a.83.83,0,0,0,.67-1.32Z"/><path class="cls-14" d="M133.35,116.64h0Z"/></svg>