<?xml version="1.0" encoding="utf-8"?>
<!-- Generator: Adobe Illustrator 25.0.1, SVG Export Plug-In . SVG Version: 6.00 Build 0)  -->
<svg version="1.1" id="Layer_1" xmlns="http://www.w3.org/2000/svg" xmlns:xlink="http://www.w3.org/1999/xlink" x="0px" y="0px"
	 viewBox="0 0 244.7 45.7" style="enable-background:new 0 0 244.7 45.7;" xml:space="preserve">
<style type="text/css">
	.st0{fill:url(#SVGID_1_);}
	.st1{fill:url(#SVGID_2_);}
	.st2{fill:url(#SVGID_3_);}
	.st3{fill:url(#SVGID_4_);}
	.st4{fill:#009D56;}
	.st5{clip-path:url(#SVGID_7_);fill:url(#SVGID_8_);}
</style>
<g>
	<g>
		<linearGradient id="SVGID_1_" gradientUnits="userSpaceOnUse" x1="0" y1="21.5057" x2="19.8876" y2="21.5057">
			<stop  offset="0" style="stop-color:#F0882B"/>
			<stop  offset="1" style="stop-color:#F9B624"/>
		</linearGradient>
		<path class="st0" d="M0,30.8l3.2-4.7c2.1,1.9,4.2,2.9,7,2.9c2,0,3-0.8,3-2.1c0-1.1-1.3-1.6-4.5-2.7C4.6,22.8,1,20.9,1,16
			c0-4.5,3.9-7.5,9.1-7.5c3.4,0,6.3,0.9,9.1,3.1l-3.3,5c-1.9-1.8-4.2-2.7-6-2.7c-1,0-2.4,0.5-2.4,1.8c0,1,1.2,1.7,3.7,2.7
			c5.4,2,8.6,3.2,8.6,8.2c0,4.4-3.1,7.8-9.7,7.8C6.2,34.5,2.7,33.1,0,30.8z"/>
		<linearGradient id="SVGID_2_" gradientUnits="userSpaceOnUse" x1="24.9237" y1="21.2745" x2="64.3389" y2="21.2745">
			<stop  offset="0" style="stop-color:#F0882B"/>
			<stop  offset="1" style="stop-color:#F9B624"/>
		</linearGradient>
		<path class="st1" d="M24.9,8.9h6.7v3.3h0.1c2-2.4,4.7-3.6,7.5-3.6c3.3,0,5.9,1.2,7.4,4h0.1c2.1-2.6,5.2-4,8.8-4
			c5.4,0,8.8,3.2,8.8,10.9V34h-6.7V21.1c0-4-1.2-6.5-4.4-6.5c-2.8,0-5.1,2.4-5.1,6.9V34h-6.7V21.1c0-4-1.3-6.5-4.4-6.5
			c-3,0-5.3,2.4-5.3,6.9V34h-6.7V8.9z"/>
		<linearGradient id="SVGID_3_" gradientUnits="userSpaceOnUse" x1="101.6996" y1="21.2745" x2="116.6026" y2="21.2745">
			<stop  offset="0" style="stop-color:#F0882B"/>
			<stop  offset="1" style="stop-color:#F9B624"/>
		</linearGradient>
		<path class="st2" d="M101.7,8.9h6.7v3.6h0.1c1.9-2.6,4.6-4,7.6-4h0.5v7.3c-0.7-0.1-1.4-0.1-1.8-0.1c-4.2,0-6.4,2.8-6.4,6.6V34
			h-6.7V8.9z"/>
		<linearGradient id="SVGID_4_" gradientUnits="userSpaceOnUse" x1="118.4526" y1="17.2407" x2="135.2056" y2="17.2407">
			<stop  offset="0" style="stop-color:#F0882B"/>
			<stop  offset="1" style="stop-color:#F9B624"/>
		</linearGradient>
		<path class="st3" d="M121.4,26.1V14.5h-3V8.9h3V0.7l6.7-0.7v8.9h6.8v5.6h-6.8v10.6c0,2.2,0.6,3.2,2.2,3.2c0.8,0,2.1-0.3,3.2-0.9
			l1.7,5.4c-1.6,0.9-3.2,1.6-6.6,1.6C124.3,34.5,121.4,31.8,121.4,26.1z"/>
	</g>
	<path class="st4" d="M153.7,34c-9,0-15-5.6-15-13.6V3.9c0-0.4,0.4-0.8,0.8-0.8h6.8c0.4,0,0.8,0.4,0.8,0.8v15.7
		c0,4.8,2.6,7.6,6.6,7.6c4,0,6.6-2.8,6.6-7.6V3.9c0-0.4,0.4-0.8,0.8-0.8h6.8c0.4,0,0.8,0.4,0.8,0.8v16.5
		C168.6,28.4,162.7,34,153.7,34 M187.7,9.4c0-0.5-0.4-0.9-0.9-0.8c-2.4,0.3-5.1,1.5-6.7,3.7H180V9.8c0-0.4-0.4-0.8-0.8-0.8h-6.2
		c-0.4,0-0.8,0.4-0.8,0.8v22.9c0,0.4,0.4,0.8,0.8,0.8h6.2c0.4,0,0.8-0.4,0.8-0.8V22.5c0-3.2,2.2-5.6,5.9-5.6c0.3,0,0.7,0,1.2,0
		c0.4,0,0.6-0.3,0.6-0.6V9.4z M205.6,8.6c-2.7,0-5.2,1-6.9,3.1h-0.1V2.3c0-0.4-0.4-0.8-0.8-0.8h-6.2c-0.4,0-0.8,0.4-0.8,0.8v30.4
		c0,0.4,0.4,0.8,0.8,0.8h5.8c0.4,0,0.8-0.4,0.8-0.8v-1.8h0.1c1.6,2.1,4,3.1,7,3.1c6.7,0,11.5-5.1,11.5-12.7
		C216.8,13.8,211.9,8.6,205.6,8.6L205.6,8.6z M203.6,27.1c-3.1,0-5.4-2.3-5.4-5.8c0-3.4,2.3-5.8,5.4-5.8c3,0,5.3,2.3,5.3,5.8
		C208.9,24.8,206.7,27.1,203.6,27.1L203.6,27.1z M243.9,9l-6.2,0c-0.4,0-0.8,0.4-0.8,0.8v1.8h-0.1c-1.7-2-4.1-3.1-6.8-3.1
		c-6.3,0-11.2,5.3-11.2,12.7c0,7.6,4.8,12.7,11.5,12.7c2.9,0,5.2-1.1,6.8-3.1h0.1v1.8c0,0.4,0.4,0.8,0.8,0.8h5.8
		c0.4,0,0.8-0.4,0.8-0.8V9.8C244.7,9.4,244.3,9,243.9,9 M226.7,21.3c0-3.5,2.3-5.8,5.3-5.8c2.9,0,5.2,2.4,5.2,5.8
		c0,3.5-2.3,5.8-5.2,5.8C228.9,27.1,226.7,24.8,226.7,21.3"/>
	<g>
		<defs>
			<path id="SVGID_5_" d="M80.8,6.6l-10,8.8c-0.8,0.7-1.3,1.8-1.3,2.9v11.3c0,2.1,1.7,3.8,3.8,3.8h20c2.1,0,3.8-1.7,3.8-3.8V18.2
				c0-1.1-0.5-2.1-1.3-2.9l-10-8.8c-0.7-0.6-1.6-0.9-2.5-0.9C82.4,5.6,81.5,5.9,80.8,6.6"/>
		</defs>
		<linearGradient id="SVGID_6_" gradientUnits="userSpaceOnUse" x1="69.475" y1="19.4388" x2="97.1361" y2="19.4388">
			<stop  offset="0" style="stop-color:#F0882B"/>
			<stop  offset="1" style="stop-color:#F9B624"/>
		</linearGradient>
		<use xlink:href="#SVGID_5_"  style="overflow:visible;fill:url(#SVGID_6_);"/>
		<clipPath id="SVGID_7_">
			<use xlink:href="#SVGID_5_"  style="overflow:visible;"/>
		</clipPath>
		<linearGradient id="SVGID_8_" gradientUnits="userSpaceOnUse" x1="55.6488" y1="19.4388" x2="110.9622" y2="19.4388">
			<stop  offset="0" style="stop-color:#F0882B"/>
			<stop  offset="1" style="stop-color:#F9B624"/>
		</linearGradient>
		<polygon class="st5" points="55.6,19.4 83.3,-8.2 111,19.4 83.3,47.1 		"/>
	</g>
	<g>
		<path class="st4" d="M91.8,39h2c2.1,0,3.5,1.4,3.5,3.3c0,2-1.3,3.3-3.4,3.3h-2V39z M93.8,44.9c1.6,0,2.6-1.1,2.6-2.6
			c0-1.5-1-2.6-2.6-2.6h-1.2v5.2H93.8z"/>
		<path class="st4" d="M103.2,43V39h0.8v3.9c0,1.2,0.7,2.1,1.8,2.1c1,0,1.8-0.8,1.8-2.1V39h0.8V43c0,1.7-1,2.8-2.6,2.8
			C104.3,45.7,103.2,44.7,103.2,43z"/>
		<path class="st4" d="M114.6,39h0.8l3.8,5.3h0V39h0.8v6.6h-0.8l-3.7-5.2h0v5.2h-0.8V39z"/>
		<path class="st4" d="M126.3,39h0.8v5.9h3.3v0.7h-4.1V39z"/>
		<path class="st4" d="M135.6,42.4c0-2,1.4-3.4,3.3-3.4c1.9,0,3.3,1.4,3.3,3.4c0,2-1.5,3.4-3.3,3.4C137,45.7,135.6,44.3,135.6,42.4z
			 M141.4,42.4c0-1.5-1.1-2.6-2.5-2.6c-1.4,0-2.5,1.1-2.5,2.6c0,1.5,1,2.6,2.5,2.6C140.4,45,141.4,43.9,141.4,42.4z"/>
		<path class="st4" d="M148.3,39h2.3c1.6,0,2.2,0.9,2.2,2.1c0,1.4-1,2-2.3,2h-1.4v2.5h-0.8V39z M150.4,42.4c1.1,0,1.6-0.6,1.6-1.3
			c0-0.9-0.6-1.3-1.4-1.3h-1.4v2.6H150.4z"/>
	</g>
</g>
</svg>
