<svg width="99" height="99" viewBox="0 0 99 99" fill="none" xmlns="http://www.w3.org/2000/svg">
<path d="M15.8147 69.5835H12.6513V72.7469H15.8147C16.686 72.7469 17.3964 73.4573 17.3964 74.3286V91.7248H20.5586V74.3286C20.5586 71.709 18.4343 69.5835 15.8147 69.5835Z" fill="#AECC53"/>
<path d="M94.8508 34.9651L89.2226 79.9878C88.9508 82.1677 87.0854 83.8179 84.8866 83.8179H72.7473V89.2971C72.7473 89.9331 71.9564 90.3539 71.4315 90.0017L62.153 83.8179H34.4899C34.6814 82.7918 34.7925 81.7362 34.7925 80.6545H85.3996V43.8051L79.0729 34.3161V30.0474H90.5147C92.9298 30.0474 94.8874 32.0121 94.8874 34.4213C94.8874 34.601 94.8756 34.7795 94.8508 34.9651ZM17.3963 94.8874C9.55045 94.8874 3.16339 88.5004 3.16339 80.6545C3.16339 72.8087 9.55045 66.4217 17.3963 66.4217C25.248 66.4217 31.6291 72.8087 31.6291 80.6545C31.6291 88.5004 25.248 94.8874 17.3963 94.8874ZM19.0146 34.9592C18.9898 34.7795 18.978 34.601 18.978 34.4213C18.978 32.0121 20.9356 30.0474 23.3518 30.0474H34.7925V34.3161L28.4669 43.8051V67.2492C26.767 65.8412 24.7964 64.7537 22.6473 64.074L19.0146 34.9592ZM75.9106 3.16339V47.6541L59.6197 58.5144H54.2457L37.9547 47.6541V3.16339H75.9106ZM79.0729 45.5417V40.0128L81.6251 43.8429L79.0729 45.5417ZM62.7701 60.2131L82.2362 47.2345V75.7806L62.7701 60.2131ZM54.3261 61.6766H59.5393L79.3081 77.4923H34.5573L54.3261 61.6766ZM31.6291 47.2345L51.0953 60.2131L33.5501 74.2427C33.0501 72.9754 32.4011 71.7838 31.6291 70.6844V47.2345ZM32.2403 43.8429L34.7925 40.0128V45.5417L32.2403 43.8429ZM90.5147 26.8852H79.0729V0H34.7925V26.8852H23.3518C19.1943 26.8852 15.8146 30.2638 15.8146 34.4213C15.8146 34.737 15.8335 35.0455 15.8701 35.354L19.3787 63.3824C18.7238 63.3079 18.063 63.2583 17.3963 63.2583C7.80208 63.2583 0 71.0604 0 80.6545C0 90.2487 7.80208 98.0508 17.3963 98.0508C24.7539 98.0508 31.0487 93.4488 33.5808 86.9801H61.2014L69.6773 92.6331C70.3381 93.0717 71.11 93.3069 71.9009 93.3069C74.1126 93.3069 75.9106 91.5089 75.9106 89.2971V86.9801H84.8866C88.6789 86.9801 91.8919 84.1454 92.3671 80.3767L97.9952 35.354C98.0319 35.0455 98.0508 34.737 98.0508 34.4213C98.0508 30.2638 94.6711 26.8852 90.5147 26.8852Z" fill="#AECC53"/>
<path d="M69.5836 15.8144H44.2812V9.48883H69.5836V15.8144ZM72.747 6.32544H41.1178V18.9778H72.747V6.32544Z" fill="#AECC53"/>
<path d="M72.747 22.1404H41.1178V25.3038H72.747V22.1404Z" fill="#AECC53"/>
<path d="M69.5835 31.6295H72.7469V28.4673H69.5835V31.6295Z" fill="#AECC53"/>
<path d="M66.4214 28.4673H41.1178V31.6295H66.4214V28.4673Z" fill="#AECC53"/>
<path d="M72.747 34.7927H41.1178V37.9549H72.747V34.7927Z" fill="#AECC53"/>
<path d="M72.747 41.1177H41.1178V44.2811H72.747V41.1177Z" fill="#AECC53"/>
<path d="M47.4439 50.6075H66.4219V47.4441H47.4439V50.6075Z" fill="#AECC53"/>
</svg>
