<svg width="99" height="99" viewBox="0 0 99 99" fill="none" xmlns="http://www.w3.org/2000/svg">
<path d="M41.2853 28.4877L44.8166 69.5903H42.67L36.6537 28.4877H41.2853ZM39.1579 15.0596C38.4788 14.8496 37.4769 14.5413 36.8457 14.2509C37.4769 13.9545 38.4788 13.6449 39.1579 13.4349C41.1438 12.8242 42.856 12.2986 43.5856 11.0087C44.3403 9.69845 43.9071 7.80861 43.462 5.80717C43.3204 5.19642 43.1224 4.3253 43.036 3.65215C43.5304 4.04692 44.1231 4.60967 44.5443 5.00444C46.0657 6.43712 47.4996 7.79061 49.0703 7.79061C50.641 7.79061 52.0761 6.43712 53.5963 5.00444C54.0175 4.60967 54.6102 4.04692 55.1058 3.65215C55.0182 4.3253 54.8214 5.19642 54.6786 5.80717C54.2335 7.80861 53.8003 9.69845 54.5551 11.0087C55.2846 12.2986 56.9981 12.8242 58.9827 13.4349C59.663 13.6449 60.6638 13.9545 61.2949 14.2509C60.6638 14.5413 59.663 14.8496 58.9827 15.0596C56.9981 15.6716 55.2846 16.1959 54.5551 17.487C53.8003 18.8033 54.2335 20.686 54.6786 22.6874C54.8214 23.2993 55.0182 24.1765 55.1058 24.8436C54.6102 24.4476 54.0175 23.8861 53.5963 23.4901C52.0761 22.0634 50.641 20.7112 49.0703 20.7112C47.4996 20.7112 46.0657 22.0574 44.5443 23.4901C44.1231 23.8861 43.5304 24.4476 43.036 24.8436C43.1224 24.1705 43.3204 23.2993 43.462 22.6874C43.9071 20.686 44.3403 18.8033 43.5856 17.487C42.856 16.1959 41.1438 15.6716 39.1579 15.0596ZM61.4869 28.4877L55.4706 69.5903H53.8687L56.8733 28.4877H61.4869ZM47.2153 25.3248C47.9076 24.6828 48.7307 23.9473 49.0151 23.8669C49.3919 23.9473 50.227 24.6828 50.9193 25.3248H47.2153ZM53.6959 28.4877L50.6962 69.5903H47.994L44.4639 28.4877H53.6959ZM60.1514 72.7533C61.0225 72.7533 61.7341 73.4576 61.7341 74.3336V75.915H36.4065V74.3336C36.4065 73.4576 37.1181 72.7533 37.9892 72.7533H60.1514ZM39.8383 25.3248H32.994L39.4675 69.5903H37.9892C35.3686 69.5903 33.2412 71.7154 33.2412 74.3336V79.078H64.8994V74.3336C64.8994 71.7154 62.7732 69.5903 60.1514 69.5903H58.6731L65.1466 25.3248H58.3023C58.2831 24.2941 58.03 23.1386 57.7708 21.9902C57.5536 21.0387 57.1948 19.4393 57.2512 19.1237C57.5596 18.8033 59.0319 18.3521 59.9162 18.0798C62.2536 17.3634 64.8994 16.5427 64.8994 14.2509C64.8994 11.9531 62.2536 11.1383 59.9162 10.4148C59.0319 10.1436 57.5596 9.69246 57.3316 9.50767C57.1948 9.05651 57.5536 7.45704 57.7708 6.50552C58.3263 4.02892 58.9083 1.47193 57.0041 0.347622C55.1118 -0.757487 53.2376 0.996769 51.4257 2.70063C50.7034 3.38697 49.4843 4.52928 49.1255 4.62767C48.6563 4.52928 47.4384 3.38697 46.7149 2.70063C44.903 0.996769 43.0288 -0.763487 41.1438 0.347622C39.2323 1.47193 39.8143 4.02892 40.3698 6.50552C40.587 7.45704 40.9458 9.05651 40.8894 9.37808C40.581 9.69246 39.1087 10.1436 38.2244 10.4148C35.887 11.1383 33.2412 11.9531 33.2412 14.2509C33.2412 16.5427 35.887 17.3574 38.2244 18.0798C39.1087 18.3521 40.581 18.8033 40.809 18.9881C40.9458 19.4393 40.587 21.0387 40.3698 21.9902C40.1106 23.1386 39.8575 24.2941 39.8383 25.3248Z" fill="#AECC53"/>
<path d="M49.07 12.6691C49.9423 12.6691 50.6527 13.3734 50.6527 14.2505C50.6527 15.1217 49.9423 15.832 49.07 15.832C48.1977 15.832 47.4873 15.1217 47.4873 14.2505C47.4873 13.3734 48.1977 12.6691 49.07 12.6691ZM49.07 18.9937C51.6918 18.9937 53.8192 16.8627 53.8192 14.2505C53.8192 11.6312 51.6918 9.50732 49.07 9.50732C46.4482 9.50732 44.3208 11.6312 44.3208 14.2505C44.3208 16.8627 46.4482 18.9937 49.07 18.9937Z" fill="#AECC53"/>
<path d="M89.7264 69.0839C89.5092 69.1403 89.2932 69.2135 89.0832 69.2879L88.8229 64.7354C88.6873 62.3524 89.6208 60.153 91.2155 58.6087C91.5742 58.3495 91.921 58.0712 92.2426 57.7748C92.9781 57.2624 93.8072 56.8737 94.6976 56.6385L94.9628 61.2149C95.1667 64.7918 92.9349 67.9296 89.7264 69.0839ZM92.1502 76.2605C90.9743 79.6274 87.7345 81.678 84.34 81.5292C84.1048 81.4981 83.8637 81.4801 83.6285 81.4681L85.132 77.1628C85.9227 74.8962 87.6542 73.2163 89.7324 72.4076C90.1091 72.308 90.4739 72.2036 90.8387 72.074C91.7482 71.8568 92.7057 71.8016 93.6585 71.9312L92.1502 76.2605ZM83.7893 89.0766C81.2419 91.93 77.0806 92.4987 73.8961 90.6521L76.951 87.23C79.4984 84.3826 83.6537 83.8019 86.8382 85.6557L83.7893 89.0766ZM71.5347 88.5523C70.6132 87.3164 70.0684 85.8405 69.976 84.2722C69.8584 82.1592 70.5639 80.1338 71.9738 78.5583L75.0276 75.1302C75.9491 76.3661 76.4939 77.8419 76.5863 79.4114C76.7098 81.5232 75.9983 83.5487 74.5884 85.1242L71.5347 88.5523ZM79.3748 63.5007C79.2692 63.0496 79.1888 62.5924 79.1588 62.1232L78.8985 57.5468C80.4199 57.7628 81.8478 58.4239 83.0297 59.4679C84.6064 60.8753 85.5399 62.8096 85.6635 64.9154L85.6815 65.2058L86.0031 70.8813C85.8303 71.0049 85.6695 71.1465 85.5087 71.2833C85.3227 70.4002 85.0456 69.535 84.6436 68.7071C83.5241 66.3913 81.675 64.5758 79.3748 63.5007ZM76.8766 72.4136C76.945 71.9504 77.0434 71.4933 77.2042 71.0541L78.7137 66.7249C80.0432 67.5096 81.1063 68.6639 81.7926 70.0786C82.7142 71.9804 82.8377 74.1307 82.1394 76.1189L80.1728 81.7644C79.9628 81.8136 79.7648 81.882 79.5608 81.9432C79.7276 81.0601 79.7948 80.1518 79.7456 79.2314C79.598 76.6624 78.5901 74.2842 76.8766 72.4136ZM75.5471 48.9927C77.0374 48.6099 78.6141 48.6771 80.1044 49.1907C82.095 49.8878 83.6969 51.3145 84.6184 53.2104C84.6244 53.2104 84.6244 53.2176 84.6244 53.2176L87.221 58.5967C87.1166 58.7815 87.017 58.9735 86.9186 59.1583C86.411 58.4179 85.8243 57.7196 85.132 57.1077C83.2145 55.3978 80.8219 54.4211 78.2745 54.3107C78.0021 53.9399 77.749 53.5439 77.545 53.124L75.5471 48.9927ZM73.7353 46.2437C73.3393 46.0038 72.9566 45.7374 72.6038 45.423L69.1781 42.3717C70.4092 41.4513 71.8862 40.9078 73.4641 40.8154C75.5663 40.7038 77.6062 41.4021 79.1828 42.8096L83.6477 46.7813C83.6165 46.9913 83.5985 47.2073 83.5793 47.4172C82.8317 46.9229 82.0146 46.5101 81.1435 46.2065C78.7065 45.3606 76.1219 45.3798 73.7353 46.2437ZM79.7144 30.5742L83.1401 33.6256C85.8183 36.0038 86.4614 39.7955 85.0084 42.884C84.8968 43.082 84.7972 43.28 84.6988 43.4828L81.2923 40.4506C78.4353 37.9056 77.8666 33.7492 79.7144 30.5742ZM87.3458 45.2622C87.5738 44.8915 87.7777 44.5087 87.9577 44.1127C88.4461 43.3592 89.064 42.68 89.7996 42.1185L91.7974 46.2437C92.7189 48.1468 92.8425 50.2898 92.1502 52.284C91.723 53.5007 91.0115 54.5639 90.0972 55.4218C89.88 55.5886 89.67 55.7686 89.46 55.9473L87.4754 51.8461C87.4754 51.8401 87.4694 51.8341 87.4694 51.8341C86.4362 49.6839 86.4614 47.2937 87.3458 45.2622ZM26.6056 88.5523L23.5518 85.1242C22.1419 83.5487 21.4304 81.5232 21.554 79.4114C21.6476 77.8419 22.1911 76.3661 23.1126 75.1302L26.1676 78.5583C27.5763 80.1338 28.2818 82.1592 28.1642 84.2722C28.0718 85.8405 27.5271 87.3164 26.6056 88.5523ZM14.351 89.0766L11.296 85.6557C14.4806 83.8091 18.6418 84.3826 21.1892 87.23L24.2442 90.6521C21.0596 92.5047 16.8984 91.93 14.351 89.0766ZM5.99125 76.2545L4.48177 71.9312C5.44049 71.8016 6.39322 71.8568 7.30154 72.074C7.66631 72.2036 8.03108 72.314 8.40785 72.4076C10.4861 73.2163 12.2175 74.8962 13.0083 77.1628L13.8866 79.6646L14.5118 81.4681C14.2946 81.4801 14.0726 81.4921 13.8494 81.5232C10.4429 81.69 7.17195 79.6394 5.99125 76.2545ZM3.44266 56.6385C4.33298 56.8737 5.16212 57.2624 5.90366 57.7748C6.21923 58.0712 6.566 58.3495 6.92477 58.6087C8.51944 60.153 9.45296 62.3524 9.31738 64.7354L9.0582 69.2879C8.85301 69.2195 8.64303 69.1463 8.43305 69.0899C5.21131 67.9416 2.9735 64.7978 3.17748 61.2149L3.44266 56.6385ZM6.34282 46.2437L8.34066 42.1185C9.09419 42.686 9.71934 43.4024 10.2197 44.2063C10.3745 44.5399 10.5545 44.8663 10.7453 45.1818C10.8389 45.3858 10.9372 45.5898 11.0116 45.8058C11.71 47.794 11.5864 49.9442 10.6649 51.8461L8.68023 55.9473C8.47025 55.7614 8.26026 55.5826 8.03708 55.4218C7.12876 54.5579 6.41721 53.5007 5.99725 52.284C5.29771 50.2898 5.4213 48.1468 6.34282 46.2437ZM13.4978 68.7071C13.0959 69.535 12.8175 70.4002 12.6315 71.2833C12.4647 71.1465 12.3039 71.0049 12.1371 70.8813L12.4767 64.9154C12.6003 62.8096 13.5338 60.8753 15.1177 59.4679C16.2924 58.4239 17.7203 57.7628 19.2418 57.5468L18.9814 62.1232C18.9514 62.5864 18.871 63.0496 18.7654 63.5007C16.4652 64.5758 14.6161 66.3913 13.4978 68.7071ZM18.5806 81.9432C18.3754 81.882 18.1786 81.8136 17.9675 81.7644L16.002 76.1189C15.3025 74.1307 15.4261 71.9804 16.3476 70.0786C17.0339 68.6639 18.0983 67.5096 19.4277 66.7249L20.936 71.0541C21.0968 71.4993 21.1952 71.9564 21.2636 72.4136C19.5513 74.2842 18.5434 76.6624 18.3946 79.2314C18.3454 80.1518 18.4126 81.0601 18.5806 81.9432ZM13.5158 53.2176C14.4374 51.3145 16.0452 49.8878 18.0359 49.1907C19.5261 48.6711 21.0968 48.6099 22.5931 48.9927L20.5953 53.118C20.3913 53.5439 20.1381 53.9399 19.8657 54.3107C17.3183 54.4211 14.9257 55.3978 13.0083 57.1077C12.3159 57.7196 11.7292 58.4179 11.2216 59.1583C11.1232 58.9735 11.0236 58.7815 10.9132 58.5967L13.5158 53.2176ZM15.0001 33.6256L18.4258 30.5742C20.2749 33.7492 19.7049 37.9056 16.8552 40.4446L13.4474 43.4768C13.337 43.2488 13.2255 43.0136 13.0959 42.7976C11.692 39.7283 12.3471 35.9846 15.0001 33.6256ZM24.6773 40.8154C26.254 40.9078 27.7311 41.4513 28.9622 42.3717L25.5364 45.423C25.1837 45.7374 24.8009 46.0038 24.4049 46.2497C22.0183 45.3798 19.4277 45.3606 16.9967 46.2065C16.1256 46.5101 15.3157 46.9229 14.5669 47.4112C14.5489 47.2013 14.5297 46.9913 14.4986 46.7813L18.9574 42.8096C20.5341 41.4021 22.5751 40.7038 24.6773 40.8154ZM95.3155 69.0407C97.2078 66.9228 98.2961 64.0875 98.1233 61.0361L97.6709 53.1432L96.0883 53.2356C95.7607 53.2548 95.4451 53.2908 95.1295 53.334C95.1295 53.334 95.1295 53.328 95.1367 53.328C96.1135 50.537 95.9335 47.5288 94.6484 44.8663L91.2095 37.752L89.7816 38.4372C89.4912 38.5788 89.2128 38.7396 88.9344 38.9003C88.9344 38.9003 88.9344 38.8943 88.9344 38.8883C88.7677 35.9354 87.4562 33.2308 85.2495 31.2606L79.3376 25.9978L78.2865 27.1833C75.6035 30.1855 74.88 34.2615 75.9983 37.8504C75.114 37.6836 74.2057 37.6093 73.2841 37.6584C70.3288 37.8252 67.6146 39.1355 65.648 41.3457L64.5908 42.5264L70.5016 47.788C70.9587 48.196 71.4603 48.5476 71.9738 48.8751L74.694 54.5015C74.9604 55.051 75.288 55.5706 75.6395 56.0649L75.9983 62.302C76.0355 62.92 76.1351 63.5187 76.2707 64.1127L74.2117 70.0102C74.0137 70.5909 73.8721 71.1897 73.7725 71.7896L69.6052 76.4525C67.6386 78.6579 66.6439 81.4981 66.8167 84.451C66.9402 86.6432 67.701 88.6999 68.9873 90.4169C65.2268 92.2144 58.1222 94.889 49.0701 94.889C40.0181 94.889 32.9134 92.2144 29.1541 90.4169C30.4392 88.6999 31.2 86.6432 31.3236 84.451C31.4976 81.4981 30.5016 78.6579 28.535 76.4525L24.3677 71.7896C24.2682 71.1897 24.1326 70.5969 23.9286 70.0102L21.8695 64.1127C22.0051 63.5127 22.1107 62.914 22.1419 62.302L22.5007 56.0649C22.8523 55.5706 23.181 55.051 23.4462 54.4955L26.1676 48.8751C26.68 48.5476 27.1815 48.196 27.6447 47.788L33.5494 42.5264L32.4923 41.3457C30.5268 39.1355 27.8115 37.8252 24.8561 37.6584C23.9406 37.6093 23.0323 37.6836 22.1419 37.8504C23.2614 34.2615 22.5379 30.1855 19.8537 27.1833L18.8026 25.9978L12.8919 31.2606C10.6841 33.2308 9.37257 35.9354 9.20578 38.8883C9.20578 38.8943 9.20578 38.8943 9.20578 38.9003C8.92741 38.7336 8.64903 38.5788 8.35865 38.4372L6.93077 37.752L3.49305 44.8663C2.20676 47.5288 2.02677 50.537 3.00469 53.328L3.01069 53.334C2.69512 53.2908 2.37355 53.2548 2.05197 53.2356L0.469302 53.1432L0.0181387 61.0361C-0.155847 64.0875 0.932464 66.9228 2.82471 69.0407C2.50913 69.1211 2.20076 69.2075 1.89119 69.313L0.394908 69.8314L3.00469 77.2984C4.01261 80.189 6.10164 82.3884 8.66823 83.6171C8.40785 83.8091 8.14867 84.0118 7.90749 84.229L6.72679 85.2849L11.9884 91.1837C14.177 93.6351 17.2139 94.8829 20.2677 94.8829C22.3891 94.8829 24.5033 94.247 26.3524 93.0231L26.452 93.1287L26.8167 92.8071C30.5628 94.7342 38.5218 98.0507 49.0701 98.0507C59.6185 98.0507 67.5774 94.7342 71.3247 92.8071L71.6895 93.1287L71.7878 93.0231C73.6369 94.247 75.7511 94.8829 77.8726 94.8829C80.9263 94.8829 83.9632 93.6291 86.1519 91.1837L91.4206 85.2849L90.2327 84.229C89.9856 84.0118 89.7324 83.8091 89.472 83.6171C92.0386 82.3884 94.1288 80.189 95.1367 77.2984L97.7453 69.8314L96.249 69.313C95.9407 69.2075 95.6311 69.1211 95.3155 69.0407Z" fill="#AECC53"/>
</svg>
