<svg width="100" height="99" viewBox="0 0 100 99" fill="none" xmlns="http://www.w3.org/2000/svg">
<path d="M30.5322 68.3609C31.4164 68.3609 32.1387 67.6387 32.1387 66.7532C32.1387 65.8678 31.4164 65.1467 30.5322 65.1467C29.6468 65.1467 28.9245 65.8678 28.9245 66.7532C28.9245 67.6387 29.6468 68.3609 30.5322 68.3609Z" fill="#AECC53"/>
<path d="M40.1737 68.3609C41.0592 68.3609 41.7803 67.6387 41.7803 66.7532C41.7803 65.8678 41.0592 65.1467 40.1737 65.1467C39.2883 65.1467 38.566 65.8678 38.566 66.7532C38.566 67.6387 39.2883 68.3609 40.1737 68.3609Z" fill="#AECC53"/>
<path d="M31.9694 72.4622L29.0945 73.9055L29.2635 74.2389C30.4244 76.5618 32.7603 78.0064 35.3527 78.0064C37.9451 78.0064 40.2798 76.5618 41.4407 74.2389L41.6109 73.9055L38.736 72.4622L38.5657 72.8073C37.951 74.0308 36.7204 74.791 35.3527 74.791C33.9838 74.791 32.7532 74.0308 32.1385 72.8073L31.9694 72.4622Z" fill="#AECC53"/>
<path d="M72.3123 81.2206C73.1977 81.2206 73.9188 80.4983 73.9188 79.6129C73.9188 78.7274 73.1977 78.0063 72.3123 78.0063C71.4269 78.0063 70.7046 78.7274 70.7046 79.6129C70.7046 80.4983 71.4269 81.2206 72.3123 81.2206Z" fill="#AECC53"/>
<path d="M81.9539 78.0063C81.0685 78.0063 80.3474 78.7274 80.3474 79.6129C80.3474 80.4983 81.0685 81.2206 81.9539 81.2206C82.8393 81.2206 83.5604 80.4983 83.5604 79.6129C83.5604 78.7274 82.8393 78.0063 81.9539 78.0063Z" fill="#AECC53"/>
<path d="M59.4567 39.4285C60.3422 39.4285 61.0633 38.7063 61.0633 37.8208C61.0633 36.9354 60.3422 36.2131 59.4567 36.2131C58.5713 36.2131 57.8502 36.9354 57.8502 37.8208C57.8502 38.7063 58.5713 39.4285 59.4567 39.4285Z" fill="#AECC53"/>
<path d="M69.0979 39.4285C69.9833 39.4285 70.7044 38.7063 70.7044 37.8208C70.7044 36.9354 69.9833 36.2131 69.0979 36.2131C68.2124 36.2131 67.4913 36.9354 67.4913 37.8208C67.4913 38.7063 68.2124 39.4285 69.0979 39.4285Z" fill="#AECC53"/>
<path d="M61.0633 45.8577H67.4917V46.4724C67.4917 46.8744 67.3971 47.2763 67.2151 47.6345C66.7753 48.5199 65.884 49.072 64.8922 49.072H63.6628C62.671 49.072 61.7796 48.5199 61.3399 47.6345C61.1578 47.2763 61.0633 46.8744 61.0633 46.4724V45.8577ZM57.8502 46.4724C57.8502 47.3709 58.063 48.2681 58.4649 49.072C59.4508 51.0568 61.4463 52.2874 63.6628 52.2874H64.8922C67.1087 52.2874 69.1041 51.0568 70.09 49.072C70.4919 48.2681 70.7047 47.3709 70.7047 46.4724V42.6423H57.8502V46.4724Z" fill="#AECC53"/>
<path d="M73.9188 87.6503H80.3472V88.2661C80.3472 88.6669 80.2527 89.0688 80.0706 89.427C79.6309 90.3124 78.7395 90.8645 77.7477 90.8645H76.5183C75.5265 90.8645 74.6352 90.3124 74.1954 89.427C74.0134 89.0688 73.9188 88.6669 73.9188 88.2661V87.6503ZM70.7046 88.2661C70.7046 89.1634 70.9186 90.0618 71.3205 90.8645C72.3064 92.8493 74.3018 94.0799 76.5183 94.0799H77.7477C79.9642 94.0799 81.9597 92.8493 82.9456 90.8645C83.3475 90.0618 83.5603 89.1634 83.5603 88.2661V84.436H70.7046V88.2661Z" fill="#AECC53"/>
<path d="M93.2017 62.6885C93.2017 63.5739 92.4806 64.2962 91.5952 64.2962H89.9887V61.0808H91.5952C92.4806 61.0808 93.2017 61.8031 93.2017 62.6885ZM86.7744 67.5104C86.7744 72.8288 82.449 77.1543 77.133 77.1543C71.8157 77.1543 67.4915 72.8288 67.4915 67.5104V57.8666C67.4915 57.3642 67.7303 56.8807 68.131 56.5792L72.3122 53.4454L77.7796 57.5462L79.7006 54.9715L72.3122 49.4273L66.2042 54.0105C65.2939 54.6949 64.6603 55.6808 64.4097 56.7731L63.4545 55.3415C62.9403 54.5696 62.6708 53.6783 62.6708 52.7491C62.6708 50.7336 63.951 48.9497 65.8661 48.3161L67.0269 47.9272L67.3213 47.3361C69.0294 43.9139 72.4624 41.7919 76.2854 41.7919H80.4973C85.7259 41.7919 89.9887 46.0559 89.9887 51.2856C89.9887 52.6983 89.6813 54.0731 89.0843 55.3356C88.7013 54.7895 88.2367 54.293 87.6469 53.9419L81.1759 50.061L79.5185 52.8118L85.9966 56.6986C86.4789 56.9871 86.7744 57.5143 86.7744 58.0794V67.5104ZM81.3886 80.5328C81.495 80.8591 81.6464 81.1605 81.8154 81.4489L81.4832 81.7823C80.3342 82.9254 78.7525 83.5839 77.133 83.5839C75.5135 83.5839 73.9318 82.9254 72.7827 81.7823L72.4505 81.4489C72.6196 81.1605 72.7697 80.8591 72.8773 80.5328L73.1468 79.7289C74.4022 80.1368 75.7392 80.3697 77.133 80.3697C78.5267 80.3697 79.8637 80.1368 81.1191 79.7289L81.3886 80.5328ZM68.4833 80.6084C64.1201 81.0919 60.3479 83.3522 57.85 86.6113V82.1145C57.85 73.7012 52.112 66.5564 43.908 64.7289C43.3559 64.6095 42.9102 64.2016 42.7282 63.6673L42.2636 62.2617C44.9565 60.5346 46.959 57.8287 47.7818 54.6512H49.8151C52.4761 54.6512 54.6358 52.4914 54.6358 49.8293C54.6358 48.0962 53.7066 46.5831 52.3318 45.7355L53.0789 44.6172C53.4998 43.9777 53.8201 43.2862 54.0767 42.5769L55.9598 42.1998L57.1597 45.1894C57.7992 46.8089 59.2367 47.9201 60.9188 48.1719C59.9897 49.4711 59.4565 51.0658 59.4565 52.7491C59.4565 54.3119 59.9152 55.825 60.7805 57.1254L61.4023 58.0545C59.362 58.6196 57.85 60.472 57.85 62.6885C57.85 65.3507 60.0086 67.5104 62.6708 67.5104H64.2773C64.2773 72.0569 66.6569 76.0501 70.2222 78.3352L69.8321 79.5162C69.6312 80.1119 69.1039 80.5387 68.4833 80.6084ZM36.9097 71.441L40.7824 67.5672L39.2314 72.9861L36.9097 71.441ZM29.9233 67.5672L33.796 71.441L31.4731 72.9861L29.9233 67.5672ZM35.3529 64.2962C36.7466 64.2962 38.0836 64.0633 39.339 63.6555L39.54 64.2643L35.3529 68.4526L31.1657 64.2584C31.1717 64.2454 31.1787 64.2324 31.1847 64.2134L31.3667 63.6555C32.6221 64.0633 33.9591 64.2962 35.3529 64.2962ZM25.7114 51.437V43.9706C25.7114 43.3051 26.1062 42.7211 26.7221 42.4764L31.3348 40.6311C32.3833 41.5283 33.7014 42.1182 35.1708 42.2636L43.5439 43.1041C44.3725 43.1857 44.9943 43.8701 44.9943 44.6988V51.437C44.9943 56.7542 40.6689 61.0808 35.3529 61.0808C30.0356 61.0808 25.7114 56.7542 25.7114 51.437ZM22.4972 43.9706V45.0073H21.7501L20.0679 42.4823C19.5537 41.7104 19.2829 40.819 19.2829 39.8899C19.2829 37.8743 20.5644 36.0905 22.4783 35.4569L24.1037 34.9107V33.7558C24.1037 31.0925 26.2634 28.9327 28.9244 28.9327H31.0156L33.7262 27.1252C35.1082 26.2079 36.7147 25.7185 38.4099 25.7185C42.396 25.7185 45.8478 28.5568 46.6328 32.4614L46.764 33.1151L48.7228 34.4213C50.4109 35.5515 51.4216 37.4346 51.4216 39.469C51.4216 40.6677 51.0705 41.8357 50.405 42.8346L48.9545 45.0073H48.2085V44.6988C48.2085 42.2128 46.3443 40.1535 43.8642 39.9017L35.4912 39.0671C33.582 38.8721 32.1386 37.2845 32.1386 35.3623H28.9244C28.9244 36.2726 29.0946 37.1391 29.415 37.937L25.5293 39.4939C23.684 40.2292 22.4972 41.987 22.4972 43.9706ZM20.8906 51.437C20.0052 51.437 19.2829 50.7147 19.2829 49.8293C19.2829 48.9438 20.0052 48.2216 20.8906 48.2216H22.4972V51.437H20.8906ZM48.2085 48.2216H49.8151C50.7005 48.2216 51.4216 48.9438 51.4216 49.8293C51.4216 50.7147 50.7005 51.437 49.8151 51.437H48.2085V48.2216ZM64.9558 45.0073H61.6352C60.9756 45.0073 60.3857 44.6113 60.141 43.9966L58.8288 40.7245C59.3253 40.2162 59.7332 39.6192 59.9649 38.9229L60.2911 37.937C61.5466 38.3448 62.8835 38.5777 64.2773 38.5777C65.7715 38.5777 67.2031 38.307 68.54 37.8365L69.7636 40.2918C67.8119 41.403 66.1474 43.0107 64.9558 45.0073ZM64.2773 64.2962H62.6708C61.7853 64.2962 61.0631 63.5739 61.0631 62.6885C61.0631 61.8031 61.7853 61.0808 62.6708 61.0808H64.2773V64.2962ZM64.2773 3.21422C73.1409 3.21422 80.3472 10.4229 80.3472 19.2889V38.5777H76.2854C75.0678 38.5777 73.875 38.7409 72.739 39.0541L71.415 36.405C74.8609 34.0939 77.133 30.1704 77.133 25.7185V16.2874C77.133 14.6052 76.2357 13.0165 74.7912 12.15L68.3202 8.26902L66.6628 11.0198L73.1409 14.9055C73.6244 15.1951 73.9188 15.7224 73.9188 16.2874V25.7185C73.9188 31.0369 69.5945 35.3623 64.2773 35.3623C58.9612 35.3623 54.6358 31.0369 54.6358 25.7185V16.0735C54.6358 15.5711 54.8746 15.0876 55.2765 14.7873L59.4565 11.6535L64.9239 15.7543L66.8449 13.1796L59.4565 7.63539L53.3485 12.2185C52.1439 13.1229 51.4216 14.5674 51.4216 16.0735V25.7185C51.4216 30.2638 53.8012 34.257 57.3665 36.5433L56.915 37.9051C56.7329 38.4512 56.2683 38.8602 55.7033 38.9725L54.6169 39.1924C54.5294 36.191 53.0163 33.4224 50.5054 31.7462L49.633 31.1622C49.3257 30.0002 48.8292 28.9268 48.2085 27.9468V19.2889C48.2085 10.4229 55.4137 3.21422 64.2773 3.21422ZM89.9887 32.7817V28.9327H96.4159V37.9311C96.4159 41.9054 95.1924 45.7793 92.9889 49.0384C92.4179 45.8478 90.6542 43.0734 88.1682 41.1831C89.342 38.5399 89.9887 35.6768 89.9887 32.7817ZM93.2017 19.2889C94.9725 19.2889 96.4159 20.7334 96.4159 22.5031V25.7185H89.9887V22.5031C89.9887 20.7334 91.432 19.2889 93.2017 19.2889ZM3.21422 64.2962V61.0808C3.21422 59.31 4.6576 57.8666 6.42726 57.8666C8.19809 57.8666 9.64147 59.31 9.64147 61.0808V64.2962H3.21422ZM99.6301 37.9311V22.5031C99.6301 18.9555 96.7493 16.0735 93.2017 16.0735C89.6553 16.0735 86.7744 18.9555 86.7744 22.5031V32.7817C86.7744 35.1117 86.285 37.4157 85.3866 39.5565C84.7967 39.3118 84.1879 39.1239 83.5602 38.9666V19.2889C83.5602 8.65203 74.9106 0 64.2773 0C53.644 0 44.9943 8.65203 44.9943 19.2889V24.6073C43.0982 23.2951 40.8202 22.5031 38.3779 22.5031C36.0811 22.5031 33.8586 23.1757 31.9436 24.45L30.0486 25.7185H28.9244C24.8886 25.7185 21.5432 28.7069 20.9722 32.5878C18.0216 33.7924 16.0699 36.6627 16.0699 39.8899C16.0699 41.4527 16.5274 42.9658 17.3939 44.2661L18.3727 45.7355C16.9979 46.5831 16.0699 48.0962 16.0699 49.8293C16.0699 52.4914 18.2285 54.6512 20.8906 54.6512H22.9239C23.7467 57.8287 25.7492 60.5346 28.448 62.2617L28.1336 63.1968C27.9137 63.8564 27.299 64.2962 26.6086 64.2962C21.1353 64.2962 16.025 66.9643 12.8557 71.3464V61.0808C12.8557 57.5332 9.97484 54.6512 6.42726 54.6512C2.88086 54.6512 0 57.5332 0 61.0808V77.0419C0 84.1938 5.81846 90.0135 12.968 90.0135C16.434 90.0135 19.6908 88.6635 22.139 86.2153L22.4972 85.8571V98.0508H25.7114V81.0352C25.7114 79.1391 24.9702 77.3552 23.6332 76.0182L21.3611 78.2915C22.0952 79.0256 22.4972 79.9996 22.4972 81.0352V81.3118L19.8669 83.9421C18.0275 85.7815 15.5734 86.7993 12.968 86.7993C7.58929 86.7993 3.21422 82.423 3.21422 77.0419V67.5104H9.64147V80.3697H12.8557V77.5822L14.6383 74.4613C17.0795 70.1856 21.6437 67.5293 26.5649 67.5163L29.59 78.1094L35.3529 74.2663L41.1146 78.1094L43.9777 68.0755C50.2856 69.8333 54.6358 75.491 54.6358 82.1145V98.0508H57.85V96.0861C57.85 89.7818 62.5762 84.5012 68.8403 83.8037C69.2363 83.76 69.6134 83.6536 69.9775 83.5212L70.5107 84.0555C72.2555 85.8004 74.6659 86.7993 77.133 86.7993C79.6001 86.7993 82.0105 85.8004 83.7553 84.0555L84.2884 83.5212C84.6525 83.6536 85.0296 83.7541 85.4245 83.8037C91.6898 84.5012 96.4159 89.7818 96.4159 96.0861V98.0508H99.6301V96.0861C99.6301 88.1363 93.6734 81.4868 85.7826 80.6084C85.1608 80.5387 84.6336 80.1119 84.4326 79.5162L84.0378 78.3352C87.609 76.0501 89.9887 72.0569 89.9887 67.5104H91.5952C94.2562 67.5104 96.4159 65.3507 96.4159 62.6885C96.4159 60.0263 94.2562 57.8666 91.5952 57.8666H91.3375C92.0219 56.7365 92.5184 55.5177 92.8258 54.2433C97.1441 49.9487 99.6301 44.0333 99.6301 37.9311Z" fill="#AECC53"/>
</svg>
