<svg width="99" height="99" viewBox="0 0 99 99" fill="none" xmlns="http://www.w3.org/2000/svg">
<path d="M22.1403 36.374H18.9781C18.9781 37.2441 18.2676 37.9545 17.3964 37.9545C16.5252 37.9545 15.8147 37.2441 15.8147 36.374H12.6513C12.6513 38.9924 14.7768 41.1179 17.3964 41.1179C20.016 41.1179 22.1403 38.9924 22.1403 36.374Z" fill="#AECC53"/>
<path d="M53.7695 23.7219H50.6073C50.6073 24.5932 49.8968 25.3036 49.0256 25.3036C48.1543 25.3036 47.4439 24.5932 47.4439 23.7219H44.2817C44.2817 26.3415 46.406 28.467 49.0256 28.467C51.6452 28.467 53.7695 26.3415 53.7695 23.7219Z" fill="#AECC53"/>
<path d="M83.6879 22.1402C82.4951 22.1402 81.2976 22.4251 80.229 22.9558L79.444 23.3518C76.8859 24.6297 74.0263 25.3035 71.1656 25.3035H69.5839V28.4669C69.0283 28.4669 68.4975 28.5591 67.9785 28.701C67.9963 28.4598 68.0034 28.2069 68.0034 27.935C68.0034 25.7669 67.5151 24.6297 67.0825 23.6237C66.9406 23.2833 66.8106 22.9688 66.7054 22.6225C67.6877 18.6623 71.2649 15.8146 75.3858 15.8146H85.9245C90.8658 15.8146 94.8874 19.8362 94.8874 24.7787C94.8874 26.2173 94.5422 27.6134 93.8932 28.8736C93.2135 28.6206 92.4912 28.4669 91.7252 28.4669H91.4781C91.2677 27.6075 90.9214 26.7859 90.4272 26.0388L90.1246 25.5814C88.686 23.4251 86.2768 22.1402 83.6879 22.1402ZM88.5618 37.9547C88.5618 41.4456 85.7271 44.2815 82.2362 44.2815H79.0729C75.5832 44.2815 72.7473 41.4456 72.7473 37.9547V28.4114C75.5643 28.201 78.3376 27.4408 80.8591 26.1748L81.6428 25.7859C83.6442 24.7846 86.2519 25.4761 87.4932 27.3356L87.7958 27.7931C88.2959 28.5461 88.5618 29.4245 88.5618 30.3264V37.9547ZM88.5618 55.351V60.0961H80.6545C78.8636 60.0961 77.3127 61.1092 76.51 62.5786L74.5453 61.5974C73.9649 61.3066 73.3584 61.0713 72.7473 60.8621V55.351C72.7473 50.9901 76.2937 47.4437 80.6545 47.4437C85.0166 47.4437 88.5618 50.9901 88.5618 55.351ZM94.8874 91.7252H80.6545C79.7833 91.7252 79.0729 91.0148 79.0729 90.1435V64.84C79.0729 63.9687 79.7833 63.2583 80.6545 63.2583H94.8874V91.7252ZM68.9172 91.7252H68.0034V90.1435C68.0034 87.5239 65.8779 85.3996 63.2583 85.3996C62.0419 85.3996 60.9354 85.8748 60.0961 86.635C59.2556 85.8748 58.1503 85.3996 56.9327 85.3996C55.7163 85.3996 54.6098 85.8748 53.7693 86.635C52.93 85.8748 51.8235 85.3996 50.6071 85.3996C49.3895 85.3996 48.2842 85.8748 47.4437 86.635C46.6032 85.8748 45.4979 85.3996 44.2815 85.3996C42.2423 85.3996 40.5129 86.7023 39.845 88.5122C38.8082 88.3207 37.9547 87.401 37.9547 86.1893C37.9547 85.8689 38.0481 85.5592 38.1841 85.2696C38.6285 85.1703 39.0671 85.0284 39.475 84.8251L48.1542 80.4879L46.7332 77.659L38.0599 81.9951C37.7455 82.1559 37.3991 82.2362 37.0469 82.2362C35.8056 82.2362 34.7925 81.2232 34.7925 79.8637C34.7925 79.5433 34.8847 79.2336 35.0207 78.9369C35.4652 78.8447 35.9037 78.7028 36.3116 78.4983L44.992 74.1623L43.571 71.3322L34.8977 75.6695C34.5821 75.8303 34.2357 75.9106 33.8598 75.9106C32.6304 75.9106 31.6291 74.9094 31.6291 73.68C31.6291 72.7839 32.1611 71.9812 32.9827 71.629L41.3841 68.0282L53.6712 68.9727C56.1418 69.1642 58.5948 68.306 60.4046 66.6321C61.4177 65.6923 62.1778 64.5255 62.666 63.2583H68.176C69.8877 63.2583 71.5982 63.6602 73.1303 64.4262L75.9106 65.8164V89.2971L75.0583 89.8657C73.2355 91.0821 71.11 91.7252 68.9172 91.7252ZM64.84 93.3069C64.84 94.177 64.1295 94.8874 63.2583 94.8874C62.3871 94.8874 61.6766 94.177 61.6766 93.3069V90.1435C61.6766 89.2723 62.3871 88.5618 63.2583 88.5618C64.1295 88.5618 64.84 89.2723 64.84 90.1435V93.3069ZM56.9327 94.8874C56.0615 94.8874 55.351 94.177 55.351 93.3069V90.1435C55.351 89.2723 56.0615 88.5618 56.9327 88.5618C57.8039 88.5618 58.5144 89.2723 58.5144 90.1435V93.3069C58.5144 94.177 57.8039 94.8874 56.9327 94.8874ZM50.6071 94.8874C49.7359 94.8874 49.0254 94.177 49.0254 93.3069V90.1435C49.0254 89.2723 49.7359 88.5618 50.6071 88.5618C51.4783 88.5618 52.1888 89.2723 52.1888 90.1435V93.3069C52.1888 94.177 51.4783 94.8874 50.6071 94.8874ZM44.2815 94.8874C43.4103 94.8874 42.6998 94.177 42.6998 93.3069V90.1435C42.6998 89.2723 43.4103 88.5618 44.2815 88.5618C45.1516 88.5618 45.862 89.2723 45.862 90.1435V93.3069C45.862 94.177 45.1516 94.8874 44.2815 94.8874ZM26.7919 90.9344L22.1402 89.0749V65.6001L25.9892 62.523C27.9409 60.9543 30.3997 60.0961 32.9023 60.0961H60.0961C60.0961 61.7144 59.4412 63.2086 58.2543 64.3092C57.0686 65.4086 55.5248 65.9464 53.9123 65.8223L40.8521 64.8151L31.7344 68.7256C29.7507 69.5721 28.4669 71.5178 28.4669 73.68C28.4669 75.9166 29.8382 77.8375 31.7899 78.6532C31.6977 79.0799 31.6291 79.5185 31.6291 79.9819C31.6291 82.2244 33.0063 84.1572 34.9592 84.9788C34.8599 85.4055 34.7925 85.8441 34.7925 86.3075C34.7925 89.0619 36.8684 91.3174 39.5364 91.6567V91.7252H30.8998C29.4918 91.7252 28.1076 91.4592 26.7919 90.9344ZM18.978 90.1435C18.978 91.0148 18.2675 91.7252 17.3963 91.7252H3.16339V63.2583H17.3963C18.2675 63.2583 18.978 63.9687 18.978 64.84V90.1435ZM9.48898 55.351C9.48898 50.9901 13.0342 47.4437 17.3963 47.4437C21.7572 47.4437 25.3035 50.9901 25.3035 55.351V59.1445C24.8591 59.4282 24.4264 59.7249 24.0127 60.0523L21.3316 62.1955C20.4793 60.9295 19.0335 60.0961 17.3963 60.0961H9.48898V55.351ZM15.8146 44.2815C12.3237 44.2815 9.48898 41.4456 9.48898 37.9547V28.3735C12.3734 28.0284 15.0426 26.7363 17.1244 24.6486L17.3963 24.3768L17.6682 24.6486C19.7499 26.7363 22.418 28.0284 25.3035 28.3735V37.9547C25.3035 41.4456 22.4676 44.2815 18.978 44.2815H15.8146ZM7.90729 25.3035H6.32559V28.4669C5.47918 28.4669 4.67652 28.6395 3.93532 28.9422L3.62678 28.0095C3.31706 27.0945 3.16339 26.137 3.16339 25.1735V24.7787C3.16339 19.8362 7.185 15.8146 12.1263 15.8146H22.665C26.78 15.8146 30.3631 18.6623 31.3454 22.6225C31.2402 22.9688 31.1102 23.2833 30.9683 23.6237C30.5357 24.6297 30.0474 25.7669 30.0474 27.935C30.0474 28.2069 30.0545 28.4598 30.0723 28.701C29.5533 28.5591 29.0225 28.4669 28.4669 28.4669V25.3035H26.8852C24.2467 25.3035 21.7702 24.2775 19.9047 22.4121L17.3963 19.9047L14.8878 22.4121C13.0224 24.2775 10.5446 25.3035 7.90729 25.3035ZM3.16339 34.7925C3.16339 33.0501 4.58431 31.6291 6.32559 31.6291V37.9547C4.58431 37.9547 3.16339 36.5338 3.16339 34.7925ZM34.7925 17.3963C34.7925 9.55045 41.1796 3.16339 49.0254 3.16339C56.8712 3.16339 63.2583 9.55045 63.2583 17.3963V20.5597C63.2583 22.7277 63.7465 23.8637 64.1792 24.8709C64.5492 25.7362 64.84 26.4159 64.84 27.935C64.84 29.4552 64.5492 30.1408 64.1792 31.005C63.8884 31.6729 63.5798 32.4082 63.4072 33.4638C63.3883 33.5324 63.3824 33.6057 63.3694 33.6801C63.3328 33.9579 63.2961 34.2547 63.2772 34.588C63.2772 34.6566 63.2583 34.724 63.2583 34.7925C63.2583 34.8292 63.2713 34.8658 63.2713 34.9096C63.2642 35.0455 63.2583 35.1696 63.2583 35.3174C63.2583 36.639 63.5739 37.7384 64.2465 38.7834C64.6485 39.4064 64.4014 40.0128 64.2785 40.241C64.0432 40.6677 63.5432 41.1181 62.8197 41.1181H59.966C59.5216 37.9866 57.7673 35.2737 55.2647 33.5631C58.1432 31.9318 60.0961 28.8429 60.0961 25.3035V16.538C60.0961 13.5354 57.9588 10.9276 55.0176 10.3354L53.0529 9.93937C53.5163 8.82817 53.7693 7.60466 53.7693 6.32559H50.6071C50.6071 9.81643 47.7712 12.6512 44.2815 12.6512H42.6998C40.0802 12.6512 37.9547 14.7767 37.9547 17.3963V25.3035C37.9547 28.8429 39.9076 31.9318 42.7861 33.5631C40.2835 35.2737 38.5292 37.9866 38.0848 41.1181H35.2311C34.5076 41.1181 34.0076 40.6677 33.7723 40.241C33.6494 40.0128 33.4023 39.4064 33.8043 38.7834C34.4769 37.7384 34.7925 36.639 34.7925 35.3174C34.7925 35.1696 34.7866 35.0455 34.7795 34.9096C34.7795 34.8658 34.7925 34.8292 34.7925 34.7925C34.7925 34.724 34.7736 34.6566 34.7736 34.588C34.7547 34.2547 34.7181 33.9579 34.6814 33.6801C34.6684 33.6057 34.6625 33.5324 34.6436 33.4638C34.471 32.4082 34.1625 31.6729 33.8716 31.005C33.5016 30.1408 33.2108 29.4552 33.2108 27.935C33.2108 26.4159 33.5016 25.7362 33.8716 24.8709C34.3043 23.8637 34.7925 22.7277 34.7925 20.5597V17.3963ZM69.5839 37.9547C67.8982 37.9547 66.5328 36.6272 66.4406 34.971C66.4524 34.6188 66.4772 34.3043 66.5269 34.0265C66.8661 32.6552 68.1086 31.6291 69.5839 31.6291V37.9547ZM43.6692 36.9168C44.2744 39.3201 46.4365 41.1181 49.0254 41.1181C51.6143 41.1181 53.7764 39.3201 54.3816 36.9168C55.9385 38.3626 56.9327 40.4077 56.9327 42.6998V56.9327H41.1181V42.6998C41.1181 40.4077 42.1123 38.3626 43.6692 36.9168ZM51.3979 35.5834C51.3979 36.8932 50.3352 37.9547 49.0254 37.9547C47.7156 37.9547 46.6529 36.8932 46.6529 35.5834C46.6529 35.4474 46.6777 35.3174 46.7025 35.1814C47.4378 34.9533 48.2097 34.7925 49.0254 34.7925C49.8411 34.7925 50.613 34.9533 51.3483 35.1814C51.3731 35.3174 51.3979 35.4474 51.3979 35.5834ZM47.4437 31.6291C43.9541 31.6291 41.1181 28.7944 41.1181 25.3035V17.3963C41.1181 16.525 41.8286 15.8146 42.6998 15.8146H44.2815C47.0181 15.8146 49.4829 14.6537 51.2183 12.7942L54.3935 13.4361C55.864 13.7328 56.9327 15.0367 56.9327 16.538V25.3035C56.9327 28.7944 54.0968 31.6291 50.6071 31.6291H47.4437ZM27.9102 41.1181H28.4669C29.22 41.1181 29.9304 40.9633 30.5971 40.7233C30.6964 41.0744 30.8135 41.4207 30.9991 41.7541C31.8455 43.311 33.4697 44.2815 35.2311 44.2815H37.9547V56.9327H32.9023C31.388 56.9327 29.8938 57.1857 28.4669 57.655V55.351C28.4669 51.5587 26.5448 48.2097 23.6356 46.2143C25.6121 45.096 27.1441 43.2862 27.9102 41.1181ZM28.4669 31.6291C29.9422 31.6291 31.1847 32.6552 31.5239 34.0265C31.5736 34.3043 31.5984 34.6188 31.6102 34.971C31.518 36.6272 30.1527 37.9547 28.4669 37.9547V31.6291ZM69.5839 60.1765C69.1146 60.1327 68.6453 60.0961 68.176 60.0961H63.2583C63.2583 58.3536 61.8374 56.9327 60.0961 56.9327V44.2815H62.8197C64.5811 44.2815 66.2053 43.311 67.0517 41.7541C67.2373 41.4207 67.3544 41.0744 67.4537 40.7233C68.1204 40.9633 68.8309 41.1181 69.5839 41.1181H70.1407C70.9067 43.2862 72.4387 45.096 74.4153 46.2143C71.506 48.2097 69.5839 51.5587 69.5839 55.351V60.1765ZM91.7252 37.9547V31.6291C93.4665 31.6291 94.8874 33.0501 94.8874 34.7925C94.8874 36.5338 93.4665 37.9547 91.7252 37.9547ZM91.1684 41.1181H91.7252C95.2149 41.1181 98.0508 38.2822 98.0508 34.7925C98.0508 33.2108 97.4456 31.784 96.488 30.6775C97.4952 28.8736 98.0508 26.8663 98.0508 24.7787C98.0508 18.0878 92.6142 12.6512 85.9245 12.6512H75.3858C71.8642 12.6512 68.6263 14.1903 66.385 16.6669C66.002 7.41315 58.3725 0 49.0254 0C39.6783 0 32.0488 7.41906 31.6658 16.6728C29.4174 14.1903 26.1866 12.6512 22.665 12.6512H12.1263C5.43663 12.6512 0 18.0878 0 24.7787V25.1735C0 26.4774 0.210419 27.7683 0.624166 29.0095L1.29089 31.005C0.494131 32.0677 0 33.3657 0 34.7925C0 38.2822 2.83594 41.1181 6.32559 41.1181H6.88238C7.6484 43.2862 9.18044 45.096 11.157 46.2143C8.24065 48.2097 6.32559 51.5587 6.32559 55.351V60.0961H0V94.8874H17.3963C19.2428 94.8874 20.8304 93.8129 21.6153 92.269L25.618 93.8684C27.3049 94.5422 29.084 94.8874 30.8998 94.8874H39.8272C40.4821 96.7221 42.2234 98.0508 44.2815 98.0508C45.4979 98.0508 46.6032 97.5756 47.4437 96.8155C48.2842 97.5756 49.3895 98.0508 50.6071 98.0508C51.8235 98.0508 52.93 97.5756 53.7693 96.8155C54.6098 97.5756 55.7163 98.0508 56.9327 98.0508C58.1503 98.0508 59.2556 97.5756 60.0961 96.8155C60.9354 97.5756 62.0419 98.0508 63.2583 98.0508C65.3152 98.0508 67.0577 96.7221 67.7126 94.8874H68.9172C71.6597 94.8874 74.3159 94.0907 76.6211 92.6083C77.4545 93.9677 78.944 94.8874 80.6545 94.8874H98.0508V60.0961H91.7252V55.351C91.7252 51.5587 89.8043 48.2097 86.8938 46.2143C88.8704 45.096 90.4024 43.2862 91.1684 41.1181Z" fill="#AECC53"/>
<path d="M80.6543 37.9545C79.7831 37.9545 79.0726 37.2441 79.0726 36.374H75.9104C75.9104 38.9924 78.0347 41.1179 80.6543 41.1179C83.2739 41.1179 85.3994 38.9924 85.3994 36.374H82.236C82.236 37.2441 81.5255 37.9545 80.6543 37.9545Z" fill="#AECC53"/>
</svg>
