<svg width="186" height="34" viewBox="0 0 186 34" fill="none" xmlns="http://www.w3.org/2000/svg">
<path d="M105.916 33.1046C104.034 33.1046 102.506 32.5552 101.333 31.429C100.16 30.3029 99.5865 28.8196 99.5865 27.0068C99.5865 25.4686 100.023 24.1777 100.896 23.1339C101.769 22.0901 103.024 21.1288 104.661 20.1949C103.734 19.0413 103.079 18.0799 102.724 17.3658C102.342 16.6241 102.151 15.8551 102.151 15.0036C102.151 13.5203 102.642 12.3667 103.652 11.4877C104.661 10.6088 105.916 10.1968 107.417 10.1968C108.918 10.1968 110.145 10.6637 111.1 11.5701C112.083 12.4766 112.574 13.6577 112.574 15.0585C112.574 16.2396 112.219 17.2559 111.51 18.1348C110.8 19.0138 109.791 19.8653 108.481 20.6893L112.601 25.6609C113.092 24.5622 113.392 23.436 113.474 22.3099H116.093C116.012 24.2326 115.466 26.0729 114.429 27.8583L118.494 32.7475H114.947L112.765 30.1106C110.909 32.1157 108.618 33.1046 105.916 33.1046ZM106.353 30.5501C108.126 30.5501 109.709 29.7261 111.128 28.078L106.189 22.0627C104.907 22.8592 103.952 23.6283 103.324 24.3699C102.697 25.1116 102.37 25.9356 102.37 26.842C102.37 27.9407 102.724 28.8196 103.461 29.5063C104.225 30.193 105.18 30.5501 106.353 30.5501ZM107.362 12.6139C106.599 12.6139 105.971 12.8336 105.48 13.2731C105.016 13.7126 104.771 14.2894 104.771 15.0036C104.771 15.3606 104.88 15.7727 105.098 16.2121C105.316 16.6516 105.562 17.0636 105.835 17.3932C106.107 17.7503 106.489 18.2447 107.008 18.8765C109 17.7228 110.009 16.5143 110.009 15.2782C110.009 14.4817 109.763 13.8499 109.245 13.3555C108.727 12.8611 108.099 12.6139 107.362 12.6139Z" fill="#F18815"/>
<path d="M146.761 24.37C144.441 27.309 141.522 28.7922 138.084 28.7922C131.673 28.7922 127.362 24.2326 127.362 17.4207C127.362 10.499 131.645 5.8295 138.057 5.8295C141.467 5.8295 144.36 7.31274 146.733 10.2517L147.17 10.8011L151.044 7.55995L150.608 7.03807C147.388 3.02783 142.914 0.830444 138.057 0.830444C128.48 0.830444 122.069 7.50501 122.069 17.4207C122.069 22.3923 123.706 26.5948 126.843 29.5338C129.708 32.2531 133.719 33.7363 138.112 33.7363C143.132 33.7363 147.47 31.6213 150.662 27.6386L151.071 27.1167L147.197 23.8206L146.761 24.37Z" fill="#F18815"/>
<path d="M169.652 0.830444C160.266 0.830444 153.472 7.77969 153.472 17.3383C153.472 26.8695 160.266 33.7913 169.652 33.7913C178.956 33.7913 185.695 26.8695 185.695 17.3383C185.695 7.77969 178.956 0.830444 169.652 0.830444ZM180.402 17.3383C180.402 20.5795 179.283 23.5459 177.291 25.6335C175.327 27.6935 172.626 28.8197 169.679 28.8197C163.376 28.8197 158.82 23.9854 158.82 17.3109C158.82 10.6088 163.376 5.77457 169.679 5.77457C175.873 5.77457 180.402 10.6363 180.402 17.3383Z" fill="#F18815"/>
<path d="M62.3166 21.376C64.6357 19.5356 66.0272 16.4318 66.0272 13.1083C66.0272 9.97701 64.9631 7.39508 62.8077 5.22516C60.6795 3.0827 58.0603 1.98401 55.0045 1.98401H42.2356C40.9259 1.98401 39.8619 3.11017 39.8619 4.48354V32.665C39.8619 32.9122 40.0528 33.1045 40.2984 33.1045H47.6924C47.9379 33.1045 48.1289 32.9122 48.1289 32.665V9.86714H54.7862C56.5051 9.86714 57.7874 11.3229 57.7874 13.3555C57.7874 14.4267 57.4055 15.4155 56.6688 16.1572C55.9594 16.8713 55.0318 17.2833 54.0495 17.2833H51.1847C51.021 17.2833 50.8573 17.3657 50.7755 17.5305C50.6936 17.6679 50.6936 17.8601 50.7755 17.9975L60.1884 32.9122C60.2703 33.0496 60.4067 33.132 60.5704 33.132H68.5919C68.9466 33.132 69.1376 32.7474 68.9739 32.4453L62.071 21.5957L62.3166 21.376Z" fill="#007751"/>
<path d="M81.9611 17.7777L74.3216 2.23122C74.2397 2.06641 74.1033 1.98401 73.9123 1.98401H65.7271C65.3997 1.98401 65.1814 2.34108 65.3178 2.61576L79.7511 31.7861C80.1603 32.5826 81.0061 33.1045 81.9611 33.1045C82.8887 33.132 83.7345 32.6101 84.1711 31.7861L98.6862 2.61576C98.8226 2.31362 98.6043 1.98401 98.2769 1.98401H89.9826C89.8189 1.98401 89.6551 2.09388 89.5733 2.23122L81.9611 17.7777Z" fill="#007751"/>
<path d="M33.3683 2.1764C32.4134 1.79185 31.4857 1.95666 30.6126 2.72574L17.4618 16.6517L4.42001 2.80815C3.51963 2.03906 2.56469 1.79185 1.60976 2.1764C0.627532 2.56094 0 3.46736 0 4.56606V32.6652C0 32.9124 0.190988 33.1046 0.436544 33.1046H7.80322C8.04878 33.1046 8.23976 32.9124 8.23976 32.6652V18.9315L15.7974 26.7871C16.6978 27.6936 18.253 27.6936 19.1261 26.7871L26.711 18.9315V32.6652C26.711 32.9124 26.902 33.1046 27.1476 33.1046H34.5142C34.7598 33.1046 34.9508 32.9124 34.9508 32.6652V4.56606C34.9508 3.49483 34.3233 2.58841 33.3683 2.1764Z" fill="#007751"/>
</svg>
