<svg version="1.2" baseProfile="tiny-ps" xmlns="http://www.w3.org/2000/svg" viewBox="0 0 207 50" width="207" height="50">
	<title>logo-svg</title>
	<style>
		tspan { white-space:pre }
		.shp0 { fill: #ffffff } 
	</style>
	<path id="Layer" class="shp0" d="M85.93 46.51C74.15 46.51 66.34 39.24 66.34 28.78L66.34 7.27C66.34 6.69 66.81 6.22 67.39 6.22L76.25 6.22C76.84 6.22 77.3 6.69 77.3 7.27L77.3 27.67C77.3 33.92 80.66 37.56 85.93 37.56C91.21 37.56 94.56 33.92 94.56 27.67L94.56 7.27C94.56 6.69 95.03 6.22 95.61 6.22L104.48 6.22C105.06 6.22 105.53 6.69 105.53 7.27L105.53 28.78C105.53 39.24 97.71 46.51 85.93 46.51Z" />
	<path id="Layer" class="shp0" d="M130.48 14.48C130.48 13.84 129.93 13.37 129.32 13.43C126.14 13.75 122.67 15.41 120.51 18.26L120.37 18.26L120.37 15.03C120.37 14.45 119.9 13.98 119.32 13.98L111.15 13.98C110.57 13.98 110.1 14.45 110.1 15.03L110.1 44.85C110.1 45.43 110.57 45.9 111.15 45.9L119.32 45.9C119.9 45.9 120.37 45.43 120.37 44.85L120.37 31.57C120.37 27.38 123.22 24.33 128.09 24.33C128.44 24.33 129.03 24.33 129.67 24.36C130.13 24.39 130.51 24.01 130.51 23.55L130.51 14.48L130.48 14.48Z" />
	<path id="Layer" fill-rule="evenodd" class="shp0" d="M168.45 29.97C168.45 39.85 162.15 46.51 153.37 46.51C149.41 46.51 146.32 45.14 144.22 42.47L144.07 42.47L144.07 44.85C144.07 45.43 143.6 45.9 143.02 45.9L135.41 45.9C134.83 45.9 134.36 45.43 134.36 44.85L134.36 5.24C134.36 4.65 134.83 4.19 135.41 4.19L143.57 4.19C144.16 4.19 144.63 4.65 144.63 5.24L144.63 17.36L144.77 17.36C147.1 14.71 150.25 13.37 153.84 13.37C162.12 13.37 168.45 20.23 168.45 29.97ZM158.09 30C158.09 25.44 155.12 22.41 151.21 22.41C147.13 22.41 144.19 25.61 144.19 30C144.19 34.56 147.22 37.53 151.24 37.53C155.24 37.53 158.09 34.5 158.09 30Z" />
	<path id="Layer" fill-rule="evenodd" class="shp0" d="M204.89 15.03L204.89 44.85C204.89 45.43 204.42 45.9 203.84 45.9L196.23 45.9C195.65 45.9 195.18 45.43 195.18 44.85L195.18 42.47L195.06 42.47C193.02 45.14 190.02 46.51 186.17 46.51C177.37 46.51 171.1 39.85 171.1 29.97C171.1 20.23 177.43 13.37 185.71 13.37C189.18 13.37 192.27 14.71 194.54 17.36L194.66 17.36L194.66 15.03C194.66 14.45 195.12 13.98 195.71 13.98L203.87 13.98C204.45 13.98 204.92 14.45 204.89 15.03ZM195.06 30C195.06 25.61 192.18 22.41 188.33 22.41C184.42 22.41 181.45 25.44 181.45 30C181.45 34.5 184.31 37.53 188.3 37.53C192.03 37.53 195.06 34.56 195.06 30Z" />
	<path id="Layer" fill-rule="evenodd" class="shp0" d="M45.93 22.27L45.93 38.43C45.93 42.56 42.58 45.9 38.44 45.9L9.57 45.9C5.43 45.9 2.08 42.56 2.08 38.43L2.08 22.27C2.08 20.12 3.01 18.05 4.65 16.63L19.08 4.07C20.48 2.85 22.23 2.24 24.01 2.24C25.75 2.24 27.53 2.85 28.93 4.07L43.37 16.63C45 18.05 45.93 20.09 45.93 22.27ZM41.94 38.43L41.94 22.27C41.94 21.25 41.5 20.32 40.74 19.65L26.31 7.1C25.67 6.54 24.85 6.25 24.03 6.25C23.22 6.25 22.4 6.51 21.76 7.1L7.33 19.65C6.57 20.32 6.13 21.28 6.13 22.27L6.13 38.43C6.13 40.35 7.68 41.89 9.6 41.89L38.44 41.89C40.36 41.89 41.91 40.35 41.91 38.43L41.94 38.43Z" />
	<path id="Layer" class="shp0" d="M21.7 17.53L21.7 31.25C21.7 33.81 23.8 35.9 26.37 35.9L40.74 35.9L40.74 22.27C40.74 21.6 40.45 20.96 39.95 20.52L27.88 10.03L23.28 14.04C22.29 14.91 21.7 16.19 21.7 17.53Z" />
	<path id="Layer" class="shp0" d="M53.89 14.01L41.65 3.35C40.77 2.59 39.66 2.21 38.58 2.21C37.48 2.21 36.4 2.59 35.52 3.35L32.81 5.7L44.21 15.64C46.11 17.3 47.21 19.71 47.21 22.24L47.21 35.87L50.83 35.87C53.39 35.87 55.49 33.78 55.49 31.22L55.49 17.5C55.49 16.19 54.91 14.91 53.89 14.01Z" />
</svg>