<svg id="Layer_1" data-name="Layer 1" xmlns="http://www.w3.org/2000/svg" xmlns:xlink="http://www.w3.org/1999/xlink" viewBox="0 0 50 50"><defs><style>.cls-1{fill:url(#linear-gradient);}.cls-2{fill:#fff;}</style><linearGradient id="linear-gradient" x1="0.08" y1="25" x2="49.92" y2="25" gradientUnits="userSpaceOnUse"><stop offset="0" stop-color="#ff8b22"/><stop offset="1" stop-color="#ffb719"/></linearGradient></defs><path class="cls-1" d="M47.09,16.42,30.76,2.1a8.53,8.53,0,0,0-11.21,0L3.08,16.42a8.62,8.62,0,0,0-3,6.42V41.27A8.87,8.87,0,0,0,8.8,50H41.57a8.57,8.57,0,0,0,8.35-8.73V22.84A8.46,8.46,0,0,0,47.09,16.42Z"/><path class="cls-2" d="M40.57,43.67h-31A3.7,3.7,0,0,1,5.82,40V25.06a.86.86,0,0,1,1.72,0V40a2,2,0,0,0,2,2H40.57a2,2,0,0,0,2-2V25.06a.86.86,0,1,1,1.72,0V40A3.7,3.7,0,0,1,40.57,43.67Z"/><path class="cls-2" d="M25,32.5a.77.77,0,0,1-.29,0L6.37,25.86a.86.86,0,1,1,.36-1.68l.22.08,18.39,6.6A.86.86,0,0,1,25,32.5Z"/><path class="cls-2" d="M25,32.5a.85.85,0,0,1-.85-.86.84.84,0,0,1,.56-.8l18.38-6.58a.87.87,0,0,1,1.12.49.86.86,0,0,1-.49,1.11l0,0L25.34,32.45A.79.79,0,0,1,25,32.5Z"/><path class="cls-2" d="M6.66,25.91a.86.86,0,0,1-.48-1.53l6.73-5.26a.86.86,0,0,1,1.21.08A.85.85,0,0,1,14,20.41l-.08.06L7.19,25.7A.86.86,0,0,1,6.66,25.91Zm14.1-10.85a.87.87,0,0,1-.86-.86.86.86,0,0,1,.34-.68l4.28-3.34a.86.86,0,1,1,1.05,1.36l-4.29,3.34A.88.88,0,0,1,20.76,15.06Z"/><path class="cls-2" d="M43.43,25.91a.85.85,0,0,1-.53-.18L36.13,20.5A.86.86,0,0,1,36,19.29a.87.87,0,0,1,1.22-.17h0L44,24.35a.86.86,0,0,1,.15,1.2.84.84,0,0,1-.67.33ZM29.33,15.06a.88.88,0,0,1-.52-.18l-4.29-3.34a.86.86,0,1,1,1.05-1.36h0l4.28,3.34a.85.85,0,0,1,.16,1.2A.87.87,0,0,1,29.33,15.06Z"/><path class="cls-2" d="M36.65,28.34a.85.85,0,0,1-.85-.85V15.06H14.29V27.49a.86.86,0,0,1-1.71,0V13.34H37.51V27.49A.85.85,0,0,1,36.65,28.34Z"/><path class="cls-2" d="M19.25,22.75c-1.9,0-3.38-1.14-3.38-2.58s1.48-2.57,3.38-2.57c1.71,0,3.15,1,3.35,2.27a.87.87,0,0,1-1.71.27c-.06-.39-.77-.86-1.67-.86s-1.66.47-1.66.86.65.86,1.66.86a.86.86,0,1,1,0,1.71Z"/><path class="cls-2" d="M19.25,26.19c-1.72,0-3.16-1-3.35-2.28a.86.86,0,0,1,1.71-.25c0,.34.66.82,1.66.82s1.66-.52,1.66-.86-.65-.86-1.66-.86a.86.86,0,1,1,0-1.71c1.89,0,3.37,1.13,3.37,2.57S21.14,26.19,19.25,26.19Z"/><path class="cls-2" d="M19.25,28.1a.87.87,0,0,1-.86-.86V16.55a.86.86,0,1,1,1.72,0V27.24A.87.87,0,0,1,19.25,28.1Z"/><path class="cls-2" d="M34.24,19h-8.4a.86.86,0,0,1,0-1.72h8.4a.86.86,0,0,1,0,1.72Z"/><path class="cls-2" d="M34.24,22.55h-8.4a.86.86,0,0,1,0-1.72h8.4a.86.86,0,0,1,0,1.72Z"/><path class="cls-2" d="M34.24,26.2h-8.4a.86.86,0,1,1,0-1.71h8.4a.86.86,0,0,1,0,1.71Z"/></svg>