<svg id="Layer_1" data-name="Layer 1" xmlns="http://www.w3.org/2000/svg" xmlns:xlink="http://www.w3.org/1999/xlink" viewBox="0 0 50 50"><defs><style>.cls-1{fill:url(#linear-gradient);}.cls-2{fill:#fff;}</style><linearGradient id="linear-gradient" x1="0.08" y1="25" x2="49.92" y2="25" gradientUnits="userSpaceOnUse"><stop offset="0" stop-color="#00d38d"/><stop offset="1" stop-color="#82ea5b"/></linearGradient></defs><path class="cls-1" d="M47.09,16.42,30.76,2.1a8.53,8.53,0,0,0-11.21,0L3.08,16.42a8.62,8.62,0,0,0-3,6.42V41.27A8.87,8.87,0,0,0,8.8,50H41.57a8.57,8.57,0,0,0,8.35-8.73V22.84A8.46,8.46,0,0,0,47.09,16.42Z"/><path class="cls-2" d="M36.64,24.92a3.18,3.18,0,0,0-2.7,3.19v1.61H27.31V28a1.51,1.51,0,0,1,1.54-1.5,1.06,1.06,0,0,1,.25,0,1.59,1.59,0,0,1,1.25,1.58v.49s0,0,0,0h1.56V28a3.11,3.11,0,0,0-3.12-3.1,2.3,2.3,0,0,0-.37,0,3.17,3.17,0,0,0-2.7,3.19V39.92h1.58V38.26h6.61V40h1.58V28a1.51,1.51,0,0,1,1.54-1.5,1.1,1.1,0,0,1,.26,0,1.57,1.57,0,0,1,1.24,1.58v.49a0,0,0,0,0,0,0h1.55V28A3.12,3.12,0,0,0,37,24.89,2.6,2.6,0,0,0,36.64,24.92Zm-2.7,6.4v1.82H27.31V31.31Zm-6.63,5.35v-2h6.63v2Z"/><path class="cls-2" d="M39.2,41.9a3,3,0,0,1-3.36,0,4.32,4.32,0,0,0-4.89,0,3,3,0,0,1-3.36,0,4.31,4.31,0,0,0-4.88,0,3,3,0,0,1-3.37,0,4.42,4.42,0,0,0-4.88,0,3,3,0,0,1-3.36,0A.68.68,0,1,0,10.34,43h0a4.34,4.34,0,0,0,4.88,0,3,3,0,0,1,3.36,0,4.36,4.36,0,0,0,4.89,0,3,3,0,0,1,3.36,0,4.34,4.34,0,0,0,4.88,0,3,3,0,0,1,3.36,0A4.32,4.32,0,0,0,40,43a.69.69,0,0,0,.18-1,.68.68,0,0,0-.94-.18Z"/><path class="cls-2" d="M24.74,37.51a4.33,4.33,0,0,0-2,.73,3,3,0,0,1-3.36,0,4.43,4.43,0,0,0-4.89,0,3,3,0,0,1-3.36,0,.69.69,0,0,0-1,.19.68.68,0,0,0,.2,1,4.31,4.31,0,0,0,4.88,0,3,3,0,0,1,3.38,0,4.32,4.32,0,0,0,4.89,0,3,3,0,0,1,1.27-.49Z"/><path class="cls-2" d="M39.2,38.24a3,3,0,0,1-2.69.34V40a4.06,4.06,0,0,0,1,.13A4.37,4.37,0,0,0,40,39.37a.68.68,0,0,0-.76-1.13Z"/><path class="cls-2" d="M24.74,33.85a4.33,4.33,0,0,0-2,.73,3,3,0,0,1-3.36,0,4.4,4.4,0,0,0-4.89,0,3,3,0,0,1-3.36,0,.68.68,0,1,0-.76,1.13,4.34,4.34,0,0,0,4.88,0,3,3,0,0,1,3.36,0,4.36,4.36,0,0,0,4.89,0,2.92,2.92,0,0,1,1.27-.5Z"/><path class="cls-2" d="M39.2,34.58a3,3,0,0,1-2.69.33v1.42a4.62,4.62,0,0,0,1,.13A4.37,4.37,0,0,0,40,35.71a.68.68,0,1,0-.76-1.13Z"/><rect class="cls-2" x="36.51" y="29.72" width="3.67" height="1.59"/><rect class="cls-2" x="10.06" y="29.72" width="14.67" height="1.59"/><path class="cls-2" d="M22.12,16.13a4.63,4.63,0,0,0-1.48.18,4,4,0,0,1,4.22-.26.51.51,0,0,0,.67-.3.5.5,0,0,0,0-.46v0a4.57,4.57,0,0,0-6.31-1.14,4.19,4.19,0,0,0-1.24,1.24,4.63,4.63,0,0,0-2.47-1.83h0a4.61,4.61,0,0,0-5.7,3h0a.5.5,0,0,0,.22.6l.12.06a.5.5,0,0,0,.52-.13,4,4,0,0,1,5.69,0A4.57,4.57,0,0,0,10,22.09h0a.51.51,0,0,0,.35.4h.13a.48.48,0,0,0,.53-.34,4,4,0,0,1,2.79-2.76l0,0a3.58,3.58,0,0,0,.86,4.92h0a.27.27,0,0,0,.14.07.44.44,0,0,0,.43-.09.49.49,0,0,0,.11-.57,3,3,0,0,1,.23-3.16,3,3,0,0,1,1.14-1h0a18.06,18.06,0,0,1-.23,5.24,7.35,7.35,0,0,1-1.67,3.85h2.81a21.25,21.25,0,0,0,.92-3.23,17.38,17.38,0,0,0,.19-5.62h.12a3,3,0,0,1,1.57,4,2.2,2.2,0,0,1-.15.31.47.47,0,0,0,.08.57.52.52,0,0,0,.19.11.46.46,0,0,0,.38-.06h0A3.57,3.57,0,0,0,22,19.86a3.48,3.48,0,0,0-1-1.06,3.58,3.58,0,0,1,1-.08,4,4,0,0,1,3.55,2.37.53.53,0,0,0,.7.22.52.52,0,0,0,.29-.42h0a4.59,4.59,0,0,0-4.35-4.75Z"/></svg>