<svg id="Layer_1" data-name="Layer 1" xmlns="http://www.w3.org/2000/svg" xmlns:xlink="http://www.w3.org/1999/xlink" viewBox="0 0 50 50"><defs><style>.cls-1{fill:url(#linear-gradient);}.cls-2,.cls-3{fill:#fff;}.cls-2{fill-rule:evenodd;}</style><linearGradient id="linear-gradient" x1="0.08" y1="25" x2="49.92" y2="25" gradientUnits="userSpaceOnUse"><stop offset="0" stop-color="#ff8b22"/><stop offset="1" stop-color="#ffb719"/></linearGradient></defs><path class="cls-1" d="M47.09,16.42,30.76,2.1a8.53,8.53,0,0,0-11.21,0L3.08,16.42a8.62,8.62,0,0,0-3,6.42V41.27A8.87,8.87,0,0,0,8.8,50H41.57a8.57,8.57,0,0,0,8.35-8.73V22.84A8.46,8.46,0,0,0,47.09,16.42Z"/><polygon class="cls-2" points="9.98 14.38 21.28 14.38 29.08 27.86 17.72 27.86 9.98 14.38"/><polygon class="cls-2" points="30.22 29.87 23.62 38.36 26.55 43.17 38.31 43.17 30.22 29.87"/><path class="cls-3" d="M27.16,30.87l-8.87,11.3H8.68l8.87-11.3h9.61m2.06-1H17.06L6.62,43.17H18.78l10.44-13.3Z"/><path class="cls-3" d="M39.3,15.38l-8.78,11-4-7,3.2-4.06h9.6m2.08-1H29.22l-3.93,5,4.79,8.28h.75L41.38,14.38Z"/></svg>