<svg id="Layer_1" data-name="Layer 1" xmlns="http://www.w3.org/2000/svg" xmlns:xlink="http://www.w3.org/1999/xlink" viewBox="0 0 50 50"><defs><style>.cls-1{fill:url(#linear-gradient);}.cls-2{fill:#fff;}</style><linearGradient id="linear-gradient" x1="0.08" y1="25" x2="49.92" y2="25" gradientUnits="userSpaceOnUse"><stop offset="0" stop-color="#00d38d"/><stop offset="1" stop-color="#82ea5b"/></linearGradient></defs><path class="cls-1" d="M47.09,16.42,30.76,2.1a8.53,8.53,0,0,0-11.21,0L3.08,16.42a8.62,8.62,0,0,0-3,6.42V41.27A8.87,8.87,0,0,0,8.8,50H41.57a8.57,8.57,0,0,0,8.35-8.73V22.84A8.46,8.46,0,0,0,47.09,16.42Z"/><path class="cls-2" d="M39.89,18.33H38.83V15.14a.54.54,0,0,0-.54-.54H11.71a.54.54,0,0,0-.54.54v.53H9.58a.53.53,0,0,0-.53.53v5.32a.53.53,0,0,0,.53.53h1.59v.53a.54.54,0,0,0,.54.53h2.65v2.66a1.6,1.6,0,1,0,3.2,0V24.71a.52.52,0,0,1,.53-.53.53.53,0,0,1,.53.53,1.6,1.6,0,0,0,3.19,0v-1.6h1.06v1.07a1.6,1.6,0,0,0,3.19,0V23.11H38.29a.54.54,0,0,0,.54-.53V19.39h1.06v4.88l-14.57,3a1.07,1.07,0,0,0-.85,1V30H21.81a.53.53,0,0,0-.53.53v1.06a.53.53,0,0,0,.09.3l1,1.46V46a.53.53,0,0,0,.53.53h4.26a.53.53,0,0,0,.53-.53V33.38l1-1.47a.48.48,0,0,0,.09-.29V30.56a.53.53,0,0,0-.53-.53H25.53v-1.7l14.58-3A1.07,1.07,0,0,0,41,24.27V19.39A1.05,1.05,0,0,0,39.89,18.33ZM11.17,21H10.11V16.73h1.06Zm3.19,1.06H12.24V15.67h2.12Zm8.51,0H21.81v-.53a.53.53,0,0,1,1.06,0ZM25,24.18a.53.53,0,0,1-.53.53.53.53,0,0,1-.53-.53V21.52a1.6,1.6,0,1,0-3.19,0v3.19a.54.54,0,0,1-1.07,0,1.6,1.6,0,1,0-3.19,0v1.06a.53.53,0,0,1-1.06,0V15.67H25Zm12.76-2.13H26.06V15.67h11.7Zm-10.1,9v.37l-1,1.46a.61.61,0,0,0-.08.3V45.45H23.4V33.22a.61.61,0,0,0-.08-.3l-1-1.46v-.37Z"/><rect class="cls-2" x="24.47" y="43.32" width="1.06" height="1.06"/><rect class="cls-2" x="16.49" y="16.73" width="1.06" height="1.06"/><rect class="cls-2" x="16.49" y="18.86" width="1.06" height="3.19"/><rect class="cls-2" x="27.13" y="16.73" width="9.57" height="1.06"/></svg>