<svg id="Layer_1" data-name="Layer 1" xmlns="http://www.w3.org/2000/svg" xmlns:xlink="http://www.w3.org/1999/xlink" viewBox="0 0 50 50"><defs><style>.cls-1{fill:url(#linear-gradient);}.cls-2{fill:#fff;}</style><linearGradient id="linear-gradient" x1="0.08" y1="25" x2="49.92" y2="25" gradientUnits="userSpaceOnUse"><stop offset="0" stop-color="#793f98"/><stop offset="1" stop-color="#ac41d8"/></linearGradient></defs><path class="cls-1" d="M47.09,16.42,30.76,2.1a8.53,8.53,0,0,0-11.21,0L3.08,16.42a8.62,8.62,0,0,0-3,6.42V41.27A8.87,8.87,0,0,0,8.8,50H41.57a8.57,8.57,0,0,0,8.35-8.73V22.84A8.46,8.46,0,0,0,47.09,16.42Z"/><path class="cls-2" d="M13.87,15A4.16,4.16,0,1,0,18,10.8h0A4.17,4.17,0,0,0,13.87,15Zm6.56,0A2.4,2.4,0,1,1,18,12.57,2.39,2.39,0,0,1,20.43,15ZM11,24.25l.85,6.39a3.35,3.35,0,0,0,1.68,2.55l1.37,10a2,2,0,0,0,2,1.79H19.2a2,2,0,0,0,2-1.76l1.37-10.05a3.35,3.35,0,0,0,1.69-2.53l.85-6.43A3.82,3.82,0,0,0,21.74,20l-.42,0H20.24a1,1,0,0,0-.8.38L18,22.15l-1.41-1.77a1,1,0,0,0-.81-.39H14.75a3.82,3.82,0,0,0-3.82,3.8A3.55,3.55,0,0,0,11,24.25Zm2.25-1.81a2.07,2.07,0,0,1,1.54-.69h.71l1.57,2a.91.91,0,0,0,.71.33h.61a.9.9,0,0,0,.7-.33l1.57-2h.71a2.06,2.06,0,0,1,2,2.06,1.48,1.48,0,0,1,0,.21l-.85,6.42a1.61,1.61,0,0,1-1.06,1.34.89.89,0,0,0-.57.71L19.45,43a.25.25,0,0,1-.25.23H16.87a.26.26,0,0,1-.26-.25l-1.44-10.5a.86.86,0,0,0-.56-.71,1.59,1.59,0,0,1-1.06-1.35L12.71,24A2,2,0,0,1,13.21,22.44ZM24.08,40.11a.87.87,0,0,1,1.22-.25h0a10.42,10.42,0,1,0,2.82-18.68.88.88,0,1,1-.5-1.69h0a12.19,12.19,0,1,1-3.3,21.85.87.87,0,0,1-.25-1.22Zm7.87-15v.71a3.48,3.48,0,0,1,2.34,2,.88.88,0,1,1-1.6.73s0,0,0-.05a1.75,1.75,0,0,0-1.6-1.06A1.57,1.57,0,0,0,29.34,29c0,.27,0,1.1,1.92,1.54h0c2.85.68,3.27,2.35,3.27,3.27A3.23,3.23,0,0,1,32,36.93v.71a.89.89,0,0,1-1.77,0v-.71a3.48,3.48,0,0,1-2.34-2,.88.88,0,1,1,1.6-.73l0,0a1.74,1.74,0,0,0,1.6,1.06,1.57,1.57,0,0,0,1.73-1.52c0-.27,0-1.09-1.93-1.54h0C28,31.58,27.57,29.92,27.57,29a3.23,3.23,0,0,1,2.61-3.17v-.74a.89.89,0,0,1,1.77,0Z"/></svg>