<svg id="Layer_1" data-name="Layer 1" xmlns="http://www.w3.org/2000/svg" xmlns:xlink="http://www.w3.org/1999/xlink" viewBox="0 0 50 50"><defs><style>.cls-1{fill:url(#linear-gradient);}.cls-2{fill:#fff;}</style><linearGradient id="linear-gradient" x1="0.08" y1="25" x2="49.92" y2="25" gradientUnits="userSpaceOnUse"><stop offset="0" stop-color="#ff8b22"/><stop offset="1" stop-color="#ffb719"/></linearGradient></defs><path class="cls-1" d="M47.09,16.42,30.76,2.1a8.53,8.53,0,0,0-11.21,0L3.08,16.42a8.62,8.62,0,0,0-3,6.42V41.27A8.87,8.87,0,0,0,8.8,50H41.57a8.57,8.57,0,0,0,8.35-8.73V22.84A8.46,8.46,0,0,0,47.09,16.42Z"/><path class="cls-2" d="M36.55,44H13.42a.78.78,0,0,1-.77-.77v-20a.77.77,0,0,1,.77-.77H36.55a.77.77,0,0,1,.77.77v20A.78.78,0,0,1,36.55,44ZM14.19,42.46H35.78V24H14.19Z"/><path class="cls-2" d="M42.74,24H7.26a.79.79,0,0,1-.73-.5.78.78,0,0,1,.22-.85L24.48,7.19a.77.77,0,0,1,1,0L43.1,22.51a.74.74,0,0,1,.41.68A.77.77,0,0,1,42.74,24ZM9.32,22.42H40.65L25,8.79Z"/><path class="cls-2" d="M22.67,36.29H18.05a.76.76,0,0,1-.77-.77V27.81a.77.77,0,0,1,.77-.77h4.62a.77.77,0,0,1,.77.77v7.71A.76.76,0,0,1,22.67,36.29Zm-3.85-1.54H21.9V28.58H18.82Z"/><path class="cls-2" d="M33.46,44H27.3a.77.77,0,0,1-.77-.77V30.9a.76.76,0,0,1,.77-.77h6.16a.76.76,0,0,1,.77.77V43.23A.77.77,0,0,1,33.46,44Zm-5.39-1.54h4.62V31.67H28.07Z"/></svg>