<svg id="Layer_1" data-name="Layer 1" xmlns="http://www.w3.org/2000/svg" xmlns:xlink="http://www.w3.org/1999/xlink" viewBox="0 0 50 50"><defs><style>.cls-1{fill:url(#linear-gradient);}.cls-2{fill:#fff;}</style><linearGradient id="linear-gradient" x1="0.08" y1="25" x2="49.92" y2="25" gradientUnits="userSpaceOnUse"><stop offset="0" stop-color="#793f98"/><stop offset="1" stop-color="#ac41d8"/></linearGradient></defs><path class="cls-1" d="M47.09,16.42,30.76,2.1a8.53,8.53,0,0,0-11.21,0L3.08,16.42a8.62,8.62,0,0,0-3,6.42V41.27A8.87,8.87,0,0,0,8.8,50H41.57a8.57,8.57,0,0,0,8.35-8.73V22.84A8.46,8.46,0,0,0,47.09,16.42Z"/><path class="cls-2" d="M37.71,30.7,41,34l-.8.79-3.29-3.29.14-.13.66-.66M34.38,34l3.29,3.29-1,1-6.33,6.32H27.1V41.3l4.23-4.22L34.38,34m3.32-4.77a.58.58,0,0,0-.41.17l-2.08,2.07,5,5,2.08-2.07a.6.6,0,0,0,0-.84l-4.16-4.15a.58.58,0,0,0-.41-.17Zm-3.32,3.07-8.31,8.31a.63.63,0,0,0-.17.42v4.16a.6.6,0,0,0,.59.58h4.16a.58.58,0,0,0,.41-.17l8.31-8.31-5-5Z"/><path class="cls-2" d="M24.83,13.67,38,26.87H33.46v3l-4.64,4.64V31.08h-8v8.13H16.2V26.87H11.62l6.3-6.29q3.45-3.46,6.91-6.91m0-1.46h0a.54.54,0,0,0-.4.17c-4.9,4.87-9.8,9.82-14.69,14.69a.58.58,0,0,0,.41,1H15V39.82a.59.59,0,0,0,.58.59h5.88a.59.59,0,0,0,.58-.59V32.28h5.58v5.15l7-7V28.07h4.85a.59.59,0,0,0,.42-1L25.24,12.38a.59.59,0,0,0-.42-.17Z"/></svg>