<svg id="Layer_1" data-name="Layer 1" xmlns="http://www.w3.org/2000/svg" xmlns:xlink="http://www.w3.org/1999/xlink" viewBox="0 0 50 50"><defs><style>.cls-1{fill:url(#linear-gradient);}.cls-2{fill:#fff;}</style><linearGradient id="linear-gradient" x1="0.08" y1="25" x2="49.92" y2="25" gradientUnits="userSpaceOnUse"><stop offset="0" stop-color="#00d38d"/><stop offset="1" stop-color="#82ea5b"/></linearGradient></defs><path class="cls-1" d="M47.09,16.42,30.76,2.1a8.53,8.53,0,0,0-11.21,0L3.08,16.42a8.62,8.62,0,0,0-3,6.42V41.27A8.87,8.87,0,0,0,8.8,50H41.57a8.57,8.57,0,0,0,8.35-8.73V22.84A8.46,8.46,0,0,0,47.09,16.42Z"/><path class="cls-2" d="M36.12,37.28A3.83,3.83,0,1,0,40,41.11,3.83,3.83,0,0,0,36.12,37.28Zm0,6.27a2.44,2.44,0,1,1,2.44-2.44A2.44,2.44,0,0,1,36.12,43.55Z"/><path class="cls-2" d="M43.08,41.46a2.09,2.09,0,1,0,2.09,2.09A2.1,2.1,0,0,0,43.08,41.46Zm0,2.78a.7.7,0,1,1,.7-.69A.7.7,0,0,1,43.08,44.24Z"/><path class="cls-2" d="M18.89,39.37A8.17,8.17,0,0,1,12,35.63a5.24,5.24,0,0,1-1.66.26A5.57,5.57,0,0,1,8.55,25.06a6.61,6.61,0,0,1,9.74-8.6,7,7,0,0,1,12.63-1.55,6.46,6.46,0,0,1,2.74-.59,6.62,6.62,0,0,1,6.64,6.59v0a6.56,6.56,0,0,1-.92,3.34A6.46,6.46,0,0,1,41,28.58a6.63,6.63,0,0,1-6.61,6.62h-.31A6.25,6.25,0,0,1,25.68,38a6.09,6.09,0,0,1-1.25-.81A8.18,8.18,0,0,1,18.89,39.37Zm-6.56-5.28a.69.69,0,0,1,.6.36,6.77,6.77,0,0,0,9.2,2.7,6.49,6.49,0,0,0,1.77-1.39.71.71,0,0,1,.51-.23.79.79,0,0,1,.51.22,4.87,4.87,0,0,0,6.89.2A4.79,4.79,0,0,0,33,34.19a.7.7,0,0,1,.73-.43,4.87,4.87,0,0,0,.66,0A5.21,5.21,0,0,0,38,24.85a.7.7,0,0,1-.08-.91,5.09,5.09,0,0,0,1-3A5.2,5.2,0,0,0,31,16.45a.71.71,0,0,1-1-.24l0-.06a5.57,5.57,0,0,0-10.62,1.77.69.69,0,0,1-.76.62.74.74,0,0,1-.46-.24A5.22,5.22,0,1,0,10,24.79c.07.08.14.17.22.25a.7.7,0,0,1-.07,1,.7.7,0,0,1-.37.17,4.18,4.18,0,0,0,.58,8.31A4,4,0,0,0,12,34.15.72.72,0,0,1,12.33,34.09Z"/><path class="cls-2" d="M23.45,18.27a.32.32,0,0,0-.21.08c-2.46,2.45-4.92,4.94-7.39,7.39a.29.29,0,0,0,.21.5H18.5v5.91a.31.31,0,0,0,.3.3h2.95a.29.29,0,0,0,.3-.3V28.36h2.8v3.77a.32.32,0,0,0,.32.32H28a.41.41,0,0,0,.41-.41v-5.8h2.45a.29.29,0,0,0,.2-.5l-7.38-7.39a.32.32,0,0,0-.21-.08Z"/></svg>