<?xml version="1.0" encoding="utf-8"?>
<!-- Generator: Adobe Illustrator 25.3.1, SVG Export Plug-In . SVG Version: 6.00 Build 0)  -->
<svg version="1.1" id="Camada_1" xmlns="http://www.w3.org/2000/svg" xmlns:xlink="http://www.w3.org/1999/xlink" x="0px" y="0px"
	 viewBox="0 0 250 250" style="enable-background:new 0 0 250 250;" xml:space="preserve">
<style type="text/css">
	.st0{fill:#FF8B22;}
</style>
<path class="st0" d="M42.3,78.1h31.4c1.7,0,3-1.3,3-2.9V44.5c0-1.6-1.4-2.9-3-2.9c-1.7,0-3,1.3-3,2.9v27.7H42.3c-1.7,0-3,1.3-3,2.9
	C39.2,76.7,40.6,78.1,42.3,78.1z"/>
<path class="st0" d="M176.3,78.1h31.4c1.7,0,3-1.3,3-2.9s-1.4-2.9-3-2.9h-28.4V44.5c0-1.6-1.4-2.9-3-2.9c-1.7,0-3,1.3-3,2.9v30.6
	C173.3,76.7,174.6,78.1,176.3,78.1z"/>
<path class="st0" d="M207.7,172.2h-31.4c-1.7,0-3,1.3-3,2.9v30.6c0,1.6,1.4,2.9,3,2.9c1.7,0,3-1.3,3-2.9V178h28.4c1.7,0,3-1.3,3-2.9
	C210.8,173.5,209.4,172.2,207.7,172.2z"/>
<path class="st0" d="M73.7,172.2H42.3c-1.7,0-3,1.3-3,2.9c0,1.6,1.4,2.9,3,2.9h28.4v27.7c0,1.6,1.4,2.9,3,2.9c1.7,0,3-1.3,3-2.9
	v-30.6C76.7,173.5,75.4,172.2,73.7,172.2z"/>
<path class="st0" d="M88.9,41.5c-1.7,0-3,1.3-3,2.9V87H42.3c-1.7,0-3,1.3-3,2.9s1.4,2.9,3,2.9h46.6c1.7,0,3-1.3,3-2.9V44.5
	C91.9,42.9,90.5,41.5,88.9,41.5z"/>
<path class="st0" d="M207.7,87h-43.6V44.5c0-1.6-1.4-2.9-3-2.9c-1.7,0-3,1.3-3,2.9v45.4c0,1.6,1.4,2.9,3,2.9h46.6c1.7,0,3-1.3,3-2.9
	C210.8,88.3,209.4,87,207.7,87z"/>
<path class="st0" d="M207.7,157.4h-46.6c-1.7,0-3,1.3-3,2.9v45.4c0,1.6,1.4,2.9,3,2.9c1.7,0,3-1.3,3-2.9v-42.5h43.6
	c1.7,0,3-1.3,3-2.9C210.8,158.7,209.4,157.4,207.7,157.4z"/>
<path class="st0" d="M88.9,157.4H42.3c-1.7,0-3,1.3-3,2.9c0,1.6,1.4,2.9,3,2.9h43.6v42.5c0,1.6,1.4,2.9,3,2.9c1.7,0,3-1.3,3-2.9
	v-45.4C91.9,158.7,90.5,157.4,88.9,157.4z"/>
<path class="st0" d="M125,145.3c-11,0-19.9-8.7-19.9-19.4s8.9-19.4,19.9-19.4s19.9,8.7,19.9,19.4S136,145.3,125,145.3z M125,100.7
	c-14.3,0-25.9,11.3-25.9,25.3c0,13.9,11.6,25.3,25.9,25.3s25.9-11.3,25.9-25.3S139.3,100.7,125,100.7z"/>
<path class="st0" d="M125,54.5c1.7,0,3-1.3,3-2.9v-7.1c0-1.6-1.4-2.9-3-2.9c-1.7,0-3,1.3-3,2.9v7.1C122,53.2,123.3,54.5,125,54.5z"
	/>
<path class="st0" d="M125,74.1c1.7,0,3-1.3,3-2.9v-9.8c0-1.6-1.4-2.9-3-2.9c-1.7,0-3,1.3-3,2.9v9.8C122,72.7,123.3,74.1,125,74.1z"
	/>
<path class="st0" d="M125,90.9c1.7,0,3-1.3,3-2.9v-7.1c0-1.6-1.4-2.9-3-2.9c-1.7,0-3,1.3-3,2.9V88C122,89.6,123.3,90.9,125,90.9z"/>
<path class="st0" d="M207.7,122.2h-7.2c-1.7,0-3,1.3-3,2.9s1.4,2.9,3,2.9h7.2c1.7,0,3-1.3,3-2.9
	C210.8,123.5,209.4,122.2,207.7,122.2z"/>
<path class="st0" d="M190.5,128.1c1.7,0,3-1.3,3-2.9s-1.4-2.9-3-2.9h-10c-1.7,0-3,1.3-3,2.9s1.4,2.9,3,2.9H190.5z"/>
<path class="st0" d="M170.4,128.1c1.7,0,3-1.3,3-2.9s-1.4-2.9-3-2.9h-7.2c-1.7,0-3,1.3-3,2.9s1.4,2.9,3,2.9H170.4z"/>
<path class="st0" d="M125,195.8c-1.7,0-3,1.3-3,2.9v7.1c0,1.6,1.4,2.9,3,2.9c1.7,0,3-1.3,3-2.9v-7.1
	C128,197.1,126.7,195.8,125,195.8z"/>
<path class="st0" d="M125,176.2c-1.7,0-3,1.3-3,2.9v9.8c0,1.6,1.4,2.9,3,2.9c1.7,0,3-1.3,3-2.9v-9.8
	C128,177.5,126.7,176.2,125,176.2z"/>
<path class="st0" d="M125,159.4c-1.7,0-3,1.3-3,2.9v7.1c0,1.6,1.4,2.9,3,2.9c1.7,0,3-1.3,3-2.9v-7.1
	C128,160.7,126.7,159.4,125,159.4z"/>
<path class="st0" d="M42.3,128.1h7.2c1.7,0,3-1.3,3-2.9s-1.4-2.9-3-2.9h-7.2c-1.7,0-3,1.3-3,2.9C39.2,126.8,40.6,128.1,42.3,128.1z"
	/>
<path class="st0" d="M69.6,128.1c1.7,0,3-1.3,3-2.9s-1.4-2.9-3-2.9h-10c-1.7,0-3,1.3-3,2.9s1.4,2.9,3,2.9H69.6z"/>
<path class="st0" d="M86.9,128.1c1.7,0,3-1.3,3-2.9s-1.4-2.9-3-2.9h-7.2c-1.7,0-3,1.3-3,2.9s1.4,2.9,3,2.9H86.9z"/>
</svg>
