<?xml version="1.0" encoding="utf-8"?>
<!-- Generator: Adobe Illustrator 25.3.1, SVG Export Plug-In . SVG Version: 6.00 Build 0)  -->
<svg version="1.1" id="Camada_1" xmlns="http://www.w3.org/2000/svg" xmlns:xlink="http://www.w3.org/1999/xlink" x="0px" y="0px"
	 viewBox="0 0 250 250" style="enable-background:new 0 0 250 250;" xml:space="preserve">
<style type="text/css">
	.st0{fill:#8A3D9C;}
</style>
<path class="st0" d="M208.3,76.5h-3.5V51.4c0-4.8-3.9-8.6-8.6-8.6h-15.7c-4.8,0-8.6,3.9-8.6,8.6v27.3h-7.9
	c-0.7-5.6-5.5-9.9-11.2-9.9c-2,0-3.9,0.5-5.6,1.5c-1.9-3.8-5.8-6.2-10.1-6.2c-2.1,0-4.2,0.6-6,1.7c-2-3.5-5.7-5.6-9.8-5.6
	c-2.4,0-4.7,0.8-6.6,2.1c-2.1-2.9-5.5-4.6-9.1-4.6c-6.2,0-11.3,5.1-11.3,11.3v9.6H78.2V51.4c0-4.8-3.9-8.6-8.6-8.6H53.9
	c-4.8,0-8.6,3.9-8.6,8.6v25.1h-3.6c-4.8,0-8.7,3.9-8.7,8.7v10c0,4.8,3.9,8.7,8.7,8.7h3.6V129c0,4.8,3.9,8.6,8.6,8.6h15.7
	c4.8,0,8.6-3.9,8.6-8.6v-27.4h2.3c-0.1,4.6,2,8.3,3.6,11c1.4,2.4,2.5,4.4,2.5,6.6c0,7.8,0,18.4,9.4,25l-5,59
	c-0.1,0.9,0.2,1.8,0.8,2.5c0.6,0.7,1.4,1.1,2.3,1.2c0.9,0.1,1.8-0.2,2.5-0.8c0.7-0.6,1.1-1.4,1.2-2.4l5.2-61.1
	c0.1-1.3-0.6-2.6-1.7-3.3c-7.3-4.2-7.8-11.3-7.8-20.3c0-4-1.9-7.2-3.5-10.1c-1.6-2.7-2.8-4.9-2.7-7.6c6.1-0.4,13.8-2.7,13.8-16.3
	V69.1c0-2.4,2-4.4,4.4-4.4s4.4,2,4.4,4.4v11.4c0,1.9,1.5,3.5,3.5,3.5s3.5-1.5,3.5-3.5v-8.9c0-2.4,2-4.4,4.4-4.4c2.4,0,4.4,2,4.4,4.4
	v12.8c0,1.9,1.5,3.5,3.5,3.5s3.5-1.5,3.5-3.5v-8.9c0-2.4,2-4.4,4.4-4.4c2.4,0,4.4,2,4.4,4.4v12.6c0,1.9,1.5,3.5,3.5,3.5
	s3.5-1.5,3.5-3.5v-8c0-2.4,2-4.4,4.4-4.4c2.4,0,4.4,2,4.4,4.4v24c0,13.6-5.2,26.3-14.6,35.9c-0.7,0.7-1.1,1.7-1,2.7l5.2,62.1
	c0.1,1.8,1.7,3.2,3.4,3.2c0.1,0,0.2,0,0.3,0c0.9-0.1,1.8-0.5,2.3-1.2c0.6-0.7,0.9-1.6,0.8-2.5l-5.1-60.6
	c10-10.7,15.5-24.8,15.5-39.6v-2.5h7.8V129c0,4.8,3.9,8.6,8.6,8.6h15.7c4.8,0,8.6-3.9,8.6-8.6v-25.1h3.5c4.8,0,8.7-3.9,8.7-8.7v-10
	C217,80.4,213.1,76.5,208.3,76.5z M210.1,85.2v10c0,1-0.8,1.8-1.8,1.8h-3.5V83.4h3.5C209.3,83.4,210.1,84.2,210.1,85.2z M178.7,51.4
	c0-0.9,0.8-1.7,1.7-1.7h15.7c0.9,0,1.7,0.8,1.7,1.7V129c0,0.9-0.8,1.7-1.7,1.7h-15.7c-0.9,0-1.7-0.8-1.7-1.7V51.4z M171.8,85.7v9
	h-7.8v-9H171.8z M94.3,85.7c-0.1,7.7-2.7,9-9.8,9h-6.3v-9H94.3z M52.1,51.4c0-0.9,0.8-1.7,1.7-1.7h15.7c0.9,0,1.7,0.8,1.7,1.7V129
	c0,0.9-0.8,1.7-1.7,1.7H53.9c-0.9,0-1.7-0.8-1.7-1.7V51.4z M45.2,83.4V97h-3.6c-1,0-1.8-0.8-1.8-1.8v-10c0-1,0.8-1.8,1.8-1.8H45.2z"
	/>
</svg>
