<?xml version="1.0" encoding="utf-8"?>
<!-- Generator: Adobe Illustrator 25.3.1, SVG Export Plug-In . SVG Version: 6.00 Build 0)  -->
<svg version="1.1" id="Camada_1" xmlns="http://www.w3.org/2000/svg" xmlns:xlink="http://www.w3.org/1999/xlink" x="0px" y="0px"
	 viewBox="0 0 250 250" style="enable-background:new 0 0 250 250;" xml:space="preserve">
<style type="text/css">
	.st0{fill:#8A3D9C;stroke:#844192;stroke-width:2;stroke-miterlimit:10;}
</style>
<path class="st0" d="M87.2,37.7C59.8,39.7,58.6,64,58.2,72l0,0.6c-0.3,6.2,2.1,41.7,3.2,56.7c0.3,4.5,4.1,8,8.5,8.1
	c0.4,0,0.9,0,1.3,0c11,0,21.4-1.5,30.8-4.3c5.8-1.8,9.9-7.1,10.2-13.2l2.1-49.5c0-0.7,0.5-17.4-9.1-26.7
	C100.6,39.1,94.6,37.2,87.2,37.7z M110.6,70.2l-2.1,49.5c-0.2,4.6-3.2,8.5-7.5,9.8c-9.6,2.9-19.8,4.2-31.1,4.2
	c-2.6,0-4.7-2.1-4.9-4.6c-1.1-14.9-3.5-50.3-3.2-56.3l0-0.6c0.6-13.5,4.1-29.2,25.5-30.8c6.3-0.5,11.4,1.2,15.2,4.8
	C111.1,54.4,110.6,70,110.6,70.2z"/>
<path class="st0" d="M91.9,140.2c-7.7-0.2-23.5,0.9-28.3,6.7c-6.2,7.5,0.3,27.6,1.1,30.1c0.4,1.4,4.3,13.9,21.5,13.9
	c18.9,0,21.1-15.1,21.2-15.3c0.4-4.4,2.4-26.5-1.3-31.6C104,141.1,97.2,140.3,91.9,140.2z M103.8,175.1c-0.1,0.5-1.9,12.1-17.5,12.1
	c-15.1,0-17.8-10.7-17.9-11.1c0-0.1,0-0.1-0.1-0.2c-1.9-5.7-6-21.5-1.8-26.6c2.5-3.1,12.8-5.4,23.3-5.4c0.7,0,1.3,0,2,0
	c7.3,0.2,10.8,1.5,11.4,2.3C105.3,149,104.8,164.9,103.8,175.1z"/>
<path class="st0" d="M144.8,65.1c-9.6,9.3-9.1,26-9.1,26.7l2.1,49.5c0.3,6.1,4.3,11.5,10.2,13.2c9.4,2.9,19.8,4.3,30.8,4.3
	c0.4,0,0.9,0,1.3,0c4.5,0,8.2-3.6,8.5-8.1c1.1-15,3.5-50.5,3.2-56.7l0-0.6c-0.4-8-1.6-32.3-28.9-34.3
	C155.4,58.7,149.4,60.7,144.8,65.1z M147.4,67.7c3.8-3.7,8.9-5.3,15.2-4.8c21.4,1.5,24.8,17.3,25.5,30.8l0,0.6
	c0.3,6-2.1,41.3-3.2,56.3c-0.2,2.6-2.3,4.6-4.9,4.6c-11.3,0.1-21.5-1.2-31.1-4.2c-4.3-1.3-7.3-5.3-7.5-9.8l-2.1-49.5
	C139.4,91.5,138.9,75.9,147.4,67.7z"/>
<path class="st0" d="M143.9,165.4c-3.8,5.1-1.8,27.2-1.3,31.6c0,0.2,2.3,15.3,21.2,15.3c17.2,0,21.1-12.5,21.5-13.9
	c0.9-2.5,7.4-22.6,1.1-30.1c-4.8-5.8-20.6-6.9-28.3-6.7C152.8,161.8,146,162.6,143.9,165.4z M146.9,167.7c0.6-0.8,4.1-2.1,11.4-2.3
	c0.7,0,1.3,0,2,0c10.6,0,20.8,2.3,23.3,5.4c4.2,5.1,0.1,20.9-1.8,26.6c0,0.1,0,0.1-0.1,0.2c-0.1,0.4-2.8,11.1-17.9,11.1
	c-15.6,0-17.4-11.6-17.5-12.1C145.2,186.4,144.7,170.6,146.9,167.7z"/>
</svg>
