<?xml version="1.0" encoding="utf-8"?>
<!-- Generator: Adobe Illustrator 25.3.1, SVG Export Plug-In . SVG Version: 6.00 Build 0)  -->
<svg version="1.1" id="Camada_1" xmlns="http://www.w3.org/2000/svg" xmlns:xlink="http://www.w3.org/1999/xlink" x="0px" y="0px"
	 viewBox="0 0 250 250" style="enable-background:new 0 0 250 250;" xml:space="preserve">
<style type="text/css">
	.st0{fill:#8A3D9C;}
</style>
<path class="st0" d="M177.4,99.7c0.8-3.4,1.2-6.9,1.2-10.4c0-26.5-24.1-48.1-53.7-48.1c-29.6,0-53.7,21.6-53.7,48.1
	c0,3.5,0.4,6.9,1.2,10.4c-10.3,6.9-16.3,17.7-16.3,29.4c0,20.3,18.4,36.7,40.9,36.7h26.3v39.6c0,1.8,1.5,3.4,3.4,3.4
	c1.8,0,3.4-1.5,3.4-3.4v-39.6h22.7c22.6,0,40.9-16.5,40.9-36.7C193.8,117.4,187.7,106.6,177.4,99.7z M152.9,159.1h-22.7v-44.2
	l19.7-18.2c1.4-1.3,1.4-3.4,0.2-4.7c-1.3-1.4-3.4-1.4-4.7-0.2l-15.1,14V81.1c0-1.8-1.5-3.3-3.4-3.3c-1.8,0-3.4,1.5-3.4,3.3v47.1
	l-15.1-14c-1.4-1.3-3.5-1.2-4.7,0.2c-1.3,1.4-1.2,3.5,0.2,4.7l19.7,18.2v21.8H97.2c-18.9,0-34.2-13.5-34.2-30
	c0-10.1,5.7-19.4,15.2-25c1.3-0.8,1.9-2.4,1.5-3.9C78.6,96.7,78,93,78,89.4C78,66.5,99.1,48,125,48c25.9,0,47,18.6,47,41.4
	c0,3.7-0.5,7.3-1.6,10.9c-0.5,1.5,0.2,3.1,1.5,3.9c9.5,5.6,15.2,14.9,15.2,25C187.1,145.6,171.7,159.1,152.9,159.1z"/>
</svg>
