<?xml version="1.0" encoding="utf-8"?>
<!-- Generator: Adobe Illustrator 25.3.1, SVG Export Plug-In . SVG Version: 6.00 Build 0)  -->
<svg version="1.1" id="Camada_1" xmlns="http://www.w3.org/2000/svg" xmlns:xlink="http://www.w3.org/1999/xlink" x="0px" y="0px"
	 viewBox="0 0 250 250" style="enable-background:new 0 0 250 250;" xml:space="preserve">
<style type="text/css">
	.st0{fill:#8A3D9C;}
</style>
<path class="st0" d="M206.4,203.8h-19.7v-23.9c22.8-3.7,22.5-23.9,22.4-26.2c0.3-10.5-1.7-21.7-5.8-33.3l-0.5-1.6
	c-2.8-8-8-23-18.6-23c-0.1,0-0.1,0-0.1,0c-10.5,0-15.8,15-18.6,23l-0.5,1.6c-4.1,11.6-6.1,22.6-5.8,33.3
	c-0.1,2.2-0.5,22.5,22.4,26.2v23.9h-33v-10.5h5.3c2.9,0,5.3-2.4,5.3-5.3v-7.9c0-2.9-2.4-5.3-5.3-5.3h-5.3v-23.7
	c0-4.3-3.6-7.9-7.9-7.9H59c-4.3,0-7.9,3.6-7.9,7.9v23.7h-5.3c-2.9,0-5.3,2.4-5.3,5.3v7.9c0,2.9,2.4,5.3,5.3,5.3h5.3v10.5h-7.9
	c-1.4,0-2.6,1.2-2.6,2.6c0,1.4,1.2,2.6,2.6,2.6h163.2c1.4,0,2.6-1.2,2.6-2.6C209,205,207.8,203.8,206.4,203.8z M56.4,151.2
	c0-1.4,1.2-2.6,2.6-2.6h81.6c1.4,0,2.6,1.2,2.6,2.6v2.6H56.4V151.2z M56.4,159.1h86.8v5.3H56.4V159.1z M56.4,169.6h86.8v5.3H56.4
	V169.6z M143.2,203.8H56.4v-10.5h86.8V203.8z M45.9,188v-7.9h107.9v7.9H45.9z M184,145.9c-1.4,0-2.6,1.2-2.6,2.6V162l-3.4-3.4
	c-1.1-1.1-2.6-1.1-3.7,0c-1.1,1.1-1.1,2.6,0,3.7l7.1,7.1v5.1c-18.3-3.4-17.1-19.9-17.1-20.5c0-0.1,0-0.3,0-0.3
	c-0.3-9.9,1.6-20.5,5.4-31.4l0.5-1.6c2.4-6.3,7-19.5,13.8-19.5c0,0,0,0,0.1,0c6.8,0,11.4,13.2,13.7,19.5l0.5,1.6
	c3.9,10.9,5.8,21.6,5.4,31.4c0,0.1,0,0.3,0,0.3c0,0.8,1.2,17.1-17.1,20.5v-13l7.1-7.1c1.1-1.1,1.1-2.6,0-3.7s-2.6-1.1-3.7,0
	l-3.4,3.4v-5.5C186.6,147.1,185.5,145.9,184,145.9z"/>
<path class="st0" d="M138,51.3v-8c0-1.4-1.2-2.6-2.6-2.6c-1.4,0-2.6,1.2-2.6,2.6v8c0.9,0,1.7-0.1,2.6-0.1
	C136.2,51.2,137,51.3,138,51.3z"/>
<path class="st0" d="M132.7,93.2v8c0,1.4,1.2,2.6,2.6,2.6c1.4,0,2.6-1.2,2.6-2.6v-8c-0.9,0.1-1.7,0.1-2.6,0.1
	C134.4,93.3,133.6,93.2,132.7,93.2z"/>
<path class="st0" d="M148.2,88.8l5.7,5.7c0.5,0.5,1.2,0.8,1.8,0.8c0.7,0,1.3-0.3,1.8-0.8c1.1-1.1,1.1-2.6,0-3.7l-5.7-5.7
	C150.9,86.6,149.7,87.8,148.2,88.8z"/>
<path class="st0" d="M118.7,59.4c1.1-1.4,2.4-2.6,3.7-3.7l-5.7-5.8c-1.1-1.1-2.6-1.1-3.7,0c-1.1,1.1-1.1,2.6,0,3.7L118.7,59.4z"/>
<path class="st0" d="M106.4,74.9h8c-0.1-0.9-0.1-1.7-0.1-2.6c0-0.9,0.1-1.7,0.1-2.6h-8c-1.4,0-2.6,1.2-2.6,2.6
	C103.7,73.7,104.9,74.9,106.4,74.9z"/>
<path class="st0" d="M156.4,72.3c0,0.9-0.1,1.7-0.1,2.6h8c1.4,0,2.6-1.2,2.6-2.6c0-1.4-1.2-2.6-2.6-2.6h-8
	C156.2,70.5,156.4,71.3,156.4,72.3z"/>
<path class="st0" d="M113,90.8c-1.1,1.1-1.1,2.6,0,3.7c0.5,0.5,1.2,0.8,1.8,0.8c0.7,0,1.3-0.3,1.8-0.8l5.7-5.7
	c-1.4-1.1-2.6-2.4-3.7-3.7L113,90.8z"/>
<path class="st0" d="M151.9,59.4l5.8-5.7c1.1-1.1,1.1-2.6,0-3.7s-2.6-1.1-3.7,0l-5.7,5.7C149.7,56.7,150.9,57.9,151.9,59.4z"/>
<path class="st0" d="M135.3,88c8.7,0,15.8-7.1,15.8-15.8c0-8.7-7.1-15.8-15.8-15.8s-15.8,7.1-15.8,15.8
	C119.5,80.9,126.6,88,135.3,88z M135.3,61.7c5.8,0,10.5,4.7,10.5,10.5c0,5.8-4.7,10.5-10.5,10.5c-5.8,0-10.5-4.7-10.5-10.5
	C124.8,66.5,129.5,61.7,135.3,61.7z"/>
</svg>
