<?xml version="1.0" encoding="utf-8"?>
<!-- Generator: Adobe Illustrator 25.3.1, SVG Export Plug-In . SVG Version: 6.00 Build 0)  -->
<svg version="1.1" id="Camada_1" xmlns="http://www.w3.org/2000/svg" xmlns:xlink="http://www.w3.org/1999/xlink" x="0px" y="0px"
	 viewBox="0 0 250 250" style="enable-background:new 0 0 250 250;" xml:space="preserve">
<style type="text/css">
	.st0{fill:#8A3D9C;stroke:#844192;stroke-miterlimit:10;}
</style>
<g>
	<g>
		<g>
			<path class="st0" d="M178.2,142.9c-3.9,0-7.7,0.7-11.2,2l-10.4-20.5l4,0.6c0.5,0.1,1.1,0.1,1.6,0.1c5.3,0,9-4.1,9.7-8.6
				c0.7-4.5-1.6-9.8-8.3-10.8l-17.9-2.9l-1.2-10.4c0-0.1,0-0.2,0-0.3c-0.7-6.8-1.5-12.2-5.4-15.2c0,0,0,0-0.1,0c0,0-1.5-1.1-9.2-6.6
				c-0.1,0-0.1-0.1-0.2-0.1c-0.8-0.5-2.5-1.3-3.3-1.5c-2.5-0.7-5.2-0.4-7.5,0.7c-0.5-0.8-1.1-1.5-1.9-2.1L98.5,54.6
				c-3-2-7.1-1.3-9.2,1.7L67.7,88c-2,3-1.3,7.1,1.7,9.2l18.4,12.6c0.3,0.2,0.6,0.3,0.9,0.4l-1.5,2.2c-1.8,1.9-2.7,4.4-2.6,7.1
				c0.1,3,1.4,5.8,3.7,7.8l3.6,3.2l-7.6,15c-3.9-1.6-8.1-2.4-12.5-2.4c-18.4,0-33.4,15-33.4,33.4s15,33.4,33.4,33.4
				c17.5,0,31.8-13.5,33.3-30.6h10.8l1.7,7.6c0.7,3.4,3.2,6.4,6.2,7.9c1.2,0.6,2.4,0.9,3.7,0.9c1.1,0,2.1-0.2,3.1-0.7
				c5.5-1.4,9-6.9,7.8-12.5l-3.4-16.1l18.2-36.1l8.6,17.1c-10.2,5.7-17.1,16.6-17.1,29.2c0,18.4,15,33.4,33.4,33.4
				s33.4-15,33.4-33.4S196.6,142.9,178.2,142.9z M127.9,114.5c1.6,3.4,4.8,6,8.5,6.8c0.1,0,0.1,0,0.2,0l8.3,1.3h-22.4L127.9,114.5z
				 M124.8,74c0.3,0.1,1.3,0.5,1.7,0.8c7,5,8.8,6.3,9.1,6.5c2.3,1.8,2.8,6.7,3.4,12.9c0.3,2.6,0.5,5.6,1,8.8l0.3,2.5
				c0.1,1.3,1.1,2.3,2.3,2.5l20,3.2c3.9,0.6,3.9,3.3,3.7,4.5c-0.3,1.8-1.8,4.3-4.9,3.8l-23.7-3.6c0,0,0,0,0,0
				c-2.7-0.5-4.9-2.9-5.2-5.7l-2.2-18.4c-0.2-1.5-1.6-2.6-3.1-2.4c-1.5,0.2-2.6,1.6-2.4,3.1l1.7,14.4c-0.1,0.1-0.2,0.2-0.3,0.4
				l-9.8,14.7l-22.6-9.2l25.4-36.7C120.3,74.3,122.7,73.4,124.8,74z M91,105.1L72.6,92.5c-0.5-0.3-0.6-0.9-0.3-1.4l21.6-31.6
				c0.3-0.5,0.9-0.6,1.4-0.3l18.4,12.6c0.3,0.2,0.4,0.5,0.4,0.6c0,0.2,0,0.5-0.2,0.7c-0.2,0.3-0.4,0.7-0.4,1.1l-21.8,31.6
				C91.5,105.5,91.3,105.3,91,105.1z M71.8,204.2c-15.3,0-27.8-12.5-27.8-27.8s12.5-27.8,27.8-27.8c3.5,0,6.9,0.7,10,1.9l-12.5,24.7
				c-0.4,0.9-0.4,1.9,0.1,2.7c0.5,0.8,1.4,1.3,2.4,1.3h27.7C98.1,193.2,86.2,204.2,71.8,204.2z M86.8,152.9c7,4.5,11.8,12,12.7,20.7
				H76.4L86.8,152.9z M114.7,173.6h-9.6c-0.9-10.8-7-20.2-15.8-25.7l6.9-13.7l12.1,10.7L114.7,173.6z M129.1,189.5
				c-0.1,0-0.1,0-0.2,0c-0.2,0-0.3,0.1-0.5,0.2c-0.2,0.1-1,0.5-2.2-0.1c-1.5-0.7-2.7-2.4-3.1-4.1l-9.5-42.8
				c-0.1-0.3-0.2-0.6-0.3-0.8c-0.2-0.3-0.3-0.5-0.6-0.7l-6.7-5.9l-8.8-7.7c0,0,0,0,0,0L92,123c-1.1-0.9-1.7-2.4-1.8-3.8
				c0-0.6,0.1-1.2,0.3-1.7l20.4,8.3l2.1,1.8l7.2,6.1c0.1,0.1,0.2,0.2,0.4,0.3c0.2,0.1,0.4,0.3,0.6,0.5c0.1,0.1,0.2,0.2,0.3,0.4
				c0.1,0.1,0.2,0.2,0.2,0.3c0.1,0.1,0.2,0.2,0.2,0.3c0.1,0.1,0.1,0.2,0.2,0.2c0.1,0.1,0.1,0.2,0.2,0.3c0.1,0.1,0.1,0.2,0.2,0.3
				c0,0.1,0.1,0.1,0.1,0.2c0.1,0.2,0.2,0.3,0.2,0.5c0,0,0,0.1,0.1,0.1c0.2,0.4,0.4,0.9,0.4,1.3l9.6,45.1
				C133.5,186.2,131.8,188.9,129.1,189.5z M133.1,157.5l-4.3-20.3c-0.2-1.2-0.8-2.5-1.5-3.8c-1-1.7-2.3-3.2-3.7-4.2l-1.2-1h25.5
				L133.1,157.5z M178.2,204.2c-15.3,0-27.8-12.5-27.8-27.8c0-10.3,5.6-19.4,14-24.2l11.3,22.4c0.5,1,1.5,1.5,2.5,1.5
				c0.4,0,0.9-0.1,1.3-0.3c1.4-0.7,1.9-2.4,1.2-3.8l-11.2-22.2c2.7-0.9,5.7-1.4,8.7-1.4c15.3,0,27.8,12.5,27.8,27.8
				S193.5,204.2,178.2,204.2z M146.3,71.8c7.9,0,14.3-6.4,14.3-14.3c0-7.9-6.4-14.3-14.3-14.3S132,49.7,132,57.6
				C132,65.4,138.4,71.8,146.3,71.8z M146.3,48.9c4.8,0,8.7,3.9,8.7,8.7c0,4.8-3.9,8.7-8.7,8.7s-8.7-3.9-8.7-8.7
				C137.6,52.8,141.5,48.9,146.3,48.9z"/>
		</g>
	</g>
</g>
</svg>
