<?xml version="1.0" encoding="utf-8"?>
<!-- Generator: Adobe Illustrator 25.3.1, SVG Export Plug-In . SVG Version: 6.00 Build 0)  -->
<svg version="1.1" id="Camada_1" xmlns="http://www.w3.org/2000/svg" xmlns:xlink="http://www.w3.org/1999/xlink" x="0px" y="0px"
	 viewBox="0 0 250 250" style="enable-background:new 0 0 250 250;" xml:space="preserve">
<style type="text/css">
	.st0{fill:#8A3D9C;}
</style>
<g>
	<path class="st0" d="M204.5,94.2h-12.4v-9.4V64.9c0-5-2-9.6-5.3-12.9c-3.3-3.3-7.8-5.3-12.8-5.3H76.1c-5,0-9.6,2-12.9,5.3
		c-3.3,3.3-5.3,7.9-5.3,12.9v19.9v9.4H45.6c-1.8,0-3.3,1.5-3.3,3.3v39.3c0,1.7,1.5,3.2,3.3,3.2h12.3v9.4v20c0,4.9,2,9.5,5.3,12.8
		c1,1,2.2,1.9,3.4,2.7v8.6c0,2.7,1.1,5.2,2.9,7c1.7,1.8,4.3,2.9,7,2.9h14.4c2.8,0,5.2-1.1,7.1-2.9c0.1-0.1,0.2-0.2,0.2-0.2
		c1.7-1.8,2.7-4.3,2.7-6.9v-5.8h48.2v5.9c0,2.7,1.1,5.2,2.9,7c1.7,1.8,4.3,2.9,7,2.9h14.4c2.7,0,5.2-1.1,7.1-2.9
		c0.1-0.1,0.2-0.2,0.2-0.2c1.7-1.8,2.7-4.3,2.7-6.9v-8.5c1.2-0.8,2.4-1.7,3.4-2.7c3.3-3.3,5.3-7.9,5.3-12.8v-20V140h12.4
		c1.7,0,3.2-1.5,3.2-3.2V97.5C207.7,95.7,206.3,94.2,204.5,94.2z M64.4,146.1v-9.3V97.5v-9.4h57.4v58H64.4z M128.2,88.1h57.5v9.4
		v39.3v9.3h-57.5V88.1z M67.8,56.6c2.1-2.1,5-3.4,8.3-3.4H174c3.2,0,6.1,1.3,8.2,3.4c2.1,2.1,3.5,5,3.5,8.3v16.7H64.4V64.9
		C64.4,61.6,65.6,58.7,67.8,56.6z M48.8,133.5v-32.8h9.1v32.8H48.8z M94.5,193.3c0,1-0.4,1.7-1,2.4c0,0-0.1,0-0.1,0.1
		c-0.7,0.6-1.6,1.1-2.5,1.1H76.5c-1,0-1.8-0.4-2.4-1.1c-0.6-0.6-1-1.5-1-2.4v-6.2c0.7,0.1,1.4,0.2,2.2,0.2c0.3,0,0.5,0,0.8,0h18.4
		V193.3z M177,193.3c0,1-0.4,1.7-1,2.4c0,0-0.1,0-0.1,0.1c-0.7,0.7-1.5,1.1-2.5,1.1H159c-1,0-1.8-0.4-2.4-1.1c-0.6-0.6-1-1.5-1-2.4
		v-5.9H174c0.2,0,0.5,0,0.8,0c0.8,0,1.5-0.1,2.2-0.2V193.3z M182.2,177.6c-1,1-2.1,1.8-3.4,2.3c-0.1,0-0.2,0.1-0.2,0.1
		c-0.2,0.1-0.5,0.2-0.7,0.3c-1.2,0.4-2.6,0.7-4,0.7h-21.7H97.7H76.1c-0.2,0-0.4,0-0.6,0c-1.4-0.1-2.6-0.4-3.8-0.8
		c-0.2-0.1-0.3-0.1-0.5-0.2c-0.1,0-0.2-0.1-0.2-0.1c-1.2-0.6-2.2-1.3-3.1-2.2c-2.1-2.1-3.4-5-3.4-8.2v-16.8h121.3v16.8
		C185.7,172.6,184.4,175.5,182.2,177.6z M201.2,133.5h-9.1v-32.8h9.1V133.5z"/>
	<path class="st0" d="M102.7,70.6h44.7c1.7,0,3.2-1.5,3.2-3.3c0-1.7-1.5-3.2-3.2-3.2h-44.7c-1.7,0-3.2,1.5-3.2,3.2
		C99.5,69.2,100.9,70.6,102.7,70.6z"/>
	<path class="st0" d="M86.9,155.5c-2.6,0-5,1-6.8,2.7c-0.1,0-0.2,0.1-0.3,0.2c-1.7,1.8-2.9,4.3-2.9,7.1c0,2.6,1.1,5,2.7,6.8
		c0.1,0.1,0.2,0.2,0.2,0.3h0.1c1.7,1.7,4.3,2.9,7,2.9c2.8,0,5.2-1.1,7.1-2.9c1.8-1.8,3-4.4,3-7.1c0-2.8-1.2-5.2-3-7.1
		C92.2,156.6,89.7,155.5,86.9,155.5z M86.9,169c-1,0-1.8-0.4-2.4-1c-0.1-0.1-0.1-0.1-0.2-0.2c-0.6-0.6-0.9-1.5-0.9-2.3
		c0-1,0.4-1.8,1.1-2.5c0,0,0-0.1,0.1-0.1c0.6-0.6,1.5-1,2.3-1c1,0,1.9,0.4,2.5,1.1c0.7,0.7,1.1,1.6,1.1,2.5c0,1-0.4,1.8-1.1,2.5
		C88.7,168.6,87.8,169,86.9,169z"/>
	<path class="st0" d="M170.2,158.5L170.2,158.5c-1.8-1.9-4.4-3-7.1-3c-2.8,0-5.2,1.1-7.1,2.9c-1.8,1.8-2.9,4.3-2.9,7.1
		c0,2.6,1,5,2.7,6.8c0.1,0.1,0.1,0.2,0.2,0.3c1.8,1.7,4.3,2.9,7.1,2.9c2.6,0,5-1.1,6.9-2.7c0-0.1,0.1-0.1,0.2-0.2
		c1.8-1.8,2.9-4.4,2.9-7.1C173.1,162.8,172.1,160.3,170.2,158.5z M165.5,168.1c-0.6,0.6-1.5,0.9-2.3,0.9c-1,0-1.8-0.4-2.5-1
		c0-0.1-0.1-0.1-0.1-0.2c-0.6-0.6-1-1.5-1-2.3c0-1,0.5-1.8,1.1-2.5c0.7-0.7,1.5-1.1,2.5-1.1c1,0,1.8,0.4,2.5,1.1
		c0.6,0.7,1,1.6,1,2.5c0,1-0.4,1.8-1,2.5C165.6,168,165.6,168.1,165.5,168.1z"/>
</g>
</svg>
