<?xml version="1.0" encoding="utf-8"?>
<!-- Generator: Adobe Illustrator 25.3.1, SVG Export Plug-In . SVG Version: 6.00 Build 0)  -->
<svg version="1.1" id="Camada_1" xmlns="http://www.w3.org/2000/svg" xmlns:xlink="http://www.w3.org/1999/xlink" x="0px" y="0px"
	 viewBox="0 0 250 250" style="enable-background:new 0 0 250 250;" xml:space="preserve">
<style type="text/css">
	.st0{fill:#8A3D9C;}
</style>
<path class="st0" d="M122.4,181.1c0,1.4,1.2,2.6,2.6,2.6c1.4,0,2.6-1.2,2.6-2.6v-19.8c0-1.4-1.2-2.6-2.6-2.6c-1.4,0-2.6,1.2-2.6,2.6
	V181.1z"/>
<g>
	<g>
		<path class="st0" d="M125,125.4c-4.8,0-9.3,1.9-12.7,5.2c-3.4,3.4-5.3,7.9-5.3,12.7c0,4.8,1.9,9.3,5.3,12.7
			c3.4,3.4,7.9,5.2,12.7,5.2c4.8,0,9.3-1.9,12.7-5.2c3.4-3.4,5.2-7.9,5.2-12.7c0-4.8-1.9-9.3-5.2-12.7
			C134.3,127.3,129.8,125.4,125,125.4z M134.1,152.5c-2.4,2.4-5.7,3.8-9.1,3.8c-3.5,0-6.7-1.3-9.1-3.8c-2.4-2.4-3.8-5.7-3.8-9.1
			c0-3.4,1.3-6.7,3.8-9.1c2.4-2.4,5.7-3.8,9.1-3.8c3.5,0,6.7,1.3,9.1,3.8c2.4,2.4,3.8,5.7,3.8,9.1S136.6,150,134.1,152.5z"/>
		<path class="st0" d="M125,162.3c-5.1,0-9.8-2-13.4-5.5c-3.6-3.6-5.5-8.3-5.5-13.4s2-9.8,5.5-13.4c3.6-3.6,8.3-5.5,13.4-5.5
			c5.1,0,9.8,2,13.4,5.5c3.6,3.6,5.5,8.3,5.5,13.4c0,5.1-2,9.8-5.5,13.4C134.8,160.3,130,162.3,125,162.3z M125,126.4
			c-4.5,0-8.8,1.8-12,5c-3.2,3.2-5,7.4-5,12s1.8,8.8,5,12c3.2,3.2,7.4,5,12,5c4.5,0,8.8-1.8,12-5c3.2-3.2,5-7.4,5-12
			c0-4.5-1.8-8.8-5-12C133.8,128.2,129.5,126.4,125,126.4z M125,157.3c-3.7,0-7.2-1.4-9.8-4.1c-2.6-2.6-4.1-6.1-4.1-9.8
			s1.4-7.2,4.1-9.8c2.6-2.6,6.1-4.1,9.8-4.1c3.7,0,7.2,1.4,9.8,4.1c2.6,2.6,4.1,6.1,4.1,9.8s-1.4,7.2-4.1,9.8v0
			C132.2,155.8,128.7,157.3,125,157.3z M125,131.4c-3.2,0-6.2,1.2-8.4,3.5c-2.3,2.2-3.5,5.2-3.5,8.4s1.2,6.2,3.5,8.4
			c2.3,2.3,5.2,3.5,8.4,3.5c3.2,0,6.2-1.2,8.4-3.5c2.3-2.2,3.5-5.2,3.5-8.4s-1.2-6.2-3.5-8.4C131.2,132.7,128.2,131.4,125,131.4z"/>
	</g>
	<g>
		<path class="st0" d="M190,106.3c-1.5-1.5-3.5-2.4-5.7-2.4h-18.2V81.8c0-10.9-4.4-20.8-11.6-27.9c-7.2-7.2-17.1-11.6-27.9-11.6
			c-10.9,0-20.8,4.4-27.9,11.6C91.5,61,87,70.9,87,81.8v22.1H65.7c-2.2,0-4.2,0.9-5.7,2.4c-1.5,1.5-2.4,3.5-2.4,5.7v87.7
			c0,2.2,0.9,4.2,2.4,5.7c1.5,1.5,3.5,2.4,5.7,2.4h118.6c2.2,0,4.2-0.9,5.7-2.4c1.5-1.5,2.4-3.5,2.4-5.7V112
			C192.4,109.8,191.5,107.7,190,106.3z M92.2,81.8c0-9.4,3.9-18,10.1-24.3c6.2-6.2,14.8-10.1,24.3-10.1s18,3.9,24.3,10.1
			c6.2,6.2,10.1,14.8,10.1,24.3v22.1H92.2V81.8z M187.2,199.7c0,0.8-0.3,1.5-0.9,2c-0.5,0.5-1.3,0.9-2,0.9H65.7
			c-0.8,0-1.5-0.3-2-0.9c-0.5-0.5-0.9-1.3-0.9-2V112c0-0.8,0.3-1.5,0.9-2c0.5-0.5,1.3-0.9,2-0.9h118.6c0.8,0,1.5,0.3,2,0.9
			c0.5,0.5,0.9,1.2,0.9,2V199.7z"/>
		<path class="st0" d="M184.3,208.7H65.7c-2.4,0-4.7-0.9-6.4-2.7c-1.7-1.7-2.7-4-2.7-6.4V112c0-2.4,0.9-4.7,2.7-6.4
			c1.7-1.7,4-2.7,6.4-2.7H86V81.8c0-10.8,4.2-20.9,11.9-28.6c7.7-7.7,17.9-11.9,28.6-11.9c10.8,0,21,4.2,28.6,11.9
			c7.7,7.7,11.9,17.8,11.9,28.6v21.1h17.2c2.4,0,4.7,0.9,6.4,2.7l0,0c0,0,0,0,0,0l0,0c1.7,1.7,2.7,4,2.7,6.4v87.7
			c0,2.4-0.9,4.7-2.7,6.4C189,207.8,186.7,208.7,184.3,208.7z M65.7,104.9c-1.9,0-3.7,0.7-5,2.1c-1.3,1.3-2.1,3.1-2.1,5v87.7
			c0,1.9,0.7,3.7,2.1,5c1.3,1.3,3.1,2.1,5,2.1h118.6c1.9,0,3.7-0.7,5-2.1c1.3-1.3,2.1-3.1,2.1-5V112c0-1.9-0.7-3.7-2.1-5v0
			c-1.3-1.3-3.1-2.1-5-2.1h-19.2V81.8c0-10.2-4-19.9-11.3-27.2c-7.3-7.3-17-11.3-27.2-11.3c-10.3,0-19.9,4-27.2,11.3
			C92,61.9,88,71.6,88,81.8v23.1H65.7z M184.3,203.6H65.7c-1,0-2-0.4-2.7-1.1c-0.7-0.7-1.1-1.7-1.1-2.8V112c0-1,0.4-2,1.1-2.7
			c0.7-0.7,1.7-1.1,2.8-1.1h118.6c1,0,2,0.4,2.8,1.1c0.7,0.7,1.1,1.7,1.1,2.7v87.7c0,1-0.4,2-1.1,2.7
			C186.3,203.1,185.3,203.6,184.3,203.6z M65.7,110.1c-0.5,0-1,0.2-1.3,0.6c-0.4,0.4-0.6,0.8-0.6,1.3v87.7c0,0.5,0.2,1,0.6,1.3
			c0.4,0.4,0.8,0.6,1.3,0.6h118.6c0.5,0,1-0.2,1.3-0.6c0.4-0.4,0.6-0.8,0.6-1.3V112c0-0.5-0.2-1-0.6-1.3c-0.4-0.4-0.8-0.6-1.3-0.6
			H65.7z M161.9,104.9H91.2V81.8c0-9.4,3.7-18.3,10.4-25s15.6-10.4,25-10.4s18.3,3.7,25,10.4s10.4,15.6,10.4,25V104.9z M93.2,102.9
			h66.8V81.8c0-8.9-3.5-17.2-9.8-23.6c-6.3-6.3-14.7-9.8-23.6-9.8s-17.2,3.5-23.6,9.8c-6.3,6.3-9.8,14.7-9.8,23.6V102.9z"/>
	</g>
</g>
</svg>
