<?xml version="1.0" encoding="utf-8"?>
<!-- Generator: Adobe Illustrator 25.3.1, SVG Export Plug-In . SVG Version: 6.00 Build 0)  -->
<svg version="1.1" id="Camada_1" xmlns="http://www.w3.org/2000/svg" xmlns:xlink="http://www.w3.org/1999/xlink" x="0px" y="0px"
	 viewBox="0 0 250 250" style="enable-background:new 0 0 250 250;" xml:space="preserve">
<style type="text/css">
	.st0{fill:#8A3D9C;}
</style>
<g>
	<g>
		<g>
			<path class="st0" d="M57.8,190h13.4v13.4H57.8V190z M46.2,184.3v-19.9c0-9,7.3-16.3,16.3-16.3h86.4c9,0,16.3,7.3,16.3,16.3v19.9
				H46.2z M44.3,138.2c0-2.1,1.7-3.8,3.9-3.8h8.4l-1.5,7.7h-6.9C46,142,44.3,140.3,44.3,138.2z M66.3,115.1c0.5-2.5,3.3-4.8,5.8-4.8
				h65.3c2.6,0,5.6,2.4,6.2,4.9l6.3,27c-0.3,0-0.6,0-1,0H62.6c-0.6,0-1.1,0-1.7,0.1L66.3,115.1z M163.4,134.4c2.1,0,3.8,1.7,3.8,3.8
				s-1.7,3.8-3.8,3.8h-7.6l-1.8-7.7H163.4z M134.5,203.5H77V190h57.6V203.5z M140.3,203.5V190h13.4v13.4H140.3z M112,51.5
				c0-0.2,0-0.4,0.3-0.7l4.1-4c0.2-0.2,0.5-0.3,0.7-0.3c0.2,0,0.4,0,0.7,0.3l9.8,10.1l-5.4,5.4l-9.9-10.1
				C112,51.9,112,51.6,112,51.5z M166.5,96.7l13.4,13.8l-5.5,5.4l-13.4-13.8L166.5,96.7z M139.6,80.1l-13.4-13.8l5.5-5.4L145,74.7
				L139.6,80.1z M149.1,78.9l13.4,13.8L157,98l-13.4-13.8L149.1,78.9z M188.3,130l-9.7-10l5.5-5.4l15,15.4H188.3z M186.5,135.8h19.2
				v67.7h-19.2V135.8z M211.4,133.9c0-2.1-1.7-3.8-3.8-3.8H207l-85.1-87.3c-2.5-2.6-6.9-2.6-9.5-0.1l-4.1,4c-1.3,1.2-2,2.9-2,4.7
				c0,1.8,0.6,3.5,1.9,4.8l73.5,75.3c-0.5,0.7-0.9,1.5-0.9,2.4v69.6h-21.2V190h8.6c1.6,0,2.9-1.3,2.9-2.9v-22.8
				c0-6.6-2.9-12.5-7.5-16.6c5.2-0.1,9.5-4.3,9.5-9.6c0-5.3-4.3-9.6-9.6-9.6h-10.7l-3.4-14.6c-1.2-5.1-6.5-9.4-11.8-9.4H72.2
				c-5.3,0-10.5,4.2-11.5,9.4l-2.9,14.6h-9.6c-5.3,0-9.6,4.3-9.6,9.6c0,5.2,4.2,9.5,9.4,9.6c-4.6,4-7.5,10-7.5,16.6v22.8
				c0,1.6,1.3,2.9,2.9,2.9H52v13.4H41.6c-1.6,0-2.9,1.3-2.9,2.9c0,1.6,1.3,2.9,2.9,2.9h166.9c1.6,0,2.9-1.3,2.9-2.9
				c0-0.1,0-0.2,0-0.2c0.1-0.2,0.1-0.5,0.1-0.8V133.9"/>
		</g>
	</g>
	<path class="st0" d="M64.5,172.8c-3.7,0-6.7-3-6.7-6.7c0-3.7,3-6.7,6.7-6.7c3.7,0,6.7,3,6.7,6.7C71.2,169.7,68.2,172.8,64.5,172.8z
		 M64.5,153.6c-6.9,0-12.5,5.6-12.5,12.5s5.6,12.5,12.5,12.5c6.9,0,12.5-5.6,12.5-12.5S71.4,153.6,64.5,153.6"/>
	<path class="st0" d="M147,172.8c-3.7,0-6.7-3-6.7-6.7c0-3.7,3-6.7,6.7-6.7c3.7,0,6.7,3,6.7,6.7C153.7,169.7,150.7,172.8,147,172.8z
		 M147,153.6c-6.9,0-12.5,5.6-12.5,12.5s5.6,12.5,12.5,12.5c6.9,0,12.5-5.6,12.5-12.5S153.9,153.6,147,153.6"/>
</g>
</svg>
