<?xml version="1.0" encoding="utf-8"?>
<!-- Generator: Adobe Illustrator 25.3.1, SVG Export Plug-In . SVG Version: 6.00 Build 0)  -->
<svg version="1.1" id="Camada_1" xmlns="http://www.w3.org/2000/svg" xmlns:xlink="http://www.w3.org/1999/xlink" x="0px" y="0px"
	 viewBox="0 0 250 250" style="enable-background:new 0 0 250 250;" xml:space="preserve">
<style type="text/css">
	.st0{fill-rule:evenodd;clip-rule:evenodd;fill:#8A3D9C;stroke:#844192;stroke-miterlimit:10;}
</style>
<g>
	<path class="st0" d="M120.9,132.8c2.7,0.2,5.4,0.2,8.1,0v45.7c0,1.6-0.5,2.5-1.2,3.1c-0.7,0.6-1.8,1-2.9,1c-1.1,0-2.2-0.4-2.9-1
		c-0.7-0.6-1.2-1.5-1.2-3.1V132.8z M88.9,122.7c0.2,0.1,0.4,0.3,0.6,0.4c2.2,1.3,4.4,2.4,6.7,3.5l-24.5,71.5
		c-0.5,1.5-1.3,2.1-2.1,2.5c-0.9,0.4-2,0.4-3,0c-1-0.4-1.9-1.1-2.4-1.9c-0.5-0.8-0.7-1.8-0.1-3.3L88.9,122.7z M161.7,122.3l25,73.1
		c0.5,1.5,0.3,2.5-0.1,3.3c-0.5,0.8-1.4,1.5-2.4,1.9c-1,0.4-2.2,0.4-3,0c-0.9-0.3-1.6-0.9-2.1-2.5l-24.6-71.8c2-1,4.1-2,6-3.2
		C160.9,122.9,161.3,122.6,161.7,122.3z M60.8,66.5c5.4,2.2,11.1,3.6,15.7,4.4c12.5,2.3,29.6,3.7,48.5,3.7c18.9,0,36-1.3,48.5-3.7
		c5.4-1.1,11-2.4,15.7-4.4c-2.1,21.3-13.8,40.4-31.9,51.2c-20,11.9-44.5,11.9-64.5,0C74.7,106.9,62.9,87.8,60.8,66.5z M175.4,53.9
		c4.5,1,8.2,2,10.7,3.1c3.5,1.6,2.4,2.7,0,3.9c-1.9,1-4.6,1.8-7.9,2.5L175.4,53.9z M74.6,53.9l-2.8,9.6c-3.2-0.8-5.9-1.6-7.9-2.5
		c-3.5-1.6-2.5-2.7,0-3.9C66.3,55.8,70,54.8,74.6,53.9z M150.2,50.6c6.7,0.5,12.8,1.2,18.2,2l3.6,12.1c-5.6,1-12.2,1.8-19.5,2.4
		L150.2,50.6z M99.8,50.6l-2.3,16.6c-7.3-0.6-14-1.4-19.5-2.4l3.6-12.1C86.9,51.7,93.1,51.1,99.8,50.6z M128.2,49.7
		c5.4,0.1,10.6,0.2,15.6,0.5l2.4,17.4c-5.7,0.4-11.7,0.6-18,0.6L128.2,49.7L128.2,49.7z M121.8,49.7v18.5c-6.3-0.1-12.3-0.3-18-0.6
		l2.4-17.4C111.2,49.9,116.4,49.8,121.8,49.7z M125,43.3c-18.9,0-36,1.4-48.5,3.7c-6.3,1.2-11.4,2.5-15.2,4.2
		c-1.9,0.8-3.5,1.7-4.8,2.9c-1.3,1.2-2.4,2.9-2.4,4.9v0.9c0,23.6,11,45.5,29.4,59.2L58,193.3c-1,3-0.7,6.1,0.6,8.5
		c1.3,2.4,3.5,4,5.9,4.8c2.4,0.8,5.1,0.9,7.6-0.1c2.5-1,4.7-3.3,5.7-6.3l24.4-71.2c4.1,1.4,8.2,2.4,12.4,3.1v46.4
		c0,3.2,1.3,6.1,3.3,7.9c2,1.8,4.6,2.6,7.1,2.6c2.5,0,5.1-0.8,7.1-2.6c2-1.8,3.3-4.6,3.3-7.9v-46.4c4.5-0.7,8.9-1.8,13.2-3.4
		l24.4,71.4c1.1,3,3.2,5.3,5.7,6.3c2.5,1,5.2,1,7.6,0.1c2.4-0.8,4.5-2.4,5.8-4.8c1.3-2.4,1.6-5.5,0.6-8.5l-25.6-74.7
		c18-13.7,28.8-35.4,28.8-58.7V59c0-2-1.1-3.7-2.4-4.9c-1.3-1.2-2.9-2.1-4.8-2.9c-3.8-1.7-8.9-3-15.2-4.2
		C161,44.7,143.9,43.3,125,43.3z"/>
	<path class="st0" d="M78.7,77.4c-2.1,0-3.7,2.1-3,4.1c3.9,13.1,13.4,24.2,26.5,30.4c1.6,0.9,3.6,0.2,4.4-1.4c0.8-1.6,0-3.6-1.6-4.3
		c-11.6-5.5-19.8-15.2-23.2-26.5C81.4,78.4,80.1,77.4,78.7,77.4z"/>
</g>
</svg>
