<?xml version="1.0" encoding="utf-8"?>
<!-- Generator: Adobe Illustrator 25.3.1, SVG Export Plug-In . SVG Version: 6.00 Build 0)  -->
<svg version="1.1" id="Camada_1" xmlns="http://www.w3.org/2000/svg" xmlns:xlink="http://www.w3.org/1999/xlink" x="0px" y="0px"
	 viewBox="0 0 250 250" style="enable-background:new 0 0 250 250;" xml:space="preserve">
<style type="text/css">
	.st0{fill:#8A3D9C;stroke:#844192;stroke-miterlimit:10;}
</style>
<g>
	<g>
		<g>
			<path class="st0" d="M75.4,154.2c13.7,0,25.5-8.3,30.5-20.2h8.1c6.7,0,12.3-5.2,12.8-11.8l22.5-41.5h10.5l2.7,9.7
				c-12.2,4.9-20.8,16.8-20.8,30.7c0,18.2,14.9,33.1,33.1,33.1c18.3,0,33.1-14.9,33.1-33.1c0-18.3-14.8-33.1-33.1-33.1
				c-1.8,0-3.5,0.2-5.2,0.4l-10.2-37.2h22.8c3.1,0,5.5,2.5,5.5,5.5c0,3-2.5,5.5-5.5,5.5h-1.8c-2,0-3.7,1.6-3.7,3.7
				c0,2,1.7,3.7,3.7,3.7h1.8c7.1,0,12.9-5.8,12.9-12.9s-5.8-12.9-12.9-12.9h-27.6c-1.1,0-2.2,0.5-2.9,1.5c-0.7,0.9-0.9,2.1-0.6,3.2
				l6.8,24.8h-75v-11h5.5c2,0,3.7-1.7,3.7-3.7c0-2-1.6-3.7-3.7-3.7H69.9c-2,0-3.7,1.6-3.7,3.7c0,2,1.7,3.7,3.7,3.7h5.5V76l-8,13.1
				c-14.4,3.6-25.1,16.6-25.1,32.1C42.3,139.4,57.2,154.2,75.4,154.2z M171.2,122.1c0.5,1.6,1.9,2.7,3.6,2.7c0.3,0,0.6,0,1-0.1
				c2-0.6,3.1-2.6,2.6-4.5l-6.7-24.5c1-0.1,2.1-0.2,3.2-0.2c14.2,0,25.7,11.5,25.7,25.7c0,14.2-11.6,25.7-25.7,25.7
				c-14.2,0-25.7-11.5-25.7-25.7c0-10.5,6.4-19.6,15.4-23.6L171.2,122.1z M114,126.6H84.6c-3,0-5.5-2.5-5.5-5.5
				c0-3.1,2.5-5.5,5.5-5.5H114c3.1,0,5.5,2.5,5.5,5.5C119.6,124.2,117.1,126.6,114,126.6z M81.2,80.7H141l-17.3,31.9
				c-2.4-2.7-5.8-4.4-9.6-4.4h-8.1c-3.4-8-9.9-14.5-18.4-17.9c-3.5-1.4-7.2-2.1-10.9-2.3L81.2,80.7z M75.4,95.4
				c3.2,0,6.4,0.6,9.5,1.8c5.6,2.2,10,6.1,12.9,11.1H84.6c-7.1,0-12.9,5.8-12.9,12.9c0,7.1,5.8,12.9,12.9,12.9h13.1
				c-4.5,7.7-12.8,12.9-22.3,12.9c-14.2,0-25.7-11.5-25.7-25.7C49.7,106.9,61.2,95.4,75.4,95.4z"/>
		</g>
	</g>
	<path class="st0" d="M46,165.2c-2,0-3.7,1.7-3.7,3.7s1.7,3.7,3.7,3.7h160c2,0,3.7-1.7,3.7-3.7s-1.7-3.7-3.7-3.7H46z"/>
	<g>
		<g>
			<path class="st0" d="M206,202H46c-2,0-3.7,1.7-3.7,3.7s1.7,3.7,3.7,3.7h160c2,0,3.7-1.7,3.7-3.7S208,202,206,202z"/>
		</g>
	</g>
	<path class="st0" d="M57,183.6c-2,0-3.7,1.7-3.7,3.7S55,191,57,191h7.4c2,0,3.7-1.7,3.7-3.7s-1.7-3.7-3.7-3.7H57z"/>
	<path class="st0" d="M82.8,183.6c-2,0-3.7,1.7-3.7,3.7s1.7,3.7,3.7,3.7h7.4c2,0,3.7-1.7,3.7-3.7s-1.7-3.7-3.7-3.7H82.8z"/>
	<path class="st0" d="M108.5,183.6c-2,0-3.7,1.7-3.7,3.7s1.7,3.7,3.7,3.7h7.4c2,0,3.7-1.7,3.7-3.7s-1.7-3.7-3.7-3.7H108.5z"/>
	<path class="st0" d="M134.3,183.6c-2,0-3.7,1.7-3.7,3.7s1.7,3.7,3.7,3.7h7.4c2,0,3.7-1.7,3.7-3.7s-1.7-3.7-3.7-3.7H134.3z"/>
	<path class="st0" d="M160,183.6c-2,0-3.7,1.7-3.7,3.7s1.7,3.7,3.7,3.7h7.4c2,0,3.7-1.7,3.7-3.7s-1.7-3.7-3.7-3.7H160z"/>
	<path class="st0" d="M185.8,183.6c-2,0-3.7,1.7-3.7,3.7s1.7,3.7,3.7,3.7h7.4c2,0,3.7-1.7,3.7-3.7s-1.7-3.7-3.7-3.7H185.8z"/>
</g>
</svg>
