<?xml version="1.0" encoding="utf-8"?>
<!-- Generator: Adobe Illustrator 25.3.1, SVG Export Plug-In . SVG Version: 6.00 Build 0)  -->
<svg version="1.1" id="Camada_1" xmlns="http://www.w3.org/2000/svg" xmlns:xlink="http://www.w3.org/1999/xlink" x="0px" y="0px"
	 viewBox="0 0 250 250" style="enable-background:new 0 0 250 250;" xml:space="preserve">
<style type="text/css">
	.st0{fill:#8A3D9C;}
</style>
<g>
	<path class="st0" d="M125,42.5c-45.6,0-82.8,37-82.8,82.5c0,45.5,37.1,82.5,82.8,82.5s82.8-37,82.8-82.5
		C207.8,79.5,170.6,42.5,125,42.5z M200.3,125c0,41.4-33.8,75.1-75.3,75.1c-41.5,0-75.3-33.7-75.3-75.1c0-41.4,33.8-75.1,75.3-75.1
		C166.5,49.9,200.3,83.6,200.3,125z"/>
	<path class="st0" d="M125,61.5C89.9,61.5,61.3,90,61.3,125c0,35,28.6,63.5,63.7,63.5c35.1,0,63.7-28.5,63.7-63.5
		C188.7,90,160.1,61.5,125,61.5z M181.2,125c0,30.9-25.2,56.1-56.2,56.1c-31,0-56.2-25.2-56.2-56.1c0-30.9,25.2-56.1,56.2-56.1
		C156,68.9,181.2,94.1,181.2,125z"/>
	<path class="st0" d="M128.7,115.8V78.1c0-0.6-0.4-1-1-1h-5.4c-0.6,0-1,0.4-1,1v37.7c-4.9,1.6-8.2,6.1-8.2,11.2
		c0,1.8,0.4,3.6,1.3,5.3l-11.1,11.1c-0.2,0.2-0.3,0.4-0.3,0.7s0.1,0.5,0.3,0.7l3.9,3.8c0.2,0.2,0.5,0.3,0.7,0.3s0.5-0.1,0.7-0.3
		l11.1-11.1c1.7,0.9,3.5,1.3,5.3,1.3c6.6,0,11.9-5.3,11.9-11.9C136.9,121.9,133.6,117.4,128.7,115.8z M129.4,127
		c0,2.4-2,4.4-4.4,4.4c-2.5,0-4.5-2-4.5-4.4c0-2.4,2-4.4,4.5-4.4C127.5,122.6,129.4,124.6,129.4,127z"/>
</g>
</svg>
