<?xml version="1.0" encoding="utf-8"?>
<!-- Generator: Adobe Illustrator 25.3.1, SVG Export Plug-In . SVG Version: 6.00 Build 0)  -->
<svg version="1.1" id="Camada_1" xmlns="http://www.w3.org/2000/svg" xmlns:xlink="http://www.w3.org/1999/xlink" x="0px" y="0px"
	 viewBox="0 0 250 250" style="enable-background:new 0 0 250 250;" xml:space="preserve">
<style type="text/css">
	.st0{fill:#8A3D9C;}
</style>
<g>
	<path class="st0" d="M201.8,88.7c-0.1-1.4-1.2-2.5-2.6-2.5H178V73.3c0-15.7-13.1-28.4-29.1-28.4s-29.1,12.7-29.1,28.4v12.9H98.5
		c-1.4,0-2.6,1.1-2.6,2.5L95,109.5H45.5c-1.5,0-2.6,1.2-2.6,2.6V196c0,5,4.2,9,9.3,9h152.3c0.7,0,1.4-0.3,1.9-0.8
		c0.5-0.5,0.8-1.2,0.7-1.9L201.8,88.7z M125,73.3c0-12.8,10.7-23.2,23.8-23.2c13.1,0,23.8,10.4,23.8,23.2v12.9H125V73.3z M132.9,196
		c0,2.1-1.8,3.9-4,3.9H52.1c-2.2,0-4-1.7-4-3.9v-81.4h84.8V196z M137.3,199.9c0.6-1.2,0.9-2.5,0.9-3.9v-83.9c0-1.4-1.2-2.6-2.7-2.6
		h-35.3l0.7-18.1h18.7v5.2h-2.6c-1.5,0-2.7,1.2-2.7,2.6c0,1.4,1.2,2.6,2.7,2.6h10.6c1.5,0,2.6-1.2,2.6-2.6c0-1.4-1.2-2.6-2.6-2.6
		H125v-5.2h47.7v5.2H170c-1.5,0-2.6,1.2-2.6,2.6c0,1.4,1.2,2.6,2.6,2.6h10.6c1.5,0,2.6-1.2,2.6-2.6c0-1.4-1.2-2.6-2.6-2.6H178v-5.2
		h18.7l5.1,108.5H137.3z"/>
	<path class="st0" d="M204.5,205.7H52.1c-5.4,0-9.9-4.3-9.9-9.6v-83.9c0-1.8,1.5-3.2,3.2-3.2h48.9l0.8-20.2c0.1-1.7,1.5-3.1,3.2-3.1
		h20.6V73.3c0-16,13.3-29,29.7-29c16.4,0,29.7,13,29.7,29v12.3h20.6c1.7,0,3.2,1.3,3.2,3l5.3,113.6c0,0.9-0.3,1.7-0.9,2.3
		C206.2,205.3,205.4,205.7,204.5,205.7z M45.5,110.1c-1.1,0-2.1,0.9-2.1,2V196c0,4.7,3.9,8.4,8.7,8.4h152.3c0.6,0,1.1-0.2,1.5-0.6
		c0.4-0.4,0.6-0.9,0.6-1.5l-5.3-113.6c0-1.1-0.9-1.9-2.1-1.9h-21.8V73.3c0-15.3-12.8-27.8-28.5-27.8S120.3,58,120.3,73.3v13.5H98.5
		c-1.1,0-2,0.8-2.1,1.9l-0.9,21.3H45.5z M202.3,200.5h-65.9l0.4-0.9c0.6-1.1,0.8-2.3,0.8-3.6v-83.9c0-1.1-0.9-2-2.1-2H99.7l0.8-19.3
		h19.8v6.4h-3.2c-1.1,0-2.1,0.9-2.1,2c0,1.1,0.9,2,2.1,2h10.6c1.1,0,2.1-0.9,2.1-2c0-1.1-0.9-2-2.1-2h-3.2v-6.4h48.9v6.4H170
		c-1.1,0-2.1,0.9-2.1,2c0,1.1,0.9,2,2.1,2h10.6c1.1,0,2.1-0.9,2.1-2c0-1.1-0.9-2-2.1-2h-3.2v-6.4h19.8l0,0.6L202.3,200.5z
		 M138.3,199.3h62.8l-5-107.3h-17.5v4h2.1c1.8,0,3.2,1.4,3.2,3.2s-1.5,3.2-3.2,3.2H170c-1.8,0-3.2-1.4-3.2-3.2s1.5-3.2,3.2-3.2h2.1
		v-4h-46.5v4h2.1c1.8,0,3.2,1.4,3.2,3.2s-1.5,3.2-3.2,3.2h-10.6c-1.8,0-3.2-1.4-3.2-3.2s1.5-3.2,3.2-3.2h2.1v-4h-17.5l-0.7,16.9
		h34.7c1.8,0,3.2,1.4,3.2,3.2V196C138.8,197.2,138.6,198.3,138.3,199.3z M129,200.5H52.1c-2.5,0-4.6-2-4.6-4.5v-81.9h86V196
		C133.5,198.5,131.5,200.5,129,200.5z M48.8,115.3V196c0,1.8,1.5,3.3,3.4,3.3H129c1.9,0,3.4-1.5,3.4-3.3v-80.8H48.8z M173.3,86.9
		h-48.9V73.3c0-13.1,11-23.8,24.4-23.8c13.5,0,24.4,10.7,24.4,23.8V86.9z M125.6,85.7h46.5V73.3c0-12.5-10.4-22.6-23.2-22.6
		c-12.8,0-23.2,10.2-23.2,22.6V85.7z"/>
</g>
<g>
	<path class="st0" d="M119.7,122.4h-10.6c-1.5,0-2.6,1.2-2.6,2.6s1.2,2.6,2.6,2.6h2.7v18.1c0,11.4-9.5,20.7-21.2,20.7
		c-11.7,0-21.2-9.3-21.2-20.7v-18.1H72c1.5,0,2.6-1.2,2.6-2.6s-1.2-2.6-2.6-2.6H61.4c-1.5,0-2.6,1.2-2.6,2.6s1.2,2.6,2.6,2.6h2.7
		v18.1c0,14.2,11.9,25.8,26.5,25.8s26.5-11.6,26.5-25.8v-18.1h2.6c1.5,0,2.7-1.2,2.7-2.6S121.2,122.4,119.7,122.4z"/>
	<path class="st0" d="M90.6,172.1c-14.9,0-27.1-11.9-27.1-26.4v-17.5h-2.1c-1.8,0-3.2-1.4-3.2-3.2c0-1.8,1.5-3.2,3.2-3.2H72
		c1.8,0,3.2,1.4,3.2,3.2c0,1.8-1.5,3.2-3.2,3.2H70v17.5c0,11.1,9.2,20.1,20.6,20.1c11.4,0,20.6-9,20.6-20.1v-17.5h-2.1
		c-1.8,0-3.2-1.4-3.2-3.2c0-1.8,1.5-3.2,3.2-3.2h10.6c1.8,0,3.2,1.4,3.2,3.2c0,1.8-1.5,3.2-3.2,3.2h-2.1v17.5
		C117.6,160.2,105.5,172.1,90.6,172.1z M61.4,123c-1.1,0-2.1,0.9-2.1,2c0,1.1,0.9,2,2.1,2h3.2v18.7c0,13.9,11.6,25.2,25.9,25.2
		s25.9-11.3,25.9-25.2V127h3.2c1.1,0,2.1-0.9,2.1-2c0-1.1-0.9-2-2.1-2h-10.6c-1.1,0-2.1,0.9-2.1,2c0,1.1,0.9,2,2.1,2h3.2v18.7
		c0,11.7-9.8,21.3-21.8,21.3c-12,0-21.8-9.5-21.8-21.3V127H72c1.1,0,2.1-0.9,2.1-2c0-1.1-0.9-2-2.1-2H61.4z"/>
</g>
</svg>
