<svg xmlns="http://www.w3.org/2000/svg" viewBox="0 0 317.6 317"><defs><style>.cls-1{fill:#ff8b22;}</style></defs><g id="Camada_2" data-name="Camada 2"><g id="Camada_1-2" data-name="Camada 1"><path class="cls-1" d="M317.6,230.7V301a16,16,0,0,1-.5,3.9h0A15.1,15.1,0,0,1,302.4,317H15.1A15,15,0,0,1,.2,303.6a11.84,11.84,0,0,1-.2-2.7V230.6a15,15,0,0,1,30,0v56.3H287.7V230.6A15,15,0,0,1,313.3,220,15.84,15.84,0,0,1,317.6,230.7Z"/><path class="cls-1" d="M245.3,160.3,171.6,234c-.1.2-.3.3-.4.4a17.37,17.37,0,0,1-9.7,4.9c-.3,0-.6.1-.9.1a10.87,10.87,0,0,1-1.8.1h0l-1.7-.1c-.3,0-.6-.1-.9-.1a17.06,17.06,0,0,1-9.7-4.9l-.4-.4L72.4,160.3a17.54,17.54,0,0,1,24.8-24.8l44.3,44.3V17.5A17.58,17.58,0,0,1,159,0a17.89,17.89,0,0,1,12.4,5.1,17.29,17.29,0,0,1,5.1,12.4V179.8l44.3-44.3a17.62,17.62,0,0,1,24.8,0A17.91,17.91,0,0,1,245.3,160.3Z"/></g></g></svg>