<?xml version="1.0" encoding="UTF-8"?><svg id="Camada_1" xmlns="http://www.w3.org/2000/svg" viewBox="0 0 250 250"><defs><style>.cls-1{fill:#e61d72;}</style></defs><g id="School"><path class="cls-1" d="M83.54,127.99h-12.62c-1.55,0-2.8,1.25-2.8,2.8v18.92c0,1.55,1.25,2.8,2.8,2.8h12.62c1.55,0,2.8-1.25,2.8-2.8v-18.92c0-1.55-1.25-2.8-2.8-2.8Zm-2.8,18.92h-7.02v-13.33h7.02v13.33Z"/><path class="cls-1" d="M115.08,127.99h-12.62c-1.54,0-2.8,1.25-2.8,2.8v18.92c0,1.55,1.25,2.8,2.8,2.8h12.62c1.55,0,2.8-1.25,2.8-2.8v-18.92c0-1.55-1.25-2.8-2.8-2.8Zm-2.8,18.92h-7.02v-13.33h7.02v13.33Z"/><path class="cls-1" d="M146.62,127.99h-12.61c-1.55,0-2.8,1.25-2.8,2.8v18.92c0,1.55,1.25,2.8,2.8,2.8h12.61c1.55,0,2.8-1.25,2.8-2.8v-18.92c0-1.55-1.25-2.8-2.8-2.8Zm-2.8,18.92h-7.02v-13.33h7.02v13.33Z"/><path class="cls-1" d="M178.16,127.99h-12.62c-1.55,0-2.8,1.25-2.8,2.8v18.92c0,1.55,1.25,2.8,2.8,2.8h12.62c1.54,0,2.8-1.25,2.8-2.8v-18.92c0-1.55-1.25-2.8-2.8-2.8Zm-2.8,18.92h-7.02v-13.33h7.02v13.33Z"/><path class="cls-1" d="M211.73,204.6h-13.99V112.27c0-1.55-1.25-2.8-2.8-2.8h-18.92v-19.56c0-.08-.04-.15-.05-.23-.02-.21-.06-.42-.12-.62-.04-.14-.09-.26-.15-.39-.09-.18-.21-.34-.34-.5-.09-.11-.16-.22-.27-.31-.15-.14-.33-.24-.51-.34-.12-.07-.23-.15-.37-.2-.03-.01-.06-.04-.09-.05l-48.57-16.63v-5.72c4.53,.81,9,1.23,13.38,1.23,5.49,0,10.85-.64,16.03-1.91,1.25-.31,2.13-1.43,2.13-2.72v-18.92c0-.81-.35-1.58-.97-2.12-.61-.53-1.43-.78-2.23-.65-11.17,1.63-21.48,1.64-30.65,.01-.08-.01-.15,.02-.23,0-.09,0-.17-.05-.26-.05-.14,0-.26,.06-.39,.08-.17,.02-.33,.04-.5,.1-.23,.08-.43,.19-.62,.33-.09,.06-.2,.08-.29,.15-.03,.02-.04,.06-.07,.09-.2,.18-.36,.41-.5,.65-.06,.09-.14,.17-.18,.27-.16,.35-.25,.73-.25,1.14v28.03l-48.57,16.63s-.06,.04-.09,.05c-.13,.05-.24,.13-.37,.2-.18,.1-.36,.2-.51,.34-.1,.09-.18,.2-.27,.31-.13,.16-.25,.32-.34,.5-.06,.13-.11,.25-.15,.39-.07,.2-.11,.4-.12,.62,0,.08-.05,.15-.05,.23v19.56h-14.45c-1.55,0-2.8,1.25-2.8,2.8v92.33h-13.99c-1.55,0-2.8,1.25-2.8,2.8s1.25,2.8,2.8,2.8H211.73c1.54,0,2.8-1.25,2.8-2.8s-1.25-2.8-2.8-2.8ZM75.1,103.88h95.33v5.31H75.1v-5.31Zm95.33-5.6H75.1v-5.58h95.33v5.58Zm-18.92-52.49v13.49c-8.22,1.7-16.93,1.69-25.94-.04v-13.38c7.99,1.08,16.69,1.05,25.94-.07Zm-28.74,29.79l33.65,11.52H89.11l33.65-11.52Zm-17.35,129.01v-33.57h16.79v33.57h-16.79Zm22.38,0v-33.57h16.79v33.57h-16.79Zm22.38,0v-36.37c0-1.55-1.25-2.8-2.8-2.8h-44.77c-1.55,0-2.8,1.25-2.8,2.8v36.37H57.85V115.07H192.15v89.53h-41.97Z"/></g></svg>