<svg id="Layer_1" data-name="Layer 1" xmlns="http://www.w3.org/2000/svg" xmlns:xlink="http://www.w3.org/1999/xlink" viewBox="0 0 150 185"><defs><style>.cls-1{fill:#006b3f;}.cls-2{fill:url(#linear-gradient);}.cls-3{fill:url(#linear-gradient-2);}.cls-4{fill:url(#linear-gradient-3);}</style><linearGradient id="linear-gradient" x1="9.47" y1="127.11" x2="140.04" y2="127.11" gradientUnits="userSpaceOnUse"><stop offset="0" stop-color="#ff8c23"/><stop offset="1" stop-color="#ffb91a"/></linearGradient><linearGradient id="linear-gradient-2" x1="9.47" y1="18.35" x2="140.04" y2="18.35" xlink:href="#linear-gradient"/><linearGradient id="linear-gradient-3" x1="9.47" y1="99.24" x2="140.04" y2="99.24" xlink:href="#linear-gradient"/></defs><path class="cls-1" d="M137.73,89.66,91.34,49a24.21,24.21,0,0,0-31.82,0L12.77,89.66a24.45,24.45,0,0,0-8.52,18.23V160.2A25.19,25.19,0,0,0,29,185h93c13.35,0,23.7-11.44,23.7-24.79V107.89A24,24,0,0,0,137.73,89.66Z"/><path class="cls-2" d="M118.61,148.65,90,92.73a90.54,90.54,0,0,1-7.57,23.92l20.4,40.09a8.86,8.86,0,0,0,7.92,4.75,11.14,11.14,0,0,0,4-.88A9,9,0,0,0,118.61,148.65Z"/><circle class="cls-3" cx="71.66" cy="18.35" r="14.77"/><path class="cls-4" d="M107,66C90.83,59.15,80.27,41.74,80.1,41.39A9.51,9.51,0,0,0,66.91,38a15.76,15.76,0,0,0-1.76,1.24c-6,3.86-21.45,15.82-29.36,41.85A9.46,9.46,0,1,0,53.9,86.58c3.34-11.08,8.26-18.82,12.66-23.74a77.67,77.67,0,0,1,0,24.79c-4.92,30.25-32.88,57.68-33.24,58A9.45,9.45,0,0,0,33.15,159a9.19,9.19,0,0,0,6.68,2.81,9.33,9.33,0,0,0,6.51-2.64C47.74,158,79.4,127,84.85,90.8a109.46,109.46,0,0,0,1.23-14.6,66.29,66.29,0,0,0,13.36,7.74,9.12,9.12,0,0,0,3.69.7,10,10,0,0,0,9-5.8A9.75,9.75,0,0,0,107,66Z"/></svg>