<svg id="Layer_1" data-name="Layer 1" xmlns="http://www.w3.org/2000/svg" xmlns:xlink="http://www.w3.org/1999/xlink" viewBox="0 0 150 185"><defs><style>.cls-1{fill:#006b3f;}.cls-2{fill:url(#linear-gradient);}.cls-3{fill:url(#linear-gradient-2);}.cls-4{fill:url(#linear-gradient-3);}</style><linearGradient id="linear-gradient" x1="-21.84" y1="145.22" x2="148.07" y2="145.22" gradientUnits="userSpaceOnUse"><stop offset="0" stop-color="#ff8c23"/><stop offset="1" stop-color="#ffb91a"/></linearGradient><linearGradient id="linear-gradient-2" x1="-9.84" y1="69.52" x2="160.13" y2="69.52" xlink:href="#linear-gradient"/><linearGradient id="linear-gradient-3" x1="-18.85" y1="113.67" x2="146.21" y2="113.67" xlink:href="#linear-gradient"/></defs><path class="cls-1" d="M137.64,89.66,91.25,49a24.21,24.21,0,0,0-31.82,0L12.67,89.66a24.44,24.44,0,0,0-8.51,18.23V160.2A25.18,25.18,0,0,0,28.92,185h93c13.35,0,23.7-11.44,23.7-24.79V107.89A24,24,0,0,0,137.64,89.66Z"/><path class="cls-2" d="M4.26,128.69v33.06H89.21C89.21,143.23,4.26,128.69,4.26,128.69Z"/><path class="cls-3" d="M36.53,94.75l14.91,17a1.52,1.52,0,0,1,.38,1.06c-.17,6.25-.29,11.65-.29,13.69a9.31,9.31,0,0,1-1.17,4.33l14.89,4c-.5-.27-1.23-.38-1.44-1a22,22,0,0,1-1.15-7.36c0-5.44-.57-27.61-.84-37.92l.58,0c16.61,0,30.08-12.66,30.08-28.29A26.38,26.38,0,0,0,91,51.7a1.5,1.5,0,0,1,.24-1.43,18.74,18.74,0,0,0,3.91-11.41c0-10.85-9.35-19.65-20.89-19.65h-.11c-2.48-8.63-10.83-15-20.78-15-9.71,0-17.9,6.05-20.6,14.36a1.51,1.51,0,0,1-1.73,1,26.25,26.25,0,0,0-4.73-.44C12.46,19.21,1.2,29.8,1.2,42.85A22.66,22.66,0,0,0,6.47,57.33a1.51,1.51,0,0,1,.29,1.41A26.58,26.58,0,0,0,5.6,66.49c0,15.63,13.47,28.3,30.08,28.3C36,94.79,36.25,94.76,36.53,94.75Zm9-1.53a32.16,32.16,0,0,0,4.68-1.93,1.52,1.52,0,0,1,2.24,1.4c-.06,2-.13,4.3-.21,6.73a1.53,1.53,0,0,1-2.62,1l-4.71-4.7A1.53,1.53,0,0,1,45.5,93.22Z"/><path class="cls-4" d="M128.84,117.06l.48,0c9.38,0,17-7.16,17-16a15.17,15.17,0,0,0-.65-4.38.81.81,0,0,1,.16-.79,12.83,12.83,0,0,0,3-8.18c0-7.38-6.36-13.36-14.21-13.36a14.73,14.73,0,0,0-2.67.25.86.86,0,0,1-1-.59,12.39,12.39,0,0,0-23.38.34h-.06c-6.51,0-11.8,5-11.8,11.1a10.57,10.57,0,0,0,2.21,6.45.83.83,0,0,1,.13.8,15.11,15.11,0,0,0-.81,4.86c0,8.83,7.61,16,17,16h.33c-.16,5.82-.48,18.35-.48,21.42v.38c-14.42,2.78-27.65,4.77-32.46,5.89,10.24,5.62,16.85,12.23,16.85,20.17h47.27V128.69s-12.65,3-25.37,5.46c0-1.47-.09-4-.16-6.9a.86.86,0,0,1,.21-.6ZM122,118.7c0-1.38-.09-2.67-.12-3.81a.86.86,0,0,1,1.26-.79,17.14,17.14,0,0,0,2.65,1.09.87.87,0,0,1,.35,1.44l-2.66,2.66A.87.87,0,0,1,122,118.7Z"/></svg>