<svg id="Layer_1" data-name="Layer 1" xmlns="http://www.w3.org/2000/svg" xmlns:xlink="http://www.w3.org/1999/xlink" viewBox="0 0 150 185"><defs><style>.cls-1{fill:#006b3f;}.cls-2{fill:url(#linear-gradient);}.cls-3{fill:url(#linear-gradient-2);}.cls-4{fill:url(#linear-gradient-3);}.cls-5{fill:url(#linear-gradient-4);}.cls-6{fill:url(#linear-gradient-5);}.cls-7{fill:url(#linear-gradient-7);}</style><linearGradient id="linear-gradient" x1="-7.73" y1="97.54" x2="156.15" y2="97.54" gradientUnits="userSpaceOnUse"><stop offset="0" stop-color="#ff8c23"/><stop offset="1" stop-color="#ffb91a"/></linearGradient><linearGradient id="linear-gradient-2" x1="-7.73" y1="104.06" x2="156.15" y2="104.06" xlink:href="#linear-gradient"/><linearGradient id="linear-gradient-3" x1="-7.73" y1="31.26" x2="156.15" y2="31.26" gradientTransform="translate(36.53 -25.67) rotate(45)" xlink:href="#linear-gradient"/><linearGradient id="linear-gradient-4" x1="-7.73" y1="14.68" x2="156.15" y2="14.68" xlink:href="#linear-gradient"/><linearGradient id="linear-gradient-5" x1="-7.73" y1="30.96" x2="156.15" y2="30.96" gradientTransform="translate(51.59 -62.64) rotate(45)" xlink:href="#linear-gradient"/><linearGradient id="linear-gradient-7" x1="-7.73" y1="104.15" x2="156.15" y2="104.15" xlink:href="#linear-gradient"/></defs><path class="cls-1" d="M137.73,89.66,91.34,49a24.21,24.21,0,0,0-31.82,0L12.77,89.66a24.45,24.45,0,0,0-8.52,18.23V160.2A25.19,25.19,0,0,0,29,185h93c13.35,0,23.7-11.44,23.7-24.79V107.89A24,24,0,0,0,137.73,89.66Z"/><path class="cls-2" d="M31.47,112.88C15.8,107,13.13,93.65,17.58,81.72c2.49-6.59,46.65,11.57,44.69,16.73C57.82,110.2,47.13,118.75,31.47,112.88Z"/><path class="cls-3" d="M73,61.06l-.35-.71L34.67,46.28l-.71.18c-10,3-26.18,24.93-26.89,45.23-.18,9.61,3,22.25,19.23,29.2L14.55,152.23,2.44,147.6,1,151.51l27.24,10.33,1.43-3.92-11.22-4.27,11.75-31.34a34.52,34.52,0,0,0,10.86,1.78c11.22,0,20.48-6.23,26.89-18C76.87,90.26,77.94,68.9,73,61.06Zm-8.72,43.09C60.31,111.27,53,120,40.9,120a30.1,30.1,0,0,1-11.39-2.32C17,113.05,11,104.33,11.35,91.87c.53-18.34,15.31-37.93,23.14-41.13L69.75,63.91C73.13,70.5,72.42,89.55,64.23,104.15Z"/><rect class="cls-4" x="47.12" y="18.18" width="4.27" height="26.17" transform="translate(-7.68 43.99) rotate(-45)"/><rect class="cls-5" x="72.77" y="1.59" width="4.27" height="26.17"/><rect class="cls-6" x="88.23" y="28.82" width="26.35" height="4.27" transform="translate(7.81 80.78) rotate(-45)"/><path class="cls-2" d="M118.36,112.88C134,107,136.7,93.65,132.24,81.72c-2.49-6.59-46.65,11.57-44.69,16.73C92,110.2,102.69,118.75,118.36,112.88Z"/><path class="cls-7" d="M147.38,147.6l-12.11,4.45-11.75-31.16c16.2-7,19.41-19.59,19-29-.53-20.3-16.91-42.2-26.88-45.23l-.72-.18L77.23,60.35l-.36.53c-5,7.84-3.74,29.38,5,45.23,6.4,11.75,15.84,18,26.88,18h0a40.6,40.6,0,0,0,10.86-1.78l11.75,31.34-11.21,4.27,1.42,3.92L149,151.69ZM108.74,120c-11.93,0-19.23-8.55-23.32-15.85-8-14.6-8.73-33.65-5.35-40.24l35.08-13C123,54.12,137.76,73.7,138.3,92c.35,12.47-5.7,21-18.16,25.82a38.75,38.75,0,0,1-11.4,2.14Z"/></svg>