<svg id="Layer_1" data-name="Layer 1" xmlns="http://www.w3.org/2000/svg" xmlns:xlink="http://www.w3.org/1999/xlink" viewBox="0 0 150 185"><defs><style>.cls-1{fill:#006b3f;}.cls-2{fill:url(#linear-gradient);}.cls-3{fill:url(#linear-gradient-2);}.cls-4{fill:url(#linear-gradient-3);}.cls-5{fill:url(#linear-gradient-4);}.cls-6{fill:url(#linear-gradient-7);}.cls-7{fill:url(#linear-gradient-8);}.cls-8{fill:url(#linear-gradient-11);}.cls-9{fill:url(#linear-gradient-12);}.cls-10{fill:url(#linear-gradient-13);}.cls-11{fill:url(#linear-gradient-15);}.cls-12{fill:url(#linear-gradient-16);}.cls-13{fill:url(#linear-gradient-17);}.cls-14{fill:url(#linear-gradient-19);}</style><linearGradient id="linear-gradient" x1="-4.86" y1="68.42" x2="154.92" y2="68.42" gradientUnits="userSpaceOnUse"><stop offset="0" stop-color="#ff8c23"/><stop offset="1" stop-color="#ffb91a"/></linearGradient><linearGradient id="linear-gradient-2" x1="-4.86" y1="87.82" x2="154.92" y2="87.82" xlink:href="#linear-gradient"/><linearGradient id="linear-gradient-3" x1="-4.86" y1="68.42" x2="154.92" y2="68.42" xlink:href="#linear-gradient"/><linearGradient id="linear-gradient-4" x1="-4.86" y1="68.42" x2="154.92" y2="68.42" xlink:href="#linear-gradient"/><linearGradient id="linear-gradient-7" x1="-4.86" y1="109.72" x2="154.92" y2="109.72" xlink:href="#linear-gradient"/><linearGradient id="linear-gradient-8" x1="-4.86" y1="108.53" x2="154.92" y2="108.53" xlink:href="#linear-gradient"/><linearGradient id="linear-gradient-11" x1="-4.86" y1="27.7" x2="154.92" y2="27.7" xlink:href="#linear-gradient"/><linearGradient id="linear-gradient-12" x1="-4.86" y1="5" x2="154.92" y2="5" xlink:href="#linear-gradient"/><linearGradient id="linear-gradient-13" x1="-4.86" y1="11.56" x2="154.92" y2="11.56" xlink:href="#linear-gradient"/><linearGradient id="linear-gradient-15" x1="-4.86" y1="43.7" x2="154.92" y2="43.7" xlink:href="#linear-gradient"/><linearGradient id="linear-gradient-16" x1="-4.86" y1="50.47" x2="154.92" y2="50.47" xlink:href="#linear-gradient"/><linearGradient id="linear-gradient-17" x1="-4.86" y1="43.72" x2="154.92" y2="43.72" xlink:href="#linear-gradient"/><linearGradient id="linear-gradient-19" x1="-4.86" y1="11.63" x2="154.92" y2="11.63" xlink:href="#linear-gradient"/></defs><path class="cls-1" d="M137.73,89.66,91.34,49a24.21,24.21,0,0,0-31.82,0L12.77,89.66a24.45,24.45,0,0,0-8.52,18.23V160.2A25.19,25.19,0,0,0,29,185h93c13.35,0,23.7-11.44,23.7-24.79V107.89A24,24,0,0,0,137.73,89.66Z"/><path class="cls-2" d="M10.17,61.5a1.29,1.29,0,0,0-.05,1.25L16.82,76h28.1L37.28,60.9h-26A1.26,1.26,0,0,0,10.17,61.5Z"/><polygon class="cls-3" points="88.76 96.4 80.05 79.24 50.29 79.24 59 96.4 88.76 96.4"/><path class="cls-4" d="M107.06,75.94,99.77,61.59a1.28,1.28,0,0,0-1.14-.7H74.43l7.64,15Z"/><polygon class="cls-5" points="78.37 75.94 70.73 60.89 40.98 60.89 48.62 75.94 78.37 75.94"/><polygon class="cls-3" points="92.46 96.4 117.44 96.4 108.73 79.24 83.75 79.24 92.46 96.4"/><polygon class="cls-3" points="18.5 79.24 27.21 96.4 55.3 96.4 46.59 79.24 18.5 79.24"/><path class="cls-6" d="M132.81,119.48l-.3-.61a1.59,1.59,0,0,0-2.7-.24h0a5,5,0,0,1-4,2H38.64a4.53,4.53,0,0,1-4.08-2.5L7.18,64.24c-1.4-2.44-.63-3.77.7-5a1,1,0,0,0,0-1.36,1,1,0,0,0-.71-.31H4.62a4.76,4.76,0,0,0-4,2.27,4.9,4.9,0,0,0-.23,4.78l29.3,59.22a4.74,4.74,0,0,0,4.27,2.68H66.3v28.81H59.19a6.49,6.49,0,0,0-6.49,6.49H87.46A6.5,6.5,0,0,0,81,155.35H73.78V126.54h54.76a4.76,4.76,0,0,0,4.05-2.28A4.88,4.88,0,0,0,132.81,119.48Z"/><path class="cls-7" d="M103.1,117.36H126a1.29,1.29,0,0,0,1.14-1.85l-8-15.81h-25Z"/><polygon class="cls-7" points="99.4 117.36 90.44 99.7 60.68 99.7 69.65 117.36 99.4 117.36"/><path class="cls-7" d="M38.64,117.36h27.3L57,99.7H28.89l8.61,17A1.24,1.24,0,0,0,38.64,117.36Z"/><circle class="cls-8" cx="120.87" cy="27.7" r="11.09"/><path class="cls-9" d="M120.87,11.73A3.22,3.22,0,0,0,124,8.56V1.43a3.17,3.17,0,0,0-6.34,0v7A3.24,3.24,0,0,0,120.87,11.73Z"/><path class="cls-10" d="M105,16.35a3.2,3.2,0,0,0,4.49,0,3,3,0,0,0,0-4.49l-4.89-5a3,3,0,0,0-4.48,0,3,3,0,0,0,0,4.49Z"/><path class="cls-8" d="M94.6,30.87h7a3.17,3.17,0,0,0,0-6.34h-7a3.17,3.17,0,1,0,0,6.34Z"/><path class="cls-11" d="M105,39.05l-4.88,4.89a3,3,0,0,0,0,4.48,3.16,3.16,0,0,0,4.48,0l4.89-4.88A3.17,3.17,0,1,0,105,39.05Z"/><path class="cls-12" d="M124,54V47a3.17,3.17,0,0,0-6.34,0v7A3.17,3.17,0,0,0,124,54Z"/><path class="cls-13" d="M141.72,48.56a3,3,0,0,0,0-4.49l-5-5a3.17,3.17,0,0,0-4.49,4.49l4.88,4.88a3.53,3.53,0,0,0,4.62.14Z"/><path class="cls-8" d="M136.84,27.7A3.21,3.21,0,0,0,140,30.87h7a3.17,3.17,0,0,0,0-6.34h-7A3.21,3.21,0,0,0,136.84,27.7Z"/><path class="cls-14" d="M134.46,17.27a3.09,3.09,0,0,0,2.25-.92l4.88-4.89a3,3,0,0,0,0-4.48,3,3,0,0,0-4.49,0l-4.88,4.88a3,3,0,0,0,0,4.49A3.08,3.08,0,0,0,134.46,17.27Z"/></svg>