<svg id="Layer_1" data-name="Layer 1" xmlns="http://www.w3.org/2000/svg" xmlns:xlink="http://www.w3.org/1999/xlink" viewBox="0 0 150 185"><defs><style>.cls-1{fill:#006b3f;}.cls-10,.cls-11,.cls-2,.cls-3,.cls-4,.cls-5,.cls-6,.cls-7,.cls-8,.cls-9{fill-rule:evenodd;}.cls-2{fill:url(#linear-gradient);}.cls-3{fill:url(#linear-gradient-2);}.cls-4{fill:url(#linear-gradient-3);}.cls-5{fill:url(#linear-gradient-4);}.cls-6{fill:url(#linear-gradient-5);}.cls-7{fill:url(#linear-gradient-7);}.cls-8{fill:url(#linear-gradient-9);}.cls-9{fill:url(#linear-gradient-10);}.cls-10{fill:url(#linear-gradient-11);}.cls-11{fill:url(#linear-gradient-12);}</style><linearGradient id="linear-gradient" x1="27.22" y1="82.94" x2="120.71" y2="82.94" gradientUnits="userSpaceOnUse"><stop offset="0" stop-color="#ff8c23"/><stop offset="1" stop-color="#ffb91a"/></linearGradient><linearGradient id="linear-gradient-2" x1="27.22" y1="93.23" x2="120.71" y2="93.23" xlink:href="#linear-gradient"/><linearGradient id="linear-gradient-3" x1="27.22" y1="86.46" x2="120.71" y2="86.46" xlink:href="#linear-gradient"/><linearGradient id="linear-gradient-4" x1="27.22" y1="79.8" x2="120.71" y2="79.8" xlink:href="#linear-gradient"/><linearGradient id="linear-gradient-5" x1="27.22" y1="102.03" x2="120.71" y2="102.03" xlink:href="#linear-gradient"/><linearGradient id="linear-gradient-7" x1="27.22" y1="83.83" x2="120.71" y2="83.83" xlink:href="#linear-gradient"/><linearGradient id="linear-gradient-9" x1="27.22" y1="100.2" x2="120.71" y2="100.2" xlink:href="#linear-gradient"/><linearGradient id="linear-gradient-10" x1="27.22" y1="64.64" x2="120.71" y2="64.64" xlink:href="#linear-gradient"/><linearGradient id="linear-gradient-11" x1="27.22" y1="67.84" x2="120.71" y2="67.84" xlink:href="#linear-gradient"/><linearGradient id="linear-gradient-12" x1="27.22" y1="69.95" x2="120.71" y2="69.95" xlink:href="#linear-gradient"/></defs><path class="cls-1" d="M137.73,89.66,91.34,49a24.21,24.21,0,0,0-31.82,0L12.77,89.66a24.45,24.45,0,0,0-8.52,18.23V160.2A25.19,25.19,0,0,0,29,185h93c13.35,0,23.7-11.44,23.7-24.79V107.89A24,24,0,0,0,137.73,89.66Z"/><path class="cls-2" d="M77,79.46c.56,3.35,1.09,6.51,4.52,8.28h0v-9.6H76.74C76.82,78.58,76.9,79,77,79.46Z"/><path class="cls-3" d="M80.21,90.21c-4.67-2.4-5.4-6.78-6-10.29-.1-.63-.2-1.21-.32-1.78H69.84a14.07,14.07,0,0,0,1,7.42,13.77,13.77,0,0,1,.94,7.88A9.56,9.56,0,0,1,67,100.66a8.41,8.41,0,0,0-4.1,7.66h4.41a24.45,24.45,0,0,1,2.54-4.11c1.55-2.21,3.48-5,4.2-7.37,1.33-4.49,5-4,7.43-3.64V91a2,2,0,0,1-.75-.49Z"/><polygon class="cls-4" points="98.69 90.51 98.69 82.41 90.59 90.51 98.69 90.51"/><polygon class="cls-5" points="84.28 90.51 86.65 90.51 98.69 78.47 98.69 69.09 84.28 83.5 84.28 90.51"/><path class="cls-6" d="M76.73,97.63c-.84,2.84-2.91,5.8-4.58,8.18-.55.78-1.21,1.73-1.69,2.51h11V96l-.19,0C78.49,95.51,77.36,95.52,76.73,97.63Z"/><path class="cls-3" d="M58.74,86.06a13.17,13.17,0,0,0,2.62-7.92h-2.9a38.81,38.81,0,0,1-2.86,8.25c-1.65,3.93-3.52,8.38-4.29,13v8.94h3c2-6.9,1.88-10,1.76-12.51a15.4,15.4,0,0,1,.36-5.07A14.28,14.28,0,0,1,58.74,86.06Z"/><path class="cls-7" d="M55.64,78.14H51.31V89.53c.57-1.46,1.16-2.87,1.73-4.22A44,44,0,0,0,55.64,78.14Z"/><path class="cls-3" d="M64.15,78.14a15.92,15.92,0,0,1-3.09,9.46,11.6,11.6,0,0,0-1.9,3.84,12.79,12.79,0,0,0-.28,4.24c.13,2.61.29,5.83-1.65,12.64h2.91a12.28,12.28,0,0,1,2.61-7.63,11.71,11.71,0,0,1,2.69-2.32A6.87,6.87,0,0,0,69,93a11.23,11.23,0,0,0-.8-6.5A16.72,16.72,0,0,1,67,78.14Zm-.32,15.62a1.6,1.6,0,1,1,1.6-1.59A1.59,1.59,0,0,1,63.83,93.76Z"/><path class="cls-8" d="M75,36.72A45.15,45.15,0,0,0,29.85,81.88c0,24.93,27.29,57.62,42.79,80.53,1.35,1.69,3.71,1.69,4.72,0,15.84-22.91,42.79-55.6,42.79-80.53A45.15,45.15,0,0,0,75,36.72Zm26.47,56.57H84.28V111.1H48.53V75.36H65.72V57.54h35.75Z"/><polygon class="cls-9" points="68.5 60.33 68.5 68.96 77.14 60.33 68.5 60.33"/><polygon class="cls-10" points="90.07 60.33 81.07 60.33 68.5 72.89 68.5 75.36 75.04 75.36 90.07 60.33"/><polygon class="cls-11" points="78.98 75.36 84.28 75.36 84.28 79.57 98.69 65.16 98.69 60.33 93.76 60.33 93.88 60.45 78.98 75.36"/></svg>