<svg id="Layer_1" data-name="Layer 1" xmlns="http://www.w3.org/2000/svg" xmlns:xlink="http://www.w3.org/1999/xlink" viewBox="0 0 50 50"><defs><style>.cls-1{fill:url(#linear-gradient);}.cls-2,.cls-3{fill:#fff;}.cls-2{fill-rule:evenodd;}</style><linearGradient id="linear-gradient" x1="0.08" y1="25" x2="49.92" y2="25" gradientUnits="userSpaceOnUse"><stop offset="0" stop-color="#793f98"/><stop offset="1" stop-color="#ac41d8"/></linearGradient></defs><path class="cls-1" d="M47.09,16.42,30.76,2.1a8.53,8.53,0,0,0-11.21,0L3.08,16.42a8.62,8.62,0,0,0-3,6.42V41.27A8.87,8.87,0,0,0,8.8,50H41.57a8.57,8.57,0,0,0,8.35-8.73V22.84A8.46,8.46,0,0,0,47.09,16.42Z"/><path class="cls-2" d="M17.59,12.17c0,1.56-1.45,2.71-2.69,3.38a12.3,12.3,0,0,1-2.28.9.11.11,0,0,0-.09.12v.55a.13.13,0,0,0,.17.13,13.06,13.06,0,0,0,2.57-1,6.68,6.68,0,0,0,2.55-2.2.12.12,0,0,1,.22,0A6.62,6.62,0,0,0,19.53,16a13.42,13.42,0,0,0,3.21,2.14.13.13,0,0,0,.19-.12v-.59a.14.14,0,0,0-.07-.12,12.51,12.51,0,0,1-2.8-1.89,4.65,4.65,0,0,1-1.68-3.1.13.13,0,0,0-.13-.13Z"/><path class="cls-2" d="M12.53,20.7a49.68,49.68,0,0,0,5.16-.59,38.36,38.36,0,0,0,5.94-1.44.14.14,0,0,0,.09-.13V14.43a.13.13,0,0,0,0-.11l-2.59-1.91a.13.13,0,0,1,.08-.24h7.5a.13.13,0,0,1,.07.24l-2.58,1.91a.11.11,0,0,0-.06.11V17.5a.13.13,0,0,0,.19.12,13.44,13.44,0,0,0,3.47-2.22,4.61,4.61,0,0,0,1.68-3.1.13.13,0,0,1,.13-.13h.54a.14.14,0,0,1,.13.13c.07,1.49,1.47,2.6,2.68,3.25a11.57,11.57,0,0,0,2.05.83.12.12,0,0,1,.09.12v.55a.13.13,0,0,1-.17.13,12.27,12.27,0,0,1-2.34-.93A6.66,6.66,0,0,1,32,14.05a.13.13,0,0,0-.23,0A6.59,6.59,0,0,1,30.29,16a14.78,14.78,0,0,1-4.12,2.56.13.13,0,0,0-.08.12V38.07a.13.13,0,0,1-.13.14H23.85a.13.13,0,0,1-.13-.14V19.66a.13.13,0,0,0-.17-.12,40.76,40.76,0,0,1-5.73,1.36c-1.7.28-3.42.47-5.15.59a.14.14,0,0,1-.14-.14V20.7Z"/><path class="cls-2" d="M37.05,20.81a.12.12,0,0,0-.12-.13c-1.61-.12-3.22-.3-4.81-.57A39.47,39.47,0,0,1,27.05,19a.13.13,0,0,0-.17.13v.55a.14.14,0,0,0,.1.13,42.1,42.1,0,0,0,5,1.14c1.63.27,3.27.45,4.92.57a.13.13,0,0,0,.14-.13Z"/><path class="cls-2" d="M15.94,8h1.32a.13.13,0,0,1,.13.13V9.46a.13.13,0,0,0,.13.13h.92a.13.13,0,0,0,.14-.13V8.13A.13.13,0,0,1,18.71,8H20a.13.13,0,0,1,.13.13V9.46a.13.13,0,0,0,.13.13h9.23a.13.13,0,0,0,.13-.13V8.13A.13.13,0,0,1,29.79,8H31.1a.13.13,0,0,1,.14.13V9.46a.13.13,0,0,0,.13.13h.92a.13.13,0,0,0,.13-.13V8.13A.13.13,0,0,1,32.56,8h1.31a.13.13,0,0,1,.13.13V9.46a.13.13,0,0,0,.14.13h.52a.13.13,0,0,1,.14.13v1.53a.13.13,0,0,1-.14.13l-19.51,0a.13.13,0,0,1-.13-.13V9.72a.13.13,0,0,1,.13-.13h.53a.13.13,0,0,0,.13-.13V8.13A.13.13,0,0,1,15.94,8Z"/><path class="cls-3" d="M3.76,43v1.58a.11.11,0,0,0,.11.11H22.19V42.85H3.87A.11.11,0,0,0,3.76,43Z"/><path class="cls-3" d="M46.07,42.85H27.39v1.81H46.07a.11.11,0,0,0,.11-.11V43A.11.11,0,0,0,46.07,42.85Z"/><path class="cls-3" d="M27.05,42.51h-.23a.23.23,0,0,0-.22.24v.1h-.12a.79.79,0,0,1-.78-.67h.11A.23.23,0,0,0,26,42v-.23a.22.22,0,0,0-.22-.22h-.45l.27-.34h.63a.34.34,0,1,0,0-.68H23.32a.34.34,0,0,0,0,.68h.62l.28.34h-.45a.22.22,0,0,0-.22.22V42a.23.23,0,0,0,.22.23h.11a.8.8,0,0,1-.79.67H23v-.1a.23.23,0,0,0-.22-.24h-.23a.24.24,0,0,0-.23.24v2a.24.24,0,0,0,.23.24h.23a.23.23,0,0,0,.22-.24v-.1H26.6v.1a.23.23,0,0,0,.22.24h.23a.24.24,0,0,0,.23-.24v-2A.24.24,0,0,0,27.05,42.51Zm-2.82-1.35h1.12l-.28.34H24.5Z"/><rect class="cls-3" x="3.77" y="38.9" width="42.47" height="0.52"/></svg>