<svg id="Layer_1" data-name="Layer 1" xmlns="http://www.w3.org/2000/svg" xmlns:xlink="http://www.w3.org/1999/xlink" viewBox="0 0 150 185"><defs><style>.cls-1{fill:#006b3f;}.cls-2{fill:url(#linear-gradient);}</style><linearGradient id="linear-gradient" x1="15.5" y1="101.28" x2="134.5" y2="101.28" gradientUnits="userSpaceOnUse"><stop offset="0" stop-color="#ff8c23"/><stop offset="1" stop-color="#ffb91a"/></linearGradient></defs><path class="cls-1" d="M137.73,89.66,91.34,49a24.21,24.21,0,0,0-31.82,0L12.77,89.66a24.45,24.45,0,0,0-8.52,18.23V160.2A25.19,25.19,0,0,0,29,185h93c13.35,0,23.7-11.44,23.7-24.79V107.89A24,24,0,0,0,137.73,89.66Z"/><path class="cls-2" d="M132.85,75.39h-7.41a1.8,1.8,0,0,0-1.78,1.78V78.8A8.92,8.92,0,0,0,117,76a7.22,7.22,0,0,0-3.11.59,9.44,9.44,0,0,0-5-7A6.46,6.46,0,0,0,109,68a9.19,9.19,0,1,0-18.37,0v.74a12.05,12.05,0,0,0-2.22.74,8.74,8.74,0,0,0-4-.89,7.34,7.34,0,0,0-3.11.59,9.45,9.45,0,0,0-5-7,6,6,0,0,0,.15-1.63,9.2,9.2,0,0,0-16.89-5A14.15,14.15,0,0,0,53,53.91a10.39,10.39,0,0,0-3.71.59,39.08,39.08,0,0,1,.6-11.4,2.47,2.47,0,0,0-1.63-2.52A1.74,1.74,0,0,0,46,41.91a37.7,37.7,0,0,0-.6,13.93,14.35,14.35,0,0,0-2.22,1.77,13.83,13.83,0,0,0-4,9.64A13,13,0,0,0,40.1,72a10.13,10.13,0,0,0-1.78,3.85A9.13,9.13,0,0,0,28.39,84h32.9a48.23,48.23,0,0,1-15.41-9.78l-.74-.74a.15.15,0,0,0-.15-.15,2.74,2.74,0,0,0-.59-.74v-.15L44,71.54h0l-.44-.89a8.55,8.55,0,0,1-.6-3.4,9.4,9.4,0,0,1,3-7l.44-.44A35.65,35.65,0,0,0,55.8,76.73a2.25,2.25,0,0,0,1.34.59,1.82,1.82,0,0,0,1.33-.59,1.88,1.88,0,0,0,0-2.67,32.23,32.23,0,0,1-8.74-16.3A11.78,11.78,0,0,1,53,57.17a10,10,0,0,1,4.15.89,13.76,13.76,0,0,1,1.48.89h0c.44.29.89.74,1.33,1a10.39,10.39,0,0,1,2.82,8.74V69a21.59,21.59,0,0,0,4.44,14.82h56.6V88H26.47V77.32a1.8,1.8,0,0,0-1.78-1.78H17.28a1.8,1.8,0,0,0-1.78,1.78v83a1.8,1.8,0,0,0,1.78,1.78h7.41a1.8,1.8,0,0,0,1.78-1.78h97a1.8,1.8,0,0,0,1.78,1.78h7.41a1.8,1.8,0,0,0,1.78-1.78v-83A1.65,1.65,0,0,0,132.85,75.39Zm-9.19,38.53v3.7H26.47v-3.7Zm0,29.63v3.7H26.47v-3.7Z"/></svg>