<svg id="Layer_1" data-name="Layer 1" xmlns="http://www.w3.org/2000/svg" xmlns:xlink="http://www.w3.org/1999/xlink" viewBox="0 0 150 185"><defs><style>.cls-1{fill:#006b3f;}.cls-2{fill:url(#linear-gradient);}</style><linearGradient id="linear-gradient" x1="15.45" y1="87.21" x2="134.55" y2="87.21" gradientUnits="userSpaceOnUse"><stop offset="0" stop-color="#ff8c23"/><stop offset="1" stop-color="#ffb91a"/></linearGradient></defs><path class="cls-1" d="M137.73,89.66,91.34,49a24.21,24.21,0,0,0-31.82,0L12.77,89.66a24.45,24.45,0,0,0-8.52,18.23V160.2A25.19,25.19,0,0,0,29,185h93c13.35,0,23.7-11.44,23.7-24.79V107.89A24,24,0,0,0,137.73,89.66Z"/><path class="cls-2" d="M129.14,30.91h-26.4a1.52,1.52,0,0,1-1.37-1L99.61,23.7A16,16,0,0,0,84.76,12.5H65.24A16,16,0,0,0,50.39,23.7l-1.76,6.17a1.53,1.53,0,0,1-1.37,1H20.86a5.41,5.41,0,0,0,0,10.82h.08a1.13,1.13,0,0,1,1.12,1.09L26,148.06a14.48,14.48,0,0,0,14.39,13.86h69.3A14.47,14.47,0,0,0,124,148.06l3.9-105.24a1.13,1.13,0,0,1,1.12-1.09h.08a5.41,5.41,0,1,0,0-10.82Zm-69.25-1,.91-3.21a5.26,5.26,0,0,1,4.44-3.34H84.76a5.26,5.26,0,0,1,4.44,3.34l.91,3.21a.77.77,0,0,1-.8,1H60.69A.77.77,0,0,1,59.89,29.88ZM54.25,78.1l7.24-12.53a2.12,2.12,0,0,1,1.84-1.06H86.08a2.1,2.1,0,0,1,1.83,1.06l4,7A2.11,2.11,0,0,1,96,73.68l-4.22,15.7a2.12,2.12,0,0,1-2,1.56,2.08,2.08,0,0,1-.55-.07l-15.7-4.22a2.12,2.12,0,1,1,1.1-4.09l.29.08-8.1-13.9H64.55L57.92,80.22a2.12,2.12,0,0,1-3.67-2.12ZM71,119.64h0l-14.48,0a2.1,2.1,0,0,1-1.83-1.06L43.33,98.8a2.12,2.12,0,0,1,0-2.11l4-7a2.11,2.11,0,0,1-1-4.09L62.07,81.5A2.12,2.12,0,0,1,64.66,83l2.75,10.41,1.4,5.31a2.11,2.11,0,0,1-1.51,2.58,2,2,0,0,1-.54.07,2.1,2.1,0,0,1-2-1.57l-.07-.26-8,14,1,1.8,13.25,0a2.12,2.12,0,0,1,0,4.23ZM106.66,99,95.25,118.63a2.11,2.11,0,0,1-1.83,1.06h0l-8,0a2.11,2.11,0,0,1-3,2.93L70.88,111.08a2.13,2.13,0,0,1,0-3L82.42,96.62a2.11,2.11,0,0,1,3,3l-.23.24h16.07l1.15-2L95.78,86.4a2.12,2.12,0,0,1,3.67-2.11l7.22,12.54A2.14,2.14,0,0,1,106.66,99Z"/></svg>