<svg id="Camada_1" data-name="Camada 1" xmlns="http://www.w3.org/2000/svg" xmlns:xlink="http://www.w3.org/1999/xlink" viewBox="0 0 400 275"><defs><style>.cls-1{fill:#d7d8d8;}.cls-2{fill:#fff;}.cls-3{clip-path:url(#clip-path);}.cls-4{clip-path:url(#clip-path-2);}.cls-5{clip-path:url(#clip-path-3);}.cls-6{clip-path:url(#clip-path-4);}.cls-7{clip-path:url(#clip-path-5);}.cls-8{clip-path:url(#clip-path-6);}.cls-9{clip-path:url(#clip-path-7);}.cls-10{clip-path:url(#clip-path-8);}.cls-11{clip-path:url(#clip-path-9);}</style><clipPath id="clip-path"><path class="cls-1" d="M152.62,147a78.51,78.51,0,0,0,9.08,5.11,142,142,0,0,1,25.5-.07,111.35,111.35,0,0,1,26,6c.8-.17,1.59-.35,2.37-.55a112.73,112.73,0,0,0-14.43-5.25,114.49,114.49,0,0,0-20.86-3.9,93.42,93.42,0,0,0-19.78-.11c0-.82,0-1.65,0-2.48s-.28-2.7.44-2.73c2-.06,3.93-.15,5.9-.36a111.43,111.43,0,0,1,12.92-.45,112.88,112.88,0,0,1,27,3.74,110.4,110.4,0,0,1,20.46,7.65c.53-.22,1.07-.45,1.6-.69A112.23,112.23,0,0,0,185,138.69c-7.9-.89-16.41-1.43-24.26.15.07-1.16.13-2.33.21-3.49.06-.77-.22-1.17.66-1.19l1.83,0c2.34,0,4.67-.36,7-.41,4.36-.21,8.69-.37,13.06-.22a113.09,113.09,0,0,1,27.34,4.4,111.63,111.63,0,0,1,25.64,11l1.35-.81-.12-.08a115.29,115.29,0,0,0-48-18.1c-8.61-1.21-17.65-1.76-26.28-.39-.67.11-1.32.26-2,.42.13-1.14.28-2.27.45-3.41.08-.6.17-1.19.27-1.78.59,0,1.2,0,1.8,0,2.19,0,4.39-.13,6.58-.28,3.87-.28,7.76-.4,11.64-.3A114.62,114.62,0,0,1,243.86,144c.38-.28.75-.57,1.12-.86A117.32,117.32,0,0,0,223.46,130c-16.46-7.74-35.52-12-53.76-10.83a44.1,44.1,0,0,0-6.76.91c.24-1.24.49-2.47.76-3.7,1.18,0,2.35,0,3.52,0,1.93,0,3.87-.16,5.79-.27a119.72,119.72,0,0,1,12.13-.12,114.6,114.6,0,0,1,64.57,23.23l1-1A116.64,116.64,0,0,0,228.15,123,115.32,115.32,0,0,0,173,110.37a46.22,46.22,0,0,0-8.05.87c.24-1,.52-2,.78-3s.69-.61,1.71-.59c2.41,0,4.83,0,7.24-.13,3.74-.16,7.47-.38,11.21-.34a112.32,112.32,0,0,1,28.36,3.86,116.35,116.35,0,0,1,42.11,21.28c.31-.36.62-.73.92-1.1a115.86,115.86,0,0,0-77.91-29.7,47.48,47.48,0,0,0-12,1.39c.3-1,.6-1.89.94-2.82.25-.67,1.88-.26,2.58-.24,2.5.07,5,0,7.51-.11,3.7-.14,7.38-.33,11.08-.29a112.48,112.48,0,0,1,28.14,3.9,116,116,0,0,1,43.65,22.68c.32-.45.63-.91.94-1.36a113.5,113.5,0,0,0-18.91-14.29,116,116,0,0,0-55.46-16.74c-5.92-.24-11.89-.15-17.64,1.46.45-1.14.92-2.29,1.4-3.43.41-1,1.5-.49,2.47-.47,2.57,0,5.14,0,7.71-.14,3.69-.13,7.37-.31,11.07-.24a112.68,112.68,0,0,1,28.68,4.27A116.3,116.3,0,0,1,265.7,119c.28-.47.54-1,.8-1.44a114.36,114.36,0,0,0-19.06-15A116.87,116.87,0,0,0,192.09,85c-6-.3-12-.37-17.89,1.05.52-1.05,1-2.1,1.56-3.15.94.14,1.88.18,2.83.24,2.47.15,5,.09,7.45,0,3.81-.11,7.6-.3,11.41-.27A110.61,110.61,0,0,1,225,86.5a115.4,115.4,0,0,1,45.13,23.38c.27-.67.54-1.35.79-2a115.83,115.83,0,0,0-67.61-30.7c-8.29-.87-17-1.17-25.08,1.21.61-1.08,1.24-2.15,1.88-3.21.4-.68.37-1.08,1.21-1l1.6.09c2.52.11,5.06,0,7.59,0,3.82-.14,7.64-.33,11.47-.29A112,112,0,0,1,230,77.79,115.9,115.9,0,0,1,273.3,100.2c.17-.67.34-1.34.5-2a114.39,114.39,0,0,0-16-12.23A117,117,0,0,0,202.51,68c-6.19-.36-12.53-.45-18.59,1l1.82-2.69c.36-.54.39-.89,1.08-.85.5,0,1,0,1.5,0,2.44,0,4.88-.06,7.33-.17,3.69-.15,7.39-.36,11.09-.31a112.52,112.52,0,0,1,28.55,4.05,116.7,116.7,0,0,1,40.06,20c.07-.62.13-1.25.19-1.87a115.76,115.76,0,0,0-75.8-27.87,52.48,52.48,0,0,0-9.44.81l1.82-2.19.79-1a4.78,4.78,0,0,1,1.82,0l.91.07c4,0,8-.37,12-.52a114.47,114.47,0,0,1,68.11,19.15c0-.65-.07-1.28-.13-1.93a117.5,117.5,0,0,0-18.06-10.92c-16.73-8.14-36.07-12.5-54.7-11.47a48.63,48.63,0,0,0-5.51.62c.78-.85,1.55-1.7,2.37-2.52L201,48.28a1.17,1.17,0,0,1,1.09-.43h.33c2.39,0,4.79-.06,7.17-.31A119.67,119.67,0,0,1,223,47.08a112,112,0,0,1,50.35,13c-.18-.7-.37-1.38-.57-2.07a124,124,0,0,0-15.08-7.3,114.23,114.23,0,0,0-25.89-6.86c-8.29-1.22-17-1.82-25.33-.74,1.41-1.29,2.85-2.53,4.33-3.75a41,41,0,0,0,5.08-.1c3.33-.2,6.63-.69,10-.81a125.82,125.82,0,0,1,22.62,1.06A109.16,109.16,0,0,1,267.22,44c-.32-.62-.64-1.24-1-1.85a108.32,108.32,0,0,0-10.78-3.46,115.09,115.09,0,0,0-20.37-3.41,87,87,0,0,0-19.49.26c2.4-1.78,4.81-3.5,7.29-5.15,2.58-.12,5.13-.45,7.69-.71a114.74,114.74,0,0,1,19.79-.31c2.67.18,5.31.47,7.94.85-.48-.59-1-1.18-1.47-1.76a114.82,114.82,0,0,0-28.2-1.67A128.29,128.29,0,0,1,246.17,18c-.51-.41-1-.81-1.55-1.21C167.22,52,154.56,120.41,152.62,147"/></clipPath><clipPath id="clip-path-2"><path class="cls-2" d="M51.22,224.67a3.51,3.51,0,0,0-1.37.21,1.87,1.87,0,0,0-1,.89L32.27,256.05a29.85,29.85,0,0,0-1.58,3.64,25,25,0,0,0-1.58-3.57l-17-30.35a1.82,1.82,0,0,0-.89-.89,3.6,3.6,0,0,0-1.38-.21H0v3a1.2,1.2,0,0,0,1.1,1.24c.41.14,1.64.41,3.84.82v39.14l-3.84.83A1.19,1.19,0,0,0,0,271v3H16.41v-3a1.09,1.09,0,0,0-.89-1.23c-.62-.14-2.2-.42-4.67-.83V237.72a28.31,28.31,0,0,0-.18-3.05l17.07,30.65a2.75,2.75,0,0,0,2.47,1.58h1a2.57,2.57,0,0,0,2.34-1.58L50.4,234.56a26,26,0,0,0-.14,3.23v31.1c-2.4.41-3.91.69-4.6.83a1.13,1.13,0,0,0-1,1.23v3H61.11v-3a1.19,1.19,0,0,0-1.1-1.23c-.41-.14-1.72-.42-3.91-.83V229.75l3.91-.82a1.2,1.2,0,0,0,1.1-1.24v-3Z"/></clipPath><clipPath id="clip-path-3"><path class="cls-2" d="M95.16,235.73c.41-1.1.82-2.61,1.37-4.67a30.25,30.25,0,0,0,1.51,4.6l7.28,19H87.81Zm-1.92-10.92L75.38,269.3l-2.74.83a1,1,0,0,0-.9,1.09V274H85.82v-2.75a1,1,0,0,0-.89-1.09l-2.82-.83L86,259.42h21.22L111,269.3l-2.82.83a1.05,1.05,0,0,0-1,1.09V274h14.15v-2.75a1,1,0,0,0-.89-1.09l-2.75-.83L100,224.81Z"/></clipPath><clipPath id="clip-path-4"><path class="cls-2" d="M155.18,224.26c-7.55,0-13.73,2.34-18.26,7s-6.87,10.72-6.87,18.13,2.2,13.46,6.46,18.13,10,7,17,7q11.34,0,17.72-7.41l-2.61-2.89a1.56,1.56,0,0,0-1.1-.41,1.72,1.72,0,0,0-1.1.55,17.85,17.85,0,0,1-6,3.57,19.79,19.79,0,0,1-6.52.82,15.68,15.68,0,0,1-12.15-5.08c-3.3-3.57-4.95-8.37-4.95-14.28s1.72-10.64,5-14.21c5.22-5.5,12.84-6.66,23.14-3.37,0,.28.13,1.31.27,3.09s.21,2.82.27,3.09a1.39,1.39,0,0,0,1.52,1.24h3.29V227.69c-6.25-2.33-11.4-3.5-15.24-3.5Z"/></clipPath><clipPath id="clip-path-5"><path class="cls-2" d="M205.49,235.73c.42-1.1.83-2.61,1.38-4.67a30.34,30.34,0,0,0,1.5,4.6l7.29,19H198.14Zm-1.92-10.92L185.72,269.3l-2.75.83a1,1,0,0,0-.89,1.09V274h14.08v-2.75a1,1,0,0,0-.9-1.09l-2.82-.83,3.85-9.88h21.22l3.84,9.88-2.81.83a1,1,0,0,0-1,1.09V274h14.14v-2.75a1,1,0,0,0-.9-1.09l-2.75-.83L210.3,224.81Z"/></clipPath><clipPath id="clip-path-6"><path class="cls-2" d="M312.39,251.59H323c3.64,0,6.39.68,8.17,2.19a7.45,7.45,0,0,1,2.61,6,9.84,9.84,0,0,1-.55,3.57c-1.37,3.57-4.73,5.35-10.23,5.35l.07-.07H312.39Zm0-21.56h9.06c3.71,0,6.32.68,8.11,2.06s2.61,3.43,2.61,6.31a9.53,9.53,0,0,1-.69,3.43q-2.07,4.95-10.3,4.95h-8.79Zm-11.6-5.36v3a1.15,1.15,0,0,0,1,1.24c.41.14,1.71.41,3.91.82v39.14l-3.91.83a1.13,1.13,0,0,0-1,1.23v3H323.1q8.14,0,12.77-3.91A12.32,12.32,0,0,0,340.4,260c0-6.05-3.57-9.82-10.84-11.27a14.08,14.08,0,0,0,7-4.46,11,11,0,0,0,1.65-3.09,12,12,0,0,0,.55-4.12,12.4,12.4,0,0,0-1-4.87c-2.13-4.95-7.56-7.49-16.35-7.49Z"/></clipPath><clipPath id="clip-path-7"><path class="cls-2" d="M373.77,235.73c.41-1.1.82-2.61,1.37-4.67a30.16,30.16,0,0,0,1.52,4.6l7.27,19H366.42Zm-1.92-10.92L354,269.3l-2.75.83a1,1,0,0,0-.9,1.09V274h14.08v-2.75a1,1,0,0,0-.89-1.09l-2.81-.83,3.84-9.88h21.22l3.84,9.88-2.81.83a1.05,1.05,0,0,0-1,1.09V274H400v-2.75a1,1,0,0,0-.89-1.09l-2.75-.83-17.78-44.49Z"/></clipPath><clipPath id="clip-path-8"><path class="cls-2" d="M282.84,224.81H270.62v2.88a1.27,1.27,0,0,0,1.1,1.31c.34.07,1.85.34,4.53.75v24.93a14.59,14.59,0,0,1-3.44,10.09,12.34,12.34,0,0,1-9.61,3.91,12.21,12.21,0,0,1-9.54-3.91c-2.34-2.54-3.44-6-3.44-10.16V229.75c2.75-.41,4.26-.68,4.6-.75a1.21,1.21,0,0,0,1-1.31v-2.88H238.62v2.88a1.27,1.27,0,0,0,1.1,1.31c.41.14,1.65.41,3.84.82v24.93a19.72,19.72,0,0,0,5.29,14.14c3.57,3.78,8.44,5.7,14.35,5.7s10.71-1.92,14.28-5.7a20,20,0,0,0,5.22-14.14V229.82l4-.75a1.21,1.21,0,0,0,1-1.31v-2.95Z"/></clipPath><clipPath id="clip-path-9"><path class="cls-2" d="M268.68,214.25H268a.77.77,0,0,0-.5.28c-.15.13-.36.13-.51.27a3.31,3.31,0,0,0-.45.55l-5.3,7h3.43a1.78,1.78,0,0,0,.91-.14,5.14,5.14,0,0,0,.7-.54l7.47-7.42h-5.09Z"/></clipPath></defs><path class="cls-2" d="M116.6,73.11c0,.29,0,.58-.07.87a112.17,112.17,0,0,1,26.95,38.08c1.29,3,2.49,6,3.51,9.13.45,1.35.93,2.69,1.33,4.06s1.26,2.65,1,3.94a122.47,122.47,0,0,0-18.88-30.1,116.42,116.42,0,0,0-14-13.5c0,.32,0,.64.08,1a114.61,114.61,0,0,1,30.5,49.88,115.36,115.36,0,0,0-28.92-39.27c.12.55.24,1.08.37,1.62a115.92,115.92,0,0,1,22.1,32.65c1.36,3.06,2.56,6.16,3.66,9.31A79.8,79.8,0,0,0,161.67,152a141.84,141.84,0,0,1,25.49-.07,111.35,111.35,0,0,1,26,6c.8-.17,1.58-.35,2.37-.55a111.63,111.63,0,0,0-14.42-5.25,114.76,114.76,0,0,0-20.87-3.9,92.11,92.11,0,0,0-19.78-.1q0-1.25,0-2.49c0-.69-.28-2.71.44-2.73,2-.06,3.93-.15,5.9-.36a116.65,116.65,0,0,1,39.91,3.29,109.72,109.72,0,0,1,20.46,7.66l1.6-.7a113,113,0,0,0-18.42-8.43,115.33,115.33,0,0,0-25.42-5.76c-7.89-.88-16.41-1.42-24.26.16.07-1.16.13-2.33.21-3.49.06-.77-.22-1.17.67-1.19l1.82,0c2.35,0,4.67-.36,7-.41,4.36-.21,8.69-.37,13.06-.23a113.6,113.6,0,0,1,27.34,4.41,112.3,112.3,0,0,1,25.65,11l1.34-.8-.11-.09a116.89,116.89,0,0,0-20.82-10.9,115.13,115.13,0,0,0-27.18-7.19c-8.62-1.21-17.67-1.77-26.29-.39-.67.11-1.32.25-2,.42.13-1.14.28-2.28.45-3.41.08-.6.17-1.19.26-1.78l1.81,0c2.2,0,4.39-.13,6.58-.29,3.87-.27,7.76-.39,11.64-.29A114.45,114.45,0,0,1,243.83,144l1.11-.86A117,117,0,0,0,223.43,130c-16.47-7.75-35.53-12-53.77-10.83a44.1,44.1,0,0,0-6.76.91c.24-1.24.49-2.47.76-3.7,1.18,0,2.35,0,3.53,0,1.93,0,3.86-.15,5.78-.26a119.72,119.72,0,0,1,12.13-.13,114.73,114.73,0,0,1,64.57,23.24l1.05-1A115.68,115.68,0,0,0,173,110.34a47.56,47.56,0,0,0-8.06.88c.25-1,.53-2,.8-3s.69-.61,1.7-.58c2.42.06,4.84,0,7.25-.13,3.73-.16,7.46-.38,11.19-.35a112.35,112.35,0,0,1,28.37,3.87,116.35,116.35,0,0,1,42.11,21.28c.31-.37.62-.73.92-1.1a115.72,115.72,0,0,0-77.91-29.7,47.43,47.43,0,0,0-12,1.39c.3-.94.6-1.89.94-2.82.25-.68,1.89-.26,2.58-.24,2.5.06,5,0,7.52-.11,3.69-.14,7.37-.33,11.07-.29a112.41,112.41,0,0,1,28.14,3.9A116.08,116.08,0,0,1,261.24,126c.32-.44.63-.9.94-1.35a113,113,0,0,0-18.91-14.29,116.17,116.17,0,0,0-55.46-16.75c-5.92-.23-11.89-.14-17.64,1.47.46-1.15.92-2.29,1.4-3.43.41-1,1.5-.49,2.47-.48,2.57,0,5.14,0,7.71-.13,3.69-.14,7.38-.31,11.07-.24A112.68,112.68,0,0,1,221.5,95.1,116.3,116.3,0,0,1,265.67,119c.26-.48.53-1,.79-1.45a114,114,0,0,0-19.06-15A116.73,116.73,0,0,0,192.05,85c-6-.3-12.05-.37-17.88,1,.51-1,1-2.11,1.55-3.15.94.13,1.89.18,2.83.23,2.47.16,5,.1,7.46,0,3.8-.11,7.6-.29,11.4-.26a110.61,110.61,0,0,1,27.51,3.62,115.49,115.49,0,0,1,45.14,23.37c.27-.66.53-1.34.78-2a116,116,0,0,0-67.61-30.69c-8.29-.87-17-1.17-25.07,1.21.61-1.08,1.23-2.15,1.87-3.21.4-.68.37-1.08,1.21-1l1.6.09c2.53.11,5.07,0,7.59-.06,3.83-.13,7.65-.32,11.47-.28A112,112,0,0,1,230,77.77a115.9,115.9,0,0,1,43.27,22.41c.18-.67.34-1.34.5-2a112.89,112.89,0,0,0-16-12.23A117.06,117.06,0,0,0,202.47,68c-6.19-.36-12.53-.44-18.59,1.06l1.82-2.69c.36-.54.4-.89,1.08-.85.5,0,1,0,1.5,0,2.44,0,4.89-.07,7.33-.17,3.7-.15,7.39-.36,11.09-.31a112.75,112.75,0,0,1,28.54,4,116.68,116.68,0,0,1,40.07,20c.07-.62.14-1.25.19-1.87a115.76,115.76,0,0,0-75.79-27.87,51.62,51.62,0,0,0-9.45.81l1.82-2.2c.27-.31.52-.63.79-1s2.36,0,2.73,0c4,0,8-.38,12-.52a114.54,114.54,0,0,1,68.11,19.14c0-.64-.07-1.28-.13-1.92A116.34,116.34,0,0,0,257.49,62.9c-16.72-8.14-36.05-12.51-54.69-11.47a48.63,48.63,0,0,0-5.51.62c.78-.86,1.55-1.7,2.37-2.52l1.27-1.27c.54-.54.7-.42,1.42-.43,2.39,0,4.79-.07,7.17-.31a119.76,119.76,0,0,1,13.39-.47,112.07,112.07,0,0,1,50.34,13c-.17-.7-.36-1.39-.56-2.07a124,124,0,0,0-15.08-7.3,113.84,113.84,0,0,0-25.89-6.86c-8.29-1.22-17-1.82-25.33-.74,1.42-1.29,2.85-2.54,4.33-3.75a43.07,43.07,0,0,0,5.08-.1c3.33-.21,6.64-.7,10-.82a126.75,126.75,0,0,1,22.62,1.07,109.16,109.16,0,0,1,18.79,4.47c-.32-.62-.64-1.24-1-1.86a110.94,110.94,0,0,0-10.78-3.45,114.19,114.19,0,0,0-20.37-3.41,86.4,86.4,0,0,0-19.49.26c2.4-1.78,4.81-3.5,7.29-5.15,2.58-.12,5.13-.46,7.7-.72a115.62,115.62,0,0,1,19.78-.3c2.67.18,5.31.47,7.94.85q-.72-.9-1.47-1.77a115.31,115.31,0,0,0-28.2-1.66A128.29,128.29,0,0,1,246.13,18c-.58-.46-1.16-.92-1.75-1.37a125.15,125.15,0,0,0-22.42,10c-.29-2.9-1.62-5.95-2.79-8.59-1.45-3.45-2.95-6.88-4.73-10.19q-1.68-3.12-3.53-6.1c-.55-.11-1.12-.21-1.67-.3a129.16,129.16,0,0,1,5.23,12.45A94.15,94.15,0,0,1,218,25.75a11.61,11.61,0,0,0,.56,1.63c.31.74.73.77-.08,1.23-1,.56-1.91,1.14-2.85,1.74-2.11,1.35-4.21,2.69-6.25,4.14-.32-3.71-2-7.68-3.61-11a117.15,117.15,0,0,0-6-12.08c-2.28-3.83-4.72-7.47-7.32-11l-1.22.07a120.34,120.34,0,0,1,8.52,16.8,144.62,144.62,0,0,1,4.77,14.36c.27.94.49,1.89.85,2.81a11.26,11.26,0,0,0,.62,1.37c.49,1,.37.8-.49,1.45-2.13,1.61-4.27,3.27-6.28,5-.28-4.36-2.31-9-4.14-12.9a120.68,120.68,0,0,0-7.41-14.11,119.63,119.63,0,0,0-9.19-12.82l-.11-.13-1.2.28A103.56,103.56,0,0,1,187,19.68a135.57,135.57,0,0,1,6.16,16.22,44.59,44.59,0,0,0,2.45,7.23,11.42,11.42,0,0,0,.65,1.13c.4.59-.67,1.1-1.14,1.51-1.27,1.1-2.46,2.31-3.67,3.48-1.12-5-3.48-9.87-5.73-14.44A115.22,115.22,0,0,0,177,19.91,114.17,114.17,0,0,0,165.79,6.28l-1.1.46a113.14,113.14,0,0,1,13.52,21,120.91,120.91,0,0,1,7.14,18.1c.37,1.19.7,2.39,1.08,3.57.21.65.45,1.28.71,1.91s.93,1.34.32,2c-1.39,1.47-2.75,2.93-4.07,4.46-.88-5.22-3.36-10.28-5.65-15a111.68,111.68,0,0,0-22.39-31.29l-1,.62A112.35,112.35,0,0,1,168,32a124.13,124.13,0,0,1,7.64,17.6c.94,2.67,1.59,5.45,2.59,8.1a19.88,19.88,0,0,0,1.91,4l-3,3.85c-1.21-5.69-3.83-11.21-6.42-16.38a115.37,115.37,0,0,0-10-16.37A113.41,113.41,0,0,0,147,17.22l-.8.64A112.58,112.58,0,0,1,160.05,36.3,111.38,111.38,0,0,1,169,54.68c1.08,2.93,2.14,5.87,3,8.87A35.15,35.15,0,0,0,173.66,68c.13.3.26.6.41.9.31.66-.14.89-.53,1.46-.61.87-1.21,1.74-1.8,2.62a85.17,85.17,0,0,0-7.09-16.52,112.17,112.17,0,0,0-25.53-32.23c-.24.25-.48.49-.72.75a113,113,0,0,1,15,18.57A118.44,118.44,0,0,1,162.94,62c1.21,2.95,2.24,5.95,3.25,9,.46,1.37.85,2.77,1.35,4.13.34.92.73,1.82,1.11,2.7-.54.9-1.07,1.8-1.59,2.71-1.51-5.88-4.29-11.59-7.12-16.94a115.45,115.45,0,0,0-11.05-17.12,114.89,114.89,0,0,0-15.26-16l-.64.82a112.81,112.81,0,0,1,15.59,19.29,111.91,111.91,0,0,1,9.74,18.95c1.16,3,2.19,5.93,3.19,8.93.48,1.36.85,2.75,1.38,4.1.34.86.7,1.71,1.09,2.55s-.52,1.94-.94,2.78A85,85,0,0,0,155.72,71a112.2,112.2,0,0,0-27.2-33.36l-.56.9a112.86,112.86,0,0,1,16.2,19.54A115.45,115.45,0,0,1,154.1,77c1.24,3,2.32,6.14,3.37,9.25.51,1.53.95,3.08,1.55,4.58.32.81.67,1.61,1,2.41s-.3,1.57-.63,2.31c-1.55-6-4.42-11.89-7.34-17.36a115.44,115.44,0,0,0-11.11-17,114.27,114.27,0,0,0-16.27-16.7l-.48,1A111.91,111.91,0,0,1,140.6,65.35a110.89,110.89,0,0,1,10,19.43c1.17,3,2.29,6,3.27,9.12a44.07,44.07,0,0,0,1.63,4.6c.34.81.68,1.62,1.08,2.41s.2,1.08-.14,2a117.12,117.12,0,0,0-18.51-32A116,116,0,0,0,120.72,53.9l-.27.78a115.56,115.56,0,0,1,17.7,20.65,114.36,114.36,0,0,1,9.95,18.5,92.34,92.34,0,0,1,3.36,8.84c.42,1.27.8,2.56,1.24,3.83.48,1.53,1.46,2.91,1,4.45a118.87,118.87,0,0,0-18.13-31.9A116.68,116.68,0,0,0,118.4,61.87c-.07.26-.12.52-.18.78A115.89,115.89,0,0,1,135.77,83.5a114.8,114.8,0,0,1,9.58,18.11,94.27,94.27,0,0,1,3.42,9.16c.43,1.28.82,2.58,1.24,3.86.31.94.66,1.87,1.06,2.78a3,3,0,0,1,.23,2.37c-7.23-18.49-19.52-34.2-34.7-46.67"/><path class="cls-1" d="M152.62,147a78.51,78.51,0,0,0,9.08,5.11,142,142,0,0,1,25.5-.07,111.35,111.35,0,0,1,26,6c.8-.17,1.59-.35,2.37-.55a112.73,112.73,0,0,0-14.43-5.25,114.49,114.49,0,0,0-20.86-3.9,93.42,93.42,0,0,0-19.78-.11c0-.82,0-1.65,0-2.48s-.28-2.7.44-2.73c2-.06,3.93-.15,5.9-.36a111.43,111.43,0,0,1,12.92-.45,112.88,112.88,0,0,1,27,3.74,110.4,110.4,0,0,1,20.46,7.65c.53-.22,1.07-.45,1.6-.69A112.23,112.23,0,0,0,185,138.69c-7.9-.89-16.41-1.43-24.26.15.07-1.16.13-2.33.21-3.49.06-.77-.22-1.17.66-1.19l1.83,0c2.34,0,4.67-.36,7-.41,4.36-.21,8.69-.37,13.06-.22a113.09,113.09,0,0,1,27.34,4.4,111.63,111.63,0,0,1,25.64,11l1.35-.81-.12-.08a115.29,115.29,0,0,0-48-18.1c-8.61-1.21-17.65-1.76-26.28-.39-.67.11-1.32.26-2,.42.13-1.14.28-2.27.45-3.41.08-.6.17-1.19.27-1.78.59,0,1.2,0,1.8,0,2.19,0,4.39-.13,6.58-.28,3.87-.28,7.76-.4,11.64-.3A114.62,114.62,0,0,1,243.86,144c.38-.28.75-.57,1.12-.86A117.32,117.32,0,0,0,223.46,130c-16.46-7.74-35.52-12-53.76-10.83a44.1,44.1,0,0,0-6.76.91c.24-1.24.49-2.47.76-3.7,1.18,0,2.35,0,3.52,0,1.93,0,3.87-.16,5.79-.27a119.72,119.72,0,0,1,12.13-.12,114.6,114.6,0,0,1,64.57,23.23l1-1A116.64,116.64,0,0,0,228.15,123,115.32,115.32,0,0,0,173,110.37a46.22,46.22,0,0,0-8.05.87c.24-1,.52-2,.78-3s.69-.61,1.71-.59c2.41,0,4.83,0,7.24-.13,3.74-.16,7.47-.38,11.21-.34a112.32,112.32,0,0,1,28.36,3.86,116.35,116.35,0,0,1,42.11,21.28c.31-.36.62-.73.92-1.1a115.86,115.86,0,0,0-77.91-29.7,47.48,47.48,0,0,0-12,1.39c.3-1,.6-1.89.94-2.82.25-.67,1.88-.26,2.58-.24,2.5.07,5,0,7.51-.11,3.7-.14,7.38-.33,11.08-.29a112.48,112.48,0,0,1,28.14,3.9,116,116,0,0,1,43.65,22.68c.32-.45.63-.91.94-1.36a113.5,113.5,0,0,0-18.91-14.29,116,116,0,0,0-55.46-16.74c-5.92-.24-11.89-.15-17.64,1.46.45-1.14.92-2.29,1.4-3.43.41-1,1.5-.49,2.47-.47,2.57,0,5.14,0,7.71-.14,3.69-.13,7.37-.31,11.07-.24a112.68,112.68,0,0,1,28.68,4.27A116.3,116.3,0,0,1,265.7,119c.28-.47.54-1,.8-1.44a114.36,114.36,0,0,0-19.06-15A116.87,116.87,0,0,0,192.09,85c-6-.3-12-.37-17.89,1.05.52-1.05,1-2.1,1.56-3.15.94.14,1.88.18,2.83.24,2.47.15,5,.09,7.45,0,3.81-.11,7.6-.3,11.41-.27A110.61,110.61,0,0,1,225,86.5a115.4,115.4,0,0,1,45.13,23.38c.27-.67.54-1.35.79-2a115.83,115.83,0,0,0-67.61-30.7c-8.29-.87-17-1.17-25.08,1.21.61-1.08,1.24-2.15,1.88-3.21.4-.68.37-1.08,1.21-1l1.6.09c2.52.11,5.06,0,7.59,0,3.82-.14,7.64-.33,11.47-.29A112,112,0,0,1,230,77.79,115.9,115.9,0,0,1,273.3,100.2c.17-.67.34-1.34.5-2a114.39,114.39,0,0,0-16-12.23A117,117,0,0,0,202.51,68c-6.19-.36-12.53-.45-18.59,1l1.82-2.69c.36-.54.39-.89,1.08-.85.5,0,1,0,1.5,0,2.44,0,4.88-.06,7.33-.17,3.69-.15,7.39-.36,11.09-.31a112.52,112.52,0,0,1,28.55,4.05,116.7,116.7,0,0,1,40.06,20c.07-.62.13-1.25.19-1.87a115.76,115.76,0,0,0-75.8-27.87,52.48,52.48,0,0,0-9.44.81l1.82-2.19.79-1a4.78,4.78,0,0,1,1.82,0l.91.07c4,0,8-.37,12-.52a114.47,114.47,0,0,1,68.11,19.15c0-.65-.07-1.28-.13-1.93a117.5,117.5,0,0,0-18.06-10.92c-16.73-8.14-36.07-12.5-54.7-11.47a48.63,48.63,0,0,0-5.51.62c.78-.85,1.55-1.7,2.37-2.52L201,48.28a1.17,1.17,0,0,1,1.09-.43h.33c2.39,0,4.79-.06,7.17-.31A119.67,119.67,0,0,1,223,47.08a112,112,0,0,1,50.35,13c-.18-.7-.37-1.38-.57-2.07a124,124,0,0,0-15.08-7.3,114.23,114.23,0,0,0-25.89-6.86c-8.29-1.22-17-1.82-25.33-.74,1.41-1.29,2.85-2.53,4.33-3.75a41,41,0,0,0,5.08-.1c3.33-.2,6.63-.69,10-.81a125.82,125.82,0,0,1,22.62,1.06A109.16,109.16,0,0,1,267.22,44c-.32-.62-.64-1.24-1-1.85a108.32,108.32,0,0,0-10.78-3.46,115.09,115.09,0,0,0-20.37-3.41,87,87,0,0,0-19.49.26c2.4-1.78,4.81-3.5,7.29-5.15,2.58-.12,5.13-.45,7.69-.71a114.74,114.74,0,0,1,19.79-.31c2.67.18,5.31.47,7.94.85-.48-.59-1-1.18-1.47-1.76a114.82,114.82,0,0,0-28.2-1.67A128.29,128.29,0,0,1,246.17,18c-.51-.41-1-.81-1.55-1.21C167.22,52,154.56,120.41,152.62,147"/><g class="cls-3"><rect class="cls-1" x="140.77" y="6.78" width="146.8" height="161.27" transform="translate(-12.35 40.53) rotate(-10.51)"/></g><path class="cls-1" d="M45.55,205v.65H43.28a1.1,1.1,0,0,1-.45-.1,1.15,1.15,0,0,1-.36-.32l-7.35-9.3a2,2,0,0,0-.59-.52,2.33,2.33,0,0,0-1-.13H30.84v9.07c.39,0,.71,0,1,0s.55,0,.71,0h.32c.43,0,.65.22.65.58v.65H26.43V205c0-.36.23-.55.65-.58h.33c.16,0,.38,0,.71,0s.68,0,1.07,0V184c-.39,0-.75,0-1.07,0s-.55,0-.71,0h-.33c-.42,0-.61-.23-.61-.59v-.61h8.29c2.66,0,4.63.52,5.93,1.52a5.37,5.37,0,0,1,1.94,4.47,6.33,6.33,0,0,1-.45,2.4A6,6,0,0,1,40.89,193a7,7,0,0,1-2,1.36,8.49,8.49,0,0,1-2.72.68,2.74,2.74,0,0,1,.71.65l6.87,8.65c.2,0,.39,0,.58,0h.65c.43,0,.62.22.62.58m-8.29-11.31a5.74,5.74,0,0,0,2-1.07A4.42,4.42,0,0,0,40.59,191a4.93,4.93,0,0,0,.42-2.14,4.2,4.2,0,0,0-1.58-3.63,7.93,7.93,0,0,0-4.67-1.2H30.84v10h3.69a10,10,0,0,0,2.73-.36"/><path class="cls-1" d="M98.53,182.73v4.73h-.81c-.45,0-.65-.26-.68-.78,0-.29-.06-1.17-.13-2.59H86.45v9.27h9.13v1.33H86.45v9.55H96.91c0-.29,0-.61.07-1.1s0-.81,0-1,0-.35,0-.42c0-.51.23-.81.68-.81h.81v4.77H82.07V205c0-.36.2-.55.62-.58H83c.16,0,.39,0,.71,0s.69,0,1.07,0V184c-.38,0-.74,0-1.07,0s-.55,0-.71,0h-.32c-.42,0-.65-.23-.65-.58v-.62H98.53Z"/><path class="cls-1" d="M149.63,198.93a7.59,7.59,0,0,1-.48,2.72,6.51,6.51,0,0,1-1.46,2.21,6.78,6.78,0,0,1-2.3,1.49,8.58,8.58,0,0,1-3.11.55,15.58,15.58,0,0,1-6.16-1.27v-5.12h.78c.45,0,.68.26.71.78a5.46,5.46,0,0,0,0,.59c0,.35,0,.77.06,1.29s0,1,.06,1.46a10.71,10.71,0,0,0,4.57.87,6.21,6.21,0,0,0,2.43-.39,4.76,4.76,0,0,0,1.82-1.13,5,5,0,0,0,1.1-1.68,5.69,5.69,0,0,0,.39-2.11,3.72,3.72,0,0,0-.49-2,4,4,0,0,0-1.29-1.29,7.77,7.77,0,0,0-1.85-.91c-.72-.23-1.39-.46-2.11-.68s-1.45-.49-2.14-.78a7.45,7.45,0,0,1-1.81-1.07,4.86,4.86,0,0,1-1.33-1.62,5.61,5.61,0,0,1-.49-2.46,6.06,6.06,0,0,1,.42-2.24,5.93,5.93,0,0,1,1.3-1.88,5.79,5.79,0,0,1,2.08-1.29,7.71,7.71,0,0,1,2.85-.49,14.83,14.83,0,0,1,5.9,1.33v4.7h-.78c-.46,0-.65-.29-.69-.81,0-.16-.06-1.2-.15-3.05a10.88,10.88,0,0,0-4.28-.81,6.52,6.52,0,0,0-2.21.36,4.3,4.3,0,0,0-1.59,1,4.25,4.25,0,0,0-1,1.42,4.39,4.39,0,0,0-.36,1.69,3.6,3.6,0,0,0,.51,1.94,4.24,4.24,0,0,0,1.3,1.3,9.65,9.65,0,0,0,1.85.91c.68.23,1.39.48,2.11.71a22.57,22.57,0,0,1,2.13.78,8.15,8.15,0,0,1,1.82,1.07,4.67,4.67,0,0,1,1.81,4"/><path class="cls-1" d="M202.74,182.73v4.73h-.81c-.45,0-.65-.26-.68-.78,0-.29-.06-1.17-.13-2.59H190.66v9.27h9.14v1.33h-9.14v9.55h10.46c0-.29,0-.61.07-1.1s0-.81,0-1,0-.35,0-.42c0-.51.23-.81.68-.81h.81v4.77H186.28V205c0-.36.2-.55.62-.58h.32c.16,0,.39,0,.72,0s.68,0,1.06,0V184c-.38,0-.74,0-1.06,0s-.56,0-.72,0h-.32c-.42,0-.65-.23-.65-.58v-.62h16.49Z"/><path class="cls-1" d="M259.23,205v.65H257a1.11,1.11,0,0,1-.46-.1,1.13,1.13,0,0,1-.35-.32l-7.36-9.3a1.94,1.94,0,0,0-.58-.52,2.36,2.36,0,0,0-1-.13h-2.73v9.07c.39,0,.72,0,1,0s.55,0,.71,0h.33c.42,0,.65.22.65.58v.65h-7.13V205c0-.36.23-.55.65-.58h.32c.16,0,.39,0,.71,0s.68,0,1.07,0V184c-.39,0-.74,0-1.07,0s-.55,0-.71,0h-.32c-.42,0-.62-.23-.62-.59v-.61h8.29c2.66,0,4.64.52,5.93,1.52a5.35,5.35,0,0,1,1.95,4.47,6.33,6.33,0,0,1-.45,2.4,6.05,6.05,0,0,1-1.3,1.91,7,7,0,0,1-2,1.36,8.56,8.56,0,0,1-2.72.68,3.1,3.1,0,0,1,.71.65l6.87,8.65c.19,0,.39,0,.58,0h.65c.42,0,.62.22.62.58m-8.3-11.31a5.65,5.65,0,0,0,2-1.07,4.55,4.55,0,0,0,1.3-1.62,5.08,5.08,0,0,0,.42-2.14,4.21,4.21,0,0,0-1.59-3.63,7.91,7.91,0,0,0-4.67-1.2h-3.92v10h3.7a10,10,0,0,0,2.72-.36"/><path class="cls-1" d="M316.39,182.73v.62c0,.35-.23.55-.65.58h-.2c-.1,0-.26,0-.42,0s-.39,0-.61,0l-8.95,21.65h-1.45L295.16,184c-.22,0-.45,0-.61,0s-.33,0-.43,0h-.22c-.42,0-.65-.23-.65-.58v-.62h6.16v.62c0,.35-.23.55-.65.58h-.26c-.13,0-.32,0-.62,0s-.64,0-1,0l7.48,18.18a10.92,10.92,0,0,1,.49,1.59,9.89,9.89,0,0,1,.49-1.59L312.76,184c-.36,0-.68,0-1,0s-.49,0-.62,0h-.29c-.42,0-.62-.23-.62-.58v-.62h6.13Z"/><path class="cls-1" d="M366.55,204.89v.75h-5.61v-.75c0-.42.26-.61.75-.65a1.25,1.25,0,0,1,.19,0c.1,0,.26,0,.49,0s.48,0,.81,0l-2.27-5.61-.16-.42H349.8l-.16.42-2.27,5.61c.32,0,.61,0,.84,0s.36,0,.45,0a1.46,1.46,0,0,1,.2,0c.48,0,.74.23.74.65v.75H344v-.75a.59.59,0,0,1,.61-.65l1-.09,8.78-21.45h1.65l8.75,21.45,1.07.09a.6.6,0,0,1,.62.65m-16.24-8h9.95l-4.54-11.18c-.06-.19-.16-.39-.22-.62s-.16-.45-.23-.71c-.06.26-.16.49-.23.71s-.16.46-.22.65Z"/><path class="cls-2" d="M51.22,224.67a3.51,3.51,0,0,0-1.37.21,1.87,1.87,0,0,0-1,.89L32.27,256.05a29.85,29.85,0,0,0-1.58,3.64,25,25,0,0,0-1.58-3.57l-17-30.35a1.82,1.82,0,0,0-.89-.89,3.6,3.6,0,0,0-1.38-.21H0v3a1.2,1.2,0,0,0,1.1,1.24c.41.14,1.64.41,3.84.82v39.14l-3.84.83A1.19,1.19,0,0,0,0,271v3H16.41v-3a1.09,1.09,0,0,0-.89-1.23c-.62-.14-2.2-.42-4.67-.83V237.72a28.31,28.31,0,0,0-.18-3.05l17.07,30.65a2.75,2.75,0,0,0,2.47,1.58h1a2.57,2.57,0,0,0,2.34-1.58L50.4,234.56a26,26,0,0,0-.14,3.23v31.1c-2.4.41-3.91.69-4.6.83a1.13,1.13,0,0,0-1,1.23v3H61.11v-3a1.19,1.19,0,0,0-1.1-1.23c-.41-.14-1.72-.42-3.91-.83V229.75l3.91-.82a1.2,1.2,0,0,0,1.1-1.24v-3Z"/><g class="cls-4"><rect class="cls-2" x="-0.02" y="224.64" width="61.15" height="49.36"/></g><path class="cls-2" d="M95.16,235.73c.41-1.1.82-2.61,1.37-4.67a30.25,30.25,0,0,0,1.51,4.6l7.28,19H87.81Zm-1.92-10.92L75.38,269.3l-2.74.83a1,1,0,0,0-.9,1.09V274H85.82v-2.75a1,1,0,0,0-.89-1.09l-2.82-.83L86,259.42h21.22L111,269.3l-2.82.83a1.05,1.05,0,0,0-1,1.09V274h14.15v-2.75a1,1,0,0,0-.89-1.09l-2.75-.83L100,224.81Z"/><g class="cls-5"><rect class="cls-2" x="71.72" y="224.78" width="49.69" height="49.21"/></g><path class="cls-2" d="M155.18,224.26c-7.55,0-13.73,2.34-18.26,7s-6.87,10.72-6.87,18.13,2.2,13.46,6.46,18.13,10,7,17,7q11.34,0,17.72-7.41l-2.61-2.89a1.56,1.56,0,0,0-1.1-.41,1.72,1.72,0,0,0-1.1.55,17.85,17.85,0,0,1-6,3.57,19.79,19.79,0,0,1-6.52.82,15.68,15.68,0,0,1-12.15-5.08c-3.3-3.57-4.95-8.37-4.95-14.28s1.72-10.64,5-14.21c5.22-5.5,12.84-6.66,23.14-3.37,0,.28.13,1.31.27,3.09s.21,2.82.27,3.09a1.39,1.39,0,0,0,1.52,1.24h3.29V227.69c-6.25-2.33-11.4-3.5-15.24-3.5Z"/><g class="cls-6"><rect class="cls-2" x="130.03" y="224.17" width="41.24" height="50.37"/></g><path class="cls-2" d="M205.49,235.73c.42-1.1.83-2.61,1.38-4.67a30.34,30.34,0,0,0,1.5,4.6l7.29,19H198.14Zm-1.92-10.92L185.72,269.3l-2.75.83a1,1,0,0,0-.89,1.09V274h14.08v-2.75a1,1,0,0,0-.9-1.09l-2.82-.83,3.85-9.88h21.22l3.84,9.88-2.81.83a1,1,0,0,0-1,1.09V274h14.14v-2.75a1,1,0,0,0-.9-1.09l-2.75-.83L210.3,224.81Z"/><g class="cls-7"><rect class="cls-2" x="182.06" y="224.78" width="49.69" height="49.21"/></g><path class="cls-2" d="M312.39,251.59H323c3.64,0,6.39.68,8.17,2.19a7.45,7.45,0,0,1,2.61,6,9.84,9.84,0,0,1-.55,3.57c-1.37,3.57-4.73,5.35-10.23,5.35l.07-.07H312.39Zm0-21.56h9.06c3.71,0,6.32.68,8.11,2.06s2.61,3.43,2.61,6.31a9.53,9.53,0,0,1-.69,3.43q-2.07,4.95-10.3,4.95h-8.79Zm-11.6-5.36v3a1.15,1.15,0,0,0,1,1.24c.41.14,1.71.41,3.91.82v39.14l-3.91.83a1.13,1.13,0,0,0-1,1.23v3H323.1q8.14,0,12.77-3.91A12.32,12.32,0,0,0,340.4,260c0-6.05-3.57-9.82-10.84-11.27a14.08,14.08,0,0,0,7-4.46,11,11,0,0,0,1.65-3.09,12,12,0,0,0,.55-4.12,12.4,12.4,0,0,0-1-4.87c-2.13-4.95-7.56-7.49-16.35-7.49Z"/><g class="cls-8"><rect class="cls-2" x="300.76" y="224.65" width="39.66" height="49.34"/></g><path class="cls-2" d="M373.77,235.73c.41-1.1.82-2.61,1.37-4.67a30.16,30.16,0,0,0,1.52,4.6l7.27,19H366.42Zm-1.92-10.92L354,269.3l-2.75.83a1,1,0,0,0-.9,1.09V274h14.08v-2.75a1,1,0,0,0-.89-1.09l-2.81-.83,3.84-9.88h21.22l3.84,9.88-2.81.83a1.05,1.05,0,0,0-1,1.09V274H400v-2.75a1,1,0,0,0-.89-1.09l-2.75-.83-17.78-44.49Z"/><g class="cls-9"><rect class="cls-2" x="350.33" y="224.78" width="49.69" height="49.21"/></g><path class="cls-2" d="M282.84,224.81H270.62v2.88a1.27,1.27,0,0,0,1.1,1.31c.34.07,1.85.34,4.53.75v24.93a14.59,14.59,0,0,1-3.44,10.09,12.34,12.34,0,0,1-9.61,3.91,12.21,12.21,0,0,1-9.54-3.91c-2.34-2.54-3.44-6-3.44-10.16V229.75c2.75-.41,4.26-.68,4.6-.75a1.21,1.21,0,0,0,1-1.31v-2.88H238.62v2.88a1.27,1.27,0,0,0,1.1,1.31c.41.14,1.65.41,3.84.82v24.93a19.72,19.72,0,0,0,5.29,14.14c3.57,3.78,8.44,5.7,14.35,5.7s10.71-1.92,14.28-5.7a20,20,0,0,0,5.22-14.14V229.82l4-.75a1.21,1.21,0,0,0,1-1.31v-2.95Z"/><g class="cls-10"><rect class="cls-2" x="238.6" y="224.78" width="49.14" height="49.83"/></g><path class="cls-2" d="M268.68,214.25H268a.77.77,0,0,0-.5.28c-.15.13-.36.13-.51.27a3.31,3.31,0,0,0-.45.55l-5.3,7h3.43a1.78,1.78,0,0,0,.91-.14,5.14,5.14,0,0,0,.7-.54l7.47-7.42h-5.09Z"/><g class="cls-11"><rect class="cls-2" x="261.26" y="214.24" width="12.52" height="8.11"/></g></svg>