<?xml version="1.0" encoding="utf-8"?>
<!-- Generator: Adobe Illustrator 25.3.1, SVG Export Plug-In . SVG Version: 6.00 Build 0)  -->
<svg version="1.1" id="Camada_1" xmlns="http://www.w3.org/2000/svg" xmlns:xlink="http://www.w3.org/1999/xlink" x="0px" y="0px"
	 viewBox="0 0 311.2 309.4" style="enable-background:new 0 0 311.2 309.4;" xml:space="preserve">
<style type="text/css">
	.st0{fill:none;}
	.st1{fill:#FBBA00;}
	.st2{fill:#AECC53;}
	.st3{fill:url(#SVGID_1_);}
	.st4{fill:#FFFFFF;}
	.st5{fill:url(#SVGID_2_);}
	.st6{fill:url(#SVGID_3_);}
	.st7{fill:url(#SVGID_4_);}
	.st8{fill:url(#SVGID_5_);}
	.st9{fill:url(#SVGID_6_);}
	.st10{fill:url(#SVGID_7_);}
	.st11{fill:url(#SVGID_8_);}
	.st12{fill:url(#SVGID_9_);}
</style>
<path class="st0" d="M289.2,112.9l0.1,92l9.3-11.9c8-10.2,10.9-22.9,8.1-34.8L278,38.7c-5.2-21.5-27.7-34.8-51.3-31.2
	c-1.5,0.2-2.9,0.5-4.4,0.9l-31.4,7.6l82.4,65.2C283.4,89.1,289.2,100.7,289.2,112.9z"/>
<path class="st0" d="M164.8,301.6c20.5,9.5,46.4,3.2,60.3-14.6l11.5-14.7l-134.5,0.2L164.8,301.6z"/>
<path class="st0" d="M33.4,81.5l49.7-39.6L40.2,52.2c-12.2,3-22.7,10.1-29.5,20c-6.7,9.9-9,21.4-6.3,32.4l13.1,54.4l-0.1-45.8
	C17.5,101.1,23.3,89.5,33.4,81.5z"/>
<path class="st1" d="M310,157.3L281.2,37.9c-5.9-24.6-32.8-39.3-59.8-32.8l-34,8.2l3.4,2.7l31.4-7.6c1.5-0.4,2.9-0.6,4.4-0.9
	c23.7-3.6,46.1,9.7,51.3,31.2l28.8,119.4c2.9,11.9-0.1,24.6-8.1,34.8l-9.3,11.9l0,5.5l12-15.3C310,183.9,313.2,170.2,310,157.3z"/>
<path class="st1" d="M225.1,287.1c-13.9,17.8-39.8,24.1-60.3,14.6l-62.7-29.1l-8,0l69.2,32.1c9.5,4.4,20,5.6,30.1,4.1
	c13.3-2,25.8-8.8,34.3-19.6l13.1-16.8l-4.3,0L225.1,287.1z"/>
<path class="st1" d="M4.5,104.6c-2.7-11-0.4-22.5,6.3-32.4c6.8-9.9,17.2-17,29.5-20l42.8-10.3l6.3-5L39.4,49
	C26.4,52.1,15.2,59.7,8,70.3C0.7,81-1.7,93.5,1.2,105.4l16.4,68.1l0-14.5L4.5,104.6z"/>
<polygon class="st2" points="190.9,15.9 187.5,13.3 89.3,36.9 83.1,41.9 "/>
<path class="st2" d="M56.3,251.4c-11.8-5.5-20.2-15.4-23.1-27.3l-15.7-65l0,14.5L30,224.8c3.1,12.9,12.2,23.7,24.9,29.6l39.2,18.2
	l8,0L56.3,251.4z"/>
<linearGradient id="SVGID_1_" gradientUnits="userSpaceOnUse" x1="48.0698" y1="277.0761" x2="258.8698" y2="66.2761">
	<stop  offset="0" style="stop-color:#78368C"/>
	<stop  offset="1" style="stop-color:#A84D97"/>
</linearGradient>
<path class="st3" d="M289.4,210.3l0-5.5l-0.1-92c0-12.2-5.8-23.7-15.9-31.7l-82.4-65.2l-3.4-2.7l-3.7-2.9
	C166.3-3.5,140-3.4,122.6,10.4L89.3,36.9l-6.3,5L33.4,81.5c-10.1,8-15.9,19.6-15.8,31.8l0.1,45.8l0,14.5l0.1,57
	c0,23.3,20.9,42.2,46.6,42.1l29.8,0l8,0l134.5-0.2l4.3,0l2.1,0c25.7,0,46.5-19,46.4-42.3L289.4,210.3z"/>
<polygon class="st1" points="236.6,272.4 240.9,272.4 289.4,210.3 289.4,204.8 "/>
<g>
	<path class="st1" d="M91.8,174h7.8c5,0,7.2,2.9,7.2,6.8c0,3.7-2,5.8-5.4,6.5l6,8.6h-3.2l-5.8-8.3h-3.9v8.3h-2.7V174z M98.8,185.1
		c3.6,0,5.2-1.8,5.2-4.4c0-2.8-1.8-4.3-4.8-4.3h-4.7v8.6H98.8z"/>
	<path class="st1" d="M110.9,174h13.4v2.4h-10.7v7.3h8.8v2.4h-8.8v7.2h11.3v2.4h-14V174z"/>
	<path class="st1" d="M127.1,192.7l1.7-2.1c1.6,2,3.9,3,6,3c2.7,0,4.5-1.2,4.5-3.4c0-2.4-2-3.1-4.9-4.2c-3.2-1.2-6.5-2.6-6.5-6.4
		c0-3.3,2.9-5.8,6.7-5.8c2.4,0,4.8,0.9,6.9,2.6l-1.6,2.1c-1.8-1.4-3.6-2.2-5.3-2.2c-2.1,0-3.9,1.1-3.9,3.2c0,2.1,1.9,2.9,4.7,3.9
		c3.7,1.4,6.8,2.4,6.8,6.5c0,4-3.5,6.2-7.3,6.2C132.1,196.1,129.3,195,127.1,192.7z"/>
	<path class="st1" d="M145.7,174h13.4v2.4h-10.7v7.3h8.8v2.4h-8.8v7.2h11.4v2.4h-14V174z"/>
	<path class="st1" d="M163.4,174h7.8c5,0,7.2,2.9,7.2,6.8c0,3.7-2,5.8-5.4,6.5l6,8.6h-3.2l-5.8-8.3H166v8.3h-2.7V174z M170.4,185.1
		c3.6,0,5.2-1.8,5.2-4.4c0-2.8-1.8-4.3-4.8-4.3H166v8.6H170.4z"/>
	<path class="st1" d="M179.6,174h2.9l6.6,18h0l6.6-18h2.9l-8.2,21.8h-2.4L179.6,174z"/>
	<path class="st1" d="M205.3,174h2.7l8.3,21.8h-2.8l-2-5.3h-9.8l-1.9,5.3H197L205.3,174z M210.7,188.2l-4-11h-0.1l-4,11H210.7z"/>
</g>
<g>
	<g>
		<path class="st4" d="M50.1,204.7h3.1l9.3,16.3h0.1l9.3-16.3H75V230h-3.1v-19.3h-0.1l-8.2,14.2h-2.1l-8.2-14.2h0V230h-3.1V204.7z"
			/>
		<path class="st4" d="M79,217.4c0-7.5,5.3-12.9,12.7-12.9c7.1,0,12.6,5.2,12.6,12.9c0,7.7-5.5,12.8-12.6,12.8
			C84.4,230.2,79,224.9,79,217.4z M101.1,217.4c0-5.9-4.1-10-9.4-10c-5.5,0-9.5,4.2-9.5,10c0,5.7,4,9.9,9.5,9.9
			C96.9,227.3,101.1,223.2,101.1,217.4z"/>
		<path class="st4" d="M108.3,204.7h3.1l14.3,20.1h0v-20.1h3.1V230h-3.2l-14.1-19.9h-0.1V230h-3.1V204.7z"/>
		<path class="st4" d="M139.4,207.6h-7.5v-2.8h18.3v2.8h-7.7V230h-3.1V207.6z"/>
		<path class="st4" d="M153.2,204.7h15.5v2.8h-12.4v8.5h10.1v2.8h-10.1v8.4h13.1v2.8h-16.2V204.7z"/>
		<path class="st4" d="M181.7,204.7h3.1l9.3,16.3h0.1l9.3-16.3h3.1V230h-3.1v-19.3h-0.1l-8.2,14.2h-2.1l-8.2-14.2h0V230h-3.1V204.7z
			"/>
		<path class="st4" d="M210.6,217.4c0-7.5,5.3-12.9,12.7-12.9c7.1,0,12.6,5.2,12.6,12.9c0,7.7-5.5,12.8-12.6,12.8
			C215.9,230.2,210.6,224.9,210.6,217.4z M232.6,217.4c0-5.9-4.1-10-9.4-10c-5.5,0-9.5,4.2-9.5,10c0,5.7,4,9.9,9.5,9.9
			C228.5,227.3,232.6,223.2,232.6,217.4z"/>
		<path class="st4" d="M239.9,204.7h9c5.8,0,8.4,3.3,8.4,7.8c0,4.2-2.3,6.7-6.3,7.5l7,9.9h-3.7l-6.7-9.6H243v9.6h-3.1V204.7z
			 M248,217.6c4.2,0,6-2.1,6-5.1c0-3.2-2.1-4.9-5.6-4.9H243v10H248z"/>
	</g>
</g>
<g>
	<g>
		<linearGradient id="SVGID_2_" gradientUnits="userSpaceOnUse" x1="147.3127" y1="145.8478" x2="213.4377" y2="81.0724">
			<stop  offset="0" style="stop-color:#F18815"/>
			<stop  offset="1" style="stop-color:#FBBA00"/>
		</linearGradient>
		<path class="st5" d="M179.8,114.7L179.8,114.7c-0.1-0.1-0.2-0.2-0.2-0.4c-0.1-0.1-0.1-0.3-0.2-0.4l0,0.1L179.8,114.7z"/>
		<linearGradient id="SVGID_3_" gradientUnits="userSpaceOnUse" x1="125.7917" y1="123.1088" x2="191.0327" y2="59.1993">
			<stop  offset="0" style="stop-color:#F18815"/>
			<stop  offset="1" style="stop-color:#FBBA00"/>
		</linearGradient>
		<path class="st6" d="M179.5,143c-5.3,9.3-14.8,14.9-25.5,14.9c-10.7,0-20.3-5.6-25.5-14.9c-3.3-5.9-4.5-12.6-3.4-19
			c0.5-3.2,1.6-6.4,3.2-9.3v0c0.1-0.1,0.1-0.2,0.2-0.3c0.2-0.3,0.4-0.6,0.5-0.9v0l10.1-16.7c0.4-0.6,1.2-0.6,1.6,0l7.4,12.1
			c0.2,0.3,0.2,0.7,0,1l-6.7,11.1c-2.3,3.7-2.8,8-1.5,12c0.3,1,0.7,2,1.3,2.9c2.7,4.7,7.5,7.5,12.9,7.5c5.4,0,10.2-2.8,12.9-7.5
			c0.5-0.9,0.9-1.9,1.3-2.9c1.3-4,0.8-8.3-1.5-12l-7-11.6h0l-5.6-9.3l-8.5-13.9l-5.5-9l-0.2-0.3l-4.7-7.7c-0.4-0.6-1.2-0.6-1.6,0
			l-4.8,8l0,0l-27.1,44.6c-0.2,0.3-0.5,0.5-0.8,0.5H86.2c-0.7,0-1.2-0.8-0.8-1.4l34.9-57.5l5.6-9.3l7.7-12.6c0.4-0.6,1.2-0.6,1.6,0
			l7.7,12.6l5.5,9l0.2,0.3l5.5,9v0l8.5,13.9v0l5.6,9.3v0l10.9,18v0c0.1,0.1,0.2,0.3,0.3,0.4c0,0,0,0,0,0.1l0-0.1
			c0,0.1,0.1,0.2,0.1,0.2c0,0.1,0.1,0.1,0.1,0.2c0.1,0.1,0.1,0.3,0.2,0.4v0c1.6,3,2.7,6.1,3.2,9.3C184,130.4,182.9,137.1,179.5,143z
			"/>
		<linearGradient id="SVGID_4_" gradientUnits="userSpaceOnUse" x1="147.3127" y1="145.8478" x2="213.4377" y2="81.0724">
			<stop  offset="0" style="stop-color:#F18815"/>
			<stop  offset="1" style="stop-color:#FBBA00"/>
		</linearGradient>
		<path class="st7" d="M179.8,114.7L179.8,114.7c-0.1-0.1-0.2-0.2-0.2-0.4c-0.1-0.1-0.1-0.3-0.2-0.4l0,0.1L179.8,114.7z"/>
	</g>
	<g>
		<linearGradient id="SVGID_5_" gradientUnits="userSpaceOnUse" x1="128.2452" y1="114.0533" x2="179.7853" y2="114.0533">
			<stop  offset="0" style="stop-color:#F18815"/>
			<stop  offset="1" style="stop-color:#FBBA00"/>
		</linearGradient>
		<path class="st8" d="M128.2,114.7L128.2,114.7c0.1-0.1,0.1-0.2,0.2-0.3c0.2-0.3,0.4-0.6,0.5-0.9L128.2,114.7z M179.4,113.9
			L179.4,113.9c0,0.1,0.1,0.2,0.2,0.3c0.1,0.1,0.1,0.3,0.2,0.4l0,0L179.4,113.9z"/>
	</g>
	<linearGradient id="SVGID_6_" gradientUnits="userSpaceOnUse" x1="179.3153" y1="114.0781" x2="179.5402" y2="114.0781">
		<stop  offset="0" style="stop-color:#F18815"/>
		<stop  offset="1" style="stop-color:#FBBA00"/>
	</linearGradient>
	<path class="st9" d="M179.5,114.3c-0.1-0.1-0.1-0.3-0.2-0.4l0,0.1C179.4,114.1,179.5,114.2,179.5,114.3z"/>
	<linearGradient id="SVGID_7_" gradientUnits="userSpaceOnUse" x1="128.2452" y1="114.0533" x2="128.9851" y2="114.0533">
		<stop  offset="0" style="stop-color:#F18815"/>
		<stop  offset="1" style="stop-color:#FBBA00"/>
	</linearGradient>
	<path class="st10" d="M129,113.4c-0.2,0.3-0.4,0.6-0.5,0.9c-0.1,0.1-0.1,0.2-0.2,0.3l0,0L129,113.4z"/>
	<linearGradient id="SVGID_8_" gradientUnits="userSpaceOnUse" x1="128.2452" y1="114.0533" x2="128.9851" y2="114.0533">
		<stop  offset="0" style="stop-color:#F18815"/>
		<stop  offset="1" style="stop-color:#FBBA00"/>
	</linearGradient>
	<path class="st11" d="M129,113.4c-0.2,0.3-0.4,0.6-0.5,0.9c-0.1,0.1-0.1,0.2-0.2,0.3l0,0L129,113.4z"/>
	<linearGradient id="SVGID_9_" gradientUnits="userSpaceOnUse" x1="172.5434" y1="97.2712" x2="212.3261" y2="72.3227">
		<stop  offset="0" style="stop-color:#F18815"/>
		<stop  offset="1" style="stop-color:#FBBA00"/>
	</linearGradient>
	<path class="st12" d="M221.8,122.2h-14.7c-0.3,0-0.6-0.2-0.8-0.5l-31.9-52.6c-0.4-0.6-1.2-0.6-1.6,0l-4.7,7.7l-5.6,9.3L154,72.2v0
		l5.6-9.3v0l13.1-21.6c0.4-0.6,1.2-0.6,1.6,0l48.2,79.5C223,121.4,222.6,122.2,221.8,122.2z"/>
</g>
</svg>
