<?xml version="1.0" encoding="utf-8"?>
<!-- Generator: Adobe Illustrator 25.3.1, SVG Export Plug-In . SVG Version: 6.00 Build 0)  -->
<svg version="1.1" id="Camada_1" xmlns="http://www.w3.org/2000/svg" xmlns:xlink="http://www.w3.org/1999/xlink" x="0px" y="0px"
	 viewBox="0 0 250 250" style="enable-background:new 0 0 250 250;" xml:space="preserve">
<style type="text/css">
	.st0{fill:#8A3D9C;}
	.st1{clip-path:url(#SVGID_4_);}
</style>
<g>
	<g>
		<g>
			<path class="st0" d="M212.5,210.2H37.8c-1.8,0-3.2-1.4-3.2-3.2V59.8c0-1.8,1.4-3.2,3.2-3.2h89.1c1.8,0,3.2,1.4,3.2,3.2
				c0,1.8-1.4,3.2-3.2,3.2H41v140.8h168.3V63h-24c-1.8,0-3.2-1.4-3.2-3.2c0-1.8,1.4-3.2,3.2-3.2h27.2c1.8,0,3.2,1.4,3.2,3.2V207
				C215.7,208.8,214.3,210.2,212.5,210.2"/>
		</g>
	</g>
	<g>
		<defs>
			<rect id="SVGID_1_" x="34.3" y="56.6" width="6.6" height="153.7"/>
		</defs>
		<use xlink:href="#SVGID_1_"  style="overflow:visible;fill:#8A3D9C;"/>
		<clipPath id="SVGID_2_">
			<use xlink:href="#SVGID_1_"  style="overflow:visible;"/>
		</clipPath>
	</g>
	<path class="st0" d="M212.5,112.3H178c-1.8,0-3.2-1.4-3.2-3.2c0-1.8,1.4-3.2,3.2-3.2h34.5c1.8,0,3.2,1.4,3.2,3.2
		C215.7,110.9,214.3,112.3,212.5,112.3"/>
	<path class="st0" d="M133,112.3H92.2c-1.8,0-3.2-1.4-3.2-3.2c0-1.8,1.4-3.2,3.2-3.2H133c1.8,0,3.2,1.4,3.2,3.2
		C136.2,110.9,134.8,112.3,133,112.3"/>
	<g>
		<g>
			<path class="st0" d="M92.2,210.2c-1.8,0-3.2-1.4-3.2-3.2v-90.8l-49.3,43.8c-0.6,0.5-1.3,0.8-2.1,0.8l-1.2-6.4l53.7-47.7
				c0.9-0.8,2.3-1,3.4-0.5c1.2,0.5,1.9,1.7,1.9,2.9V207C95.4,208.8,94,210.2,92.2,210.2"/>
		</g>
	</g>
	<path class="st0" d="M212.5,177.6h-56.4c-0.4,0-0.8-0.1-1.1-0.2L91,153c-1.7-0.6-2.5-2.5-1.9-4.1c0.6-1.7,2.5-2.5,4.1-1.9
		l63.3,24.1h55.8c1.8,0,3.2,1.4,3.2,3.2C215.7,176.1,214.3,177.6,212.5,177.6"/>
	<g>
		<g>
			<path class="st0" d="M156.1,46.2c-16.9,0-30.6,13.7-30.6,30.6c0,14.1,8.8,27.9,16.1,37c5.7,7.1,11.5,12.5,14.5,15.2
				c3-2.6,8.8-8.1,14.5-15.2c7.3-9.1,16.1-22.9,16.1-37C186.7,59.9,172.9,46.2,156.1,46.2z M156.1,136.3c-0.7,0-1.4-0.2-2-0.7
				c-0.4-0.3-8.8-7.1-17.4-17.7c-5.1-6.3-9.1-12.5-12-18.6c-3.7-7.8-5.6-15.3-5.6-22.5c0-9.9,3.8-19.2,10.8-26.2
				c7-7,16.3-10.8,26.1-10.8c9.9,0,19.2,3.9,26.2,10.8c7,7,10.8,16.3,10.8,26.2c0,7.1-1.9,14.7-5.6,22.5c-2.9,6.1-7,12.4-12,18.6
				c-8.6,10.6-17,17.5-17.4,17.7C157.5,136.1,156.8,136.3,156.1,136.3"/>
		</g>
	</g>
	<path class="st0" d="M156.1,64.6c-6.8,0-12.3,5.5-12.3,12.3c0,6.8,5.5,12.3,12.3,12.3c6.8,0,12.3-5.5,12.3-12.3
		C168.4,70.1,162.8,64.6,156.1,64.6z M156.1,95.6c-10.3,0-18.7-8.4-18.7-18.7c0-10.3,8.4-18.7,18.7-18.7c10.3,0,18.7,8.4,18.7,18.7
		C174.8,87.2,166.4,95.6,156.1,95.6"/>
	<g>
		<defs>
			<rect id="SVGID_3_" x="152.8" y="129.9" width="6.6" height="80.3"/>
		</defs>
		<use xlink:href="#SVGID_3_"  style="overflow:visible;fill:#8A3D9C;"/>
		<clipPath id="SVGID_4_">
			<use xlink:href="#SVGID_3_"  style="overflow:visible;"/>
		</clipPath>
		<g class="st1">
			<path class="st0" d="M156.1,129.9c-1.8,0-3.2,1.4-3.2,3.2V207c0,1.8,1.4,3.2,3.2,3.2c1.8,0,3.2-1.4,3.2-3.2v-73.9
				C159.3,131.4,157.9,129.9,156.1,129.9"/>
		</g>
	</g>
</g>
</svg>
