<?xml version="1.0" encoding="utf-8"?>
<!-- Generator: Adobe Illustrator 25.0.1, SVG Export Plug-In . SVG Version: 6.00 Build 0)  -->
<svg version="1.1" id="Layer_1" xmlns="http://www.w3.org/2000/svg" xmlns:xlink="http://www.w3.org/1999/xlink" x="0px" y="0px"
	 viewBox="0 0 35 35" style="enable-background:new 0 0 35 35;" xml:space="preserve">
<style type="text/css">
	.st0{clip-path:url(#SVGID_2_);}
	.st1{fill:#82EA5B;}
</style>
<g>
	<defs>
		<rect id="SVGID_1_" width="35" height="35"/>
	</defs>
	<clipPath id="SVGID_2_">
		<use xlink:href="#SVGID_1_"  style="overflow:visible;"/>
	</clipPath>
	<g id="Prancheta_1" class="st0">
		<g id="Grupo_157" transform="translate(0 3)">
			<g id="Grupo_128" transform="translate(0 0)">
				<path id="Caminho_5" class="st1" d="M27.1,9.5l-9.5-8.3c-1.9-1.6-4.6-1.6-6.5,0L1.7,9.5C0.6,10.4,0,11.8,0,13.2v10.6
					c0,2.7,2.2,4.9,4.9,4.9h18.9c2.7,0,4.9-2.2,4.9-4.9V13.2C28.7,11.8,28.1,10.4,27.1,9.5z M26.1,23.8c0,1.3-1,2.3-2.3,2.3l0,0H4.9
					c-1.3,0-2.3-1-2.3-2.3l0,0V13.2c0-0.7,0.3-1.3,0.8-1.7l9.4-8.3c0.9-0.7,2.1-0.7,3,0l9.5,8.3c0.5,0.4,0.8,1.1,0.8,1.7L26.1,23.8z
					"/>
			</g>
			<g id="Grupo_129" transform="translate(12.868 0)">
				<path id="Caminho_6" class="st1" d="M0,10.1v9c0,1.7,1.4,3.1,3.1,3.1h9.4v-9c0-0.4-0.2-0.9-0.5-1.1L4.1,5.1L1,7.8
					C0.4,8.3,0,9.2,0,10.1z"/>
				<path id="Caminho_7" class="st1" d="M21.1,7.8l-8-7c-1.2-1-2.9-1-4,0L7.3,2.3l7.5,6.5l0,0c1.2,1.1,2,2.7,2,4.3v9h2.4
					c1.7,0,3.1-1.4,3.1-3.1c0,0,0,0,0,0v-9C22.1,9.2,21.8,8.3,21.1,7.8z"/>
			</g>
		</g>
	</g>
</g>
</svg>
