<?xml version="1.0" encoding="utf-8"?>
<!-- Generator: Adobe Illustrator 25.3.1, SVG Export Plug-In . SVG Version: 6.00 Build 0)  -->
<svg version="1.1" id="Camada_1" xmlns="http://www.w3.org/2000/svg" xmlns:xlink="http://www.w3.org/1999/xlink" x="0px" y="0px"
	 viewBox="0 0 250 250" style="enable-background:new 0 0 250 250;" xml:space="preserve">
<style type="text/css">
	.st0{fill:#8A3D9C;}
</style>
<g>
	<g>
		<path class="st0" d="M53.4,192h8.8c1.7,8.6,9.3,15.2,18.5,15.2c7.4,0,13.8-4.3,16.9-10.5c3.1,6.2,9.5,10.5,16.9,10.5
			s13.8-4.3,16.9-10.5c3.1,6.2,9.5,10.5,16.9,10.5s13.8-4.3,16.9-10.5c3.1,6.2,9.5,10.5,16.9,10.5c10.4,0,18.8-8.4,18.8-18.8
			c0-8.5-5.6-15.6-13.3-18l3.5-6.9h4.5c3.1,0,6-1.3,8.1-3.6c2.1-2.3,3.1-5.4,2.7-8.5c-1.1-9.7-6.3-19-10.9-23.2
			c-6.8-6.2-14.5-7.1-21.9-8c-7.3-0.9-14.9-1.8-23.3-7.3c-6.7-4.5-10.6-9-14.3-15c1.2-0.6,2.3-1.4,3.1-2.6c1.4-2.1,1.7-4.7,0.8-7.1
			l-6.4-16.6c-0.5-1.4-1.5-2.5-2.6-3.4V46.5c0-2-1.6-3.7-3.7-3.7h-3c-5.9,0-11,3.6-13.2,8.7H72c-4.6,0-8.5,3.3-9.3,7.8
			c-1.4,8.7-2.3,17.6-3.2,26.1c-1.2,12.2-2.5,24.9-5.4,37.2c-0.3,1.1-1.5,6.6-1.8,13.3c-0.1,0.3-0.1,0.6,0,0.9
			c-0.2,7,0.8,15,5.1,20.5c1.2,1.5,2.6,2.8,4.2,3.7l-13.7,10c-2.6,1.5-4.2,4.2-4.2,7.1v4.1C43.6,187.6,48,192,53.4,192z M80.6,199.9
			c-6.3,0-11.5-5.1-11.5-11.5c0,0,0,0,0,0s0,0,0,0c0-6.3,5.2-11.5,11.5-11.5c6.4,0,11.5,5.2,11.5,11.5
			C92.2,194.7,87,199.9,80.6,199.9z M114.4,199.9c-6.4,0-11.5-5.2-11.5-11.5c0-6.4,5.2-11.5,11.5-11.5s11.5,5.2,11.5,11.5
			C125.9,194.7,120.8,199.9,114.4,199.9z M148.2,199.9c-6.4,0-11.5-5.2-11.5-11.5c0-6.4,5.2-11.5,11.5-11.5
			c6.4,0,11.5,5.2,11.5,11.5C159.7,194.7,154.5,199.9,148.2,199.9z M193.5,188.3c0,6.4-5.2,11.5-11.5,11.5
			c-6.4,0-11.5-5.2-11.5-11.5c0-6.4,5.2-11.5,11.5-11.5C188.3,176.8,193.5,182,193.5,188.3z M117.1,57.1c0-0.4,0-0.8,0.1-1.2
			c0-0.1,0-0.1,0-0.2c0.6-3,3.1-5.3,6.2-5.6v16.4l-6.4-0.1V57.1z M110.4,73.6l15.8,0.4c0.1,0,0.3,0.1,0.3,0.2l6.4,16.6
			c0,0,0.1,0.2,0,0.3c-0.1,0.2-0.2,0.2-0.3,0.2h-22.4c-2.1,0-3.8-1.7-3.8-3.8V77.3C106.5,75.3,108.2,73.6,110.4,73.6
			C110.4,73.6,110.4,73.6,110.4,73.6z M61.2,124.3c3.1-12.8,4.4-25.7,5.6-38.2c0.8-8.4,1.7-17.1,3.1-25.6c0.2-1,1-1.7,2.1-1.7h37.8
			v7.5c-5.9,0.3-10.5,5.1-10.5,11v10.2c0,6.1,5,11.1,11.1,11.1h17.6c0.1,0.2,0.3,0.5,0.4,0.7l-4.4,1.9c-1.9,0.8-2.7,2.9-2,4.8
			c0.6,1.4,1.9,2.2,3.4,2.2c0.5,0,0.9-0.1,1.4-0.3l5.5-2.3c1.7,2.5,3.6,4.8,5.9,6.9l-4.5,4.4c-1.4,1.4-1.4,3.7,0,5.2
			c0.7,0.7,1.6,1.1,2.6,1.1c0.9,0,1.9-0.4,2.6-1.1l4.9-4.9c0.8,0.6,1.6,1.2,2.5,1.7c2.1,1.4,4.1,2.5,6,3.4l-2.4,3.9
			c-1.1,1.7-0.6,4,1.2,5c0.6,0.4,1.3,0.6,1.9,0.6c1.2,0,2.4-0.6,3.1-1.7l3.2-5.1c4.8,1.4,9.3,1.9,13.5,2.4
			c7.1,0.9,12.8,1.5,17.8,6.1c2,1.9,4.8,6,6.7,11l-9,0c-24.3,0-49.4,0-74.1,0.4c-17.8,0.3-38-0.2-54.3-10.4
			C60,130.6,60.6,126.9,61.2,124.3z M59.8,143.1c14.6,7.7,31.6,9.2,48.4,9.2c2,0,4,0,6-0.1c24.6-0.5,49.7-0.4,73.9-0.4l10,0
			c0.3,0,0.6,0,0.8-0.1c0,0.1,0,0.3,0.1,0.4c0.1,1-0.2,2-0.9,2.8c-0.7,0.8-1.6,1.2-2.7,1.2H70.7c-3.3,0-5.8-1.1-7.5-3.3
			C61.2,150.4,60.2,146.9,59.8,143.1z M51,178.2c0-0.2,0.2-0.6,0.6-0.8c0.1-0.1,0.3-0.2,0.4-0.3l18.7-13.6l111.9,0.4l-2.9,5.7
			c-6.4,0.8-11.8,4.8-14.6,10.4c-3.1-6.2-9.5-10.5-16.9-10.5c-7.4,0-13.8,4.3-16.9,10.5c-3.1-6.2-9.5-10.5-16.9-10.5
			s-13.8,4.3-16.9,10.5c-3.1-6.2-9.5-10.5-16.9-10.5c-9.1,0-16.8,6.5-18.5,15.2h-8.8c-1.3,0-2.4-1.1-2.4-2.4V178.2z"/>
	</g>
</g>
</svg>
