<?xml version="1.0" encoding="utf-8"?>
<!-- Generator: Adobe Illustrator 25.3.1, SVG Export Plug-In . SVG Version: 6.00 Build 0)  -->
<svg version="1.1" id="Camada_1" xmlns="http://www.w3.org/2000/svg" xmlns:xlink="http://www.w3.org/1999/xlink" x="0px" y="0px"
	 viewBox="0 0 250 250" style="enable-background:new 0 0 250 250;" xml:space="preserve">
<style type="text/css">
	.st0{fill:#8A3D9C;}
</style>
<path class="st0" d="M215.8,96.3c0-0.1,0-0.1,0-0.1c0-0.1,0-0.3,0-0.4v-0.1c0-0.1-0.1-0.3-0.1-0.4c-0.3-0.6-0.7-1.1-1.3-1.4
	l-56.8-28.1v-6.1c0-1.6-1.3-2.8-2.8-2.8c-1.6,0-2.8,1.3-2.8,2.8v5.7H96.6v-5.7c0-1.6-1.3-2.8-2.8-2.8c-1.6,0-2.8,1.3-2.8,2.8v6.8
	L35.8,93.8c0,0,0,0-0.1,0s-0.1,0.1-0.3,0.1c0,0-0.1,0-0.1,0.1c-0.1,0.1-0.1,0.1-0.3,0.3c-0.3,0.3-0.4,0.6-0.6,1c0,0.1,0,0.1-0.1,0.3
	v0.1c0,0.1,0,0.3,0,0.3s0,0,0,0.1c0,0,0,0,0,0.1s0,0.3,0,0.3v0.1c0,0,0,0,0,0.1s0,0.1,0.1,0.3v0.1c0,0.1,0.1,0.3,0.3,0.4
	c0.1,0.1,0.1,0.3,0.3,0.4l0.1,0.1c0.1,0.1,0.1,0.1,0.3,0.3l0.1,0.1c0.1,0,0.1,0.1,0.3,0.1c0,0,0.1,0,0.1,0.1c0.1,0,0.1,0,0.3,0.1
	h0.1c0.1,0,0.3,0,0.4,0h0.1c0.1,0,15.6,0.6,24.3,15.6c0.6,0.8,1.4,1.4,2.4,1.4h4.7v62.2h-7.1c-1.6,0-2.8,1.3-2.8,2.8
	c0,1.6,1.3,2.8,2.8,2.8h127.7c1.6,0,2.8-1.3,2.8-2.8c0-1.6-1.3-2.8-2.8-2.8h-7.1v-62.2h4.5c1,0,2-0.6,2.4-1.4
	c8.7-15,23.7-15.6,24.3-15.6h0.1c0.1,0,0.3,0,0.4,0h0.1c0.1,0,0.1,0,0.3-0.1c0,0,0.1,0,0.1-0.1c0.1,0,0.1-0.1,0.3-0.1
	c0,0,0.1,0,0.1-0.1c0.1,0,0.1-0.1,0.3-0.3c0,0,0.1,0,0.1-0.1c0.3-0.3,0.4-0.6,0.6-0.8v-0.1c0-0.1,0-0.1,0.1-0.3c0,0,0,0,0-0.1v-0.1
	C215.8,96.6,215.8,96.5,215.8,96.3z M94.5,70.9h61.2L201,93.5h-152L94.5,70.9z M88.1,110.5V99.2h73.8v11.3H88.1z M161.9,116.1v62.2
	H88.1v-62.2H161.9z M82.4,99.2v11.3h-8.5V99.2H82.4z M167.6,99.2h8.5v11.3h-8.5V99.2z M65.3,110.5c-3.3-5.2-7.2-8.8-11.2-11.3h14.2
	v11.3H65.3z M73.9,116.1h8.5v62.2h-8.5V116.1z M176.1,178.3h-8.5v-62.2h8.5V178.3z M184.7,110.5h-3V99.2h14
	C192,101.7,188,105.2,184.7,110.5z"/>
<path class="st0" d="M204.5,189.6H45.5c-1.6,0-2.8,1.3-2.8,2.8c0,1.6,1.3,2.8,2.8,2.8h158.9c1.6,0,2.8-1.3,2.8-2.8
	C207.3,190.9,206,189.6,204.5,189.6z"/>
<path class="st0" d="M99.5,104.8c0,0.4-0.1,0.7-0.2,1.1c-0.1,0.3-0.3,0.7-0.6,0.9c-0.3,0.3-0.6,0.5-0.9,0.6
	c-0.3,0.1-0.7,0.2-1.1,0.2c-0.4,0-0.7-0.1-1.1-0.2c-0.4-0.1-0.7-0.3-0.9-0.6c-0.3-0.3-0.5-0.6-0.6-0.9c-0.1-0.3-0.2-0.7-0.2-1.1
	c0-0.4,0.1-0.7,0.2-1.1c0.1-0.3,0.4-0.7,0.6-0.9c0.3-0.3,0.6-0.5,0.9-0.6c0.3-0.1,0.7-0.2,1.1-0.2c0.4,0,0.7,0.1,1.1,0.2
	c0.3,0.1,0.7,0.3,0.9,0.6c0.3,0.3,0.5,0.6,0.6,0.9S99.5,104.4,99.5,104.8z"/>
<path class="st0" d="M110.8,104.8c0,0.4-0.1,0.7-0.2,1.1c-0.1,0.3-0.4,0.7-0.6,0.9c-0.3,0.3-0.6,0.5-0.9,0.6
	c-0.3,0.1-0.7,0.2-1.1,0.2c-0.4,0-0.7-0.1-1.1-0.2c-0.3-0.1-0.7-0.3-0.9-0.6c-0.3-0.3-0.5-0.6-0.6-0.9c-0.1-0.3-0.2-0.7-0.2-1.1
	c0-0.4,0.1-0.7,0.2-1.1s0.3-0.7,0.6-0.9c0.3-0.3,0.6-0.5,0.9-0.6c0.3-0.1,0.7-0.2,1.1-0.2c0.4,0,0.7,0.1,1.1,0.2
	c0.4,0.1,0.7,0.3,0.9,0.6c0.3,0.3,0.5,0.6,0.6,0.9C110.7,104.1,110.8,104.4,110.8,104.8z"/>
<path class="st0" d="M122.2,104.8c0,0.4-0.1,0.7-0.2,1.1c-0.1,0.3-0.4,0.7-0.6,0.9c-0.3,0.3-0.6,0.5-0.9,0.6
	c-0.3,0.1-0.7,0.2-1.1,0.2s-0.7-0.1-1.1-0.2c-0.3-0.1-0.7-0.3-0.9-0.6c-0.3-0.3-0.5-0.6-0.6-0.9c-0.1-0.3-0.2-0.7-0.2-1.1
	c0-0.4,0.1-0.7,0.2-1.1c0.1-0.3,0.3-0.7,0.6-0.9c0.3-0.3,0.6-0.5,0.9-0.6c0.3-0.1,0.7-0.2,1.1-0.2s0.7,0.1,1.1,0.2
	c0.3,0.1,0.7,0.3,0.9,0.6c0.3,0.3,0.5,0.6,0.6,0.9C122.1,104.1,122.2,104.4,122.2,104.8z"/>
<path class="st0" d="M133.5,104.8c0,0.4-0.1,0.7-0.2,1.1c-0.1,0.3-0.3,0.7-0.6,0.9c-0.3,0.3-0.6,0.5-0.9,0.6
	c-0.3,0.1-0.7,0.2-1.1,0.2c-0.4,0-0.7-0.1-1.1-0.2c-0.3-0.1-0.7-0.3-0.9-0.6c-0.3-0.3-0.5-0.6-0.6-0.9c-0.1-0.3-0.2-0.7-0.2-1.1
	c0-0.4,0.1-0.7,0.2-1.1c0.1-0.3,0.4-0.7,0.6-0.9c0.3-0.3,0.6-0.5,0.9-0.6c0.3-0.1,0.7-0.2,1.1-0.2c0.4,0,0.7,0.1,1.1,0.2
	c0.3,0.1,0.7,0.3,0.9,0.6c0.3,0.3,0.5,0.6,0.6,0.9C133.4,104.1,133.5,104.4,133.5,104.8z"/>
<path class="st0" d="M144.9,104.8c0,0.4-0.1,0.7-0.2,1.1c-0.1,0.3-0.3,0.7-0.6,0.9c-0.3,0.3-0.6,0.5-0.9,0.6
	c-0.3,0.1-0.7,0.2-1.1,0.2c-0.4,0-0.7-0.1-1.1-0.2c-0.3-0.1-0.7-0.3-0.9-0.6c-0.3-0.3-0.5-0.6-0.6-0.9c-0.1-0.3-0.2-0.7-0.2-1.1
	c0-0.4,0.1-0.7,0.2-1.1s0.4-0.7,0.6-0.9c0.3-0.3,0.6-0.5,0.9-0.6c0.4-0.1,0.7-0.2,1.1-0.2c0.4,0,0.7,0.1,1.1,0.2
	c0.3,0.1,0.7,0.3,0.9,0.6c0.3,0.3,0.5,0.6,0.6,0.9C144.8,104.1,144.9,104.4,144.9,104.8z"/>
<path class="st0" d="M156.2,104.8c0,0.4-0.1,0.7-0.2,1.1c-0.1,0.3-0.4,0.7-0.6,0.9c-0.3,0.3-0.6,0.5-0.9,0.6
	c-0.3,0.1-0.7,0.2-1.1,0.2c-0.4,0-0.7-0.1-1.1-0.2c-0.3-0.1-0.7-0.3-0.9-0.6c-0.3-0.3-0.5-0.6-0.6-0.9c-0.1-0.3-0.2-0.7-0.2-1.1
	c0-0.4,0.1-0.7,0.2-1.1c0.1-0.3,0.3-0.7,0.6-0.9c0.3-0.3,0.6-0.5,0.9-0.6c0.3-0.1,0.7-0.2,1.1-0.2c0.4,0,0.7,0.1,1.1,0.2
	c0.4,0.1,0.7,0.3,0.9,0.6c0.3,0.3,0.5,0.6,0.6,0.9C156.1,104.1,156.2,104.4,156.2,104.8z"/>
</svg>
