<?xml version="1.0" encoding="utf-8"?>
<!-- Generator: Adobe Illustrator 25.3.1, SVG Export Plug-In . SVG Version: 6.00 Build 0)  -->
<svg version="1.1" id="Camada_1" xmlns="http://www.w3.org/2000/svg" xmlns:xlink="http://www.w3.org/1999/xlink" x="0px" y="0px"
	 viewBox="0 0 250 250" style="enable-background:new 0 0 250 250;" xml:space="preserve">
<style type="text/css">
	.st0{fill:#8A3D9C;}
</style>
<g>
	<path class="st0" d="M219.7,113.9c-2.5-4.9-5.5-9.5-8.9-13.7c-3.4-4.3-7.3-8.2-11.5-11.7c-14.2-11.9-28.1-15.9-29.7-16.3
		c-0.3-0.1-0.6-0.1-0.9-0.1c-0.3,0-0.6,0-0.9,0.1c-0.3,0.1-0.6,0.2-0.9,0.3c-0.3,0.1-0.5,0.3-0.8,0.5c-0.2,0.2-0.5,0.4-0.7,0.7
		c-0.2,0.2-0.4,0.5-0.5,0.8c-0.1,0.3-0.2,0.6-0.3,0.9c-0.1,0.3-0.1,0.6-0.1,0.9V92l-4.6,0.3c-1.5,0.1-2.9,0.3-4.4,0.7
		c-1.4,0.3-2.9,0.8-4.2,1.4c-1.4,0.6-2.7,1.2-4,2c-1.3,0.8-2.5,1.6-3.6,2.6c-1.1,1-2.2,2-3.1,3.1c-1,1.1-1.8,2.3-2.6,3.6
		c-0.8,1.3-1.4,2.6-2,4c-0.6,1.4-1,2.8-1.4,4.2l-1,4.2c-0.1,0.6-0.4,1.2-0.7,1.7c-0.3,0.5-0.7,1-1.2,1.4c-0.5,0.4-1,0.8-1.5,1
		c-0.6,0.3-1.1,0.4-1.8,0.5l-4.8,0.7c-0.6,0.1-1.2,0.2-1.8,0.5c-0.6,0.2-1.2,0.5-1.7,0.8c-0.5,0.3-1,0.7-1.5,1.1
		c-0.5,0.4-0.9,0.9-1.3,1.4c-0.4,0.5-0.7,1-1,1.6c-0.3,0.6-0.5,1.2-0.6,1.8c-0.1,0.6-0.2,1.2-0.3,1.9c0,0.6,0,1.3,0.1,1.9l2.2,14.2
		c0.2,1.1,0.4,2.2,0.8,3.2c0.4,1,0.8,2,1.3,3c0.5,0.9,1.1,1.9,1.8,2.7c0.7,0.8,1.5,1.6,2.3,2.3c0.8,0.7,1.7,1.3,2.7,1.9
		c0.9,0.5,1.9,1,3,1.4c1,0.4,2.1,0.7,3.2,0.9c1.1,0.2,2.2,0.3,3.3,0.3h5.3c0.5,0,1,0,1.4,0.1c0.4,0,0.9,0.1,1.4,0.2
		c0.5,0.1,0.9,0.2,1.4,0.3c0.5,0.1,0.9,0.3,1.3,0.5c0.4,0.2,0.9,0.4,1.3,0.6c0.4,0.2,0.8,0.5,1.2,0.7c0.4,0.3,0.8,0.5,1.1,0.8
		c0.4,0.3,0.7,0.6,1.1,1c0.3,0.3,0.6,0.7,0.9,1c0.3,0.4,0.6,0.8,0.8,1.1c0.3,0.4,0.5,0.8,0.7,1.2c0.2,0.4,0.4,0.8,0.6,1.3
		c0.2,0.4,0.3,0.9,0.5,1.3c0.1,0.5,0.3,0.9,0.3,1.4c0.1,0.4,0.2,0.9,0.2,1.4c0,0.5,0.1,0.9,0.1,1.4l0,8.6c0,0.5,0.1,1.1,0.3,1.6
		c0.2,0.5,0.5,1,0.9,1.4s0.8,0.7,1.3,0.9c0.5,0.2,1.1,0.3,1.6,0.3s1.1-0.1,1.6-0.3c0.5-0.2,1-0.5,1.4-0.9c0.4-0.4,0.7-0.9,0.9-1.4
		c0.2-0.5,0.3-1.1,0.3-1.6v-8.6c0-0.8,0-1.5-0.1-2.2c-0.1-0.7-0.2-1.5-0.3-2.2c-0.1-0.7-0.3-1.4-0.5-2.2c-0.2-0.7-0.5-1.4-0.7-2.1
		c-0.3-0.7-0.6-1.3-1-2c-0.3-0.6-0.7-1.3-1.1-1.9c-0.4-0.6-0.8-1.2-1.3-1.8c-0.5-0.6-1-1.1-1.5-1.6c-0.5-0.5-1.1-1-1.6-1.5
		c-0.6-0.5-1.2-0.9-1.8-1.3c-0.6-0.4-1.2-0.8-1.9-1.1c-0.7-0.4-1.3-0.7-2-0.9c-0.7-0.3-1.4-0.5-2.1-0.7c-0.7-0.2-1.4-0.4-2.2-0.5
		c-0.7-0.1-1.5-0.3-2.2-0.3c-0.8-0.1-1.5-0.1-2.2-0.1h-5.3c-0.6,0-1.2,0-1.8-0.2c-0.6-0.1-1.2-0.3-1.8-0.5c-0.6-0.2-1.1-0.5-1.7-0.8
		c-0.5-0.3-1-0.7-1.5-1.1c-0.5-0.4-0.9-0.8-1.3-1.3c-0.4-0.5-0.7-1-1-1.5c-0.3-0.5-0.6-1.1-0.7-1.7c-0.2-0.6-0.3-1.2-0.4-1.8
		l-2.2-14.2c-0.1-0.4,0-0.7,0.2-1c0.2-0.3,0.5-0.5,0.9-0.5l4.8-0.7c0.7-0.1,1.4-0.3,2.1-0.5c0.7-0.2,1.3-0.5,2-0.8
		c0.7-0.3,1.3-0.7,1.9-1.1c0.6-0.4,1.2-0.9,1.7-1.3c0.5-0.5,1-1,1.5-1.6c0.5-0.6,0.9-1.2,1.2-1.8c0.4-0.6,0.7-1.3,0.9-1.9
		c0.3-0.7,0.5-1.4,0.6-2l1-4.2c0.2-1,0.6-2,1-3c0.4-1,0.9-1.9,1.4-2.8c0.5-0.9,1.2-1.8,1.8-2.5c0.7-0.8,1.4-1.6,2.2-2.2
		c0.8-0.7,1.7-1.3,2.5-1.8c0.9-0.5,1.8-1,2.8-1.4c1-0.4,2-0.7,3-1c1-0.2,2.1-0.4,3.1-0.5l8.4-0.6c0.5,0,1-0.2,1.5-0.4
		c0.5-0.2,0.9-0.5,1.2-0.9c0.3-0.4,0.6-0.8,0.8-1.3c0.2-0.5,0.3-1,0.3-1.5V82c7.8,3.2,15.1,7.6,21.6,13c3.8,3.1,7.2,6.7,10.2,10.5
		c3.1,3.8,5.7,8,7.9,12.3c5.5,10.9,8.3,23.4,8.3,37.2c0,0.6,0.1,1.1,0.3,1.6c0.2,0.5,0.5,1,0.9,1.4c0.4,0.4,0.8,0.7,1.3,0.9
		c1,0.4,2.2,0.4,3.2,0c0.5-0.2,1-0.5,1.3-0.9c0.4-0.4,0.7-0.9,0.9-1.4c0.2-0.5,0.3-1,0.3-1.6C228.9,139.9,225.8,126,219.7,113.9z"/>
	<path class="st0" d="M122.2,50.7c1.2,0.4,2.5,1,3.7,1.6c1.2,0.6,2.3,1.3,3.4,2c1.1,0.7,2.1,1.6,3.1,2.4c1,0.9,1.9,1.8,2.8,2.8
		c0.9,1,1.7,2,2.4,3.2c0.3,0.4,0.7,0.8,1.1,1.1c0.5,0.3,1,0.5,1.5,0.6c0.5,0.1,1.1,0.1,1.6,0c0.5-0.1,1-0.3,1.5-0.6l0,0
		c0.4-0.3,0.8-0.7,1.1-1.1c0.3-0.4,0.5-0.9,0.6-1.5c0.1-0.5,0.1-1.1,0-1.6c-0.1-0.5-0.3-1-0.6-1.5c-0.9-1.4-2-2.7-3.1-4
		c-1.1-1.2-2.3-2.4-3.5-3.5c-1.3-1.1-2.6-2.1-4-3.1c-1.4-0.9-2.9-1.8-4.3-2.5c-1.5-0.7-3-1.4-4.6-2c-1.6-0.6-3.2-1-4.8-1.4
		c-1.6-0.4-3.3-0.6-5-0.7c-1.6-0.1-3.3-0.2-5-0.1l-30.8,1.2c-0.9,0-1.8,0.1-2.7,0.3c-0.9,0.2-1.8,0.4-2.6,0.7
		c-0.9,0.3-1.7,0.7-2.5,1.1c-0.8,0.4-1.6,0.9-2.3,1.5c-0.7,0.6-1.4,1.2-2.1,1.8c-0.6,0.7-1.2,1.4-1.8,2.1s-1,1.5-1.4,2.3
		c-0.4,0.8-0.8,1.7-1.1,2.5l-3.6,10.9c-0.3,0.8-0.6,1.6-1.1,2.3c-0.5,0.7-1,1.4-1.6,1.9c-0.6,0.6-1.3,1.1-2.1,1.5
		c-0.7,0.4-1.5,0.7-2.4,0.9L27,77.6c-0.5,0.1-1,0.3-1.4,0.5c-0.4,0.2-0.9,0.5-1.3,0.8c-0.4,0.3-0.8,0.6-1.1,1
		c-0.3,0.4-0.7,0.8-0.9,1.2c-0.3,0.4-0.5,0.9-0.7,1.3c-0.2,0.5-0.3,1-0.4,1.5c-0.1,0.5-0.1,1-0.1,1.5c0,0.5,0.1,1,0.2,1.5l4,18.4
		c0.3,1.5,0.8,2.9,1.3,4.2c0.6,1.4,1.2,2.7,2,3.9c0.8,1.3,1.7,2.4,2.6,3.5c1,1.1,2.1,2.1,3.2,3.1c1.2,0.9,2.4,1.8,3.7,2.5
		c1.3,0.7,2.6,1.3,4,1.8c1.4,0.5,2.8,0.9,4.3,1.1c1.4,0.3,2.9,0.4,4.4,0.4h26.5c-0.2,1-0.4,2.1-0.5,3.1c-0.1,1.5-0.2,3-0.1,4.5
		c0.1,1.5,0.3,3,0.6,4.4c0.3,1.5,0.7,2.9,1.2,4.3c0.5,1.4,1.1,2.7,1.9,4c0.7,1.3,1.6,2.5,2.5,3.7c0.9,1.2,1.9,2.3,3,3.3
		c1,0.9,2,1.7,3,2.5v22.3c0,2.9,0.6,17.7,13.2,30.2c0.4,0.4,0.8,0.7,1.3,0.9c0.5,0.2,1,0.3,1.6,0.3c0,0,0,0,0,0
		c0.5,0,1.1-0.1,1.6-0.3c0.5-0.2,1-0.5,1.3-0.9c0.4-0.4,0.7-0.8,0.9-1.3c0.2-0.5,0.3-1.1,0.3-1.6c0-0.5-0.1-1.1-0.3-1.6
		c-0.2-0.5-0.5-0.9-0.9-1.3c-7.9-7.9-10.8-18.1-10.8-24.4v-18.2c2.8,0.9,5.8,1.3,8.8,1.3c0.5,0,1.1-0.1,1.6-0.3
		c0.5-0.2,1-0.5,1.3-0.9c0.4-0.4,0.7-0.8,0.9-1.3c0.2-0.5,0.3-1,0.3-1.6s-0.1-1.1-0.3-1.6c-0.2-0.5-0.5-0.9-0.9-1.3
		c-0.4-0.4-0.8-0.7-1.3-0.9c-0.9-0.4-1.9-0.3-2.9-0.4c-0.4,0-0.9-0.1-1.3-0.1c-0.4-0.1-0.9-0.1-1.3-0.2c-0.4-0.1-0.9-0.2-1.3-0.3
		c-0.4-0.1-0.8-0.2-1.3-0.4c-0.4-0.1-0.8-0.3-1.2-0.4c-0.4-0.2-0.8-0.3-1.2-0.5c-0.4-0.2-0.8-0.4-1.2-0.6c-0.4-0.2-0.8-0.4-1.1-0.7
		c-0.4-0.2-0.7-0.5-1.1-0.7c-0.4-0.3-0.7-0.5-1-0.8c-0.3-0.3-0.7-0.6-1-0.8c-0.3-0.3-0.6-0.6-0.9-0.9c-0.3-0.3-0.6-0.6-0.9-1
		c-0.3-0.3-0.6-0.7-0.8-1c-0.3-0.3-0.5-0.7-0.7-1.1s-0.5-0.7-0.7-1.1c-0.2-0.4-0.4-0.8-0.6-1.2c-0.2-0.4-0.4-0.8-0.5-1.2
		c-0.2-0.4-0.3-0.8-0.5-1.2c-0.1-0.4-0.3-0.8-0.4-1.2c-0.1-0.4-0.2-0.8-0.3-1.3c-0.1-0.4-0.2-0.8-0.2-1.3c-0.1-0.4-0.1-0.9-0.1-1.3
		c0-0.4-0.1-0.9-0.1-1.3c0-0.4,0-0.9,0-1.3c0-0.4,0.1-0.9,0.1-1.3c0-0.4,0.1-0.9,0.2-1.3c0.1-0.4,0.2-0.9,0.3-1.3
		c0.1-0.4,0.2-0.8,0.3-1.3c0.1-0.4,0.3-0.8,0.4-1.2c0.2-0.4,0.3-0.8,0.5-1.2c0.9-2.1,2.2-4,3.8-5.7c0,0,0.1-0.1,0.1-0.1
		c12.6-13.7,19-28.6,19-44.4c0-0.5-0.1-1-0.4-1.5c-0.2-0.5-0.5-0.9-0.9-1.3c-0.4-0.4-0.8-0.6-1.3-0.8c-1-0.4-2.1-0.4-3.1,0
		c-0.5,0.2-0.9,0.5-1.3,0.9c-0.4,0.4-0.7,0.8-0.9,1.3c-0.2,0.5-0.3,1-0.4,1.6c0,13.6-5.6,26.7-16.7,38.7l-0.1,0.1
		c-1.6,1.7-3.1,3.7-4.2,5.7H50.8c-1,0-2-0.1-3-0.3c-1-0.2-2-0.4-2.9-0.8c-1-0.3-1.9-0.8-2.8-1.3c-0.9-0.5-1.7-1.1-2.5-1.7
		c-0.8-0.6-1.5-1.3-2.2-2.1c-0.7-0.8-1.3-1.6-1.8-2.4c-0.5-0.9-1-1.8-1.4-2.7c-0.4-0.9-0.7-1.9-0.9-2.9l-0.5-2.3
		c1.8-0.4,3.4-1.1,5-2c1.9-1,3.6-2.3,5.1-3.9c1-1,1.9-2.1,2.6-3.3c0.8-1.2,1.4-2.4,2-3.7c0.5-1.3,0.9-2.6,1.2-4
		c0.2-1.1,0.4-2.3,0.4-3.5l4.8-1.1c1.5-0.3,3-0.9,4.3-1.6c1.4-0.7,2.6-1.6,3.8-2.7c1.2-1.1,2.2-2.2,3-3.5c0.8-1.3,1.5-2.7,2-4.2
		l3.6-10.9c0.3-1,0.8-1.9,1.4-2.7c0.6-0.8,1.3-1.5,2.1-2.1c0.8-0.6,1.7-1.1,2.6-1.4c0.9-0.3,1.9-0.5,2.9-0.6l30.8-1.2
		c1.3-0.1,2.6,0,4,0.1c1.3,0.1,2.6,0.3,3.9,0.6C119.7,49.9,120.9,50.2,122.2,50.7z M40.6,82.9c0,0.2-0.1,0.5-0.2,0.7
		c-0.2,0.7-0.4,1.4-0.7,2c-0.3,0.7-0.6,1.3-1,1.9c-0.4,0.6-0.8,1.2-1.3,1.7c-0.5,0.5-1,1-1.6,1.5c-0.6,0.5-1.2,0.9-1.8,1.2
		c-0.6,0.3-1.3,0.7-1.9,0.9c-0.4,0.1-0.7,0.3-1.1,0.4l-1.7-7.6L40.6,82.9z"/>
	<path class="st0" d="M91.1,74.9c-0.4-0.8-1-1.6-1.6-2.3c-0.8-0.9-1.6-1.6-2.6-2.3c-1-0.6-2.1-1.1-3.2-1.4c-1.1-0.3-2.3-0.5-3.5-0.5
		c-1.2,0-2.3,0.2-3.4,0.5c-1.1,0.3-2.2,0.8-3.1,1.5c-1,0.6-1.8,1.4-2.6,2.3c-0.7,0.9-1.3,1.9-1.8,3c-0.2,0.5-0.3,1-0.3,1.6
		c0,0.5,0.1,1.1,0.3,1.6c0.2,0.5,0.5,0.9,0.9,1.3c0.4,0.4,0.8,0.7,1.3,0.9c0.5,0.2,1,0.3,1.6,0.3c0,0,0,0,0,0c0.8,0,1.6-0.2,2.3-0.7
		c0.7-0.5,1.2-1.1,1.5-1.8c0.2-0.4,0.3-0.7,0.6-1c0.2-0.3,0.5-0.5,0.8-0.7c0.3-0.2,0.6-0.4,1-0.5c0.4-0.1,0.7-0.2,1.1-0.2
		c0.4,0,0.7,0,1.1,0.2c0.3,0.1,0.7,0.2,1,0.5c0.3,0.2,0.6,0.4,0.8,0.7c0.2,0.3,0.4,0.6,0.6,0.9c0.2,0.5,0.5,0.9,0.9,1.3
		c0.4,0.4,0.9,0.7,1.4,0.9c0.5,0.2,1,0.3,1.6,0.3c0.5,0,1.1-0.1,1.6-0.4c0.5-0.2,0.9-0.5,1.3-0.9c0.4-0.4,0.7-0.9,0.9-1.4
		c0.2-0.5,0.3-1,0.3-1.6c0-0.5-0.1-1.1-0.4-1.6L91.1,74.9L91.1,74.9z"/>
	<path class="st0" d="M164.1,119.5c-0.4-1-1-1.9-1.7-2.7c-0.7-0.8-1.5-1.5-2.4-2.1c-0.9-0.6-1.9-1-2.9-1.3c-1-0.3-2.1-0.4-3.1-0.4
		c-1.1,0-2.1,0.2-3.1,0.5c-1,0.3-2,0.8-2.9,1.4c-0.9,0.6-1.7,1.3-2.3,2.1c-0.7,0.8-1.2,1.7-1.6,2.7c-0.2,0.5-0.4,1-0.4,1.6
		c0,0.5,0.1,1.1,0.3,1.6c0.2,0.5,0.5,1,0.9,1.4c0.4,0.4,0.8,0.7,1.3,0.9c0.5,0.2,1,0.3,1.6,0.3c0.6,0,1.1-0.1,1.6-0.3
		c0.5-0.2,1-0.5,1.3-0.9c0.4-0.4,0.7-0.9,0.9-1.3c0.1-0.2,0.2-0.5,0.4-0.7c0.2-0.2,0.4-0.4,0.6-0.5c0.2-0.2,0.5-0.3,0.7-0.3
		c0.3-0.1,0.5-0.1,0.8-0.1c0.3,0,0.5,0,0.8,0.1c0.3,0.1,0.5,0.2,0.7,0.3c0.2,0.1,0.4,0.3,0.6,0.5c0.2,0.2,0.3,0.4,0.4,0.7
		c0.2,0.5,0.5,0.9,0.9,1.3c0.4,0.4,0.9,0.7,1.3,0.8c0.5,0.2,1,0.3,1.6,0.3c0.5,0,1.1-0.1,1.6-0.4c0.5-0.2,0.9-0.5,1.3-0.9
		c0.4-0.4,0.7-0.8,0.8-1.3c0.2-0.5,0.3-1,0.3-1.6C164.5,120.6,164.3,120,164.1,119.5L164.1,119.5z"/>
</g>
</svg>
