<?xml version="1.0" encoding="UTF-8"?><svg id="Camada_1" xmlns="http://www.w3.org/2000/svg" viewBox="0 0 250 250"><defs><style>.cls-1{fill:#e61d72;}</style></defs><g><path class="cls-1" d="M202.59,57.13H82.27v-5.66c0-6.48-8.02-11.31-18.72-11.31s-18.72,4.83-18.72,11.31V198.42c0,6.48,8.02,11.31,18.72,11.31s18.72-4.83,18.72-11.31h120.32c1.44,0,2.67-1.23,2.67-2.78V60.01c0-1.54-1.23-2.88-2.67-2.88ZM63.56,45.82c8.12,0,13.37,3.39,13.37,5.66s-5.24,5.66-13.37,5.66-13.37-3.39-13.37-5.66c0-2.26,5.24-5.66,13.37-5.66Zm13.37,152.71c0,2.26-5.24,5.66-13.37,5.66s-13.37-3.39-13.37-5.66V59.6h0c.82,.51,1.75,.93,2.67,1.34h0c1.03,.41,2.06,.72,3.19,1.03h0c1.13,.31,2.37,.51,3.5,.62,1.23,.1,2.57,.21,3.91,.21s2.57-.1,3.91-.21c1.23-.1,2.37-.31,3.6-.62h0c1.03-.31,2.16-.62,3.19-1.03h0c.93-.41,1.85-.82,2.67-1.34h0V198.53h.1Zm122.99-5.66H82.27V62.78h117.64V192.87Z"/><path class="cls-1" d="M63.56,210.25c-10.9,0-19.13-5.04-19.13-11.72V51.47c0-6.68,8.23-11.72,19.13-11.72s19.13,5.04,19.13,11.72v5.24h119.8c1.75,0,3.09,1.44,3.09,3.29V195.65c0,1.75-1.44,3.29-3.09,3.29H82.68c-.31,6.48-8.43,11.31-19.13,11.31Zm0-169.57c-10.39,0-18.3,4.63-18.3,10.9V198.53c0,6.17,7.82,10.9,18.3,10.9s18.3-4.73,18.3-10.9v-.51h120.73c1.23,0,2.26-1.03,2.26-2.37V60.01c0-1.34-1.03-2.37-2.26-2.37H81.86v-6.07c0-6.27-7.82-10.9-18.3-10.9Zm0,163.92c-8.54,0-13.78-3.5-13.78-6.07V59.19h.51l.1,.1c.82,.51,1.75,.93,2.67,1.34,1.03,.41,2.06,.72,3.19,1.03s2.37,.51,3.5,.62c1.23,.1,2.57,.21,3.8,.21s2.57-.1,3.8-.21c1.13-.1,2.37-.31,3.5-.62h.1c.93-.21,1.95-.62,2.98-1.03,.93-.41,1.85-.82,2.67-1.34l.1-.1h.51V198.53c.1,2.47-5.14,6.07-13.68,6.07ZM50.6,60.32V198.53c0,1.75,4.52,5.24,12.96,5.24s12.96-3.5,12.96-5.24V60.32c-.72,.41-1.44,.72-2.16,1.03-1.03,.41-2.16,.82-3.29,1.03h-.1c-1.13,.31-2.26,.51-3.5,.62-1.23,.1-2.57,.21-3.91,.21s-2.57-.1-3.91-.21c-1.23-.1-2.47-.31-3.6-.62-1.13-.31-2.16-.62-3.19-1.03-.82-.31-1.54-.62-2.26-1.03ZM200.33,193.28H81.86V62.37h118.47V193.28Zm-117.64-.82h116.72V63.2H82.68V192.46ZM63.56,57.54c-8.54,0-13.78-3.5-13.78-6.07s5.24-6.07,13.78-6.07,13.78,3.5,13.78,6.07-5.24,6.07-13.78,6.07Zm0-11.21c-8.33,0-12.96,3.5-12.96,5.24s4.52,5.24,12.96,5.24,12.96-3.5,12.96-5.24c0-1.85-4.52-5.24-12.96-5.24Z"/></g><g><path class="cls-1" d="M95.64,173.44h90.91c1.44,0,2.67-1.23,2.67-2.67V74.82c0-1.44-1.23-2.67-2.67-2.67H95.64c-1.44,0-2.67,1.23-2.67,2.67v95.94c0,1.54,1.23,2.67,2.67,2.67Zm26.74-95.94v23.96c0,1.44,1.23,2.67,2.67,2.67s2.67-1.23,2.67-2.67v-5.24h37.43c1.44,0,2.67-1.23,2.67-2.67s-1.23-2.67-2.67-2.67h-37.43v-13.37h56.15v56.04l-45.45-.1c-1.44,0-2.67,1.23-2.67,2.67v21.29c0,1.44,1.23,2.67,2.67,2.67s2.67-1.23,2.67-2.67v-18.61l42.78,.1v29.21H117.13v-18.61c0-1.44-1.23-2.67-2.67-2.67s-2.67,1.23-2.67,2.67v18.61h-13.47v-45.35h29.41c1.44,0,2.67-1.23,2.67-2.67s-1.23-2.67-2.67-2.67h-29.41v-39.9h24.06Z"/><path class="cls-1" d="M186.55,173.85H95.64c-1.75,0-3.09-1.34-3.09-3.09V74.82c0-1.75,1.44-3.09,3.09-3.09h90.91c1.75,0,3.09,1.34,3.09,3.09v95.94c0,1.75-1.44,3.09-3.09,3.09ZM95.64,72.66c-1.23,0-2.26,1.03-2.26,2.26v95.94c0,1.23,1.03,2.26,2.26,2.26h90.91c1.23,0,2.26-1.03,2.26-2.26V74.82c0-1.23-1.03-2.26-2.26-2.26H95.64v.1Zm88.64,95.94H116.62v-19.13c0-1.23-1.03-2.26-2.26-2.26s-2.26,1.03-2.26,2.26v19.13h-14.19v-46.17h29.82c1.23,0,2.26-1.03,2.26-2.26s-1.03-2.26-2.26-2.26h-29.82v-40.83h24.89v24.37c0,1.23,1.03,2.26,2.26,2.26s2.26-1.03,2.26-2.26v-5.76h37.84c1.23,0,2.26-1.03,2.26-2.26s-1.03-2.26-2.26-2.26h-37.84v-14.09h56.97v56.87h-.41l-45.45-.1c-1.23,0-2.26,1.03-2.26,2.26v21.29c0,1.23,1.03,2.26,2.26,2.26s2.26-1.03,2.26-2.26v-19.02h.41l43.19,.1v30.13Zm-66.84-.93h65.92v-28.38l-41.96-.1v18.2c0,1.75-1.44,3.09-3.09,3.09-1.75,0-3.09-1.34-3.09-3.09v-21.29c0-1.75,1.44-3.09,3.09-3.09l45.04,.1v-55.22h-55.22v12.44h37.02c1.75,0,3.09,1.34,3.09,3.09s-1.44,3.09-3.09,3.09h-37.02v4.94c0,1.75-1.44,3.09-3.09,3.09-1.75,0-3.09-1.34-3.09-3.09v-23.55h-23.24v39.08h29c1.75,0,3.09,1.34,3.09,3.09s-1.44,3.09-3.09,3.09h-29v44.42h12.55v-18.2c0-1.75,1.44-3.09,3.09-3.09,1.75,0,3.09,1.34,3.09,3.09v18.3Z"/></g></svg>