<?xml version="1.0" encoding="utf-8"?>
<!-- Generator: Adobe Illustrator 25.3.1, SVG Export Plug-In . SVG Version: 6.00 Build 0)  -->
<svg version="1.1" id="Camada_1" xmlns="http://www.w3.org/2000/svg" xmlns:xlink="http://www.w3.org/1999/xlink" x="0px" y="0px"
	 viewBox="0 0 250 250" style="enable-background:new 0 0 250 250;" xml:space="preserve">
<style type="text/css">
	.st0{fill:#8A3D9C;}
</style>
<g>
	<path class="st0" d="M207.3,82.5c-0.1-0.3-0.3-0.6-0.5-0.9c-0.2-0.3-0.5-0.5-0.8-0.7c-0.3-0.2-0.6-0.4-1-0.5l-23.8-6.9
		c-1.3-17.3-15.6-30.9-33-30.9c-18.2,0-33.1,15-33.1,33.4c0,12.3,6.6,23,16.4,28.8c-1.7-0.1-3.5-0.1-5.3-0.1c-0.1,0-0.1,0-0.2,0
		c-5.3,0.2-10.6,0.8-15.7,1.9c-4.1,0.9-8.3,1.5-12.5,1.7c-4.2,0.2-8.4,0-12.6-0.6S77,106.3,73,105c-4-1.3-7.9-2.9-11.6-4.9
		c-0.1-0.1-0.3-0.1-0.4-0.2c-6.2-3.3-9.8-6.4-10.7-7.4c-0.4-0.5-0.9-0.8-1.5-0.9c-0.6-0.2-1.2-0.2-1.8,0c-0.6,0.2-1.1,0.5-1.5,0.9
		c-0.4,0.5-0.7,1-0.8,1.6c-0.4,2.3-10.3,55.1,17.9,79.8c-0.7,1.2-1.3,2.5-1.8,3.9c-0.8,2.4-1.3,4.8-1.3,7.4
		c0,12.2,9.8,22.1,21.9,22.1c10.7,0,19.7-7.9,21.5-17.8c3.2,0.4,6.5,0.6,9.8,0.6c1.1,0,2.1,0,3.2-0.1c0.1,0.3,0.1,0.6,0.2,0.8
		c0.2,0.7,0.4,1.3,0.6,2c0.2,0.6,0.5,1.3,0.8,1.9c0.3,0.6,0.6,1.2,1,1.8c0.4,0.6,0.7,1.2,1.1,1.7c0.4,0.6,0.8,1.1,1.3,1.6
		c0.5,0.5,0.9,1,1.4,1.5c0.5,0.5,1,0.9,1.6,1.3c0.5,0.4,1.1,0.8,1.7,1.2c0.6,0.4,1.2,0.7,1.8,1c0.6,0.3,1.2,0.6,1.9,0.9
		c0.6,0.3,1.3,0.5,2,0.7c0.7,0.2,1.3,0.4,2,0.5c0.7,0.1,1.4,0.2,2,0.3c0.7,0.1,1.4,0.1,2.1,0.1c12.1,0,21.9-9.9,21.9-22.1
		c0-2.2-0.3-4.4-1-6.6c-0.4-1.2-0.8-2.3-1.4-3.4c1.2-1,2.3-2.1,3.4-3.3c1.7-1.9,3.2-3.9,4.6-6c1.3-2.1,2.5-4.4,3.4-6.7
		c0.9-2.3,1.7-4.7,2.2-7.2c2.8-13.4,0.5-25-6.6-33.4c-3.3-3.9-7.5-7-12.5-9.3c0.5,0,1.1-0.1,1.6-0.2c1.4-0.2,2.9-0.5,4.3-0.9
		c1.4-0.4,2.8-0.9,4.1-1.4c1.3-0.6,2.6-1.2,3.9-1.9c1.3-0.7,2.5-1.5,3.6-2.4c1.1-0.9,2.2-1.8,3.2-2.9c1-1,2-2.1,2.8-3.3
		c0.5-0.6,0.9-1.3,1.4-2h28.2c0.4,0,0.9-0.1,1.3-0.3c0.4-0.2,0.8-0.4,1.1-0.7c0.3-0.3,0.5-0.7,0.7-1.1c0.2-0.4,0.3-0.8,0.3-1.3v-7.5
		C207.4,83.2,207.4,82.9,207.3,82.5z M63.8,108.7c0.7,0.3,1.5,0.6,2.2,0.9c0.3,0.1,0.6,0.2,0.9,0.3c0.6,0.2,1.3,0.5,1.9,0.7
		c0.4,0.1,0.9,0.3,1.3,0.4c0.3,0.1,0.5,0.2,0.8,0.3c0.3,0.1,0.6,0.2,0.8,0.2c0.5,0.2,1,0.3,1.5,0.5c0.5,0.1,1,0.3,1.5,0.4
		c0.2,0,0.4,0.1,0.5,0.2c0.4,0.1,0.8,0.2,1.2,0.3c0.4,0.1,0.9,0.2,1.4,0.3c0.8,0.2,1.5,0.3,2.3,0.5c0.3,0.1,0.6,0.1,0.9,0.2
		c2.1,0.4,4.2,0.7,6.3,0.9c0.1,0,0.2,0,0.3,0c0.2,0,0.3,0,0.5,0c1,0.1,1.9,0.1,2.9,0.2c0.2,0,0.5,0,0.7,0c0.9,0,1.8,0.1,2.6,0.1
		c0.3,0,0.5,0,0.8,0c0.9,0,1.7,0,2.6-0.1c0.1,0,0.3,0,0.4,0c0.1,0,0.3,0,0.4,0c0.4,0,0.8,0,1.1,0c0.5,0,1-0.1,1.5-0.1
		c0.2,0,0.5,0,0.7-0.1c0.9-0.1,1.9-0.2,2.8-0.3c0.2,0,0.3,0,0.5-0.1c1.1-0.1,2.2-0.3,3.3-0.5c0,0,0,0,0,0c1.1-0.2,2.3-0.4,3.4-0.7
		c4.6-1,9.3-1.6,14-1.8l5.2,1.3c2,5.1,8,22.6,0.9,34.6c-4.2,7.1-12.6,11.1-24.8,12.1C77.2,161.7,67.2,130.9,63.8,108.7
		C63.8,108.6,63.8,108.7,63.8,108.7z M81.3,200.8c-1,0-2-0.1-3-0.3c-1-0.2-2-0.5-2.9-0.9c-0.9-0.4-1.8-0.9-2.7-1.5
		c-0.8-0.6-1.6-1.2-2.3-1.9c-0.7-0.7-1.3-1.5-1.9-2.3c-0.6-0.8-1-1.7-1.4-2.7c-0.4-0.9-0.7-1.9-0.9-2.9c-0.2-1-0.3-2-0.3-3
		c0-1.8,0.3-3.5,0.9-5.2c0.6-1.7,1.4-3.2,2.5-4.5c0,0,0.1-0.1,0.1-0.1c0.7-0.9,1.5-1.7,2.4-2.4c0.9-0.7,1.8-1.3,2.9-1.8
		c1-0.5,2.1-0.9,3.2-1.1c1.1-0.3,2.2-0.4,3.4-0.4c1,0,2,0.1,3,0.3c1,0.2,2,0.5,2.9,0.9c0.9,0.4,1.8,0.9,2.7,1.5
		c0.8,0.6,1.6,1.2,2.3,1.9c0.7,0.7,1.3,1.5,1.9,2.4c0.6,0.8,1,1.7,1.4,2.7c0.4,0.9,0.7,1.9,0.9,2.9c0.2,1,0.3,2,0.3,3h0
		c0,0.2,0,0.3-0.1,0.5l0,0C96.4,194.1,89.5,200.8,81.3,200.8z M152.2,188.3c-0.2,1-0.5,2-0.9,2.9c-0.4,0.9-0.8,1.8-1.4,2.7
		c-0.6,0.8-1.2,1.6-1.9,2.4c-0.7,0.7-1.5,1.4-2.3,1.9c-0.8,0.6-1.7,1.1-2.7,1.5c-0.9,0.4-1.9,0.7-2.9,0.9c-1,0.2-2,0.3-3,0.3
		c-8,0-14.7-6.3-15.3-14.8c0,0,0,0,0-0.1c0-0.2,0-0.5,0-0.7c0-1,0.1-2,0.3-3c0.2-1,0.5-2,0.9-2.9c0.4-0.9,0.8-1.8,1.4-2.7
		c0.6-0.8,1.2-1.6,1.9-2.3c0.7-0.7,1.5-1.4,2.3-1.9c0.8-0.6,1.7-1.1,2.7-1.5c0.9-0.4,1.9-0.7,2.9-0.9c1-0.2,2-0.3,3-0.3
		c1.2,0,2.5,0.2,3.7,0.5c1.2,0.3,2.4,0.7,3.4,1.3c1.1,0.6,2.1,1.3,3,2.1c0.9,0.8,1.7,1.8,2.4,2.8c0.9,1.3,1.6,2.7,2,4.2
		c0.5,1.5,0.7,3.1,0.7,4.6C152.5,186.3,152.4,187.3,152.2,188.3z M158.6,122.8c5.8,6.9,7.6,16.5,5.2,27.9c-0.8,3.7-2.1,7.2-3.9,10.4
		c-1.9,3.3-4.2,6.2-7,8.7c0,0-0.1-0.1-0.1-0.1c-0.3-0.4-0.7-0.7-1.1-1c-0.1-0.1-0.2-0.1-0.2-0.2c-0.1-0.1-0.3-0.2-0.4-0.4
		c-0.5-0.4-1-0.8-1.5-1.1c0,0,0,0,0,0c-0.1,0-0.1-0.1-0.2-0.1c-0.5-0.3-1-0.6-1.5-0.9c-0.1-0.1-0.3-0.2-0.4-0.2
		c-0.1,0-0.1-0.1-0.2-0.1c-0.5-0.3-1-0.5-1.5-0.7c-0.1,0-0.1-0.1-0.2-0.1c-0.1,0-0.2-0.1-0.3-0.1c-0.5-0.2-1-0.4-1.6-0.6
		c-0.2-0.1-0.4-0.1-0.6-0.2c-0.3-0.1-0.6-0.2-0.9-0.2c-0.2,0-0.3-0.1-0.5-0.1c-0.1,0-0.3-0.1-0.4-0.1c-0.1,0-0.2,0-0.3,0
		c-0.5-0.1-1.1-0.2-1.6-0.2c-0.2,0-0.5,0-0.7-0.1c-0.4,0-0.9-0.1-1.3-0.1c-0.1,0-0.3,0-0.4,0c-0.1,0-0.2,0-0.3,0
		c-4.9,0.1-9.4,1.7-13,4.5c0,0,0,0-0.1,0c0,0-0.1,0.1-0.1,0.1c-0.5,0.4-0.9,0.7-1.3,1.1c0,0-0.1,0.1-0.1,0.1
		c-0.1,0.1-0.2,0.2-0.2,0.3c-0.3,0.3-0.6,0.6-0.8,0.8c-0.1,0.1-0.2,0.2-0.4,0.4c-0.1,0.2-0.3,0.3-0.4,0.5c-0.1,0.2-0.3,0.3-0.4,0.5
		c-0.2,0.2-0.3,0.4-0.5,0.6c-0.1,0.2-0.3,0.4-0.4,0.6c-0.1,0.1-0.2,0.3-0.3,0.4c-0.2,0.2-0.3,0.5-0.5,0.7c-0.1,0.2-0.3,0.5-0.4,0.7
		c-0.1,0.1-0.1,0.2-0.2,0.4c-0.1,0.2-0.3,0.5-0.4,0.7c-0.1,0.3-0.2,0.6-0.4,0.8c0,0.1-0.1,0.2-0.1,0.3c-0.1,0.2-0.2,0.5-0.3,0.7
		c-0.1,0.3-0.2,0.5-0.2,0.8c-0.1,0.2-0.1,0.4-0.2,0.6c-0.1,0.2-0.1,0.4-0.2,0.5c0,0.1,0,0.2-0.1,0.3c-0.1,0.5-0.2,0.9-0.3,1.4
		c0,0.1-0.1,0.2-0.1,0.3c0,0.1,0,0.2,0,0.2c-0.1,0.6-0.2,1.1-0.2,1.7c0,0,0,0.1,0,0.1c-4.1,0.1-8.1,0-12.2-0.5
		c-0.1-1.3-0.4-2.6-0.7-3.8c0,0,0-0.1,0-0.1c0,0,0,0,0-0.1c-0.2-0.6-0.4-1.1-0.6-1.7c0-0.1-0.1-0.2-0.1-0.3c-0.2-0.5-0.4-1-0.7-1.5
		c0-0.1,0-0.1-0.1-0.2c0-0.1-0.1-0.1-0.1-0.2c-0.3-0.5-0.5-1-0.8-1.4c-0.1-0.1-0.2-0.2-0.2-0.4c-0.3-0.5-0.6-0.9-0.9-1.4
		c0,0,0-0.1-0.1-0.1c0-0.1-0.1-0.1-0.1-0.2c-0.4-0.5-0.8-0.9-1.2-1.4c0,0,0,0,0,0c-4-4.4-9.7-7.2-16.1-7.2c0,0,0,0,0,0c0,0,0,0,0,0
		c0,0,0,0-0.1,0c-0.5,0-1.1,0-1.6,0.1c-0.2,0-0.4,0-0.6,0.1c-0.5,0.1-1,0.1-1.4,0.2c-0.3,0-0.6,0.1-0.9,0.2c-0.1,0-0.2,0-0.3,0.1
		c-0.2,0-0.3,0.1-0.5,0.1c-0.5,0.1-0.9,0.3-1.4,0.4c-0.2,0.1-0.5,0.2-0.7,0.2c-0.2,0.1-0.4,0.1-0.5,0.2c-0.1,0-0.2,0.1-0.4,0.2
		c-0.3,0.1-0.7,0.3-1,0.4c-0.4,0.2-0.7,0.4-1.1,0.5c-0.2,0.1-0.3,0.2-0.5,0.3c-0.5,0.3-1,0.6-1.4,0.9c-0.2,0.1-0.4,0.2-0.5,0.4
		c-0.3,0.2-0.5,0.4-0.7,0.6c0,0-0.1,0-0.1,0.1c0,0-0.1,0.1-0.1,0.1c-0.3,0.3-0.7,0.6-1,0.9c-20.1-17.9-18-53.9-16.4-67.8
		c2.1,1.5,4.2,2.8,6.5,4c2.4,19.9,11.7,60.9,47.2,60.9c1.2,0,2.5-0.1,3.7-0.1c14.5-1.1,24.6-6.3,30-15.4c7.9-13.3,3-31,0.3-38.5
		C146.7,113.6,153.9,117.3,158.6,122.8z M167,95c-0.8,0.8-1.7,1.6-2.6,2.3c-0.9,0.7-1.9,1.4-2.9,1.9c-1,0.6-2,1.1-3.1,1.6
		c-1.1,0.4-2.2,0.8-3.3,1.1c-1.1,0.3-2.3,0.5-3.4,0.7c-1.1,0.2-2.3,0.2-3.5,0.2c-14.6,0-26.5-12.1-26.5-26.9
		c0-14.8,11.9-26.8,26.5-26.8c14.6,0,26.5,12,26.5,26.8c0,0,0,0,0,0c0,0.7,0,1.4-0.1,2.1c-0.1,1.6-0.4,3.3-0.8,4.9
		c-0.6,2.3-1.5,4.4-2.7,6.5c-0.6,1-1.2,2-1.9,2.9C168.6,93.3,167.9,94.2,167,95z M200.9,87.8h-21.6c0.1-0.2,0.1-0.4,0.2-0.6
		c0.1-0.2,0.2-0.5,0.2-0.7c0.1-0.4,0.3-0.9,0.4-1.3c0-0.2,0.1-0.3,0.1-0.5c0-0.1,0-0.2,0.1-0.2c0.1-0.4,0.2-0.8,0.3-1.3
		c0.1-0.3,0.1-0.5,0.2-0.8c0.1-0.4,0.1-0.8,0.2-1.3c0-0.3,0.1-0.5,0.1-0.8l19.7,5.7V87.8z"/>
	<path class="st0" d="M147.1,181.1c-0.3-0.7-0.6-1.3-1-1.9c-0.4-0.6-0.8-1.1-1.4-1.6c-0.5-0.5-1.1-0.9-1.7-1.3
		c-0.6-0.4-1.2-0.7-1.9-1c-0.7-0.3-1.3-0.5-2-0.6c-0.7-0.1-1.4-0.2-2.1-0.2c-0.7,0-1.4,0.1-2.1,0.2c-0.7,0.1-1.4,0.3-2,0.6
		c-0.7,0.3-1.3,0.6-1.9,1c-0.6,0.4-1.1,0.9-1.6,1.4c-0.5,0.5-0.9,1.1-1.3,1.6c-0.4,0.6-0.7,1.2-1,1.9c-0.3,0.7-0.5,1.3-0.6,2
		c-0.1,0.7-0.2,1.4-0.2,2.1c0,0.7,0.1,1.4,0.2,2.1c0.1,0.7,0.4,1.4,0.6,2c0.3,0.7,0.6,1.3,1,1.9c0.4,0.6,0.9,1.1,1.4,1.6
		c0.5,0.5,1.1,0.9,1.7,1.3c0.6,0.4,1.2,0.7,1.9,1c0.7,0.3,1.3,0.5,2,0.6c0.7,0.1,1.4,0.2,2.1,0.2c0.7,0,1.4-0.1,2.1-0.2
		c0.7-0.1,1.4-0.4,2-0.6c0.7-0.3,1.3-0.6,1.9-1c0.6-0.4,1.1-0.8,1.6-1.3c0.5-0.5,0.9-1,1.3-1.6c0.4-0.6,0.7-1.2,1-1.9
		c0.3-0.7,0.5-1.3,0.6-2c0.1-0.7,0.2-1.4,0.2-2.1c0-0.7-0.1-1.4-0.2-2.1C147.5,182.4,147.3,181.8,147.1,181.1z M141.2,186.1
		c-0.1,0.3-0.1,0.5-0.2,0.8c-0.1,0.3-0.2,0.5-0.4,0.7c-0.2,0.2-0.3,0.4-0.5,0.6c-0.2,0.2-0.4,0.4-0.7,0.5c-0.2,0.2-0.5,0.3-0.7,0.4
		c-0.3,0.1-0.5,0.2-0.8,0.2c-0.3,0.1-0.6,0.1-0.8,0.1c-0.3,0-0.6,0-0.8-0.1c-0.3-0.1-0.5-0.1-0.8-0.3c-0.3-0.1-0.5-0.2-0.7-0.4
		c-0.2-0.2-0.4-0.3-0.6-0.5c-0.2-0.2-0.4-0.4-0.5-0.7c-0.2-0.2-0.3-0.5-0.4-0.7c-0.1-0.3-0.2-0.5-0.2-0.8c-0.1-0.3-0.1-0.6-0.1-0.8
		c0-0.3,0-0.6,0.1-0.8c0.1-0.3,0.1-0.5,0.3-0.8c0.1-0.3,0.3-0.5,0.4-0.7c0.2-0.2,0.3-0.4,0.5-0.6c0.2-0.2,0.4-0.4,0.7-0.5
		c0.2-0.2,0.5-0.3,0.8-0.4c0.3-0.1,0.5-0.2,0.8-0.2c0.3,0,0.6-0.1,0.8-0.1v0.1c0.5,0,1.1,0.1,1.6,0.3c0.5,0.2,1,0.5,1.3,0.9
		c0.4,0.4,0.7,0.8,0.9,1.4c0.2,0.5,0.3,1,0.3,1.6C141.3,185.5,141.3,185.8,141.2,186.1z"/>
	<path class="st0" d="M91.2,181.1c-0.3-0.7-0.6-1.3-1-1.9c-0.4-0.6-0.9-1.1-1.4-1.6c-0.5-0.5-1.1-0.9-1.7-1.3
		c-0.6-0.4-1.2-0.7-1.9-1c-0.7-0.3-1.3-0.5-2-0.6c-0.7-0.1-1.4-0.2-2.1-0.2c-0.7,0-1.4,0.1-2.1,0.2c-0.7,0.1-1.4,0.3-2,0.6
		c-0.7,0.3-1.3,0.6-1.9,1c-0.6,0.4-1.1,0.9-1.6,1.4c-0.5,0.5-0.9,1.1-1.3,1.6c-0.4,0.6-0.7,1.2-1,1.9c-0.3,0.7-0.5,1.3-0.6,2
		c-0.1,0.7-0.2,1.4-0.2,2.1c0,0.7,0.1,1.4,0.2,2.1c0.1,0.7,0.4,1.4,0.6,2s0.6,1.3,1,1.9c0.4,0.6,0.9,1.1,1.4,1.6
		c0.5,0.5,1.1,0.9,1.7,1.3c0.6,0.4,1.2,0.7,1.9,1c0.7,0.3,1.3,0.5,2.1,0.6c0.7,0.1,1.4,0.2,2.1,0.2c0.7,0,1.4-0.1,2.1-0.2
		c0.7-0.1,1.4-0.3,2-0.6c0.7-0.3,1.3-0.6,1.9-1c0.6-0.4,1.1-0.8,1.6-1.3c0.5-0.5,0.9-1,1.3-1.6c0.4-0.6,0.7-1.2,1-1.9
		c0.3-0.7,0.5-1.3,0.6-2c0.1-0.7,0.2-1.4,0.2-2.1c0-0.7-0.1-1.4-0.2-2.1C91.7,182.4,91.5,181.8,91.2,181.1z M85.4,186.1
		c-0.1,0.3-0.1,0.5-0.2,0.8c-0.1,0.3-0.2,0.5-0.4,0.7c-0.2,0.2-0.3,0.4-0.5,0.6c-0.2,0.2-0.4,0.4-0.7,0.5c-0.2,0.2-0.5,0.3-0.7,0.4
		c-0.3,0.1-0.5,0.2-0.8,0.2c-0.3,0.1-0.6,0.1-0.8,0.1c-0.3,0-0.6,0-0.8-0.1c-0.3-0.1-0.5-0.1-0.8-0.3c-0.3-0.1-0.5-0.2-0.7-0.4
		c-0.2-0.2-0.4-0.3-0.6-0.5c-0.2-0.2-0.4-0.4-0.5-0.7c-0.2-0.2-0.3-0.5-0.4-0.7c-0.1-0.3-0.2-0.5-0.2-0.8c0-0.3-0.1-0.6-0.1-0.8
		c0-0.3,0-0.6,0.1-0.8c0.1-0.3,0.1-0.5,0.3-0.8c0.1-0.3,0.3-0.5,0.4-0.7c0.2-0.2,0.3-0.4,0.5-0.6s0.4-0.4,0.7-0.5
		c0.2-0.2,0.5-0.3,0.7-0.4c0.3-0.1,0.5-0.2,0.8-0.2c0.3,0,0.6-0.1,0.8-0.1v0.1c0.3,0,0.5,0,0.8,0.1c0.3,0.1,0.5,0.1,0.8,0.2
		c0.3,0.1,0.5,0.2,0.7,0.4c0.2,0.2,0.4,0.3,0.6,0.5c0.2,0.2,0.4,0.4,0.5,0.6c0.2,0.2,0.3,0.5,0.4,0.7c0.1,0.3,0.2,0.5,0.2,0.8
		c0.1,0.3,0.1,0.5,0.1,0.8C85.5,185.5,85.4,185.8,85.4,186.1z"/>
	<path class="st0" d="M165.7,68.1c-0.3-0.7-0.6-1.3-1-1.9c-0.4-0.6-0.8-1.1-1.4-1.6c-0.5-0.5-1.1-0.9-1.7-1.3
		c-0.6-0.4-1.2-0.7-1.9-1c-0.7-0.3-1.3-0.5-2-0.6c-0.7-0.1-1.4-0.2-2.1-0.2c-0.7,0-1.4,0.1-2.1,0.2c-0.7,0.1-1.4,0.4-2,0.6
		c-0.7,0.3-1.3,0.6-1.9,1c-0.6,0.4-1.1,0.9-1.6,1.4c-0.5,0.5-0.9,1.1-1.3,1.7c-0.4,0.6-0.7,1.2-1,1.9c-0.3,0.7-0.5,1.3-0.6,2
		c-0.1,0.7-0.2,1.4-0.2,2.1c0,0.7,0.1,1.4,0.2,2.1c0.1,0.7,0.4,1.4,0.6,2c0.3,0.7,0.6,1.3,1,1.9c0.4,0.6,0.9,1.1,1.4,1.6
		c0.5,0.5,1.1,0.9,1.7,1.3c0.6,0.4,1.2,0.7,1.9,1c0.7,0.3,1.3,0.5,2,0.6c0.7,0.1,1.4,0.2,2.1,0.2c0.7,0,1.4-0.1,2.1-0.2
		c0.7-0.1,1.4-0.4,2-0.6c0.7-0.3,1.3-0.6,1.9-1c0.6-0.4,1.1-0.8,1.6-1.3c0.5-0.5,0.9-1,1.3-1.6c0.4-0.6,0.7-1.2,1-1.9
		c0.3-0.7,0.5-1.3,0.6-2c0.1-0.7,0.2-1.4,0.2-2.1c0-0.7-0.1-1.4-0.2-2.1C166.2,69.5,165.9,68.8,165.7,68.1z M159.8,73.1
		c-0.1,0.3-0.1,0.5-0.3,0.8c-0.1,0.3-0.2,0.5-0.4,0.7c-0.2,0.2-0.3,0.4-0.5,0.6c-0.2,0.2-0.4,0.4-0.7,0.5c-0.2,0.2-0.5,0.3-0.7,0.4
		c-0.3,0.1-0.5,0.2-0.8,0.2c-0.3,0.1-0.6,0.1-0.8,0.1c-0.3,0-0.6,0-0.8-0.1c-0.3-0.1-0.5-0.1-0.8-0.3c-0.3-0.1-0.5-0.2-0.7-0.4
		c-0.2-0.2-0.4-0.3-0.6-0.5c-0.2-0.2-0.4-0.4-0.5-0.7c-0.2-0.2-0.3-0.5-0.4-0.7c-0.1-0.3-0.2-0.5-0.2-0.8c0-0.3-0.1-0.6-0.1-0.8
		c0-0.3,0-0.6,0.1-0.8c0.1-0.3,0.1-0.5,0.3-0.8c0.1-0.3,0.3-0.5,0.4-0.7c0.2-0.2,0.3-0.4,0.5-0.6c0.2-0.2,0.4-0.4,0.7-0.5
		c0.2-0.1,0.5-0.3,0.8-0.4c0.3-0.1,0.5-0.2,0.8-0.2c0.3,0,0.6-0.1,0.8-0.1v0c0.3,0,0.5,0,0.8,0.1c0.3,0.1,0.5,0.1,0.8,0.3
		c0.3,0.1,0.5,0.2,0.7,0.4c0.2,0.2,0.4,0.3,0.6,0.5c0.2,0.2,0.4,0.4,0.5,0.6c0.2,0.2,0.3,0.5,0.4,0.7c0.1,0.3,0.2,0.5,0.2,0.8
		c0,0.3,0.1,0.5,0.1,0.8C159.9,72.6,159.9,72.8,159.8,73.1z"/>
</g>
</svg>
