<?xml version="1.0" encoding="utf-8"?>
<!-- Generator: Adobe Illustrator 25.3.1, SVG Export Plug-In . SVG Version: 6.00 Build 0)  -->
<svg version="1.1" id="Camada_1" xmlns="http://www.w3.org/2000/svg" xmlns:xlink="http://www.w3.org/1999/xlink" x="0px" y="0px"
	 viewBox="0 0 250 250" style="enable-background:new 0 0 250 250;" xml:space="preserve">
<style type="text/css">
	.st0{fill:#8A3D9C;stroke:#844192;stroke-width:2;stroke-miterlimit:10;}
</style>
<path class="st0" d="M194.8,202.8l-24.7-24.6l7.8-7.8l24.7,24.6L194.8,202.8z M123.6,142.2c4-1.8,7.7-4.3,10.8-7.4
	c3.2-3.1,5.7-6.8,7.5-10.8c6.4,18.1,25,35.4,25.9,36.3l6.2,6.2l-7.8,7.8l-6.1-6.1C159.1,167.2,141.8,148.6,123.6,142.2z M95.1,139.1
	c6.1-11,4.5-25.1-4.9-34.4c-5.5-5.5-12.8-8.5-20.5-8.5c-6.4,0-12.5,2.1-17.5,5.9c-6.9-16.5-4.8-33.4,5.5-43.8
	c15.5-15.4,44.4-11.7,64.4,8.3c9.8,9.8,16,21.9,17.5,34.2c1.5,12-1.8,22.7-9.2,30.1c-5.1,5.1-11.8,8.1-19.3,9.2c-0.2,0-0.4,0-0.6,0
	c-0.2,0-0.4,0.1-0.7,0.1C105.2,140.6,100.3,140.3,95.1,139.1z M70.8,148.5c1.4-5,6.5-18.7,22.4-22.4c-0.2,5.7-2.5,11.3-6.8,15.6
	C82.2,145.9,76.6,148.2,70.8,148.5z M46.7,129.7c20.3-4.3,26.4-22.6,27.6-27.6c4.5,0.9,8.7,3.1,12,6.4c3.4,3.4,5.6,7.6,6.4,12
	c-20.3,4.3-26.3,22.6-27.6,27.6c-4.5-0.9-8.7-3.1-12-6.4C49.8,138.3,47.6,134.2,46.7,129.7z M68.7,101.7c-1.4,5-6.7,18.7-22.4,22.4
	c0.2-5.9,2.6-11.4,6.9-15.6C57.3,104.4,62.8,102,68.7,101.7z M208.5,193l-36.8-36.7c-0.3-0.3-27.5-25.6-26.4-44.8
	c0.4-3.6,0.4-7.4-0.1-11.4c-1.6-13.5-8.4-26.8-19.1-37.4c-22.2-22.2-54.6-25.9-72.3-8.3c-12.4,12.4-14.6,32.5-5.9,51.7
	c-4.6,5.3-7.2,11.9-7.2,19c0,7.7,3,15,8.5,20.5C54.7,151,62,154,69.7,154c7.8,0,15.1-3,20.5-8.5c0.5-0.5,1-1.1,1.5-1.7
	c4.8,1.3,9.5,2,14,2c1.9,0,3.8-0.2,5.6-0.4c19.2-0.7,44.3,26.1,44.6,26.4l8.1,8.1l28.6,28.5c0.5,0.5,1.2,0.8,1.9,0.8
	c0.7,0,1.4-0.3,1.9-0.8l11.7-11.7C209.5,195.8,209.5,194.1,208.5,193z"/>
</svg>
