<?xml version="1.0" encoding="utf-8"?>
<!-- Generator: Adobe Illustrator 25.3.1, SVG Export Plug-In . SVG Version: 6.00 Build 0)  -->
<svg version="1.1" id="Camada_1" xmlns="http://www.w3.org/2000/svg" xmlns:xlink="http://www.w3.org/1999/xlink" x="0px" y="0px"
	 viewBox="0 0 250 250" style="enable-background:new 0 0 250 250;" xml:space="preserve">
<style type="text/css">
	.st0{fill:#8A3D9C;}
</style>
<g>
	<path class="st0" d="M227.5,91.7c-25.5-27.4-60.2-43.2-97.6-44.5c-37.4-1.3-73.1,12-100.5,37.6c-2.4,2.2-4.7,4.5-6.9,7
		c-1.1,1.2-1.1,3.1,0,4.3l19.9,22.8c0,0,0.1,0.1,0.1,0.1c0,0.1,0.1,0.1,0.1,0.1c0.1,0.1,0.2,0.2,0.4,0.2c0.2,0.1,0.3,0.2,0.5,0.3
		c0.1,0.1,0.3,0.1,0.4,0.1h0.3c0.2,0,0.4,0,0.6,0H45c0.2,0,0.4,0,0.6,0c0.1,0,0.2,0,0.2-0.1c0.2-0.1,0.4-0.2,0.5-0.3l0.2-0.1
		c0.1-0.1,0.3-0.2,0.4-0.3c0.1,0,0.1-0.1,0.2-0.1c18.2-20.8,43.5-33.3,71.1-35.2c27.6-1.8,54.3,7.2,75.2,25.5c3.4,3,6.7,6.3,9.7,9.7
		c0,0,0,0,0,0c0.1,0.1,0.2,0.2,0.3,0.3l0.5,0.3c0.1,0.1,0.2,0.1,0.3,0.1c0.4,0.2,0.8,0.2,1.2,0.3c0.4,0,0.8-0.1,1.3-0.3
		c0,0,0.2-0.1,0.3-0.2c0.2-0.1,0.3-0.2,0.5-0.3c0.2-0.1,0.3-0.3,0.4-0.5L227.5,96C228.7,94.8,228.7,92.9,227.5,91.7z M221.2,94
		l-5.1,5.8c-3.9,4.4-8.6,9.8-10.6,12C185.8,90.7,159,78.3,130,77c-29.3-1.3-57.5,9-79.1,28.8c-2,1.9-4.1,3.9-6,6l-5.8-6.5
		C35.3,101,30.9,96,29.2,94c25.1-25.8,60-40.6,96-40.7C161.2,53.4,196.2,68.2,221.2,94z"/>
	<path class="st0" d="M187.9,138.9c0-0.1-0.1-0.1-0.1-0.2v0c0-0.2-0.1-0.4-0.2-0.6c-13.1-16.7-31.9-27.2-52.9-29.7
		c-21-2.5-41.8,3.3-58.4,16.4c-4.9,3.9-9.4,8.4-13.3,13.3c0,0.1-0.1,0.1-0.1,0.2c0,0.1-0.1,0.1-0.1,0.2c-0.1,0.1-0.2,0.3-0.2,0.4
		c0,0.1-0.1,0.2-0.1,0.2c0,0.2,0,0.4,0,0.6c0,0.1,0,0.2,0,0.3c0,0.2,0,0.4,0,0.6v0.2c0,0.1,0,0.2,0,0.3c0.1,0.4,0.3,0.8,0.6,1.1
		l17,19.3c0.6,0.7,1.5,1.1,2.4,1.1c0.1,0,0.1,0,0.2,0c1-0.1,1.9-0.6,2.5-1.5c7-10.7,17.7-18.1,30.2-20.7c12.5-2.6,25.3-0.3,36,6.7
		c5.5,3.6,10.2,8.2,13.8,13.7c0,0.1,0.1,0.2,0.1,0.3c0.6,0.8,1.5,1.4,2.5,1.5h0.2c0.9,0,1.8-0.4,2.4-1.1c0.9-1.1,5.5-6.3,9.7-11.1
		c3.4-3.8,6.5-7.4,7.3-8.3c0.3-0.3,0.5-0.7,0.6-1.1c0-0.1,0-0.2,0-0.3v-0.2c0-0.2,0-0.4,0-0.6c0-0.1,0-0.3,0-0.4
		C188.1,139.4,188,139.1,187.9,138.9z M180.8,140c-2.3,2.7-9.8,11.2-12.5,14.2c-8.5-11.2-20.8-18.5-34.7-20.6
		c-14.3-2.2-28.7,1.3-40.4,9.8c-4.2,3.1-7.9,6.7-11.1,10.8L69.6,140c12.4-14.6,29.6-23.6,48.7-25.5c19.4-1.8,38.3,4,53.3,16.4
		C174.9,133.7,178,136.7,180.8,140z"/>
	<path class="st0" d="M125.2,165.5c-11.9,0-21.6,9.7-21.7,21.6c0,11.9,9.7,21.7,21.6,21.7c0,0,0,0,0,0c11.9,0,21.6-9.7,21.7-21.6
		C146.9,175.3,137.2,165.6,125.2,165.5z M140.4,187.2c0,8.4-6.8,15.2-15.2,15.2c0,0,0,0,0,0c-4.1,0-7.9-1.6-10.7-4.4
		c-2.9-2.9-4.5-6.7-4.5-10.8c0-8.4,6.8-15.2,15.2-15.2C133.6,172,140.4,178.8,140.4,187.2z"/>
</g>
</svg>
