<svg id="Camada_1" data-name="Camada 1" xmlns="http://www.w3.org/2000/svg" viewBox="0 0 300 300"><defs><style>.cls-1{fill:#82eb5c;}</style></defs><rect class="cls-1" x="5.07" y="274.72" width="289.87" height="19.32" rx="9.66"/><path class="cls-1" d="M21.37,246.34v13.28a3,3,0,0,0,3,3H276.21a3,3,0,0,0,3-3V246.34a3,3,0,0,0-3-3H256.28V132.2h19.93a3,3,0,0,0,3-3V115.9a3,3,0,0,0-3-3H24.39a3,3,0,0,0-3,3v13.28a3,3,0,0,0,3,3H44.32V243.32H24.39A3,3,0,0,0,21.37,246.34ZM166.31,132.2h56.16V243.32H166.31Zm-89.38,0h56.16V243.32H76.93Z"/><path class="cls-1" d="M143.21,7.54,13.56,71.83A15.28,15.28,0,0,0,5.07,85.52h0A15.28,15.28,0,0,0,20.35,100.8h259.3a15.28,15.28,0,0,0,15.28-15.28h0a15.28,15.28,0,0,0-8.49-13.69L156.79,7.54A15.29,15.29,0,0,0,143.21,7.54ZM150,82.4a29,29,0,1,1,29-29A28.82,28.82,0,0,1,150,82.4Z"/><path class="cls-1" d="M151.88,50.09h0V41.18A16.39,16.39,0,0,1,158.44,44l2.82-4.23a17.75,17.75,0,0,0-9.85-3.28V34.14h-2.82v2.35a10.66,10.66,0,0,0-7.5,2.81,8.53,8.53,0,0,0-2.82,6.57,8.1,8.1,0,0,0,2.35,6.1,28.45,28.45,0,0,0,8.44,3.28v8.92a14.76,14.76,0,0,1-8-4.23l-3.29,4.23a20.81,20.81,0,0,0,11.26,5.16v3.28h2.82V69.33a9.88,9.88,0,0,0,7.5-2.82,8.5,8.5,0,0,0,2.82-6.57,8.07,8.07,0,0,0-2.35-6.09C158.44,52.44,155.63,51,151.88,50.09Zm-2.82-.47-3.75-1.87a3.59,3.59,0,0,1-.94-2.35,4,4,0,0,1,1.41-2.81,22.74,22.74,0,0,1,3.28-1.41Zm6.57,13.61c-.94.94-1.88.94-3.75,1.41V56.19c1.87.47,3.28.94,3.75,1.88a4,4,0,0,1,.94,2.81C157,61.35,156.57,62.29,155.63,63.23Z"/></svg>