<svg id="Camada_1" data-name="Camada 1" xmlns="http://www.w3.org/2000/svg" viewBox="0 0 300 300"><defs><style>.cls-1{fill:#82eb5c;}.cls-2{fill:none;stroke:#82eb5c;stroke-miterlimit:10;stroke-width:10px;}</style></defs><path class="cls-1" d="M64.16,6.58a6,6,0,0,0-6,6V30.33H45.65A20.43,20.43,0,0,0,25.21,50.71V61.53H258.42V50.71A20.41,20.41,0,0,0,238,30.33h-12.5V12.55a6,6,0,0,0-12,0V30.33h-14V12.55a6,6,0,0,0-11.95,0V30.33H173.74V12.55a6,6,0,0,0-12,0V30.33H147.84V12.55a6,6,0,0,0-12,0V30.33H121.93V12.55a6,6,0,0,0-12,0V30.33H96V12.55a6,6,0,0,0-12,0V30.33h-14V12.55A6,6,0,0,0,64.16,6.58Z"/><path class="cls-1" d="M216.94,165.76a69.57,69.57,0,0,1,41.48,13.69v-106H25.21V215.61A24.13,24.13,0,0,0,49.3,239.69h98c-.12-1.37-.18-2.74-.18-4.12A69.88,69.88,0,0,1,216.94,165.76ZM80.62,198.81a5.23,5.23,0,0,1-5.26,5.26H61.43a5.23,5.23,0,0,1-5.26-5.26V184.89a5.23,5.23,0,0,1,5.26-5.26H75.36a5.23,5.23,0,0,1,5.26,5.26Zm0-43.8a5.27,5.27,0,0,1-5.26,5.26H61.43A5.27,5.27,0,0,1,56.17,155V141.08a5.23,5.23,0,0,1,5.26-5.26H75.36a5.23,5.23,0,0,1,5.26,5.26Zm48.95,43.8a5.23,5.23,0,0,1-5.26,5.26H110.38a5.23,5.23,0,0,1-5.26-5.26V184.89a5.23,5.23,0,0,1,5.26-5.26h13.93a5.23,5.23,0,0,1,5.26,5.26Zm0-43.8a5.27,5.27,0,0,1-5.26,5.26H110.38a5.27,5.27,0,0,1-5.26-5.26V141.08a5.23,5.23,0,0,1,5.26-5.26h13.93a5.23,5.23,0,0,1,5.26,5.26Zm0-43.81a5.22,5.22,0,0,1-5.26,5.2H110.38a5.22,5.22,0,0,1-5.26-5.2v-14A5.27,5.27,0,0,1,110.38,92h13.93a5.27,5.27,0,0,1,5.26,5.26Zm73.51-14A5.27,5.27,0,0,1,208.34,92h13.92a5.27,5.27,0,0,1,5.26,5.26v14a5.22,5.22,0,0,1-5.26,5.2H208.34a5.22,5.22,0,0,1-5.26-5.2Zm0,43.87a5.23,5.23,0,0,1,5.26-5.26h13.92a5.23,5.23,0,0,1,5.26,5.26V155a5.27,5.27,0,0,1-5.26,5.26H208.34a5.27,5.27,0,0,1-5.26-5.26Zm-49-43.87a5.25,5.25,0,0,1,5.2-5.26h14a5.31,5.31,0,0,1,5.26,5.26v14a5.25,5.25,0,0,1-5.26,5.2h-14a5.2,5.2,0,0,1-5.2-5.2Zm0,57.8V141.08a5.22,5.22,0,0,1,5.2-5.26h14a5.27,5.27,0,0,1,5.26,5.26V155a5.31,5.31,0,0,1-5.26,5.26h-14A5.25,5.25,0,0,1,154.13,155Z"/><circle class="cls-2" cx="216.94" cy="235.58" r="57.84" transform="translate(-48.32 56.15) rotate(-13.28)"/><path class="cls-1" d="M216.93,241.38a18.06,18.06,0,0,1-5.78-35.19v-1.6a5.79,5.79,0,0,1,11.57,0v1.6a18.09,18.09,0,0,1,12.33,17.08,5.79,5.79,0,0,1-11.57,0,6.55,6.55,0,1,0-6.55,6.55A18.06,18.06,0,0,1,222.72,265v1.6a5.79,5.79,0,0,1-11.57,0V265a18.09,18.09,0,0,1-12.33-17.08,5.79,5.79,0,1,1,11.57,0,6.55,6.55,0,1,0,6.54-6.55Z"/></svg>