<?xml version="1.0" encoding="utf-8"?>
<!-- Generator: Adobe Illustrator 24.3.0, SVG Export Plug-In . SVG Version: 6.00 Build 0)  -->
<svg version="1.1" id="Camada_1" xmlns="http://www.w3.org/2000/svg" xmlns:xlink="http://www.w3.org/1999/xlink" x="0px" y="0px"
	 viewBox="0 0 64 64.1" style="enable-background:new 0 0 64 64.1;" xml:space="preserve">
<style type="text/css">
	.st0{fill:#FFFFFF;}
</style>
<g transform="translate(0,-952.36218)">
	<path class="st0" d="M53.9,959.4c-1.9,0-3.1,0.4-4.6,1.1l-10.9,5.1l-13.7-3.4c-0.3-0.1-0.5-0.1-0.8,0l-8.2,2.7
		c-0.5,0.2-0.9,0.7-0.9,1.2c0,0.5,0.3,1.1,0.8,1.3c0,0,5.1,2.3,9.4,4.4l-9.5,4.5l-4.9-2.4c-0.3-0.2-0.7-0.2-1-0.1l-6.8,2.1
		c-0.9,0.3-1.3,1.6-0.6,2.3c0,0,8.4,8.4,8.4,8.4c1.3,1.3,3,1.5,4.2,1.5c0.8,0,1.7-0.2,2.6-0.5c0.2-0.1,12.1-5.4,12.1-5.4l-3,18
		c-0.2,1,1,1.9,1.9,1.5l6.8-2.7c0.3-0.1,0.6-0.4,0.7-0.7l10.1-23.5c0,0,13.1-6.2,13.4-6.4c0.5-0.3,0.9-0.6,1.3-1
		c0.6-0.6,1.3-1.3,1.3-2.5c0-1.1-0.6-1.9-1.1-2.3C59.6,961,57.1,959.4,53.9,959.4z M53.9,962.1c2,0,3.6,0.9,4.7,1.9
		c1,0.8,0.3,1.4-0.4,1.8c-0.3,0.2-13.9,6.7-13.9,6.7c-0.3,0.1-0.5,0.4-0.7,0.7l-10.1,23.5l-4,1.6l3-18.1c0.2-1-1-1.9-1.9-1.5
		c0,0-14,6.3-14.1,6.4c-0.6,0.2-1.4,0.4-1.8,0.4c-0.7,0-1.6-0.2-2.2-0.7c-0.1-0.1-6.9-6.9-6.9-6.9l4.1-1.2l5,2.5
		c0.4,0.2,0.8,0.2,1.2,0l33.9-16C51.3,962.5,52.7,962.1,53.9,962.1z M24.5,964.9l10.1,2.5l-6.3,2.9c-3.3-1.6-6.1-2.9-8.3-3.9
		L24.5,964.9z M3.1,1004.6c-0.7,0-1.3,0.7-1.3,1.4c0,0.7,0.7,1.3,1.4,1.3h57.5c0.7,0,1.4-0.6,1.4-1.4c0-0.7-0.7-1.4-1.4-1.4H3.2
		C3.2,1004.6,3.1,1004.6,3.1,1004.6z"/>
</g>
</svg>
