<svg id="Camada_1" data-name="Camada 1" xmlns="http://www.w3.org/2000/svg" viewBox="0 0 64 64.09"><defs><style>.cls-1{fill:#fff;}</style></defs><rect class="cls-1" x="1" y="61.05" width="2" height="2"/><rect class="cls-1" x="61" y="61.05" width="2" height="2"/><rect class="cls-1" x="31" y="39.05" width="2" height="2"/><rect class="cls-1" x="37" y="39.05" width="2" height="2"/><rect class="cls-1" x="25" y="39.05" width="2" height="2"/><path class="cls-1" d="M46.6,54.85l-1.2-1.6A10.79,10.79,0,0,0,43,55.76V51.05H41v4.71a10.79,10.79,0,0,0-2.4-2.51l-1.2,1.6a9,9,0,0,1,3.54,6.2H35v-16H45v-10H35v-2h8.3l7.5-5-7.5-5H35v-2H50V15.63l-1.59-1.58L50,12.46V7.05H35v-3a3,3,0,1,0-6,0v3H20.59l-7,7,7,7H29v2H14v4.41l.59.59-.59.58v4.42H29v2H19v10H29v16H23.06a9,9,0,0,1,3.54-6.2l-1.2-1.6A10.79,10.79,0,0,0,23,55.76V51.05H21v4.71a10.79,10.79,0,0,0-2.4-2.51l-1.2,1.6a9,9,0,0,1,3.54,6.2H5v2H59v-2H43.06A9,9,0,0,1,46.6,54.85ZM31,4.05a1,1,0,1,1,2,0v3H31Zm-14.59,10,5-5H48v2.58l-2.41,2.42L48,16.46v2.59H21.41Zm14.59,7h2v2H31ZM16,29.46l1.41-1.41L16,26.63V25.05H42.7l4.5,3-4.5,3H16Zm15,3.59h2v2H31Zm-10,10v-6H43v6Zm10,2h2v16H31Z"/><path class="cls-1" d="M23,17.05h6v-6H23Zm2-4h2v2H25Z"/><rect class="cls-1" x="31" y="11.05" width="13" height="2"/><rect class="cls-1" x="31" y="15.05" width="2" height="2"/><rect class="cls-1" x="35" y="15.05" width="9" height="2"/><rect class="cls-1" x="40" y="27.05" width="2" height="2"/><rect class="cls-1" x="20" y="27.05" width="18" height="2"/></svg>