<?xml version="1.0" encoding="utf-8"?>
<!-- Generator: Adobe Illustrator 24.2.1, SVG Export Plug-In . SVG Version: 6.00 Build 0)  -->
<svg version="1.1" id="Camada_1" xmlns="http://www.w3.org/2000/svg" xmlns:xlink="http://www.w3.org/1999/xlink" x="0px" y="0px"
	 viewBox="0 0 64 64.1" style="enable-background:new 0 0 64 64.1;" xml:space="preserve">
<style type="text/css">
	.st0{fill:#FFFFFF;}
</style>
<g>
	<path class="st0" d="M53.2,51.5c0.5,0,0.8-0.4,0.8-0.8c0-0.5-0.4-0.8-0.8-0.8H43.1V17.4c0-0.5-0.4-0.8-0.8-0.8h-2.9V9.7
		c0-0.5-0.4-0.8-0.8-0.8h-2V5.1c0-0.5-0.4-0.8-0.8-0.8h-2v-3c0-0.5-0.4-0.8-0.8-0.8s-0.8,0.4-0.8,0.8v3h-2c-0.5,0-0.8,0.4-0.8,0.8
		v3.8h-2c-0.5,0-0.8,0.4-0.8,0.8v6.8h-2.9c-0.5,0-0.8,0.4-0.8,0.8v32.5H12.6c-0.5,0-0.8,0.4-0.8,0.8c0,0.5,0.4,0.8,0.8,0.8h3v4.7
		h-1.3c-0.3-0.8-1.1-1.5-2.1-1.5c-1.3,0-2.3,1-2.3,2.3c0,1.3,1,2.3,2.3,2.3c1,0,1.8-0.6,2.1-1.5h2.1c0.5,0,0.8-0.4,0.8-0.8v-5.5h1.6
		v4.1c0,0.5,0.4,0.8,0.8,0.8h2.7v2.8c-0.8,0.3-1.5,1.1-1.5,2.1c0,1.3,1,2.3,2.3,2.3s2.3-1,2.3-2.3c0-1-0.6-1.8-1.5-2.1v-3.6
		c0-0.5-0.4-0.8-0.8-0.8h-2.7v-3.2h3.1h9.9v3.2h-2.7c-0.5,0-0.8,0.4-0.8,0.8v3.6c-0.8,0.3-1.5,1.1-1.5,2.1c0,1.3,1,2.3,2.3,2.3
		c1.3,0,2.3-1,2.3-2.3c0-1-0.6-1.8-1.5-2.1v-2.8h2.7c0.5,0,0.8-0.4,0.8-0.8v-4.1h3.7v2.8c-0.8,0.3-1.5,1.1-1.5,2.1
		c0,1.3,1,2.3,2.3,2.3c1.3,0,2.3-1,2.3-2.3c0-1-0.6-1.8-1.5-2.1v-2.8h1.7H46v5.5c0,0.5,0.4,0.8,0.8,0.8H49c0.3,0.8,1.1,1.5,2.1,1.5
		c1.3,0,2.3-1,2.3-2.3c0-1.3-1-2.3-2.3-2.3c-1,0-1.8,0.6-2.1,1.5h-1.3v-4.7H53.2z M12.2,57.7c-0.3,0-0.6-0.3-0.6-0.6
		c0-0.3,0.3-0.6,0.6-0.6s0.6,0.3,0.6,0.6C12.8,57.4,12.6,57.7,12.2,57.7z M23.2,60.7c0.3,0,0.6,0.3,0.6,0.6s-0.3,0.6-0.6,0.6
		s-0.6-0.3-0.6-0.6S22.8,60.7,23.2,60.7z M30.8,61.9c-0.3,0-0.6-0.3-0.6-0.6s0.3-0.6,0.6-0.6c0.3,0,0.6,0.3,0.6,0.6
		S31.1,61.9,30.8,61.9z M30.9,6h3.9v2.9h-3.9V6z M28.1,10.5h2h5.6h2v6h-9.5V10.5z M39.7,57.1c-0.3,0-0.6-0.3-0.6-0.6
		c0-0.3,0.3-0.6,0.6-0.6s0.6,0.3,0.6,0.6C40.3,56.8,40,57.1,39.7,57.1z M41.4,49.9h-17V18.2h2.9h11.2h2.9V49.9z M51.1,56.4
		c0.3,0,0.6,0.3,0.6,0.6c0,0.3-0.3,0.6-0.6,0.6c-0.3,0-0.6-0.3-0.6-0.6C50.4,56.7,50.7,56.4,51.1,56.4z"/>
	<path class="st0" d="M29.2,21.8h-2.2c-0.5,0-0.8,0.4-0.8,0.8s0.4,0.8,0.8,0.8h2.2c0.5,0,0.8-0.4,0.8-0.8S29.7,21.8,29.2,21.8z"/>
	<path class="st0" d="M34,21.8h-2.2c-0.5,0-0.8,0.4-0.8,0.8s0.4,0.8,0.8,0.8H34c0.5,0,0.8-0.4,0.8-0.8S34.4,21.8,34,21.8z"/>
	<path class="st0" d="M35.8,22.6c0,0.5,0.4,0.8,0.8,0.8h2.2c0.5,0,0.8-0.4,0.8-0.8s-0.4-0.8-0.8-0.8h-2.2
		C36.1,21.8,35.8,22.2,35.8,22.6z"/>
	<path class="st0" d="M29.2,26.4h-2.2c-0.5,0-0.8,0.4-0.8,0.8c0,0.5,0.4,0.8,0.8,0.8h2.2c0.5,0,0.8-0.4,0.8-0.8
		C30.1,26.7,29.7,26.4,29.2,26.4z"/>
	<path class="st0" d="M34,26.4h-2.2c-0.5,0-0.8,0.4-0.8,0.8c0,0.5,0.4,0.8,0.8,0.8H34c0.5,0,0.8-0.4,0.8-0.8
		C34.8,26.7,34.4,26.4,34,26.4z"/>
	<path class="st0" d="M38.7,26.4h-2.2c-0.5,0-0.8,0.4-0.8,0.8c0,0.5,0.4,0.8,0.8,0.8h2.2c0.5,0,0.8-0.4,0.8-0.8
		C39.6,26.7,39.2,26.4,38.7,26.4z"/>
	<path class="st0" d="M29.2,30.9h-2.2c-0.5,0-0.8,0.4-0.8,0.8s0.4,0.8,0.8,0.8h2.2c0.5,0,0.8-0.4,0.8-0.8S29.7,30.9,29.2,30.9z"/>
	<path class="st0" d="M34,30.9h-2.2c-0.5,0-0.8,0.4-0.8,0.8s0.4,0.8,0.8,0.8H34c0.5,0,0.8-0.4,0.8-0.8S34.4,30.9,34,30.9z"/>
	<path class="st0" d="M38.7,30.9h-2.2c-0.5,0-0.8,0.4-0.8,0.8s0.4,0.8,0.8,0.8h2.2c0.5,0,0.8-0.4,0.8-0.8S39.2,30.9,38.7,30.9z"/>
	<path class="st0" d="M29.2,35.5h-2.2c-0.5,0-0.8,0.4-0.8,0.8c0,0.5,0.4,0.8,0.8,0.8h2.2c0.5,0,0.8-0.4,0.8-0.8
		C30.1,35.9,29.7,35.5,29.2,35.5z"/>
	<path class="st0" d="M34,35.5h-2.2c-0.5,0-0.8,0.4-0.8,0.8c0,0.5,0.4,0.8,0.8,0.8H34c0.5,0,0.8-0.4,0.8-0.8
		C34.8,35.9,34.4,35.5,34,35.5z"/>
	<path class="st0" d="M38.7,35.5h-2.2c-0.5,0-0.8,0.4-0.8,0.8c0,0.5,0.4,0.8,0.8,0.8h2.2c0.5,0,0.8-0.4,0.8-0.8
		C39.6,35.9,39.2,35.5,38.7,35.5z"/>
	<path class="st0" d="M29.2,40.1h-2.2c-0.5,0-0.8,0.4-0.8,0.8s0.4,0.8,0.8,0.8h2.2c0.5,0,0.8-0.4,0.8-0.8S29.7,40.1,29.2,40.1z"/>
	<path class="st0" d="M34,40.1h-2.2c-0.5,0-0.8,0.4-0.8,0.8s0.4,0.8,0.8,0.8H34c0.5,0,0.8-0.4,0.8-0.8S34.4,40.1,34,40.1z"/>
	<path class="st0" d="M38.7,40.1h-2.2c-0.5,0-0.8,0.4-0.8,0.8s0.4,0.8,0.8,0.8h2.2c0.5,0,0.8-0.4,0.8-0.8S39.2,40.1,38.7,40.1z"/>
	<path class="st0" d="M29.2,44.7h-2.2c-0.5,0-0.8,0.4-0.8,0.8c0,0.5,0.4,0.8,0.8,0.8h2.2c0.5,0,0.8-0.4,0.8-0.8
		C30.1,45,29.7,44.7,29.2,44.7z"/>
	<path class="st0" d="M34,44.7h-2.2c-0.5,0-0.8,0.4-0.8,0.8c0,0.5,0.4,0.8,0.8,0.8H34c0.5,0,0.8-0.4,0.8-0.8
		C34.8,45,34.4,44.7,34,44.7z"/>
	<path class="st0" d="M38.7,44.7h-2.2c-0.5,0-0.8,0.4-0.8,0.8c0,0.5,0.4,0.8,0.8,0.8h2.2c0.5,0,0.8-0.4,0.8-0.8
		C39.6,45,39.2,44.7,38.7,44.7z"/>
	<path class="st0" d="M36,12.7h-6.2c-0.5,0-0.8,0.4-0.8,0.8c0,0.5,0.4,0.8,0.8,0.8H36c0.5,0,0.8-0.4,0.8-0.8
		C36.9,13.1,36.5,12.7,36,12.7z"/>
</g>
</svg>
