<?xml version="1.0" encoding="utf-8"?>
<!-- Generator: Adobe Illustrator 24.2.1, SVG Export Plug-In . SVG Version: 6.00 Build 0)  -->
<svg version="1.1" id="Camada_1" xmlns="http://www.w3.org/2000/svg" xmlns:xlink="http://www.w3.org/1999/xlink" x="0px" y="0px"
	 viewBox="0 0 64 64.1" style="enable-background:new 0 0 64 64.1;" xml:space="preserve">
<style type="text/css">
	.st0{fill:#FFFFFF;}
</style>
<g>
	<path class="st0" d="M24.6,19.4h4.3c0.4,0,0.7-0.3,0.7-0.7s-0.3-0.7-0.7-0.7h-4.3c-0.4,0-0.7,0.3-0.7,0.7
		C23.9,19,24.2,19.4,24.6,19.4z"/>
	<path class="st0" d="M24.6,23.8h4.3c0.4,0,0.7-0.3,0.7-0.7c0-0.4-0.3-0.7-0.7-0.7h-4.3c-0.4,0-0.7,0.3-0.7,0.7
		C23.9,23.4,24.2,23.8,24.6,23.8z"/>
	<path class="st0" d="M24.6,28.3h4.3c0.4,0,0.7-0.3,0.7-0.7s-0.3-0.7-0.7-0.7h-4.3c-0.4,0-0.7,0.3-0.7,0.7
		C23.9,28,24.2,28.3,24.6,28.3z"/>
	<path class="st0" d="M24.6,32.7h4.3c0.4,0,0.7-0.3,0.7-0.7s-0.3-0.7-0.7-0.7h-4.3c-0.4,0-0.7,0.3-0.7,0.7
		C23.9,32.4,24.2,32.7,24.6,32.7z"/>
	<path class="st0" d="M24.6,37.2h4.3c0.4,0,0.7-0.3,0.7-0.7s-0.3-0.7-0.7-0.7h-4.3c-0.4,0-0.7,0.3-0.7,0.7
		C23.9,36.9,24.2,37.2,24.6,37.2z"/>
	<path class="st0" d="M24.6,41.7h4.3c0.4,0,0.7-0.3,0.7-0.7s-0.3-0.7-0.7-0.7h-4.3c-0.4,0-0.7,0.3-0.7,0.7S24.2,41.7,24.6,41.7z"/>
	<path class="st0" d="M24.6,46.1h4.3c0.4,0,0.7-0.3,0.7-0.7s-0.3-0.7-0.7-0.7h-4.3c-0.4,0-0.7,0.3-0.7,0.7
		C23.9,45.8,24.2,46.1,24.6,46.1z"/>
	<path class="st0" d="M24.6,50.6h4.3c0.4,0,0.7-0.3,0.7-0.7s-0.3-0.7-0.7-0.7h-4.3c-0.4,0-0.7,0.3-0.7,0.7
		C23.9,50.2,24.2,50.6,24.6,50.6z"/>
	<path class="st0" d="M24.6,55h4.3c0.4,0,0.7-0.3,0.7-0.7s-0.3-0.7-0.7-0.7h-4.3c-0.4,0-0.7,0.3-0.7,0.7S24.2,55,24.6,55z"/>
	<path class="st0" d="M32,19.4h4.3c0.4,0,0.7-0.3,0.7-0.7s-0.3-0.7-0.7-0.7H32c-0.4,0-0.7,0.3-0.7,0.7C31.3,19,31.6,19.4,32,19.4z"
		/>
	<path class="st0" d="M32,23.8h4.3c0.4,0,0.7-0.3,0.7-0.7c0-0.4-0.3-0.7-0.7-0.7H32c-0.4,0-0.7,0.3-0.7,0.7
		C31.3,23.4,31.6,23.8,32,23.8z"/>
	<path class="st0" d="M32,28.3h4.3c0.4,0,0.7-0.3,0.7-0.7s-0.3-0.7-0.7-0.7H32c-0.4,0-0.7,0.3-0.7,0.7C31.3,28,31.6,28.3,32,28.3z"
		/>
	<path class="st0" d="M32,32.7h4.3c0.4,0,0.7-0.3,0.7-0.7s-0.3-0.7-0.7-0.7H32c-0.4,0-0.7,0.3-0.7,0.7S31.6,32.7,32,32.7z"/>
	<path class="st0" d="M32,37.2h4.3c0.4,0,0.7-0.3,0.7-0.7s-0.3-0.7-0.7-0.7H32c-0.4,0-0.7,0.3-0.7,0.7S31.6,37.2,32,37.2z"/>
	<path class="st0" d="M32,41.7h4.3c0.4,0,0.7-0.3,0.7-0.7s-0.3-0.7-0.7-0.7H32c-0.4,0-0.7,0.3-0.7,0.7S31.6,41.7,32,41.7z"/>
	<path class="st0" d="M32,46.1h4.3c0.4,0,0.7-0.3,0.7-0.7s-0.3-0.7-0.7-0.7H32c-0.4,0-0.7,0.3-0.7,0.7S31.6,46.1,32,46.1z"/>
	<path class="st0" d="M32,50.6h4.3c0.4,0,0.7-0.3,0.7-0.7s-0.3-0.7-0.7-0.7H32c-0.4,0-0.7,0.3-0.7,0.7C31.3,50.2,31.6,50.6,32,50.6z
		"/>
	<path class="st0" d="M32,55h4.3c0.4,0,0.7-0.3,0.7-0.7s-0.3-0.7-0.7-0.7H32c-0.4,0-0.7,0.3-0.7,0.7S31.6,55,32,55z"/>
	<path class="st0" d="M11.9,29.1c0,0.4,0.3,0.7,0.7,0.7h4.3c0.4,0,0.7-0.3,0.7-0.7s-0.3-0.7-0.7-0.7h-4.3
		C12.2,28.4,11.9,28.7,11.9,29.1z"/>
	<path class="st0" d="M16.9,32.8h-4.3c-0.4,0-0.7,0.3-0.7,0.7s0.3,0.7,0.7,0.7h4.3c0.4,0,0.7-0.3,0.7-0.7
		C17.7,33.2,17.4,32.8,16.9,32.8z"/>
	<path class="st0" d="M16.9,37.3h-4.3c-0.4,0-0.7,0.3-0.7,0.7s0.3,0.7,0.7,0.7h4.3c0.4,0,0.7-0.3,0.7-0.7
		C17.7,37.6,17.4,37.3,16.9,37.3z"/>
	<path class="st0" d="M16.9,41.8h-4.3c-0.4,0-0.7,0.3-0.7,0.7s0.3,0.7,0.7,0.7h4.3c0.4,0,0.7-0.3,0.7-0.7
		C17.7,42.1,17.4,41.8,16.9,41.8z"/>
	<path class="st0" d="M16.9,46.2h-4.3c-0.4,0-0.7,0.3-0.7,0.7s0.3,0.7,0.7,0.7h4.3c0.4,0,0.7-0.3,0.7-0.7
		C17.7,46.5,17.4,46.2,16.9,46.2z"/>
	<path class="st0" d="M16.9,50.7h-4.3c-0.4,0-0.7,0.3-0.7,0.7s0.3,0.7,0.7,0.7h4.3c0.4,0,0.7-0.3,0.7-0.7S17.4,50.7,16.9,50.7z"/>
	<path class="st0" d="M16.9,55.1h-4.3c-0.4,0-0.7,0.3-0.7,0.7s0.3,0.7,0.7,0.7h4.3c0.4,0,0.7-0.3,0.7-0.7
		C17.7,55.4,17.4,55.1,16.9,55.1z"/>
	<path class="st0" d="M44.9,29.8h4.3c0.4,0,0.7-0.3,0.7-0.7s-0.3-0.7-0.7-0.7h-4.3c-0.4,0-0.7,0.3-0.7,0.7
		C44.2,29.5,44.5,29.8,44.9,29.8z"/>
	<path class="st0" d="M44.9,34.4h4.3c0.4,0,0.7-0.3,0.7-0.7s-0.3-0.7-0.7-0.7h-4.3c-0.4,0-0.7,0.3-0.7,0.7
		C44.2,33.9,44.5,34.4,44.9,34.4z"/>
	<path class="st0" d="M44.9,38.8h4.3c0.4,0,0.7-0.3,0.7-0.7s-0.3-0.7-0.7-0.7h-4.3c-0.4,0-0.7,0.3-0.7,0.7S44.5,38.8,44.9,38.8z"/>
	<path class="st0" d="M44.9,43.3h4.3c0.4,0,0.7-0.3,0.7-0.7s-0.3-0.7-0.7-0.7h-4.3c-0.4,0-0.7,0.3-0.7,0.7S44.5,43.3,44.9,43.3z"/>
	<path class="st0" d="M44.9,47.7h4.3c0.4,0,0.7-0.3,0.7-0.7s-0.3-0.7-0.7-0.7h-4.3c-0.4,0-0.7,0.3-0.7,0.7S44.5,47.7,44.9,47.7z"/>
	<path class="st0" d="M44.9,52.2h4.3c0.4,0,0.7-0.3,0.7-0.7s-0.3-0.7-0.7-0.7h-4.3c-0.4,0-0.7,0.3-0.7,0.7S44.5,52.2,44.9,52.2z"/>
	<path class="st0" d="M44.9,56.6h4.3c0.4,0,0.7-0.3,0.7-0.7s-0.3-0.7-0.7-0.7h-4.3c-0.4,0-0.7,0.3-0.7,0.7S44.5,56.6,44.9,56.6z"/>
	<path class="st0" d="M63.1,59.8h-8.9V24.5c0-0.4-0.3-0.7-0.7-0.7h-12v-8.6c0-0.3-0.2-0.6-0.5-0.7L21.2,8.2c-0.2-0.1-0.5,0-0.6,0.1
		c-0.2,0.1-0.3,0.3-0.3,0.6v9h-1.6v-3.6c0-0.4-0.3-0.7-0.7-0.7c-0.4,0-0.7,0.3-0.7,0.7V18h-1.8c-0.4,0-0.7,0.3-0.7,0.7v5.1H8.5
		c-0.4,0-0.7,0.3-0.7,0.7v35.3H1c-0.4,0-0.7,0.3-0.7,0.7s0.3,0.7,0.7,0.7h7.4H21h19.7h12.6H63c0.4,0,0.7-0.3,0.7-0.7
		C63.8,60.1,63.5,59.8,63.1,59.8z M20.3,59.8H9.2V25.2h6.3h4.8C20.3,25.2,20.3,59.8,20.3,59.8z M20.3,23.8h-4.1v-4.4h4.1V23.8z
		 M40,24.5v35.3H21.9V24.5v-5.9V9.9L40,15.7V24.5z M52.7,59.8H41.5V25.2h11.1v34.6H52.7z"/>
</g>
</svg>
