<?xml version="1.0" encoding="utf-8"?>
<!-- Generator: Adobe Illustrator 24.3.0, SVG Export Plug-In . SVG Version: 6.00 Build 0)  -->
<svg version="1.1" id="Camada_1" xmlns="http://www.w3.org/2000/svg" xmlns:xlink="http://www.w3.org/1999/xlink" x="0px" y="0px"
	 viewBox="0 0 64 64.1" style="enable-background:new 0 0 64 64.1;" xml:space="preserve">
<style type="text/css">
	.st0{fill:#FFFFFF;}
</style>
<g>
	<path class="st0" d="M47.6,13.3l6.2,11c0.3,0.6,1,0.7,1.6,0.4c0.2-0.1,0.3-0.3,0.4-0.4l6.2-11c0,0,0.1-0.1,0.1-0.1
		c2.4-4,1-9.3-3-11.6c-4-2.4-9.3-1-11.6,3C46,7.2,46,10.6,47.6,13.3C47.6,13.2,47.6,13.3,47.6,13.3z M54.9,2.7
		c3.4,0,6.2,2.7,6.2,6.2c0,1-0.2,2-0.7,2.9c0,0,0,0,0,0.1l-5.4,9.6l-5.5-9.7c0,0,0,0,0,0c-1.5-3-0.3-6.8,2.7-8.3
		C53,2.9,53.9,2.7,54.9,2.7z"/>
	<path class="st0" d="M2.4,38.4l9.1,16c0.3,0.6,1,0.7,1.6,0.4c0.2-0.1,0.3-0.3,0.4-0.4l9.1-16.1c0,0,0.1-0.1,0.1-0.1
		c3.3-5.6,1.4-12.9-4.2-16.3S5.6,20.5,2.3,26.2c-2.2,3.7-2.2,8.3,0,12C2.3,38.3,2.4,38.4,2.4,38.4z M12.5,22.6
		c5.3,0,9.5,4.2,9.6,9.5c0,1.6-0.4,3.1-1.1,4.5c0,0,0,0-0.1,0.1l-8.4,14.8L4,36.5c0,0,0,0,0,0C1.6,31.8,3.4,26,8.1,23.7
		C9.5,23,11,22.6,12.5,22.6L12.5,22.6z"/>
	<path class="st0" d="M13,61.4l-2.5,0c-0.6,0-1.2,0.5-1.1,1.2c0,0.6,0.5,1.2,1.2,1.1h0l2.4,0c13.2,0.4,17.3-4,23.7-18.2
		c3.1-7.7,10.9-12.5,19.2-11.8c0.6,0.1,1.2-0.4,1.3-1c0.1-0.6-0.4-1.2-1-1.3c-0.1,0-14.9-1.6-21.5,13.2C28.2,58.9,24.6,61.7,13,61.4
		z"/>
	<path class="st0" d="M12.4,35.9c2.2,0,4-1.8,4-4c0-2.2-1.8-4-4-4s-4,1.8-4,4c0,0,0,0,0,0C8.4,34.1,10.2,35.9,12.4,35.9z M12.4,30.2
		c0.9,0,1.7,0.7,1.7,1.7c0,0.9-0.7,1.7-1.7,1.7c-0.9,0-1.7-0.7-1.7-1.7c0,0,0,0,0,0C10.7,30.9,11.5,30.2,12.4,30.2L12.4,30.2z"/>
	<path class="st0" d="M54.9,12.5c2,0,3.7-1.6,3.7-3.6c0-2-1.6-3.7-3.6-3.7c-2,0-3.7,1.6-3.7,3.6c0,0,0,0,0,0
		C51.3,10.9,52.9,12.5,54.9,12.5z M54.9,7.5c0.7,0,1.4,0.6,1.4,1.3c0,0.7-0.6,1.4-1.3,1.4c-0.7,0-1.4-0.6-1.4-1.3c0,0,0,0,0,0
		C53.6,8.1,54.2,7.5,54.9,7.5L54.9,7.5z"/>
</g>
</svg>
